<svg width="331" height="331" viewBox="0 0 331 331" fill="none" xmlns="http://www.w3.org/2000/svg">
<g filter="url(#filter0_f_4007_1567)">
<circle cx="165.5" cy="165.5" r="115.5" fill="#FA6F24" fill-opacity="0.13"/>
</g>
<g clip-path="url(#clip0_4007_1567)">
<path d="M298.75 251H74.2564C67.4981 251 62 245.626 62 239.015V230.281C62 228.373 63.5563 226.828 65.4713 226.828H127.155C128.099 226.828 128.997 227.211 129.652 227.885L134.14 232.516H167.997C169.919 232.516 171.465 234.064 171.465 235.969C171.465 237.877 169.919 239.421 167.997 239.421H132.669C131.725 239.421 130.826 239.038 130.172 238.364L125.684 233.733H68.9458V239.012C68.9458 241.81 71.328 244.088 74.2597 244.088H298.753C301.682 244.088 304.067 241.81 304.067 239.012V233.733H176.782C174.861 233.733 173.314 232.185 173.314 230.281C173.314 228.373 174.861 226.828 176.782 226.828H307.532C309.454 226.828 311 228.376 311 230.281V239.015C311 245.626 305.505 251 298.75 251Z" fill="#505053"/>
<path d="M82.627 80.0464H191.773C190.351 82.4681 188.696 84.7885 186.959 86.9517H82.627C79.6427 86.9517 77.1157 89.4651 77.1157 92.4367V166.176H70.1699V92.4367C70.1699 85.6066 75.7601 80.0464 82.627 80.0464Z" fill="#505053"/>
<path d="M272.878 80.0464V86.9517H222.912L222.178 80.0464H272.878Z" fill="#505053"/>
<path d="M302.833 138.224V230.281C302.833 232.186 301.284 233.733 299.362 233.733C297.444 233.733 295.894 232.186 295.894 230.281V138.224H302.833Z" fill="#505053"/>
<path d="M181.728 92.8425C178.822 95.8272 176.104 98.2162 174.262 99.7511H73.6445C71.7262 99.7511 70.1699 98.2031 70.1699 96.2952C70.1699 94.3905 71.7262 92.8425 73.6445 92.8425H181.728Z" fill="#505053"/>
<path d="M285.901 96.2952C285.901 98.2031 284.355 99.7511 282.433 99.7511H224.274L223.537 92.8425H282.437C284.355 92.8425 285.901 94.3905 285.901 96.2952Z" fill="#505053"/>
<path d="M155.925 161.781L132.702 163.784L146.489 210.449C147.574 214.124 150.96 216.582 154.718 216.582C155.116 216.582 155.517 216.555 155.919 216.496L162.187 215.619C167.418 214.886 170.748 209.673 169.195 204.653L155.925 161.781Z" fill="#F16A21"/>
<path d="M218.513 145.853L216.348 145.83L219.03 174.636C219.079 175.166 218.915 175.68 218.573 176.086C218.227 176.492 217.743 176.737 217.21 176.776C217.161 176.78 217.112 176.783 217.062 176.783C216.062 176.783 215.193 176.014 215.095 175.009L206.056 83.486C205.971 82.6351 206.375 82.0493 206.625 81.7777C206.872 81.506 207.418 81.0479 208.28 81.0479C209.442 81.0479 210.396 81.9151 210.505 83.0638L213.255 112.603L215.42 112.096C215.97 111.968 217.391 111.683 219.273 111.644L216.559 82.5075C216.368 80.4522 215.417 78.5508 213.881 77.16C212.344 75.7658 210.357 75 208.28 75C205.938 75 203.694 75.9883 202.121 77.7163C200.548 79.441 199.778 81.7613 200.005 84.0783L209.044 175.601C209.251 177.696 210.258 179.597 211.88 180.952C213.344 182.176 215.16 182.831 217.052 182.831C217.256 182.831 217.46 182.824 217.668 182.808C219.839 182.644 221.81 181.643 223.215 179.99C224.62 178.334 225.285 176.236 225.084 174.08L222.419 145.447C220.557 145.814 219.119 145.853 218.612 145.853C218.573 145.853 218.54 145.853 218.513 145.853Z" fill="#F16A21"/>
<path d="M230.187 120.061C229.529 119.174 228.726 118.294 227.742 117.473C224.225 114.54 220.201 113.905 217.306 113.922C217.243 113.922 217.187 113.925 217.125 113.925C215.193 113.954 213.795 114.265 213.453 114.35L216.22 143.981C216.24 143.981 216.263 143.981 216.289 143.981C216.703 143.978 218.161 143.938 220.06 143.52C223.222 142.826 227.617 141.088 230.503 136.742C231.227 135.652 231.753 134.552 232.135 133.489C233.764 128.976 233.053 123.923 230.187 120.061Z" fill="#F16A21"/>
<path d="M258.572 154.159C258.24 154.159 257.898 154.103 257.566 153.989L238.288 147.267C236.702 146.714 235.869 144.989 236.425 143.412C236.981 141.834 238.715 141.006 240.301 141.559L259.579 148.281C261.165 148.834 261.998 150.559 261.442 152.136C261.001 153.38 259.826 154.159 258.572 154.159Z" fill="#F16A21"/>
<path d="M241.647 133.139C240.124 133.139 238.811 132.003 238.63 130.465C238.436 128.806 239.63 127.304 241.298 127.114L261.389 124.794C263.057 124.6 264.567 125.788 264.758 127.448C264.952 129.107 263.758 130.609 262.09 130.799L241.999 133.119C241.881 133.132 241.762 133.139 241.647 133.139Z" fill="#F16A21"/>
<path d="M239.295 120.473C238.278 120.473 237.281 119.966 236.705 119.04C235.82 117.62 236.261 115.758 237.689 114.877L254.16 104.739C255.588 103.858 257.46 104.297 258.345 105.717C259.231 107.137 258.786 109 257.362 109.88L240.89 120.019C240.394 120.329 239.841 120.473 239.295 120.473Z" fill="#F16A21"/>
<path d="M173.66 181.967H169.08C167.672 181.967 166.53 180.831 166.53 179.43C166.53 178.03 167.672 176.894 169.08 176.894H173.66C174.394 176.894 175.055 176.554 175.479 175.958C175.904 175.363 176.006 174.626 175.762 173.939L173.061 166.317C172.594 164.998 173.291 163.548 174.617 163.084C175.943 162.619 177.401 163.309 177.868 164.631L180.569 172.253C181.359 174.479 181.01 176.96 179.642 178.887C178.266 180.818 176.032 181.967 173.66 181.967Z" fill="#F16A21"/>
<path d="M155.958 159.821L135.035 161.657C130.05 162.095 125.658 158.423 125.23 153.465L125.078 151.698C120.403 151.076 116.734 147.191 116.54 142.371L116.247 135.151C116.244 135.037 116.241 134.919 116.241 134.804C116.241 130.795 119.097 127.415 122.92 126.62L122.831 125.579C122.413 120.732 125.947 116.435 130.804 115.875L151.967 113.444L155.958 159.821Z" fill="#F16A21"/>
<path d="M158.784 158.76C162.637 158.361 167.191 158.286 172.225 158.999C188.512 161.31 199.594 170.424 204.575 175.169C201.973 145.447 199.37 115.725 196.771 85.9993C193.457 90.4337 188.318 96.2623 180.836 101.607C170.57 108.941 160.551 112.036 154.28 113.444C155.78 128.55 157.281 143.657 158.784 158.76Z" fill="#F16A21"/>
<path d="M135.2 122.018L142.402 121.292L142.126 118.595L135.404 119.272L134.568 119.357L133.992 119.416C132.136 119.603 130.807 119.894 130.011 120.284C129.215 120.676 128.514 121.239 127.915 121.969C127.181 122.863 126.691 123.772 126.447 124.692C126.204 125.612 126.332 127.13 126.457 128.364L129.168 128.089C129.073 127.153 128.941 125.903 129.149 125.222C129.353 124.541 129.813 123.952 130.524 123.458C131.238 122.964 131.867 122.633 132.409 122.467C132.956 122.3 133.66 122.172 134.528 122.084L135.2 122.018Z" fill="white"/>
<path d="M149.552 204.149L147.762 197.171L145.123 197.842L146.795 204.352L147.002 205.16L147.143 205.716C147.604 207.516 148.091 208.776 148.598 209.503C149.104 210.229 149.769 210.835 150.585 211.316C151.582 211.905 152.559 212.252 153.51 212.356C154.461 212.461 155.951 212.108 157.159 211.803L156.484 209.179C155.566 209.411 154.342 209.725 153.638 209.624C152.931 209.522 152.279 209.159 151.681 208.531C151.082 207.902 150.661 207.333 150.414 206.822C150.167 206.312 149.933 205.634 149.72 204.797L149.552 204.149Z" fill="white"/>
<path d="M159.653 118.955C164.164 118.428 178.7 116.147 188.802 103.989C192.043 100.085 194.046 96.1086 195.31 92.7966" stroke="white" stroke-width="7.1854" stroke-miterlimit="10" stroke-linecap="round" stroke-linejoin="round"/>
<path d="M294.92 109.114V132.324H303.702V110.672V107.978V106.123C303.702 100.14 303.199 95.814 302.199 93.1435C301.195 90.473 299.609 88.0611 297.447 85.9077C294.802 83.2732 292.035 81.4209 289.149 80.3442C286.26 79.2675 281.325 79.1824 277.314 79.1824V87.9138C280.361 87.9138 284.437 87.904 286.563 88.7811C288.689 89.6581 290.436 91.3108 291.795 93.7457C293.157 96.1805 294.022 98.2947 294.377 100.085C294.743 101.878 294.92 104.172 294.92 106.964V109.114Z" fill="#F16A21"/>
<path d="M77.8985 193.781V170.571H69.1167V192.223V194.917V196.769C69.1167 202.751 69.6201 207.078 70.6204 209.748C71.6239 212.419 73.2098 214.831 75.3716 216.984C78.017 219.619 80.7841 221.471 83.6697 222.548C86.5586 223.624 91.494 223.709 95.5049 223.709V214.978C92.4581 214.978 88.3814 214.988 86.2559 214.111C84.1303 213.234 82.3832 211.581 81.0243 209.146C79.6621 206.711 78.7968 204.597 78.4414 202.807C78.0762 201.014 77.8985 198.719 77.8985 195.928V193.781Z" fill="#F16A21"/>
</g>
<defs>
<filter id="filter0_f_4007_1567" x="0.0999985" y="0.0999985" width="330.8" height="330.8" filterUnits="userSpaceOnUse" color-interpolation-filters="sRGB">
<feFlood flood-opacity="0" result="BackgroundImageFix"/>
<feBlend mode="normal" in="SourceGraphic" in2="BackgroundImageFix" result="shape"/>
<feGaussianBlur stdDeviation="24.95" result="effect1_foregroundBlur_4007_1567"/>
</filter>
<clipPath id="clip0_4007_1567">
<rect width="249" height="176" fill="white" transform="translate(62 75)"/>
</clipPath>
</defs>
</svg>
