
<svg width="249" height="176" viewBox="0 0 249 176" fill="none" xmlns="http://www.w3.org/2000/svg">
<g filter="url(#filter0_f_4195_1732)">
<circle cx="103.5" cy="90.5" r="115.5" fill="#FA6F24" fill-opacity="0.13"/>
</g>
<path d="M236.75 176H12.2564C5.49809 176 0 170.626 0 164.015V155.281C0 153.373 1.55631 151.828 3.47127 151.828H65.1545C66.0988 151.828 66.9971 152.211 67.6518 152.885L72.1398 157.516H105.997C107.919 157.516 109.465 159.064 109.465 160.969C109.465 162.877 107.919 164.421 105.997 164.421H70.6691C69.7247 164.421 68.8265 164.038 68.1717 163.364L63.6837 158.733H6.94582V164.012C6.94582 166.81 9.328 169.088 12.2597 169.088H236.753C239.682 169.088 242.067 166.81 242.067 164.012V158.733H114.782C112.861 158.733 111.314 157.185 111.314 155.281C111.314 153.373 112.861 151.828 114.782 151.828H245.532C247.454 151.828 249 153.376 249 155.281V164.015C249 170.626 243.505 176 236.75 176Z" fill="#505053"/>
<path d="M20.627 5.04639H129.773C128.351 7.46815 126.696 9.78846 124.959 11.9517H20.627C17.6427 11.9517 15.1157 14.4651 15.1157 17.4367V91.1761H8.16992V17.4367C8.16992 10.6066 13.7601 5.04639 20.627 5.04639Z" fill="#505053"/>
<path d="M210.879 5.04639V11.9517H160.912L160.178 5.04639H210.879Z" fill="#505053"/>
<path d="M240.834 63.2244V155.281C240.834 157.186 239.284 158.733 237.362 158.733C235.444 158.733 233.894 157.186 233.894 155.281V63.2244H240.834Z" fill="#505053"/>
<path d="M119.728 17.8425C116.822 20.8272 114.104 23.2162 112.262 24.7511H11.6445C9.72623 24.7511 8.16992 23.2031 8.16992 21.2952C8.16992 19.3905 9.72623 17.8425 11.6445 17.8425H119.728Z" fill="#505053"/>
<path d="M223.902 21.2952C223.902 23.2031 222.355 24.7511 220.434 24.7511H162.274L161.537 17.8425H220.437C222.355 17.8425 223.902 19.3905 223.902 21.2952Z" fill="#505053"/>
<path d="M93.9248 86.781L70.7019 88.7839L84.4883 135.449C85.5741 139.124 88.9598 141.582 92.7173 141.582C93.1154 141.582 93.5168 141.555 93.9183 141.496L100.186 140.619C105.418 139.886 108.748 134.673 107.195 129.653L93.9248 86.781Z" fill="#F16A21"/>
<path d="M156.513 70.8529L154.348 70.83L157.029 99.6359C157.079 100.166 156.914 100.68 156.572 101.086C156.227 101.492 155.743 101.737 155.21 101.776C155.161 101.78 155.111 101.783 155.062 101.783C154.062 101.783 153.193 101.014 153.094 100.009L144.056 8.48599C143.97 7.6351 144.375 7.04929 144.625 6.77766C144.872 6.50603 145.418 6.04786 146.28 6.04786C147.441 6.04786 148.396 6.91512 148.504 8.06382L151.255 37.6028L153.42 37.0955C153.969 36.9679 155.391 36.6832 157.273 36.6439L154.558 7.50747C154.368 5.45224 153.417 3.55083 151.88 2.15995C150.344 0.765801 148.356 0 146.28 0C143.937 0 141.693 0.988341 140.121 2.7163C138.548 4.44099 137.778 6.7613 138.005 9.07834L147.043 100.601C147.251 102.696 148.257 104.597 149.88 105.952C151.344 107.176 153.16 107.831 155.052 107.831C155.256 107.831 155.46 107.824 155.667 107.808C157.839 107.644 159.81 106.643 161.215 104.99C162.62 103.334 163.284 101.236 163.084 99.0796L160.418 70.4471C158.556 70.8137 157.118 70.8529 156.612 70.8529C156.572 70.8529 156.539 70.8529 156.513 70.8529Z" fill="#F16A21"/>
<path d="M168.187 45.0612C167.529 44.1743 166.726 43.294 165.742 42.4725C162.225 39.5402 158.201 38.9053 155.305 38.9217C155.243 38.9217 155.187 38.925 155.124 38.925C153.193 38.9544 151.795 39.2653 151.452 39.3504L154.22 68.981C154.239 68.981 154.262 68.981 154.289 68.981C154.703 68.9777 156.161 68.9385 158.059 68.5196C161.221 67.8258 165.617 66.088 168.503 61.7419C169.227 60.6521 169.753 59.5525 170.135 58.4889C171.763 53.9759 171.053 48.9229 168.187 45.0612Z" fill="#F16A21"/>
<path d="M196.572 79.159C196.24 79.159 195.898 79.1033 195.565 78.9888L176.288 72.2668C174.702 71.7137 173.869 69.989 174.425 68.4116C174.981 66.8342 176.715 66.0062 178.301 66.5593L197.579 73.2813C199.165 73.8344 199.997 75.5591 199.441 77.1365C199 78.3801 197.826 79.159 196.572 79.159Z" fill="#F16A21"/>
<path d="M179.647 58.1388C178.124 58.1388 176.811 57.0032 176.63 55.465C176.436 53.8058 177.63 52.3036 179.298 52.1138L199.389 49.7935C201.057 49.6004 202.567 50.7884 202.758 52.4476C202.952 54.1069 201.758 55.609 200.09 55.7988L179.999 58.1191C179.881 58.1322 179.762 58.1388 179.647 58.1388Z" fill="#F16A21"/>
<path d="M177.294 45.4735C176.278 45.4735 175.281 44.9662 174.705 44.04C173.82 42.6197 174.261 40.7576 175.689 39.8772L192.16 29.7386C193.588 28.8582 195.46 29.2967 196.345 30.7171C197.23 32.1374 196.786 33.9995 195.361 34.8799L178.89 45.0186C178.393 45.3295 177.841 45.4735 177.294 45.4735Z" fill="#F16A21"/>
<path d="M111.659 106.967H107.079C105.671 106.967 104.529 105.831 104.529 104.43C104.529 103.03 105.671 101.894 107.079 101.894H111.659C112.393 101.894 113.054 101.554 113.479 100.958C113.903 100.363 114.005 99.6262 113.762 98.9389L111.061 91.3169C110.593 89.998 111.291 88.5482 112.617 88.0835C113.943 87.6188 115.4 88.3093 115.868 89.6315L118.569 97.2535C119.359 99.4789 119.01 101.96 117.641 103.887C116.266 105.818 114.032 106.967 111.659 106.967Z" fill="#F16A21"/>
<path d="M93.9577 84.8206L73.0347 86.6566C68.0499 87.0951 63.6573 83.4232 63.2296 78.4651L63.0782 76.6979C58.4027 76.0761 54.734 72.1914 54.5399 67.3708L54.2471 60.1514C54.2438 60.0368 54.2405 59.919 54.2405 59.8045C54.2405 55.7955 57.0965 52.4148 60.9198 51.6195L60.8309 50.5788C60.4131 45.732 63.9469 41.4351 68.8033 40.8754L89.9665 38.4438L93.9577 84.8206Z" fill="#F16A21"/>
<path d="M96.784 83.7602C100.637 83.3609 105.191 83.2856 110.225 83.9991C126.512 86.3096 137.594 95.4239 142.575 100.169C139.972 70.447 137.37 40.7248 134.77 10.9993C131.457 15.4337 126.318 21.2623 118.836 26.6066C108.57 33.9406 98.5509 37.0365 92.2795 38.4437C93.7799 53.5503 95.2803 68.6569 96.784 83.7602Z" fill="#F16A21"/>
<path d="M73.1991 47.0182L80.4016 46.2916L80.1252 43.595L73.4031 44.2724L72.5674 44.3575L71.9916 44.4164C70.1359 44.6029 68.8066 44.8942 68.0103 45.2837C67.2141 45.6764 66.5132 46.2393 65.9144 46.9691C65.1807 47.8625 64.6904 48.7723 64.4469 49.6919C64.2034 50.6115 64.3318 52.13 64.4568 53.3638L67.168 53.0889C67.0726 52.153 66.941 50.9028 67.1483 50.2221C67.3523 49.5414 67.8129 48.9523 68.5236 48.4581C69.2376 47.964 69.8661 47.6334 70.409 47.4665C70.9551 47.2996 71.6593 47.172 72.5279 47.0836L73.1991 47.0182Z" fill="white"/>
<path d="M87.5515 129.149L85.7616 122.171L83.1228 122.842L84.7943 129.352L85.0016 130.16L85.143 130.716C85.6037 132.516 86.0907 133.776 86.5974 134.503C87.1041 135.229 87.7687 135.835 88.5847 136.316C89.5817 136.905 90.5589 137.252 91.5098 137.356C92.4607 137.461 93.9512 137.108 95.1587 136.803L94.4842 134.179C93.5662 134.411 92.3422 134.725 91.6381 134.624C90.9307 134.522 90.2792 134.159 89.6804 133.531C89.0815 132.902 88.6604 132.333 88.4136 131.822C88.1668 131.312 87.9332 130.634 87.7194 129.797L87.5515 129.149Z" fill="white"/>
<path d="M97.6526 43.9549C102.164 43.428 116.7 41.147 126.801 28.9891C130.042 25.0848 132.046 21.1086 133.31 17.7966" stroke="white" stroke-width="7.1854" stroke-miterlimit="10" stroke-linecap="round" stroke-linejoin="round"/>
<path d="M232.92 34.1141V57.3237H241.702V35.6718V32.9784V31.1229C241.702 25.1404 241.199 20.814 240.199 18.1435C239.195 15.473 237.609 13.0611 235.447 10.9077C232.802 8.27319 230.035 6.42087 227.149 5.34416C224.26 4.26746 219.325 4.18237 215.314 4.18237V12.9138C218.361 12.9138 222.437 12.904 224.563 13.7811C226.689 14.6581 228.436 16.3108 229.795 18.7457C231.157 21.1805 232.022 23.2947 232.377 25.0848C232.743 26.8782 232.92 29.1723 232.92 31.9639V34.1141Z" fill="#F16A21"/>
<path d="M15.8988 118.781V95.5713H7.11694V117.223V119.917V121.769C7.11694 127.751 7.62036 132.078 8.62061 134.748C9.62415 137.419 11.2101 139.831 13.3718 141.984C16.0172 144.619 18.7843 146.471 21.6699 147.548C24.5588 148.624 29.4943 148.709 33.5051 148.709V139.978C30.4583 139.978 26.3816 139.988 24.2561 139.111C22.1306 138.234 20.3834 136.581 19.0245 134.146C17.6624 131.711 16.797 129.597 16.4417 127.807C16.0764 126.014 15.8988 123.719 15.8988 120.928V118.781Z" fill="#F16A21"/>
<defs>
<filter id="filter0_f_4195_1732" x="-61.9" y="-74.9" width="330.8" height="330.8" filterUnits="userSpaceOnUse" color-interpolation-filters="sRGB">
<feFlood flood-opacity="0" result="BackgroundImageFix"/>
<feBlend mode="normal" in="SourceGraphic" in2="BackgroundImageFix" result="shape"/>
<feGaussianBlur stdDeviation="24.95" result="effect1_foregroundBlur_4195_1732"/>
</filter>
</defs>
</svg>
