<svg width="114" height="131" viewBox="0 0 114 131" fill="none" xmlns="http://www.w3.org/2000/svg">
<g clip-path="url(#clip0_3987_697)">
<path d="M91.0315 116.316L104.684 108.737L103.509 106.47C102.983 105.455 101.725 105.076 100.729 105.633L89.6252 111.818L88.3591 112.48L87.4878 112.935C84.6774 114.404 82.7664 115.701 81.7549 116.827C80.7433 117.953 79.997 119.29 79.5117 120.834C78.9186 122.722 78.7202 124.475 78.9165 126.092C79.1127 127.711 79.7986 129.121 80.7735 131.002L84.8758 128.857C84.1339 127.428 83.6141 126.445 83.5084 125.233C83.4027 124.02 83.7543 122.795 84.5674 121.559C85.3784 120.323 86.1613 119.399 86.9162 118.79C87.6711 118.178 88.7042 117.533 90.0156 116.846L91.0315 116.316Z" fill="#F16A21"/>
<path d="M67.0713 109.045C64.015 112.56 60.6007 114.415 57.0009 114.415C53.0841 114.415 49.3851 112.223 46.1305 108.079C34.4058 105.577 23.9991 99.1321 16.4415 89.5962C16.2474 89.3494 16.0576 89.1004 15.8656 88.8515C15.128 89.3234 14.4205 89.8062 13.7433 90.3062C12.5937 91.1548 10.9782 90.9059 10.1327 89.752C9.28724 88.5982 9.53528 86.9768 10.6849 86.1282C11.4009 85.6 12.1494 85.0869 12.9237 84.5868C8.29294 77.1075 5.6659 68.6583 5.23237 59.9018H2.80808C1.38241 59.9018 0.226339 58.7414 0.226339 57.3105C0.226339 55.8796 1.38241 54.7193 2.80808 54.7193H5.23453C5.29061 53.5893 5.37904 52.4592 5.50629 51.3249C6.43374 43.155 9.20312 35.4916 13.5556 28.8024C12.8072 28.337 12.0825 27.8607 11.388 27.3693C10.2212 26.5467 9.93861 24.9296 10.7582 23.7585C11.5778 22.5873 13.189 22.3037 14.3558 23.1263C15.0719 23.6307 15.8225 24.1222 16.6033 24.5984C18.9823 21.6413 21.702 18.9267 24.7389 16.5021C31.1102 11.4148 38.4176 7.97067 46.1542 6.31893C49.4024 2.19285 53.0949 0.00857595 57.0031 0.00857595C60.9199 0.00857595 64.6189 2.20151 67.8736 6.34491C79.5055 8.82792 89.8411 15.1924 97.3835 24.6071C98.1665 24.1308 98.9171 23.6372 99.6331 23.1328C100.8 22.3081 102.411 22.5895 103.231 23.7606C104.053 24.9318 103.772 26.5489 102.605 27.3715C101.906 27.8651 101.18 28.3435 100.429 28.8111C105.502 36.5935 108.358 45.4886 108.78 54.7171H111.42C112.835 54.7171 113.98 55.8579 114.002 57.2716C114.041 44.3391 109.747 31.8678 101.609 21.598C92.1273 9.64188 78.578 2.10409 63.4521 0.374425C48.3261 -1.35308 33.4353 2.93104 21.5209 12.4431C9.60645 21.9552 2.09632 35.5566 0.373004 50.7382C-1.35031 65.9199 2.92024 80.8656 12.3974 92.8239C21.8746 104.782 35.4239 112.32 50.5498 114.05C52.7455 114.301 54.9347 114.424 57.111 114.424C61.4807 114.424 65.7944 113.922 69.9895 112.941C69.4848 111.222 68.6824 110.259 67.0713 109.045Z" fill="#505053"/>
<path d="M111.418 59.9017H108.759C108.703 60.9646 108.618 62.0319 108.498 63.0991C107.644 70.6304 105.219 77.7309 101.436 84.0369L101.432 84.8184C102.085 85.2492 102.717 85.6908 103.328 86.1411C104.475 86.9897 104.721 88.6133 103.873 89.765C103.367 90.4534 102.586 90.8192 101.792 90.8192C101.663 90.8192 101.533 90.8084 101.404 90.7889C101.41 91.6722 101.443 92.3649 101.533 92.945C108.194 84.6171 112.397 74.5573 113.631 63.6858C113.87 61.5686 113.991 59.4536 114 57.3538C113.976 58.7652 112.829 59.9017 111.418 59.9017Z" fill="#505053"/>
<path d="M57.1025 109.237C60.1782 109.237 63.2236 108.963 66.213 108.426C66.0448 108.309 65.8701 108.188 65.6867 108.062L62.7879 106.079C60.8899 108.131 58.9186 109.233 56.999 109.233C52.7996 109.233 48.2832 103.882 44.9185 94.9152C43.2793 90.5467 41.9593 85.5395 40.993 80.1016C40.1605 80.2358 39.3344 80.3808 38.517 80.5367C38.5105 80.5389 38.5019 80.5388 38.4954 80.541C38.3078 80.5757 38.1223 80.6103 37.9346 80.6493C37.8915 80.6579 37.8505 80.6666 37.8074 80.6731C37.6585 80.6969 37.5507 80.7142 37.4385 80.7402C37.3782 80.7532 37.3178 80.7662 37.2574 80.7748C37.2487 80.777 37.2401 80.7791 37.2315 80.7791C36.7915 80.8701 36.3537 80.9632 35.918 81.0606C36.9403 86.8038 38.3401 92.1053 40.0828 96.7466C41.8342 101.41 43.8724 105.213 46.1263 108.084C47.7698 108.434 49.4392 108.709 51.1302 108.902C53.1317 109.125 55.1247 109.237 57.1025 109.237Z" fill="#505053"/>
<path d="M77.7411 37.2926C77.6872 37.3056 77.6333 37.3186 77.5794 37.3273C77.355 37.3684 77.135 37.4095 76.8978 37.455L76.2292 37.5827C75.3621 37.7472 74.4864 37.8988 73.6064 38.0395C74.3355 43.1224 74.7711 48.5214 74.8898 54.0871L75.746 54.7149H80.0684C79.967 48.6101 79.4989 42.6743 78.6858 37.0913C78.3946 37.1541 78.1035 37.2147 77.8101 37.2732C77.7756 37.2818 77.7584 37.2883 77.7411 37.2926Z" fill="#505053"/>
<path d="M36.1787 31.9739C36.526 32.0496 36.8754 32.1232 37.2269 32.1947C37.2636 32.2033 37.3003 32.2098 37.3391 32.2206L37.4318 32.2445C37.5181 32.2618 37.6044 32.2791 37.6885 32.2964C37.7661 32.3137 37.8654 32.3332 37.902 32.3375C37.9689 32.3462 38.0358 32.3549 38.1005 32.3679C38.3183 32.4111 38.5297 32.4523 38.7475 32.4934C39.5779 32.6514 40.4148 32.7943 41.2581 32.9307C44.5408 15.8592 51.0113 5.19326 57.0009 5.19326C61.2003 5.19326 65.7167 10.5446 69.0814 19.5112C70.5804 23.503 71.8098 28.0296 72.748 32.9307C73.5913 32.7965 74.4303 32.6514 75.2629 32.4934L75.9207 32.3679C76.145 32.3246 76.3542 32.2856 76.5656 32.2466C76.6346 32.2293 76.708 32.2141 76.7921 32.1968C77.1372 32.1276 77.4801 32.054 77.8231 31.9804C76.8266 26.7719 75.5152 21.9487 73.9149 17.6841C72.1635 13.0211 70.1231 9.2176 67.8714 6.34709C66.2279 5.9964 64.5585 5.72147 62.8675 5.5288C60.8724 5.3015 58.8795 5.18677 56.8995 5.18677C53.2609 5.18677 49.6611 5.56777 46.152 6.31895C43.8916 9.18946 41.8426 13.0038 40.0869 17.6819C38.4865 21.9444 37.1752 26.7654 36.1787 31.9739Z" fill="#505053"/>
<path d="M40.4021 38.0417C39.5242 37.9009 38.6507 37.7494 37.7836 37.5849C37.5809 37.5459 37.3846 37.5069 37.1927 37.4701C36.9748 37.4398 36.7893 37.4009 36.6362 37.3684C36.5737 37.3554 36.5111 37.3424 36.4486 37.3316C36.386 37.3208 36.3235 37.3078 36.2609 37.2926L36.1488 37.2645C35.8705 37.2082 35.5944 37.1498 35.3205 37.0913C34.5095 42.6743 34.0394 48.6101 33.938 54.717H39.1036C39.205 48.7509 39.6644 43.1614 40.4021 38.0417Z" fill="#505053"/>
<path d="M36.4594 75.6442C36.6406 75.6074 36.8067 75.5793 36.962 75.5554C37.1626 75.5143 37.361 75.4775 37.5637 75.4407C38.4372 75.274 39.3194 75.1203 40.208 74.9753C39.5761 70.1738 39.2029 65.1103 39.108 59.9019H33.9424C34.0416 65.4286 34.4428 70.8124 35.1265 75.9235C35.4565 75.852 35.7886 75.7806 36.1208 75.7135C36.2157 75.6875 36.3322 75.6637 36.4594 75.6442Z" fill="#505053"/>
<path d="M62.8674 5.52659C64.5584 5.71926 66.2278 5.99418 67.8713 6.34488C64.6166 2.20148 60.9176 0.00854492 57.0008 0.00854492C53.0926 0.00854492 49.4022 2.19282 46.1519 6.3189C49.661 5.56772 53.2608 5.18672 56.8994 5.18672C58.8794 5.18455 60.8723 5.29712 62.8674 5.52659Z" fill="#505053"/>
<path d="M57.1022 109.237C55.1223 109.237 53.1293 109.125 51.1342 108.895C49.4433 108.703 47.7739 108.428 46.1304 108.077C49.385 112.221 53.084 114.413 57.0009 114.413C60.6006 114.413 64.0149 112.558 67.0712 109.043C66.808 108.843 66.5212 108.638 66.2127 108.424C63.2255 108.963 60.1779 109.237 57.1022 109.237Z" fill="#505053"/>
<path d="M52.1332 73.7715C48.0503 73.949 44.0623 74.3516 40.208 74.9751C40.4366 76.7199 40.6998 78.4301 40.9974 80.0992C44.6382 79.5103 48.4105 79.1272 52.2777 78.954L52.1332 73.7715Z" fill="#505053"/>
<path d="M35.124 75.9233C26.4276 77.811 18.8312 80.7811 12.9258 84.5868C13.8295 86.0481 14.8109 87.4703 15.8677 88.8515C21.1649 85.4679 28.0215 82.8009 35.9242 81.0561C35.6223 79.3805 35.357 77.6682 35.124 75.9233Z" fill="#505053"/>
<path d="M10.685 86.1282C9.53544 86.9768 9.28956 88.5983 10.1329 89.7521C10.9784 90.9059 12.5938 91.1527 13.7434 90.3063C14.4185 89.8084 15.1281 89.3235 15.8658 88.8515C14.8111 87.4704 13.8297 86.046 12.9238 84.5869C12.1495 85.087 11.4011 85.6 10.685 86.1282Z" fill="#505053"/>
<path d="M101.404 90.7888C101.533 90.8083 101.663 90.8192 101.792 90.8192C102.584 90.8192 103.367 90.4533 103.874 89.7649C104.719 88.6132 104.475 86.9896 103.328 86.141C102.717 85.6908 102.086 85.2492 101.432 84.8184L101.404 89.9879C101.402 90.2715 101.402 90.5356 101.404 90.7888Z" fill="#505053"/>
<path d="M37.5634 75.4405C37.3607 75.4773 37.1644 75.5141 36.9617 75.5552C36.8064 75.579 36.6424 75.6071 36.4591 75.6439C36.3319 75.6613 36.2154 75.6872 36.1183 75.7111C35.7862 75.7803 35.454 75.8496 35.124 75.921C35.357 77.6659 35.6223 79.3782 35.9221 81.0538C36.3577 80.9585 36.7934 80.8633 37.2356 80.7723C37.2442 80.7702 37.2528 80.768 37.2615 80.768C37.3218 80.7593 37.3822 80.7485 37.4426 80.7334C37.5526 80.7074 37.6626 80.6901 37.8114 80.6663C37.8546 80.6598 37.8977 80.6511 37.9387 80.6424C38.1263 80.6035 38.3118 80.5688 38.4995 80.5342C38.506 80.532 38.5146 80.532 38.5211 80.5299C39.3385 80.374 40.1646 80.229 40.9971 80.0948C40.7016 78.4257 40.4385 76.7155 40.2077 74.9707C39.3169 75.1201 38.4369 75.2738 37.5634 75.4405Z" fill="#505053"/>
<path d="M78.6836 37.0937C87.1212 35.2947 94.5666 32.4545 100.429 28.8112C99.5403 27.4474 98.587 26.1182 97.5625 24.828C97.5042 24.7544 97.4417 24.6808 97.3835 24.6072C92.1272 27.8111 85.4367 30.3352 77.8252 31.9761C78.1423 33.6452 78.4291 35.351 78.6836 37.0937Z" fill="#505053"/>
<path d="M57.0055 39.3362C62.6823 39.3362 68.2513 38.9011 73.6046 38.0417C73.3544 36.2969 73.0697 34.591 72.7505 32.9285C67.6819 33.7403 62.3976 34.1516 57.0055 34.1516C51.6113 34.1516 46.3248 33.7403 41.2606 32.9285C40.9435 34.5737 40.6566 36.2796 40.4043 38.0417C45.7533 38.9011 51.3244 39.3362 57.0055 39.3362Z" fill="#505053"/>
<path d="M36.179 31.9738C28.5675 30.335 21.8748 27.8087 16.6013 24.5962C15.5121 25.9492 14.4963 27.352 13.5537 28.8002C19.4333 32.4544 26.8852 35.2967 35.3184 37.0913C35.5729 35.3487 35.8598 33.6428 36.179 31.9738Z" fill="#505053"/>
<path d="M100.427 28.811C101.18 28.3434 101.906 27.865 102.603 27.3714C103.77 26.5466 104.05 24.9317 103.229 23.7606C102.407 22.5894 100.796 22.308 99.6309 23.1328C98.9149 23.6393 98.1643 24.1307 97.3813 24.607C97.4417 24.6806 97.5021 24.7542 97.5604 24.8278C98.5849 26.118 99.5382 27.4494 100.427 28.811Z" fill="#505053"/>
<path d="M14.3557 23.1265C13.1888 22.3039 11.5776 22.5874 10.758 23.7586C9.93844 24.9297 10.221 26.5468 11.3878 27.3695C12.0845 27.8609 12.8092 28.3371 13.5555 28.8025C14.498 27.3543 15.5139 25.9515 16.6031 24.5985C15.8223 24.1223 15.0717 23.6309 14.3557 23.1265Z" fill="#505053"/>
<path d="M36.2607 37.2927C36.3232 37.3079 36.3858 37.3209 36.4483 37.3317C36.513 37.3425 36.5756 37.3555 36.636 37.3685C36.7891 37.401 36.9746 37.4399 37.1925 37.4702C37.3866 37.5092 37.5807 37.546 37.7834 37.585C38.6505 37.7495 39.524 37.901 40.4018 38.0417C40.6563 36.2818 40.941 34.5738 41.2581 32.9285C40.4148 32.7943 39.5779 32.6493 38.7475 32.4912C38.5319 32.4501 38.3183 32.409 38.1005 32.3657C38.0358 32.3527 37.9689 32.3419 37.9021 32.3354C37.8654 32.331 37.7683 32.3115 37.6885 32.2942C37.6044 32.2769 37.5181 32.2596 37.4319 32.2423L37.3391 32.2185C37.3025 32.2098 37.2658 32.2011 37.227 32.1925C36.8754 32.1211 36.526 32.0474 36.1787 31.9717C35.8595 33.6407 35.5727 35.3466 35.3203 37.0892C35.5964 37.1477 35.8725 37.2061 36.1485 37.2624L36.2607 37.2927Z" fill="#505053"/>
<path d="M76.7921 32.1926C76.708 32.2099 76.6368 32.2251 76.5657 32.2424C76.3543 32.2813 76.1429 32.3203 75.9208 32.3636L75.2629 32.4892C74.4325 32.6472 73.5935 32.7922 72.748 32.9264C73.0673 34.589 73.352 36.2949 73.6022 38.0397C74.4821 37.899 75.3578 37.7474 76.2249 37.5829L76.8935 37.4552C77.1308 37.4097 77.3508 37.3686 77.5751 37.3275C77.629 37.3166 77.6851 37.3058 77.7368 37.2928C77.7541 37.2885 77.7713 37.2842 77.8037 37.2777C78.097 37.2192 78.3882 37.1564 78.6794 37.0958C78.427 35.3532 78.138 33.6473 77.8209 31.9783C77.4823 32.0497 77.1394 32.1233 76.7921 32.1926Z" fill="#505053"/>
<path d="M51.609 54.717H39.1036C39.0907 55.5418 39.082 56.3731 39.082 57.2109C39.082 58.1114 39.0907 59.0077 39.1058 59.9017H51.7513L51.609 54.717Z" fill="#505053"/>
<path d="M33.9163 57.2109C33.9163 56.3774 33.925 55.5462 33.9379 54.717H5.23463C5.14835 56.4532 5.14835 58.1829 5.23463 59.9017H33.9422C33.925 59.0077 33.9163 58.1114 33.9163 57.2109Z" fill="#505053"/>
<path d="M113.998 57.2737C113.998 57.2997 113.998 57.3278 113.998 57.3538C113.998 57.3386 114 57.3256 114 57.3105C114 57.2975 113.998 57.2845 113.998 57.2737Z" fill="#505053"/>
<path d="M80.088 57.2109C80.088 57.4425 80.0858 57.6741 80.0858 57.9036L82.8056 59.9017H108.761C108.854 58.1655 108.858 56.4359 108.78 54.717H80.0664C80.0793 55.5462 80.088 56.3774 80.088 57.2109Z" fill="#505053"/>
<path d="M5.23476 54.717H2.80831C1.38263 54.717 0.226562 55.8774 0.226562 57.3083C0.226562 58.7392 1.38263 59.8995 2.80831 59.8995H5.2326C5.14848 58.185 5.14848 56.4554 5.23476 54.717Z" fill="#505053"/>
<path d="M111.418 54.717H108.778C108.856 56.4359 108.852 58.1655 108.759 59.9017H111.418C112.831 59.9017 113.976 58.763 113.998 57.3516C113.998 57.3256 113.998 57.2975 113.998 57.2715C113.978 55.8579 112.831 54.717 111.418 54.717Z" fill="#505053"/>
<path d="M80.0834 57.9058C80.0834 57.6742 80.0856 57.4447 80.0856 57.2131C80.0856 56.3796 80.077 55.5484 80.064 54.7192H75.7417L80.0834 57.9058Z" fill="#505053"/>
<path d="M39.0821 57.2109C39.0821 56.3731 39.0908 55.5418 39.1037 54.717H33.9381C33.9251 55.5462 33.9165 56.3774 33.9165 57.2109C33.9165 58.1114 33.9251 59.0077 33.9402 59.9017H39.1059C39.0908 59.0098 39.0821 58.1114 39.0821 57.2109Z" fill="#505053"/>
<path d="M100.431 100.431L101.268 101.21C102.357 102.225 102.12 104.018 100.804 104.711L77.7477 116.857C76.432 117.55 74.8273 116.73 74.6138 115.253L74.5555 114.855C73.7661 109.389 72.0967 107.369 67.7917 104.423L59.229 98.5605C57.7624 97.556 56.8651 95.9086 56.8177 94.127L55.7349 54.7344C55.7306 54.559 55.9635 54.4984 56.0455 54.6521L73.1385 87.3361C71.0291 90.0767 70.9644 94.0599 73.3499 96.9088C75.3708 99.3225 78.7506 100.232 81.7012 99.1515C86.1033 97.5409 87.9517 92.4731 85.8488 88.4531C84.5719 86.0134 82.0872 84.4634 79.3481 84.3855L62.1235 51.4504C62.0415 51.2945 62.2249 51.1365 62.3672 51.2404L94.0513 74.5119C95.4791 75.5596 96.3246 77.246 96.3159 79.0211L96.2556 90.1676C96.2297 95.0817 96.7732 97.0235 100.431 100.431Z" fill="#F16A21"/>
<path d="M71.6284 64.9922C76.1125 66.6201 83.0554 69.9972 88.0787 77.0349C88.9436 78.245 89.6726 79.4551 90.2894 80.6371" stroke="white" stroke-miterlimit="10" stroke-linecap="round" stroke-linejoin="round"/>
<path d="M89.332 115.74L102.646 108.727" stroke="white" stroke-width="2.5376" stroke-miterlimit="10" stroke-linecap="round" stroke-linejoin="round"/>
</g>
<defs>
<clipPath id="clip0_3987_697">
<rect width="114" height="131" fill="white"/>
</clipPath>
</defs>
</svg>
