<svg width="117" height="115" viewBox="0 0 117 115" fill="none" xmlns="http://www.w3.org/2000/svg">
<g clip-path="url(#clip0_3987_806)">
<path d="M113.753 77.7418H96.6897V22.4229L101.793 22.2405V19.3879C98.1561 19.4384 93.9839 19.4966 93.9839 19.4966C93.7279 19.7392 93.9839 79.0982 93.9839 79.0982C93.9839 79.8473 94.591 80.4488 95.3397 80.4488H115.109C115.857 80.4488 116.465 79.8473 116.465 79.0982V48.3194H113.751V77.7418H113.753Z" fill="#505053"/>
<path d="M3.61739 26.5311C3.61739 25.2891 4.12364 24.1695 4.94217 23.3505C5.76846 22.5375 6.90704 22.0329 8.15424 22.0329H20.6805V77.7438H23.3864V20.6745C23.3864 19.9255 22.7792 19.3181 22.0305 19.3181H8.1523C6.16221 19.3181 4.35252 20.1312 3.04131 21.4372C1.72428 22.7432 0.903809 24.5479 0.903809 26.5311V65.1303H3.61739V26.5311Z" fill="#505053"/>
<path d="M115.109 77.7417H23.3864V79.0981C23.3864 79.8472 22.7793 80.4487 22.0306 80.4487H113.755V85.8376C113.755 87.0854 113.243 88.2186 112.424 89.0434C111.6 89.8681 110.459 90.3804 109.212 90.3804H15.395V93.0875H109.21C111.206 93.0875 113.024 92.2685 114.335 90.9567C115.646 89.6449 116.465 87.8325 116.465 85.8357V79.0962C116.467 78.3491 115.858 77.7417 115.109 77.7417Z" fill="#505053"/>
<path d="M20.6786 77.7417H15.395V80.4487H22.0306C22.7793 80.4487 23.3864 79.8472 23.3864 79.0981V77.7417H20.6786Z" fill="#505053"/>
<path d="M15.395 80.4487V77.7417H3.6174H2.26158C1.51287 77.7417 0.905762 78.3491 0.905762 79.0981C0.905762 79.8472 1.51287 80.4487 2.26158 80.4487H3.6174H15.395Z" fill="#505053"/>
<path d="M71.6044 108.804L68.9102 100.522L66.4992 93.0913H58.6804H50.8694L48.4585 100.522L45.7391 108.887C45.5528 109.464 45.0233 109.823 44.4531 109.823V109.828H31.6513C31.3119 109.828 31.0054 109.97 30.7804 110.193C30.5574 110.411 30.4216 110.725 30.4216 111.057C30.4216 111.396 30.5554 111.703 30.7804 111.928C31.0035 112.151 31.3119 112.293 31.6513 112.293H51.5677H65.8028H85.7192C86.0528 112.293 86.3651 112.151 86.5901 111.928C86.8074 111.705 86.949 111.396 86.949 111.057C86.949 110.723 86.8074 110.411 86.5901 110.193C86.3671 109.97 86.0528 109.828 85.7192 109.828H72.9175C72.2832 109.828 71.7518 109.394 71.6044 108.804ZM71.4841 99.6833L73.8951 107.114H85.7173C86.7977 107.114 87.783 107.562 88.5007 108.272C89.2106 108.988 89.6587 109.974 89.6587 111.057C89.6587 112.145 89.2106 113.131 88.5007 113.841C87.785 114.558 86.7996 115 85.7173 115H65.8028H51.5677H31.6513C30.571 115 29.5856 114.558 28.8679 113.841C28.158 113.131 27.71 112.145 27.71 111.057C27.71 109.976 28.158 108.99 28.8679 108.272C29.5837 107.562 30.569 107.114 31.6513 107.114H43.4735L45.8845 99.6833L48.5787 91.4011C48.7261 90.8131 49.2576 90.3843 49.8899 90.3843H58.6804H67.4768C68.047 90.3843 68.5766 90.7491 68.7628 91.3196L71.4841 99.6833Z" fill="#505053"/>
<path d="M89.4414 13.4614H67.0908H27.9272C25.9371 13.4614 24.1274 14.2745 22.8085 15.5805C21.4914 16.8865 20.6787 18.6912 20.6787 20.6744V79.1C20.6787 79.8452 21.2839 80.4506 22.0287 80.4506H95.3399C96.0828 80.4506 96.6899 79.8491 96.6899 79.1V40.4329V20.7132C96.6899 16.7079 93.4449 13.4614 89.4414 13.4614Z" fill="#505053"/>
<path d="M86.6969 16.2307H66.3422H30.6719C28.8603 16.2307 27.2116 16.972 26.0109 18.1596C24.8103 19.3492 24.0713 20.9928 24.0713 22.7994V76.0108C24.0713 76.69 24.6222 77.2411 25.301 77.2411H92.0717C92.7467 77.2411 93.3015 76.6939 93.3015 76.0108V40.7959V22.8363C93.2995 19.1881 90.3435 16.2307 86.6969 16.2307Z" fill="#F16A21"/>
<path d="M71.5579 68.9899H32.9859C32.0975 68.9899 31.3779 68.2699 31.3779 67.3812V38.442C31.3779 37.5532 32.0975 36.8333 32.9859 36.8333H71.5579C72.4463 36.8333 73.1659 37.5532 73.1659 38.442V67.3831C73.1659 68.2699 72.4463 68.9899 71.5579 68.9899Z" stroke="white" stroke-width="4" stroke-miterlimit="10" stroke-linecap="round" stroke-linejoin="round"/>
<path d="M40.2187 49.6952C42.4372 49.6952 44.2357 47.8959 44.2357 45.6763C44.2357 43.4568 42.4372 41.6575 40.2187 41.6575C38.0001 41.6575 36.2017 43.4568 36.2017 45.6763C36.2017 47.8959 38.0001 49.6952 40.2187 49.6952Z" stroke="white" stroke-width="4" stroke-miterlimit="10" stroke-linecap="round" stroke-linejoin="round"/>
<path d="M51.6375 60.3157L49.8608 58.5382L47.5875 56.2639L47.089 55.7652L46.1735 54.8492C45.547 54.2225 44.5345 54.2225 43.908 54.8492L34.5938 64.1677" stroke="white" stroke-width="4" stroke-miterlimit="10" stroke-linecap="round" stroke-linejoin="round"/>
<path d="M49.3643 58.0413L59.144 47.7099C59.7783 47.0423 60.8393 47.0423 61.4735 47.7099L69.9518 56.6655" stroke="white" stroke-width="4" stroke-miterlimit="10" stroke-linecap="round" stroke-linejoin="round"/>
<path d="M61.7702 45.0243C60.8488 45.1737 59.9353 44.7196 59.5008 43.8949C59.4969 43.8871 59.493 43.8794 59.4891 43.8716C59.2874 43.466 59.2137 43.0158 59.2758 42.5656C59.2816 42.5288 59.2874 42.4938 59.2971 42.4589L60.8663 32.7737C60.9051 32.5039 61.0059 32.2303 61.1592 31.9858C61.1824 31.9392 61.2115 31.8946 61.2406 31.8519C61.2406 31.8519 79.6577 6.36494 79.6674 6.35135L82.2568 2.74972C83.2887 1.3176 84.8191 0.372564 86.5667 0.0892461C88.3143 -0.194072 90.0639 0.217321 91.4954 1.24969C92.9268 2.28011 93.8715 3.81119 94.1546 5.55961C94.4378 7.30804 94.0266 9.0584 92.9967 10.4905L90.3956 14.096C90.3122 14.2125 90.2152 14.3231 90.0988 14.4279L71.9417 39.5656C71.7148 39.8819 71.4102 40.1283 71.0611 40.2797L62.4277 44.8108C62.2124 44.9175 61.9952 44.9874 61.7702 45.0243Z" fill="#505053"/>
<path d="M90.5991 2.75561C89.4509 1.92895 88.0698 1.64369 86.7683 1.85521C85.4668 2.06673 84.2448 2.77502 83.4185 3.92382L80.9843 7.31005C80.9785 7.31781 80.9765 7.32558 80.9707 7.33334C80.9668 7.33916 80.961 7.34498 80.9552 7.3508L63.0851 32.1586L63.091 32.1625C63.0037 32.2789 62.9416 32.4186 62.9203 32.5719L61.4364 41.7313L61.4326 41.7371C61.4054 41.937 61.4345 42.1465 61.5295 42.3406C61.7778 42.8121 62.3616 42.9965 62.8369 42.752L70.9776 38.4789C71.1386 38.4149 71.2841 38.3043 71.3946 38.151L89.1231 13.5295C89.1987 13.4713 89.2685 13.4072 89.3248 13.3257L91.7649 9.94336C92.5912 8.79456 92.8763 7.4129 92.6649 6.1108C92.4535 4.80482 91.7474 3.58422 90.5991 2.75561Z" fill="#F16A21"/>
<path d="M69.9499 36.8333L63.6538 40.1303L64.7885 33.1133L65.4596 32.1799L70.621 35.8999L69.9499 36.8333Z" fill="white"/>
<path d="M81.9584 9.27368L66.5938 30.6062L71.7553 34.3272L87.1199 12.9946L81.9584 9.27368Z" fill="white"/>
<path d="M90.1839 8.80023L88.316 11.3928L83.1313 7.65532L84.9992 5.06664C85.5132 4.35253 86.2697 3.91591 87.0805 3.78395C87.8913 3.65199 88.7447 3.82664 89.4546 4.34282H89.4585C90.1665 4.85319 90.6029 5.61388 90.7348 6.42114C90.8667 7.23034 90.6941 8.08612 90.1839 8.80023Z" fill="white"/>
<path d="M112.665 33.8506V45.3793H117V34.6248V33.2878V32.368C117 29.397 116.752 27.2469 116.257 25.9215C115.762 24.5942 114.979 23.3969 113.91 22.3257C112.605 21.0178 111.237 20.098 109.811 19.5624C108.386 19.0288 105.948 18.9841 103.967 18.9841V23.3212C105.472 23.3212 107.486 23.3154 108.533 23.752C109.583 24.1867 110.446 25.0095 111.117 26.2184C111.79 27.4274 112.217 28.4772 112.393 29.3679C112.574 30.2586 112.661 31.3977 112.661 32.7852V33.8506H112.665Z" fill="#F16A21"/>
<path d="M4.33513 79.1581V67.6294H0V78.3838V79.7209V80.6407C0 83.6116 0.248276 85.7618 0.742888 87.0871C1.2375 88.4145 2.02112 89.6118 3.08987 90.6829C4.39526 91.9909 5.76272 92.9107 7.18836 93.4463C8.61401 93.9799 11.0522 94.0246 13.0325 94.0246V89.6875C11.5274 89.6875 9.51401 89.6933 8.46659 89.2567C7.41724 88.822 6.55409 87.9992 5.88297 86.7902C5.20991 85.5813 4.78319 84.5315 4.60668 83.6407C4.42629 82.75 4.33901 81.6109 4.33901 80.2235L4.33513 79.1581Z" fill="#F16A21"/>
</g>
<defs>
<clipPath id="clip0_3987_806">
<rect width="117" height="115" fill="white"/>
</clipPath>
</defs>
</svg>
