<svg width="107" height="97" viewBox="0 0 107 97" fill="none" xmlns="http://www.w3.org/2000/svg">
<g clip-path="url(#clip0_3987_851)">
<path d="M4.06188 11.2121C4.06188 10.8287 4.37277 10.5172 4.7554 10.5172H23.8545C24.7837 10.5172 25.537 9.76229 25.537 8.8311C25.537 7.8999 24.7837 7.14502 23.8545 7.14502H4.7554C2.51769 7.14502 0.696777 8.96975 0.696777 11.2121V66.0807H4.06188V11.2121Z" fill="#505053"/>
<path d="M102.883 92.1797C102.883 92.5631 102.572 92.8746 102.19 92.8746H16.5591V96.2468H102.188C104.426 96.2468 106.247 94.4221 106.247 92.1797V36.2173H102.882V92.1797H102.883Z" fill="#505053"/>
<path d="M82.2641 7.14502C81.3348 7.14502 80.5815 7.8999 80.5815 8.8311C80.5815 9.76229 81.3348 10.5172 82.2641 10.5172H90.7332V7.14502H82.2641Z" fill="#505053"/>
<path d="M104.566 26.6573H2.37933C1.45008 26.6573 0.696777 25.9024 0.696777 24.9712C0.696777 24.04 1.45008 23.2852 2.37933 23.2852H104.566C105.495 23.2852 106.248 24.04 106.248 24.9712C106.248 25.9024 105.495 26.6573 104.566 26.6573Z" fill="#505053"/>
<path d="M76.1386 15.2791C75.2094 15.2791 74.4561 14.5242 74.4561 13.593V1.68608C74.4561 0.754884 75.2094 0 76.1386 0C77.0679 0 77.8212 0.754884 77.8212 1.68608V13.593C77.8212 14.5242 77.0679 15.2791 76.1386 15.2791Z" fill="#505053"/>
<path d="M70.281 10.5172H37.561C36.6317 10.5172 35.8784 9.76229 35.8784 8.8311C35.8784 7.8999 36.6317 7.14502 37.561 7.14502H70.2827C71.212 7.14502 71.9653 7.8999 71.9653 8.8311C71.9653 9.76229 71.2103 10.5172 70.281 10.5172Z" fill="#505053"/>
<path d="M30.2636 15.2791C29.3344 15.2791 28.5811 14.5242 28.5811 13.593V1.68608C28.5811 0.754884 29.3344 0 30.2636 0C31.1929 0 31.9462 0.754884 31.9462 1.68608V13.593C31.9462 14.5242 31.1929 15.2791 30.2636 15.2791Z" fill="#505053"/>
<path d="M96.3256 56.4057C96.1052 56.1283 95.7756 55.9692 95.4203 55.9692C95.1589 55.9692 94.901 56.0599 94.6977 56.2242L89.8106 60.1424L74.6284 37.1655L79.2524 33.3346C79.7444 32.9272 79.8127 32.1946 79.4061 31.6999C79.1858 31.4329 78.8595 31.2788 78.5128 31.2788C78.2446 31.2788 77.9815 31.373 77.7748 31.5458L72.3497 36.0426C71.8919 36.4209 71.7928 37.0817 72.1225 37.5781L73.7401 40.0259C72.5564 40.2553 71.2838 40.3717 69.9514 40.3717C67.5514 40.3717 65.1531 39.9831 63.1939 39.2778C61.5813 38.6976 60.1636 38.4271 58.7338 38.4271C56.7062 38.4271 54.8101 38.9937 52.7176 39.6784C52.1181 39.8752 51.4724 40.0943 50.8472 40.3066C49.3645 40.8116 47.8323 41.3319 46.5118 41.6931L46.0848 41.8078C45.8593 41.8694 45.6543 41.9242 45.4596 41.979C44.5235 41.9602 37.6464 41.7325 33.7296 39.235L34.8228 37.5781C35.1508 37.0817 35.0517 36.4226 34.5956 36.0426L29.1705 31.5458C28.9638 31.3747 28.7007 31.2805 28.4325 31.2805C28.0858 31.2805 27.7612 31.4346 27.5392 31.7016C27.341 31.9413 27.2488 32.2425 27.2778 32.5506C27.3068 32.8588 27.4537 33.1378 27.6929 33.3363L32.3169 37.1672L17.1347 60.1441L12.2476 56.2242C12.0426 56.0599 11.7864 55.9692 11.5233 55.9692C11.1697 55.9692 10.84 56.1284 10.618 56.4039C10.425 56.647 10.3378 56.95 10.372 57.2581C10.4062 57.5662 10.5582 57.8435 10.7991 58.037L16.6769 62.7477C16.8819 62.912 17.1381 63.0028 17.4011 63.0028C17.4626 63.0028 17.5241 62.9976 17.5805 62.9891C17.9016 62.9394 18.1886 62.7546 18.3663 62.4824L19.1452 61.3047C20.7748 63.8655 22.5393 65.7073 23.5472 66.6625L22.6128 67.8693C21.8134 68.91 21.4649 70.2007 21.634 71.5033C21.8031 72.806 22.4693 73.9648 23.5096 74.7659C24.2748 75.3548 25.1887 75.704 26.1504 75.7742C26.258 75.781 26.3622 75.7861 26.463 75.7861C26.3024 76.399 26.2614 77.046 26.3434 77.6759C26.5125 78.9786 27.1787 80.1374 28.219 80.9368C28.9843 81.5274 29.8981 81.8749 30.8598 81.945C30.9743 81.9536 31.0922 81.957 31.2117 81.957C31.7242 81.957 32.2298 81.8766 32.7235 81.7157C32.7235 81.7225 32.7252 81.7294 32.7252 81.7345C32.8943 83.0371 33.5605 84.1943 34.599 84.9954C35.3643 85.5859 36.2782 85.9334 37.2399 86.0019C37.3629 86.0105 37.4773 86.0139 37.59 86.0139C38.4903 86.0139 39.3614 85.7691 40.125 85.3052C40.3983 86.1782 40.9176 86.9399 41.6435 87.5202C42.3763 88.1056 43.2561 88.4514 44.1887 88.5182C44.2963 88.5267 44.4074 88.5302 44.5201 88.5302C45.9294 88.5302 47.2481 87.8917 48.1346 86.779L49.6515 84.7848C49.6839 84.8088 49.7522 84.8619 49.7522 84.8619C50.7994 85.6613 52.1044 86.6558 53.5154 87.45C55.1979 88.3949 56.6755 88.8554 58.0283 88.8554H58.0301C59.6272 88.8554 61.033 88.1964 62.21 86.8971C62.7856 86.2621 63.1204 85.4045 63.1529 84.511C63.544 84.5914 63.9472 84.5983 64.3588 84.5983H64.5672C66.4394 84.5983 68.0639 83.7732 69.0239 82.3353C69.6815 81.3493 69.9821 80.2247 69.9036 79.059C70.4946 79.2747 71.0856 79.3843 71.6681 79.3843C73.4702 79.3843 75.1374 78.4976 76.1264 77.0101C77.0096 75.6852 77.2692 74.0881 76.8575 72.5817C78.6084 72.5355 80.2175 71.6471 81.1861 70.1819C82.2127 68.6276 82.3561 66.6471 81.5738 64.9576C82.9216 64.3619 85.2976 63.1294 87.6156 61.0342L88.5705 62.4807C88.7498 62.7528 89.0351 62.9377 89.3545 62.9874C89.4126 62.9976 89.4741 63.001 89.5356 63.001C89.7987 63.001 90.0549 62.9103 90.2582 62.746L96.136 58.0352C96.3785 57.8418 96.5306 57.5645 96.563 57.2564C96.6074 56.95 96.5186 56.647 96.3256 56.4057Z" fill="white" stroke="#F16A21" stroke-width="2" stroke-miterlimit="10" stroke-linecap="round" stroke-linejoin="round"/>
<path d="M61.2019 60.7945C60.8124 60.7945 60.4503 60.9896 60.2351 61.3148C60.0643 61.5733 60.0028 61.8831 60.066 62.1861C60.1275 62.4891 60.3034 62.751 60.5613 62.9222L64.4098 65.4795C64.4184 65.4864 64.4269 65.4915 64.4338 65.4966L72.9951 71.1831L73.3931 71.4467C74.7972 72.4292 75.1543 74.3139 74.2062 75.7381C73.6408 76.5871 72.6928 77.0938 71.673 77.0938C71.0734 77.0938 70.4909 76.9158 69.9887 76.582L61.822 71.1198L58.4022 68.8294C58.2109 68.701 57.9888 68.6326 57.7599 68.6326C57.3722 68.6326 57.0117 68.826 56.7965 69.1478C56.4412 69.6802 56.5847 70.4025 57.1159 70.7569L57.449 70.9811C57.4593 70.9897 57.4712 70.9982 57.4815 71.0068L60.3973 72.9565L66.2735 76.8935C66.9448 77.3625 67.3992 78.0489 67.5546 78.8261C67.71 79.6032 67.5495 80.3992 67.1036 81.0685C66.5724 81.8661 65.6483 82.3232 64.5721 82.3232H64.5602C63.841 82.3232 63.3081 82.1914 62.8827 81.9072L62.8776 81.9038C62.8622 81.8953 61.2788 80.9041 61.2087 80.8614L53.8619 75.9692C53.674 75.8442 53.4553 75.7774 53.2298 75.7774C52.8814 75.7774 52.5534 75.9332 52.3296 76.2037L52.3245 76.2105C52.3057 76.2328 52.2801 76.2653 52.2562 76.2995C52.2118 76.3646 52.1759 76.4365 52.1469 76.5101C52.123 76.5666 52.111 76.6179 52.1007 76.659L52.099 76.6676C52.0939 76.6812 52.0888 76.6984 52.0837 76.7189L52.082 76.7223L52.0785 76.7412C52.0751 76.7651 52.0734 76.7874 52.0717 76.8079C52.0717 76.8113 52.0717 76.8148 52.07 76.8199C52.0392 77.1092 52.1093 77.3848 52.2784 77.6415C52.3399 77.7323 52.5039 77.8743 52.7686 78.0643L52.7721 78.0661L59.9378 82.8418C60.3154 83.1106 60.7544 83.7148 60.8261 84.3071C60.8756 84.7042 60.768 85.0329 60.4913 85.3393C59.7687 86.137 58.9471 86.5256 57.9769 86.5256C55.9219 86.5256 53.4792 84.7915 51.1527 83.0164C51.1185 82.9908 51.0844 82.9651 51.0519 82.9394C51.6822 82.0253 51.959 80.923 51.836 79.812C51.6993 78.5864 51.0929 77.4875 50.1312 76.7172C49.3984 76.1301 48.4948 75.7809 47.5621 75.7175C47.7876 75.026 47.8559 74.2882 47.7637 73.5658C47.5946 72.2649 46.9284 71.1061 45.8881 70.305C45.0221 69.6374 43.9869 69.2848 42.8971 69.2848C42.8407 69.2848 42.7844 69.2865 42.7263 69.2882C42.8151 68.7935 42.8271 68.2885 42.7605 67.7835C42.5913 66.4809 41.9252 65.322 40.8849 64.5209C40.0188 63.8534 38.9837 63.5007 37.8939 63.5007C36.869 63.5007 35.8663 63.826 35.0378 64.4217C34.7389 63.4614 34.1478 62.6072 33.3484 61.9927C32.4824 61.3251 31.4472 60.9725 30.3574 60.9725C28.8201 60.9725 27.4023 61.6709 26.4662 62.8862L24.9715 64.8171C23.9193 63.7986 22.1086 61.8438 20.5542 59.1649L32.4448 41.1709C35.0771 42.8587 38.6608 43.6358 41.3956 43.9919C40.4544 44.8546 39.667 46.099 38.9051 47.3041L38.8983 47.3161C38.6506 47.7081 38.3944 48.1121 38.1398 48.4904C37.7162 49.122 37.4207 49.5071 37.0791 49.9539L37.0722 49.9625C36.6537 50.5085 36.1806 51.1265 35.3401 52.3555C35.1659 52.6106 35.101 52.9324 35.1591 53.2336C35.2411 53.6616 35.4238 53.8995 36.4043 54.5568C37.0432 54.983 37.7299 55.3511 38.449 55.6489C39.5371 56.0991 40.6082 56.3285 41.6331 56.3285C41.7509 56.3285 41.8688 56.3251 41.9849 56.3199C43.4335 56.2446 44.8683 55.714 46.3749 54.6938C47.3162 54.057 48.2334 53.2953 49.3472 52.2203C49.547 52.0286 49.7264 51.8266 49.8989 51.6331L49.9057 51.6263C50.2542 51.236 50.5822 50.868 50.9119 50.7601C50.999 50.731 51.1083 50.7174 51.2467 50.7174C51.4363 50.7174 51.6549 50.743 51.8855 50.7704H51.8889C52.0307 50.7875 52.1827 50.8064 52.3382 50.8201C53.0027 50.8783 53.6654 50.9074 54.3094 50.9074C54.8799 50.9074 55.4454 50.8851 55.9868 50.8389C56.2226 50.8201 56.4976 50.8081 56.7846 50.8081C57.5276 50.8081 58.023 50.8748 58.1648 50.9262C58.7404 51.3695 62.3686 53.8276 70.6908 59.4456L70.8958 59.5842C74.4659 61.9944 77.8395 64.2727 78.2785 64.5877C78.2939 64.6014 78.311 64.6151 78.3212 64.6236C78.3502 64.6459 78.3759 64.6647 78.4015 64.6818C79.0779 65.132 79.5408 65.8185 79.7014 66.6161C79.862 67.4138 79.7048 68.2269 79.2556 68.9047C78.6919 69.7589 77.7421 70.269 76.7189 70.269C76.1228 70.269 75.5437 70.0944 75.0432 69.7623L61.839 60.9896C61.6511 60.8612 61.4308 60.7945 61.2019 60.7945Z" fill="#F16A21"/>
<path d="M44.3563 86.202C43.8934 86.1694 43.4544 85.9965 43.0906 85.7055C42.6123 85.3238 42.3117 84.7778 42.2433 84.1684C42.175 83.5607 42.3526 82.9548 42.7438 82.4652L43.2494 81.801L45.6204 78.7147C46.056 78.2697 46.6367 78.0249 47.2585 78.0249C47.7829 78.0249 48.2766 78.1995 48.6883 78.5282C49.1666 78.9116 49.4672 79.4576 49.5355 80.067C49.6038 80.6747 49.4262 81.2807 49.035 81.7702L46.3122 85.3495C45.8749 85.8955 45.219 86.2088 44.5152 86.2088C44.4622 86.2088 44.4093 86.2071 44.3563 86.202Z" fill="#F16A21"/>
<path d="M37.6037 83.6944C37.5388 83.6944 37.4722 83.6927 37.4073 83.6875C36.9017 83.6516 36.4182 83.4684 36.0134 83.1552C35.4651 82.7324 35.1132 82.1196 35.0244 81.4332C34.9355 80.7467 35.1183 80.0655 35.5402 79.516L39.1684 74.795L40.9671 72.4721C41.4659 71.9107 42.1526 71.6025 42.9008 71.6025C43.4764 71.6025 44.023 71.7891 44.4808 72.1417C45.0291 72.5645 45.381 73.1756 45.4699 73.8621C45.5587 74.5485 45.3759 75.2298 44.954 75.7792L43.8129 77.2633C43.7993 77.2787 43.7856 77.2941 43.7702 77.3095L43.7685 77.3112C43.7292 77.3523 43.6865 77.4003 43.6421 77.455L41.4386 80.3513L39.6501 82.6793C39.1547 83.3246 38.4083 83.6944 37.6037 83.6944Z" fill="#F16A21"/>
<path d="M26.3178 73.4566C25.8105 73.4207 25.3288 73.2358 24.9239 72.9243C24.3739 72.5015 24.0237 71.8887 23.9332 71.2023C23.8444 70.5158 24.0254 69.8346 24.4473 69.2885L28.3044 64.3039C28.7981 63.6603 29.548 63.2905 30.3628 63.2905C30.9384 63.2905 31.485 63.4771 31.9411 63.8297C32.4911 64.2525 32.8413 64.8653 32.9318 65.5518C33.0207 66.233 32.8413 66.9092 32.4279 67.4535L28.5162 72.5032C28.0208 73.1143 27.2829 73.4635 26.492 73.4635C26.4322 73.4635 26.3742 73.4601 26.3178 73.4566Z" fill="#F16A21"/>
<path d="M28.6427 77.373C28.5538 76.6865 28.7349 76.007 29.1551 75.4592L30.3355 73.9357C30.3389 73.9306 30.3423 73.9272 30.3491 73.9203C30.3645 73.9032 30.3782 73.8878 30.3935 73.8673L34.2574 68.8741L34.2643 68.8655L35.8409 66.8303C36.3363 66.1866 37.0862 65.8169 37.8993 65.8169C38.4749 65.8169 39.0215 66.0035 39.4793 66.3561C40.0276 66.7789 40.3795 67.39 40.4684 68.0764C40.5572 68.7645 40.3761 69.4441 39.9559 69.9902L39.1462 71.036C39.1326 71.0514 39.1206 71.0651 39.1069 71.0805L39.1052 71.0823C39.0762 71.1148 39.042 71.1524 39.0096 71.1952L37.3424 73.364L33.2718 78.6174C32.7765 79.261 32.0317 79.6308 31.2254 79.6308C31.1605 79.6308 31.0939 79.629 31.0273 79.6239C30.5217 79.588 30.04 79.4048 29.6334 79.0915C29.0834 78.6722 28.7315 78.0611 28.6427 77.373Z" fill="#F16A21"/>
<path d="M79.6931 62.7444C79.3668 62.503 76.5534 60.6012 71.9892 57.5201L71.9687 57.5064C66.9518 54.1188 60.0866 49.4834 59.6186 49.1154C59.1301 48.6926 58.2059 48.4786 56.8701 48.4786C56.4004 48.4786 55.9973 48.506 55.7991 48.5231C55.3208 48.5625 54.8203 48.583 54.3147 48.583C53.7391 48.583 53.1429 48.5573 52.545 48.5043C52.4272 48.494 52.3025 48.4786 52.1795 48.4649L52.1727 48.4632C51.8942 48.4289 51.5799 48.3913 51.252 48.3913C50.8693 48.3913 50.526 48.4426 50.2031 48.5488C49.2824 48.85 48.7 49.5005 48.1875 50.0757C48.0491 50.2314 47.8937 50.406 47.7485 50.5447C46.7338 51.5221 45.9139 52.2085 45.0872 52.7665C43.9393 53.542 42.887 53.9459 41.8724 53.9973C41.7972 54.0007 41.7186 54.0024 41.6401 54.0024C40.9209 54.0024 40.1488 53.833 39.3426 53.4992C38.837 53.2903 38.3518 53.037 37.894 52.7477C38.3177 52.1503 38.6269 51.748 38.9019 51.3886L38.9172 51.368C39.2674 50.911 39.5971 50.4796 40.0668 49.7812C40.3333 49.3841 40.5981 48.9681 40.868 48.5419C41.582 47.4139 42.3199 46.2482 43.063 45.6131C44.081 44.7418 45.287 44.42 46.6843 44.0451L47.1182 43.9287C48.5086 43.5504 50.0733 43.0181 51.5868 42.5029L51.5919 42.5011C52.2666 42.2718 52.873 42.0664 53.4367 41.8815C55.7 41.142 57.2169 40.7397 58.7508 40.7397C59.8834 40.7397 61.0449 40.9691 62.4097 41.4587C64.6611 42.2683 67.2627 42.698 69.9343 42.698C71.6937 42.698 73.3762 42.5114 74.9324 42.1434C74.9717 42.1331 75.0041 42.128 75.0383 42.1194C75.0605 42.1143 75.0861 42.1092 75.1134 42.104L86.3276 59.0743C83.8678 61.3818 81.2424 62.6006 80.1064 63.0576C79.9834 62.9549 79.8639 62.8642 79.746 62.7837C79.7306 62.7735 79.7101 62.758 79.6931 62.7444Z" fill="#F16A21"/>
<path d="M102.441 22.3195V34.4593H107V23.1343V21.7255V20.7567C107 17.6276 106.738 15.3647 106.219 13.9679C105.698 12.5711 104.875 11.3095 103.753 10.1832C102.379 8.80522 100.943 7.83637 99.4446 7.2732C97.9448 6.71003 95.3826 6.66553 93.3003 6.66553V11.2291C94.8821 11.2291 96.9985 11.2239 98.102 11.6827C99.2054 12.1414 100.112 13.0059 100.818 14.2794C101.525 15.553 101.974 16.6588 102.159 17.5951C102.348 18.5331 102.441 19.7331 102.441 21.1932V22.3195Z" fill="#F16A21"/>
<path d="M4.55912 81.3424V69.2026H0V80.5276V81.9364V82.9052C0 86.0343 0.261351 88.2973 0.780635 89.6941C1.30163 91.0908 2.12497 92.3524 3.24724 93.4787C4.62061 94.8567 6.05718 95.8256 7.55525 96.3887C9.05503 96.9519 11.6173 96.9964 13.6996 96.9964V92.4294C12.1178 92.4294 10.0014 92.4346 8.89788 91.9758C7.7944 91.5171 6.88736 90.6526 6.18188 89.3791C5.4747 88.1055 5.02545 86.9998 4.84096 86.0634C4.65136 85.1254 4.55912 83.9254 4.55912 82.4653V81.3424Z" fill="#F16A21"/>
</g>
<defs>
<clipPath id="clip0_3987_851">
<rect width="107" height="97" fill="white"/>
</clipPath>
</defs>
</svg>
