<svg width="221" height="110" viewBox="0 0 221 110" fill="none" xmlns="http://www.w3.org/2000/svg">
<path d="M104.011 93H61.9894C60.8917 93 60 92.1206 60 91.033V86.967C60 85.8817 60.8894 85 61.9894 85H104.011C105.108 85 106 85.8794 106 86.967V91.0352C106 92.1206 105.108 93 104.011 93Z" stroke="#505053" stroke-width="3.5" stroke-miterlimit="10" stroke-linecap="round" stroke-linejoin="round"/>
<path d="M83 85V74" stroke="#505053" stroke-width="3.5" stroke-miterlimit="10" stroke-linecap="round" stroke-linejoin="round"/>
<g clip-path="url(#clip0_3987_910)">
<path d="M135.947 0.603027H41.6352V3.61977H135.947C138.503 3.61977 140.583 5.70957 140.583 8.27446V44.7179H143.582V8.27446C143.582 4.04504 140.158 0.603027 135.947 0.603027ZM29.5679 66.3152V30.6691H26.5688V66.3152C26.5688 70.5463 29.9912 73.9867 34.2037 73.9867H127.881V70.9733H34.2037C31.6477 70.9716 29.5679 68.8835 29.5679 66.3152Z" fill="#505053"/>
<path d="M66.1452 65.0991H37.5565C36.062 65.0991 34.8501 63.8814 34.8501 62.3797V12.8825C34.8501 11.3807 36.062 10.1631 37.5565 10.1631H52.0492" stroke="#F16A21" stroke-width="3.5" stroke-miterlimit="10" stroke-linecap="round" stroke-linejoin="round"/>
<path d="M103.772 65.0991H132.363C133.857 65.0991 135.069 63.8814 135.069 62.3797V12.8825C135.069 11.3807 133.857 10.1631 132.363 10.1631H120.325" stroke="#F16A21" stroke-width="3.5" stroke-miterlimit="10" stroke-linecap="round" stroke-linejoin="round"/>
<path d="M30.7267 16.2815V28.9033H26V17.127V15.6618V14.6535C26 11.4008 26.2711 9.04691 26.8101 7.59336C27.3507 6.14147 28.2038 4.82912 29.3694 3.65631C30.7929 2.22601 32.2825 1.21766 33.8366 0.632918C35.3907 0.0465137 38.0475 0 40.2083 0V4.74938C38.5666 4.74938 36.3727 4.7444 35.2286 5.22116C34.0846 5.69793 33.1438 6.59664 32.4114 7.92062C31.6774 9.24459 31.2128 10.3941 31.021 11.3693C30.8243 12.3461 30.7284 13.592 30.7284 15.1103V16.2815H30.7267Z" fill="#F16A21"/>
<path d="M139.273 58.7185V46.0967H144V57.873V59.3381V60.3465C144 63.5991 143.729 65.953 143.19 67.4066C142.649 68.8585 141.796 70.1708 140.63 71.3436C139.207 72.7756 137.716 73.784 136.163 74.3704C134.609 74.9551 131.951 75.0033 129.792 75.0033V70.2539C131.433 70.2539 133.627 70.2589 134.771 69.7821C135.915 69.3054 136.856 68.4066 137.588 67.0827C138.322 65.7587 138.787 64.6091 138.979 63.634C139.176 62.6572 139.271 61.4113 139.271 59.893V58.7185H139.273Z" fill="#F16A21"/>
<path d="M93.7435 65.9249H75.6103C75.144 65.9249 74.7671 65.5461 74.7671 65.0777V63.7022C74.7671 63.2337 75.144 62.855 75.6103 62.855H76.3956H76.3972H76.3989H93.2095H93.2112H93.2128H93.7419C94.2081 62.855 94.585 63.2337 94.585 63.7022V65.0777C94.5867 65.5461 94.2097 65.9249 93.7435 65.9249Z" fill="#F16A21"/>
<path d="M94.1601 59.4876L94.4015 60.1737C94.7156 61.0674 94.056 62.0043 93.1119 62.0043H76.5923C75.6483 62.0043 74.9886 61.0674 75.3027 60.1737L75.387 59.9328C76.5493 56.6237 76.2054 54.994 74.653 52.062L71.5646 46.2295C71.0356 45.2311 71.0158 44.0384 71.5117 43.0217L82.4747 20.549C82.5226 20.4493 82.6731 20.4842 82.6731 20.5955V44.0384C80.6842 44.9554 79.4773 47.1764 79.9799 49.4838C80.4064 51.4391 82.0366 52.9524 84.0122 53.2199C86.9584 53.6186 89.4846 51.3161 89.4846 48.4323C89.4846 46.683 88.5439 45.075 87.0278 44.2195V20.5955C87.0278 20.4842 87.1766 20.4493 87.2262 20.549L98.1892 43.0217C98.6835 44.0351 98.6637 45.2328 98.1363 46.2295L94.828 52.479C93.3715 55.2332 93.107 56.4875 94.1601 59.4876Z" fill="#F16A21"/>
<path d="M88.8535 30.9214C90.8937 33.1657 93.8018 37.121 94.5557 42.5664C94.6847 43.5033 94.7392 44.4004 94.7392 45.2459" stroke="white" stroke-width="2" stroke-miterlimit="10" stroke-linecap="round" stroke-linejoin="round"/>
<path d="M75.6021 64.8867H87.6876" stroke="white" stroke-width="3.929" stroke-miterlimit="10" stroke-linecap="round" stroke-linejoin="round"/>
<path d="M100.818 9.1333C99.3433 9.1333 98.1215 10.2147 97.8983 11.6317H87.6049V9.85925C87.6049 9.5403 87.3454 9.27783 87.0263 9.27783H82.3425C82.0251 9.27783 81.7639 9.53863 81.7639 9.85925V11.6317H71.4705C71.2457 10.2147 70.0173 9.1333 68.5508 9.1333C66.9174 9.1333 65.5947 10.4689 65.5947 12.1035C65.5947 13.7382 66.924 15.0738 68.5508 15.0738C69.9462 15.0738 71.1233 14.0937 71.4275 12.7863H78.9516C75.1425 14.5654 72.2723 18.0739 71.3548 22.2867H69.2733C68.9559 22.2867 68.6946 22.5475 68.6946 22.8681V27.5743C68.6946 27.8933 68.9542 28.1557 69.2733 28.1557H73.957C74.2745 28.1557 74.5357 27.8949 74.5357 27.5743V22.8681C74.5357 22.5492 74.2761 22.2867 73.957 22.2867H72.5402C73.6313 17.725 77.2173 14.1236 81.7556 13.0272V14.5605C81.7556 14.8794 82.0152 15.1419 82.3342 15.1419H87.018C87.3354 15.1419 87.5967 14.8811 87.5967 14.5605V13.0272C92.1366 14.1236 95.7209 17.7267 96.8121 22.2867H95.3952C95.0778 22.2867 94.8166 22.5475 94.8166 22.8681V27.5743C94.8166 27.8933 95.0761 28.1557 95.3952 28.1557H100.079C100.396 28.1557 100.658 27.8949 100.658 27.5743V22.8681C100.658 22.5492 100.398 22.2867 100.079 22.2867H97.9975C97.0799 18.0739 94.2098 14.5654 90.4006 12.7863H97.9247C98.2356 14.0937 99.4061 15.0738 100.801 15.0738C102.435 15.0738 103.758 13.7382 103.758 12.1035C103.758 10.4689 102.451 9.1333 100.818 9.1333Z" fill="#F16A21"/>
</g>
<defs>
<clipPath id="clip0_3987_910">
<rect width="118" height="75" fill="white" transform="translate(26)"/>
</clipPath>
</defs>
</svg>
