
<svg width="241" height="168" viewBox="0 0 241 168" fill="none" xmlns="http://www.w3.org/2000/svg">
<g clip-path="url(#clip0_4035_791)">
<path d="M148.531 167.389H73.1292C71.1596 167.389 69.5595 165.811 69.5595 163.859V156.563C69.5595 154.616 71.1555 153.034 73.1292 153.034H148.531C150.501 153.034 152.101 154.612 152.101 156.563V163.863C152.101 165.811 150.501 167.389 148.531 167.389Z" stroke="#505053" stroke-width="3.5" stroke-miterlimit="10" stroke-linecap="round" stroke-linejoin="round"/>
<path d="M110.83 153.034V133.296" stroke="#505053" stroke-width="3.5" stroke-miterlimit="10" stroke-linecap="round" stroke-linejoin="round"/>
</g>
<g clip-path="url(#clip1_4035_791)">
<path d="M205.836 1.59424H36.6061V7.0074H205.836C210.423 7.0074 214.155 10.7573 214.155 15.3596V80.7528H219.536V15.3596C219.536 7.77049 213.392 1.59424 205.836 1.59424ZM14.9528 119.506V55.544H9.57141V119.506C9.57141 127.099 15.7123 133.272 23.2712 133.272H191.362V127.865H23.2712C18.6848 127.862 14.9528 124.115 14.9528 119.506Z" fill="#505053"/>
<path d="M80.5861 117.324H29.2875C26.6057 117.324 24.4312 115.139 24.4312 112.445V23.6284C24.4312 20.9337 26.6057 18.7488 29.2875 18.7488H55.2928" stroke="#F16A21" stroke-width="3.5" stroke-miterlimit="10" stroke-linecap="round" stroke-linejoin="round"/>
<path d="M148.103 117.324H199.405C202.087 117.324 204.261 115.139 204.261 112.445V23.6284C204.261 20.9337 202.087 18.7488 199.405 18.7488H177.805" stroke="#F16A21" stroke-width="3.5" stroke-miterlimit="10" stroke-linecap="round" stroke-linejoin="round"/>
<path d="M17.0324 29.7272V52.3754H8.5509V31.2444V28.6153V26.806C8.5509 20.9695 9.03743 16.7457 10.0045 14.1375C10.9746 11.5323 12.5054 9.17744 14.5969 7.07298C17.1511 4.5065 19.824 2.69714 22.6126 1.6479C25.4013 0.59567 30.1686 0.512207 34.046 0.512207V9.03436C31.1001 9.03436 27.1634 9.02542 25.1105 9.88091C23.0576 10.7364 21.3696 12.349 20.0554 14.7247C18.7382 17.1004 17.9046 19.1632 17.5605 20.9129C17.2075 22.6656 17.0354 24.9012 17.0354 27.6257V29.7272H17.0324Z" fill="#F16A21"/>
<path d="M211.805 105.875V83.2268H220.287V104.358V106.987V108.796C220.287 114.633 219.8 118.857 218.833 121.465C217.863 124.07 216.332 126.425 214.241 128.529C211.687 131.099 209.011 132.908 206.225 133.96C203.436 135.01 198.666 135.096 194.792 135.096V126.574C197.738 126.574 201.674 126.583 203.727 125.727C205.78 124.872 207.468 123.259 208.782 120.883C210.099 118.508 210.933 116.445 211.277 114.695C211.63 112.943 211.802 110.707 211.802 107.982V105.875H211.805Z" fill="#F16A21"/>
<path d="M130.108 118.806H97.57C96.7334 118.806 96.057 118.126 96.057 117.285V114.817C96.057 113.977 96.7334 113.297 97.57 113.297H98.9791H98.9821H98.985H129.15H129.153H129.155H130.105C130.941 113.297 131.618 113.977 131.618 114.817V117.285C131.621 118.126 130.944 118.806 130.108 118.806Z" fill="#F16A21"/>
<path d="M130.855 107.255L131.288 108.486C131.852 110.09 130.668 111.771 128.975 111.771H99.3322C97.6382 111.771 96.4545 110.09 97.0182 108.486L97.1695 108.054C99.255 102.116 98.638 99.1919 95.8523 93.9308L90.3107 83.4652C89.3614 81.6737 89.3258 79.5335 90.2158 77.7092L109.887 37.3847C109.973 37.2059 110.243 37.2685 110.243 37.4682V79.5335C106.675 81.1789 104.509 85.1642 105.411 89.3046C106.176 92.813 109.101 95.5285 112.646 96.0084C117.933 96.7238 122.466 92.5924 122.466 87.4177C122.466 84.2789 120.778 81.3935 118.057 79.8584V37.4682C118.057 37.2685 118.324 37.2059 118.413 37.3847L138.085 77.7092C138.972 79.5275 138.936 81.6767 137.99 83.4652L132.054 94.679C129.44 99.6212 128.966 101.872 130.855 107.255Z" fill="#F16A21"/>
<path d="M121.333 55.9966C124.994 60.0237 130.212 67.121 131.565 76.8921C131.797 78.5733 131.895 80.1829 131.895 81.7002" stroke="white" stroke-width="2" stroke-miterlimit="10" stroke-linecap="round" stroke-linejoin="round"/>
<path d="M142.802 16.9006C140.156 16.9006 137.963 18.8411 137.563 21.3838H119.093V18.2033C119.093 17.6309 118.627 17.16 118.054 17.16H109.65C109.08 17.16 108.612 17.628 108.612 18.2033V21.3838H90.1416C89.7381 18.8411 87.5339 16.9006 84.9026 16.9006C81.9716 16.9006 79.5983 19.2972 79.5983 22.2303C79.5983 25.1635 81.9834 27.56 84.9026 27.56C87.4064 27.56 89.5186 25.8014 90.0645 23.4554H103.566C96.7304 26.6479 91.5804 32.9434 89.9339 40.5027H86.199C85.6294 40.5027 85.1607 40.9707 85.1607 41.546V49.9907C85.1607 50.563 85.6264 51.034 86.199 51.034H94.6034C95.173 51.034 95.6417 50.566 95.6417 49.9907V41.546C95.6417 40.9737 95.1759 40.5027 94.6034 40.5027H92.061C94.019 32.3174 100.454 25.855 108.597 23.8877V26.639C108.597 27.2113 109.063 27.6822 109.635 27.6822H118.04C118.609 27.6822 119.078 27.2143 119.078 26.639V23.8877C127.224 25.855 133.656 32.3204 135.614 40.5027H133.071C132.502 40.5027 132.033 40.9707 132.033 41.546V49.9907C132.033 50.563 132.499 51.034 133.071 51.034H141.476C142.045 51.034 142.514 50.566 142.514 49.9907V41.546C142.514 40.9737 142.048 40.5027 141.476 40.5027H137.741C136.094 32.9434 130.944 26.6479 124.109 23.4554H137.61C138.168 25.8014 140.268 27.56 142.772 27.56C145.703 27.56 148.077 25.1635 148.077 22.2303C148.077 19.2972 145.733 16.9006 142.802 16.9006Z" fill="#F16A21"/>
</g>
<defs>
<clipPath id="clip0_4035_791">
<rect width="241" height="151" fill="white" transform="translate(0 17)"/>
</clipPath>
<clipPath id="clip1_4035_791">
<rect width="211.736" height="134.578" fill="white" transform="translate(8.5509 0.512207)"/>
</clipPath>
</defs>
</svg>
