<svg width="1244" height="1334" viewBox="0 0 1244 1334" fill="none" xmlns="http://www.w3.org/2000/svg">
<path d="M186 43.7705C186 49.0172 181.523 53.2705 176 53.2705C170.477 53.2705 166 49.0172 166 43.7705C166 38.5238 170.477 34.2705 176 34.2705C181.523 34.2705 186 38.5238 186 43.7705Z" fill="#FA6F24"/>
<path d="M176 1116.77C176 1122.02 171.523 1126.27 166 1126.27C160.477 1126.27 156 1122.02 156 1116.77C156 1111.52 160.477 1107.27 166 1107.27C171.523 1107.27 176 1111.52 176 1116.77Z" fill="#FA6F24"/>
<path d="M125 728.771C125 734.017 120.523 738.271 115 738.271C109.477 738.271 105 734.017 105 728.771C105 723.524 109.477 719.271 115 719.271C120.523 719.271 125 723.524 125 728.771Z" fill="#FA6F24"/>
<circle cx="1174.5" cy="297.771" r="9.5" fill="#FA6F24"/>
<ellipse cx="1108" cy="1259.77" rx="10" ry="9.5" fill="#FA6F24"/>
<path d="M179.439 43.7479C499.619 7.09082 1143.54 -13.8715 1178.34 318.086C1213.14 650.043 458.748 796.824 115.464 728.598C259.15 908.142 603.538 1242.58 1109.25 1258.68" stroke="#FA6F24" stroke-width="2"/>
<path d="M115.125 729.271C113.821 830.421 122.169 1049.63 166 1117.27" stroke="#FA7832" stroke-width="2"/>
<path d="M306.996 128.015L306.168 127.454L306.164 127.46L306.996 128.015ZM322.44 128.015L321.608 128.569L321.612 128.575L322.44 128.015ZM322.44 147.599L321.612 147.038L321.608 147.044L322.44 147.599ZM306.996 147.599L306.164 148.153L306.168 148.159L306.996 147.599ZM318.012 132.191L317.084 132.562L317.086 132.568L318.012 132.191ZM311.46 132.191L312.386 132.568L312.388 132.562L311.46 132.191ZM310.956 141.839L309.971 142.014L309.972 142.017L310.956 141.839ZM312.108 144.431L311.349 145.081L311.361 145.096L311.374 145.11L312.108 144.431ZM317.328 144.431L316.582 143.764L316.581 143.766L317.328 144.431ZM318.516 141.839L319.5 142.017L319.501 142.014L318.516 141.839ZM305.62 137.771C305.62 133.756 306.392 130.723 307.828 128.569L306.164 127.46C304.432 130.058 303.62 133.529 303.62 137.771H305.62ZM307.824 128.575C309.201 126.541 311.426 125.451 314.736 125.451V123.451C310.942 123.451 308.007 124.736 306.168 127.454L307.824 128.575ZM314.736 125.451C318.046 125.451 320.255 126.541 321.608 128.569L323.272 127.46C321.457 124.737 318.53 123.451 314.736 123.451V125.451ZM321.612 128.575C323.069 130.728 323.852 133.759 323.852 137.771H325.852C325.852 133.526 325.027 130.053 323.268 127.454L321.612 128.575ZM323.852 137.771C323.852 141.833 323.068 144.887 321.612 147.038L323.268 148.159C325.028 145.558 325.852 142.06 325.852 137.771H323.852ZM321.608 147.044C320.255 149.073 318.046 150.163 314.736 150.163V152.163C318.53 152.163 321.457 150.877 323.272 148.153L321.608 147.044ZM314.736 150.163C311.426 150.163 309.201 149.072 307.824 147.038L306.168 148.159C308.007 150.877 310.942 152.163 314.736 152.163V150.163ZM307.828 147.044C306.393 144.892 305.62 141.836 305.62 137.771H303.62C303.62 142.057 304.431 145.553 306.164 148.153L307.828 147.044ZM319.804 137.771C319.804 135.298 319.538 133.286 318.938 131.813L317.086 132.568C317.542 133.687 317.804 135.395 317.804 137.771H319.804ZM318.94 131.819C318.605 130.981 318.068 130.305 317.314 129.85C316.572 129.401 315.693 129.211 314.736 129.211V131.211C315.435 131.211 315.93 131.35 316.28 131.561C316.618 131.766 316.891 132.08 317.084 132.562L318.94 131.819ZM314.736 129.211C313.779 129.211 312.9 129.401 312.158 129.85C311.404 130.305 310.867 130.981 310.532 131.819L312.388 132.562C312.581 132.08 312.854 131.766 313.192 131.561C313.542 131.35 314.037 131.211 314.736 131.211V129.211ZM310.534 131.813C309.934 133.286 309.668 135.298 309.668 137.771H311.668C311.668 135.395 311.93 133.687 312.386 132.568L310.534 131.813ZM309.668 137.771C309.668 139.436 309.766 140.855 309.971 142.014L311.941 141.663C311.762 140.662 311.668 139.369 311.668 137.771H309.668ZM309.972 142.017C310.189 143.211 310.635 144.249 311.349 145.081L312.867 143.78C312.429 143.268 312.107 142.578 311.94 141.66L309.972 142.017ZM311.374 145.11C312.217 146.02 313.395 146.403 314.736 146.403V144.403C313.773 144.403 313.199 144.137 312.842 143.751L311.374 145.11ZM314.736 146.403C316.075 146.403 317.253 146.021 318.075 145.095L316.581 143.766C316.251 144.136 315.701 144.403 314.736 144.403V146.403ZM318.074 145.097C318.818 144.263 319.281 143.22 319.5 142.017L317.532 141.66C317.367 142.569 317.038 143.254 316.582 143.764L318.074 145.097ZM319.501 142.014C319.706 140.855 319.804 139.436 319.804 137.771H317.804C317.804 139.369 317.71 140.662 317.531 141.663L319.501 142.014ZM327.456 130.715H326.456V131.715H327.456V130.715ZM327.456 124.991V123.991H326.456V124.991H327.456ZM337.428 124.991H338.428V123.991H337.428V124.991ZM337.428 151.271V152.271H338.428V151.271H337.428ZM331.02 151.271H330.02V152.271H331.02V151.271ZM331.02 130.715H332.02V129.715H331.02V130.715ZM328.456 130.715V124.991H326.456V130.715H328.456ZM327.456 125.991H337.428V123.991H327.456V125.991ZM336.428 124.991V151.271H338.428V124.991H336.428ZM337.428 150.271H331.02V152.271H337.428V150.271ZM332.02 151.271V130.715H330.02V151.271H332.02ZM331.02 129.715H327.456V131.715H331.02V129.715Z" fill="#FA6F24"/>
<path d="M803.996 514.015L803.168 513.454L803.164 513.46L803.996 514.015ZM819.44 514.015L818.608 514.569L818.612 514.575L819.44 514.015ZM819.44 533.599L818.612 533.038L818.608 533.044L819.44 533.599ZM803.996 533.599L803.164 534.153L803.168 534.159L803.996 533.599ZM815.012 518.191L814.084 518.562L814.086 518.568L815.012 518.191ZM808.46 518.191L809.386 518.568L809.388 518.562L808.46 518.191ZM807.956 527.839L806.971 528.014L806.972 528.017L807.956 527.839ZM809.108 530.431L808.349 531.081L808.361 531.096L808.374 531.11L809.108 530.431ZM814.328 530.431L813.582 529.764L813.581 529.766L814.328 530.431ZM815.516 527.839L816.5 528.017L816.501 528.014L815.516 527.839ZM802.62 523.771C802.62 519.756 803.392 516.723 804.828 514.569L803.164 513.46C801.432 516.058 800.62 519.529 800.62 523.771H802.62ZM804.824 514.575C806.201 512.541 808.426 511.451 811.736 511.451V509.451C807.942 509.451 805.007 510.736 803.168 513.454L804.824 514.575ZM811.736 511.451C815.046 511.451 817.255 512.541 818.608 514.569L820.272 513.46C818.457 510.737 815.53 509.451 811.736 509.451V511.451ZM818.612 514.575C820.069 516.728 820.852 519.759 820.852 523.771H822.852C822.852 519.526 822.027 516.053 820.268 513.454L818.612 514.575ZM820.852 523.771C820.852 527.833 820.068 530.887 818.612 533.038L820.268 534.159C822.028 531.558 822.852 528.06 822.852 523.771H820.852ZM818.608 533.044C817.255 535.073 815.046 536.163 811.736 536.163V538.163C815.53 538.163 818.457 536.877 820.272 534.153L818.608 533.044ZM811.736 536.163C808.426 536.163 806.201 535.072 804.824 533.038L803.168 534.159C805.007 536.877 807.942 538.163 811.736 538.163V536.163ZM804.828 533.044C803.393 530.892 802.62 527.836 802.62 523.771H800.62C800.62 528.057 801.431 531.553 803.164 534.153L804.828 533.044ZM816.804 523.771C816.804 521.298 816.538 519.286 815.938 517.813L814.086 518.568C814.542 519.687 814.804 521.395 814.804 523.771H816.804ZM815.94 517.819C815.605 516.981 815.068 516.305 814.314 515.85C813.572 515.401 812.693 515.211 811.736 515.211V517.211C812.435 517.211 812.93 517.35 813.28 517.561C813.618 517.766 813.891 518.08 814.084 518.562L815.94 517.819ZM811.736 515.211C810.779 515.211 809.9 515.401 809.158 515.85C808.404 516.305 807.867 516.981 807.532 517.819L809.388 518.562C809.581 518.08 809.854 517.766 810.192 517.561C810.542 517.35 811.037 517.211 811.736 517.211V515.211ZM807.534 517.813C806.934 519.286 806.668 521.298 806.668 523.771H808.668C808.668 521.395 808.93 519.687 809.386 518.568L807.534 517.813ZM806.668 523.771C806.668 525.436 806.766 526.855 806.971 528.014L808.941 527.663C808.762 526.662 808.668 525.369 808.668 523.771H806.668ZM806.972 528.017C807.189 529.211 807.635 530.249 808.349 531.081L809.867 529.78C809.429 529.268 809.107 528.578 808.94 527.66L806.972 528.017ZM808.374 531.11C809.217 532.02 810.395 532.403 811.736 532.403V530.403C810.773 530.403 810.199 530.137 809.842 529.751L808.374 531.11ZM811.736 532.403C813.075 532.403 814.253 532.021 815.075 531.095L813.581 529.766C813.251 530.136 812.701 530.403 811.736 530.403V532.403ZM815.074 531.097C815.818 530.263 816.281 529.22 816.5 528.017L814.532 527.66C814.367 528.569 814.038 529.254 813.582 529.764L815.074 531.097ZM816.501 528.014C816.706 526.855 816.804 525.436 816.804 523.771H814.804C814.804 525.369 814.71 526.662 814.531 527.663L816.501 528.014ZM824.888 532.339L824.266 531.555L823.888 531.856V532.339H824.888ZM826.004 531.439L825.367 530.668L826.559 532.271L826.004 531.439ZM831.548 526.651L830.874 525.912L830.868 525.918L831.548 526.651ZM835.724 516.427L834.953 517.063L834.953 517.063L835.724 516.427ZM831.512 516.643L830.716 516.038L830.712 516.043L831.512 516.643ZM830.756 519.523V520.523H831.756V519.523H830.756ZM824.816 519.523L823.817 519.499L823.793 520.523H824.816V519.523ZM826.112 514.411L825.26 513.887L825.254 513.898L826.112 514.411ZM829.388 511.387L828.96 510.483L828.954 510.486L829.388 511.387ZM840.368 512.611L839.655 513.312L839.661 513.318L840.368 512.611ZM839.936 525.499L840.716 526.124L840.72 526.12L839.936 525.499ZM833.24 531.907L832.63 531.114L830.302 532.907H833.24V531.907ZM842.96 531.907H843.96V530.907H842.96V531.907ZM842.96 536.911V537.911H843.96V536.911H842.96ZM824.888 536.911H823.888V537.911H824.888V536.911ZM825.51 533.122C825.918 532.797 826.218 532.558 826.407 532.406C826.5 532.331 826.572 532.272 826.618 532.233C826.627 532.226 826.676 532.186 826.718 532.144C826.726 532.136 826.741 532.121 826.758 532.101C826.769 532.089 826.809 532.044 826.851 531.98C826.869 531.951 826.915 531.879 826.952 531.777C826.975 531.715 827.085 531.411 826.938 531.053C826.743 530.581 826.314 530.458 826.111 530.438C825.93 530.421 825.79 530.458 825.75 530.469C825.648 530.497 825.574 530.535 825.56 530.542C825.532 530.556 825.511 530.568 825.5 530.575C825.476 530.589 825.458 530.601 825.45 530.606L826.559 532.271C826.555 532.273 826.54 532.283 826.52 532.295C826.51 532.301 826.49 532.313 826.463 532.326C826.45 532.333 826.377 532.371 826.276 532.398C826.235 532.409 826.096 532.446 825.915 532.429C825.712 532.409 825.283 532.286 825.088 531.814C824.941 531.456 825.051 531.152 825.074 531.091C825.111 530.989 825.157 530.917 825.175 530.888C825.217 530.825 825.256 530.781 825.266 530.769C825.283 530.751 825.296 530.737 825.303 530.73C825.336 530.698 825.36 530.678 825.332 530.702C825.303 530.726 825.245 530.774 825.152 530.849C824.969 530.997 824.674 531.232 824.266 531.555L825.51 533.122ZM826.641 532.209C829 530.26 830.865 528.65 832.229 527.383L830.868 525.918C829.544 527.147 827.713 528.729 825.367 530.668L826.641 532.209ZM832.222 527.389C833.641 526.095 834.845 524.73 835.83 523.291L834.179 522.162C833.291 523.459 832.192 524.71 830.874 525.912L832.222 527.389ZM835.83 523.291C836.848 521.803 837.408 520.278 837.408 518.731H835.408C835.408 519.775 835.033 520.914 834.179 522.162L835.83 523.291ZM837.408 518.731C837.408 517.601 837.146 516.578 836.495 515.79L834.953 517.063C835.214 517.379 835.408 517.892 835.408 518.731H837.408ZM836.495 515.79C835.799 514.947 834.794 514.599 833.672 514.599V516.599C834.375 516.599 834.737 516.802 834.953 517.063L836.495 515.79ZM833.672 514.599C832.464 514.599 831.442 515.08 830.716 516.038L832.309 517.247C832.638 516.813 833.057 516.599 833.672 516.599V514.599ZM830.712 516.043C830.029 516.954 829.756 518.158 829.756 519.523H831.756C831.756 518.391 831.988 517.675 832.312 517.243L830.712 516.043ZM830.756 518.523H824.816V520.523H830.756V518.523ZM825.816 519.546C825.861 517.631 826.265 516.107 826.971 514.923L825.254 513.898C824.328 515.45 823.868 517.334 823.817 519.499L825.816 519.546ZM826.965 514.934C827.712 513.716 828.664 512.846 829.823 512.287L828.954 510.486C827.424 511.223 826.193 512.369 825.26 513.887L826.965 514.934ZM829.816 512.29C831.038 511.711 832.402 511.415 833.924 511.415V509.415C832.134 509.415 830.474 509.766 828.96 510.483L829.816 512.29ZM833.924 511.415C836.619 511.415 838.467 512.104 839.655 513.312L841.081 511.909C839.39 510.189 836.942 509.415 833.924 509.415V511.415ZM839.661 513.318C840.912 514.568 841.564 516.208 841.564 518.335H843.564C843.564 515.757 842.753 513.581 841.075 511.903L839.661 513.318ZM841.564 518.335C841.564 520.654 840.779 522.827 839.153 524.877L840.72 526.12C842.597 523.754 843.564 521.151 843.564 518.335H841.564ZM839.156 524.873C837.464 526.983 835.293 529.064 832.63 531.114L833.85 532.699C836.612 530.573 838.905 528.382 840.716 526.124L839.156 524.873ZM833.24 532.907H842.96V530.907H833.24V532.907ZM841.96 531.907V536.911H843.96V531.907H841.96ZM842.96 535.911H824.888V537.911H842.96V535.911ZM825.888 536.911V532.339H823.888V536.911H825.888Z" fill="#FA6F24"/>
<path d="M3.996 1274.01L3.16781 1273.45L3.16395 1273.46L3.996 1274.01ZM19.44 1274.01L18.6079 1274.57L18.6118 1274.57L19.44 1274.01ZM19.44 1293.6L18.6118 1293.04L18.608 1293.04L19.44 1293.6ZM3.996 1293.6L3.16393 1294.15L3.16783 1294.16L3.996 1293.6ZM15.012 1278.19L14.0835 1278.56L14.0859 1278.57L15.012 1278.19ZM8.46 1278.19L9.38611 1278.57L9.38848 1278.56L8.46 1278.19ZM7.956 1287.84L6.97143 1288.01L6.97213 1288.02L7.956 1287.84ZM9.108 1290.43L8.34874 1291.08L8.36122 1291.1L8.37424 1291.11L9.108 1290.43ZM14.328 1290.43L13.5821 1289.76L13.5806 1289.77L14.328 1290.43ZM15.516 1287.84L16.4999 1288.02L16.5006 1288.01L15.516 1287.84ZM2.62 1283.77C2.62 1279.76 3.39225 1276.72 4.82805 1274.57L3.16395 1273.46C1.43175 1276.06 0.62 1279.53 0.62 1283.77H2.62ZM4.82417 1274.57C6.201 1272.54 8.42629 1271.45 11.736 1271.45V1269.45C7.94171 1269.45 5.007 1270.74 3.16783 1273.45L4.82417 1274.57ZM11.736 1271.45C15.0462 1271.45 17.2555 1272.54 18.608 1274.57L20.2721 1273.46C18.4565 1270.74 15.5298 1269.45 11.736 1269.45V1271.45ZM18.6118 1274.57C20.0687 1276.73 20.852 1279.76 20.852 1283.77H22.852C22.852 1279.53 22.0273 1276.05 20.2682 1273.45L18.6118 1274.57ZM20.852 1283.77C20.852 1287.83 20.0676 1290.89 18.6118 1293.04L20.2682 1294.16C22.0284 1291.56 22.852 1288.06 22.852 1283.77H20.852ZM18.608 1293.04C17.2555 1295.07 15.0462 1296.16 11.736 1296.16V1298.16C15.5298 1298.16 18.4565 1296.88 20.2721 1294.15L18.608 1293.04ZM11.736 1296.16C8.42629 1296.16 6.201 1295.07 4.82417 1293.04L3.16783 1294.16C5.007 1296.88 7.94171 1298.16 11.736 1298.16V1296.16ZM4.82805 1293.04C3.39331 1290.89 2.62 1287.84 2.62 1283.77H0.62C0.62 1288.06 1.43069 1291.55 3.16395 1294.15L4.82805 1293.04ZM16.804 1283.77C16.804 1281.3 16.5382 1279.29 15.9381 1277.81L14.0859 1278.57C14.5418 1279.69 14.804 1281.4 14.804 1283.77H16.804ZM15.9405 1277.82C15.6054 1276.98 15.0675 1276.3 14.3143 1275.85C13.5722 1275.4 12.6931 1275.21 11.736 1275.21V1277.21C12.4349 1277.21 12.9298 1277.35 13.2797 1277.56C13.6185 1277.77 13.8906 1278.08 14.0835 1278.56L15.9405 1277.82ZM11.736 1275.21C10.7789 1275.21 9.89979 1275.4 9.15774 1275.85C8.40445 1276.3 7.86657 1276.98 7.53152 1277.82L9.38848 1278.56C9.58143 1278.08 9.85355 1277.77 10.1923 1277.56C10.5422 1277.35 11.0371 1277.21 11.736 1277.21V1275.21ZM7.53391 1277.81C6.93383 1279.29 6.668 1281.3 6.668 1283.77H8.668C8.668 1281.4 8.93017 1279.69 9.38609 1278.57L7.53391 1277.81ZM6.668 1283.77C6.668 1285.44 6.76551 1286.86 6.97144 1288.01L8.94056 1287.66C8.76249 1286.66 8.668 1285.37 8.668 1283.77H6.668ZM6.97213 1288.02C7.18911 1289.21 7.6351 1290.25 8.34874 1291.08L9.86726 1289.78C9.4289 1289.27 9.10689 1288.58 8.93987 1287.66L6.97213 1288.02ZM8.37424 1291.11C9.21671 1292.02 10.3948 1292.4 11.736 1292.4V1290.4C10.7732 1290.4 10.1993 1290.14 9.84176 1289.75L8.37424 1291.11ZM11.736 1292.4C13.0747 1292.4 14.2525 1292.02 15.0754 1291.09L13.5806 1289.77C13.2515 1290.14 12.7013 1290.4 11.736 1290.4V1292.4ZM15.0739 1291.1C15.8183 1290.26 16.2813 1289.22 16.4999 1288.02L14.5321 1287.66C14.3667 1288.57 14.0377 1289.25 13.5821 1289.76L15.0739 1291.1ZM16.5006 1288.01C16.7065 1286.86 16.804 1285.44 16.804 1283.77H14.804C14.804 1285.37 14.7095 1286.66 14.5314 1287.66L16.5006 1288.01ZM43.6084 1276.35V1277.35H44.6084V1276.35H43.6084ZM32.3764 1276.35V1275.35H31.3764V1276.35H32.3764ZM32.3764 1281.32H31.3764V1283.91L33.1163 1282L32.3764 1281.32ZM34.3924 1280.03L34.0299 1279.09L34.0299 1279.09L34.3924 1280.03ZM41.6644 1280.75L41.0943 1281.57L41.1021 1281.57L41.6644 1280.75ZM44.2924 1283.91L45.2124 1283.52L45.2124 1283.52L44.2924 1283.91ZM42.7444 1294.82L43.462 1295.52L43.467 1295.51L42.7444 1294.82ZM31.0444 1296.3L30.6156 1297.2L30.6283 1297.21L31.0444 1296.3ZM27.7684 1293.53L26.9311 1294.07L26.9311 1294.07L27.7684 1293.53ZM26.5084 1289.46V1288.46H25.4604L25.5095 1289.51L26.5084 1289.46ZM32.5204 1289.46L33.5022 1289.27L33.3454 1288.46H32.5204V1289.46ZM33.5644 1291.33L32.8901 1292.07L32.8991 1292.08L32.9082 1292.09L33.5644 1291.33ZM38.3164 1285.39L39.0512 1284.71L39.0512 1284.71L38.3164 1285.39ZM33.7804 1285.07L34.3685 1285.88L34.3803 1285.87L34.3918 1285.86L33.7804 1285.07ZM32.7364 1286.61V1287.61H33.5102L33.7044 1286.87L32.7364 1286.61ZM26.7964 1286.61H25.7964V1287.61H26.7964V1286.61ZM26.7964 1270.95V1269.95H25.7964V1270.95H26.7964ZM43.6084 1270.95H44.6084V1269.95H43.6084V1270.95ZM43.6084 1275.35H32.3764V1277.35H43.6084V1275.35ZM31.3764 1276.35V1281.32H33.3764V1276.35H31.3764ZM33.1163 1282C33.4659 1281.61 33.9934 1281.25 34.7548 1280.96L34.0299 1279.09C33.0633 1279.47 32.2469 1279.98 31.6364 1280.65L33.1163 1282ZM34.7548 1280.96C35.4935 1280.67 36.3055 1280.52 37.2004 1280.52V1278.52C36.0793 1278.52 35.0192 1278.71 34.0299 1279.09L34.7548 1280.96ZM37.2004 1280.52C38.8493 1280.52 40.1243 1280.9 41.0943 1281.57L42.2345 1279.92C40.8524 1278.97 39.1515 1278.52 37.2004 1278.52V1280.52ZM41.1021 1281.57C42.1487 1282.29 42.8978 1283.19 43.3724 1284.31L45.2124 1283.52C44.583 1282.04 43.5801 1280.84 42.2267 1279.92L41.1021 1281.57ZM43.3724 1284.31C43.8678 1285.47 44.1204 1286.74 44.1204 1288.13H46.1204C46.1204 1286.49 45.821 1284.95 45.2124 1283.52L43.3724 1284.31ZM44.1204 1288.13C44.1204 1290.74 43.3894 1292.7 42.0217 1294.13L43.467 1295.51C45.2673 1293.63 46.1204 1291.13 46.1204 1288.13H44.1204ZM42.0268 1294.13C40.6782 1295.52 38.7341 1296.27 36.0484 1296.27V1298.27C39.1227 1298.27 41.6425 1297.39 43.462 1295.52L42.0268 1294.13ZM36.0484 1296.27C34.2393 1296.27 32.7192 1295.97 31.4605 1295.39L30.6283 1297.21C32.2016 1297.93 34.0174 1298.27 36.0484 1298.27V1296.27ZM31.4731 1295.4C30.2037 1294.79 29.2616 1293.98 28.6056 1292.98L26.9311 1294.07C27.8112 1295.42 29.053 1296.46 30.6156 1297.2L31.4731 1295.4ZM28.6056 1292.98C27.9442 1291.97 27.5717 1290.79 27.5073 1289.41L25.5095 1289.51C25.589 1291.2 26.0565 1292.73 26.9311 1294.07L28.6056 1292.98ZM26.5084 1290.46H32.5204V1288.46H26.5084V1290.46ZM31.5386 1289.65C31.7229 1290.6 32.1769 1291.42 32.8901 1292.07L34.2386 1290.59C33.8478 1290.24 33.6059 1289.8 33.5022 1289.27L31.5386 1289.65ZM32.9082 1292.09C33.6927 1292.77 34.7079 1293.05 35.8324 1293.05V1291.05C35.0369 1291.05 34.54 1290.85 34.2206 1290.58L32.9082 1292.09ZM35.8324 1293.05C37.1877 1293.05 38.359 1292.61 39.146 1291.58L37.5588 1290.36C37.2417 1290.78 36.7331 1291.05 35.8324 1291.05V1293.05ZM39.146 1291.58C39.8694 1290.64 40.1804 1289.44 40.1804 1288.09H38.1804C38.1804 1289.14 37.9394 1289.87 37.5588 1290.36L39.146 1291.58ZM40.1804 1288.09C40.1804 1286.76 39.8539 1285.58 39.0512 1284.71L37.5816 1286.07C37.9308 1286.45 38.1804 1287.07 38.1804 1288.09H40.1804ZM39.0512 1284.71C38.2332 1283.83 37.0911 1283.45 35.7964 1283.45V1285.45C36.7097 1285.45 37.2475 1285.71 37.5816 1286.07L39.0512 1284.71ZM35.7964 1283.45C34.8097 1283.45 33.9083 1283.7 33.1689 1284.28L34.3918 1285.86C34.7085 1285.61 35.1511 1285.45 35.7964 1285.45V1283.45ZM33.1922 1284.26C32.4717 1284.78 31.9929 1285.5 31.7684 1286.36L33.7044 1286.87C33.8158 1286.44 34.0331 1286.12 34.3685 1285.88L33.1922 1284.26ZM32.7364 1285.61H26.7964V1287.61H32.7364V1285.61ZM27.7964 1286.61V1270.95H25.7964V1286.61H27.7964ZM26.7964 1271.95H43.6084V1269.95H26.7964V1271.95ZM42.6084 1270.95V1276.35H44.6084V1270.95H42.6084Z" fill="#FA6F24"/>
<path d="M848.996 1284.01L848.168 1283.45L848.164 1283.46L848.996 1284.01ZM864.44 1284.01L863.608 1284.57L863.612 1284.57L864.44 1284.01ZM864.44 1303.6L863.612 1303.04L863.608 1303.04L864.44 1303.6ZM848.996 1303.6L848.164 1304.15L848.168 1304.16L848.996 1303.6ZM860.012 1288.19L859.084 1288.56L859.086 1288.57L860.012 1288.19ZM853.46 1288.19L854.386 1288.57L854.388 1288.56L853.46 1288.19ZM852.956 1297.84L851.971 1298.01L851.972 1298.02L852.956 1297.84ZM854.108 1300.43L853.349 1301.08L853.361 1301.1L853.374 1301.11L854.108 1300.43ZM859.328 1300.43L858.582 1299.76L858.581 1299.77L859.328 1300.43ZM860.516 1297.84L861.5 1298.02L861.501 1298.01L860.516 1297.84ZM847.62 1293.77C847.62 1289.76 848.392 1286.72 849.828 1284.57L848.164 1283.46C846.432 1286.06 845.62 1289.53 845.62 1293.77H847.62ZM849.824 1284.57C851.201 1282.54 853.426 1281.45 856.736 1281.45V1279.45C852.942 1279.45 850.007 1280.74 848.168 1283.45L849.824 1284.57ZM856.736 1281.45C860.046 1281.45 862.255 1282.54 863.608 1284.57L865.272 1283.46C863.457 1280.74 860.53 1279.45 856.736 1279.45V1281.45ZM863.612 1284.57C865.069 1286.73 865.852 1289.76 865.852 1293.77H867.852C867.852 1289.53 867.027 1286.05 865.268 1283.45L863.612 1284.57ZM865.852 1293.77C865.852 1297.83 865.068 1300.89 863.612 1303.04L865.268 1304.16C867.028 1301.56 867.852 1298.06 867.852 1293.77H865.852ZM863.608 1303.04C862.255 1305.07 860.046 1306.16 856.736 1306.16V1308.16C860.53 1308.16 863.457 1306.88 865.272 1304.15L863.608 1303.04ZM856.736 1306.16C853.426 1306.16 851.201 1305.07 849.824 1303.04L848.168 1304.16C850.007 1306.88 852.942 1308.16 856.736 1308.16V1306.16ZM849.828 1303.04C848.393 1300.89 847.62 1297.84 847.62 1293.77H845.62C845.62 1298.06 846.431 1301.55 848.164 1304.15L849.828 1303.04ZM861.804 1293.77C861.804 1291.3 861.538 1289.29 860.938 1287.81L859.086 1288.57C859.542 1289.69 859.804 1291.4 859.804 1293.77H861.804ZM860.94 1287.82C860.605 1286.98 860.068 1286.3 859.314 1285.85C858.572 1285.4 857.693 1285.21 856.736 1285.21V1287.21C857.435 1287.21 857.93 1287.35 858.28 1287.56C858.618 1287.77 858.891 1288.08 859.084 1288.56L860.94 1287.82ZM856.736 1285.21C855.779 1285.21 854.9 1285.4 854.158 1285.85C853.404 1286.3 852.867 1286.98 852.532 1287.82L854.388 1288.56C854.581 1288.08 854.854 1287.77 855.192 1287.56C855.542 1287.35 856.037 1287.21 856.736 1287.21V1285.21ZM852.534 1287.81C851.934 1289.29 851.668 1291.3 851.668 1293.77H853.668C853.668 1291.4 853.93 1289.69 854.386 1288.57L852.534 1287.81ZM851.668 1293.77C851.668 1295.44 851.766 1296.86 851.971 1298.01L853.941 1297.66C853.762 1296.66 853.668 1295.37 853.668 1293.77H851.668ZM851.972 1298.02C852.189 1299.21 852.635 1300.25 853.349 1301.08L854.867 1299.78C854.429 1299.27 854.107 1298.58 853.94 1297.66L851.972 1298.02ZM853.374 1301.11C854.217 1302.02 855.395 1302.4 856.736 1302.4V1300.4C855.773 1300.4 855.199 1300.14 854.842 1299.75L853.374 1301.11ZM856.736 1302.4C858.075 1302.4 859.253 1302.02 860.075 1301.09L858.581 1299.77C858.251 1300.14 857.701 1300.4 856.736 1300.4V1302.4ZM860.074 1301.1C860.818 1300.26 861.281 1299.22 861.5 1298.02L859.532 1297.66C859.367 1298.57 859.038 1299.25 858.582 1299.76L860.074 1301.1ZM861.501 1298.01C861.706 1296.86 861.804 1295.44 861.804 1293.77H859.804C859.804 1295.37 859.71 1296.66 859.531 1297.66L861.501 1298.01ZM870.248 1302.59H869.248V1303.59H870.248V1302.59ZM870.248 1297.62L869.429 1297.05L869.248 1297.31V1297.62H870.248ZM881.624 1281.35V1280.35H881.103L880.805 1280.78L881.624 1281.35ZM888.5 1281.35H889.5V1280.35H888.5V1281.35ZM888.5 1297.26H887.5V1298.26H888.5V1297.26ZM891.452 1297.26H892.452V1296.26H891.452V1297.26ZM891.452 1302.59V1303.59H892.452V1302.59H891.452ZM888.5 1302.59V1301.59H887.5V1302.59H888.5ZM888.5 1307.27V1308.27H889.5V1307.27H888.5ZM882.344 1307.27H881.344V1308.27H882.344V1307.27ZM882.344 1302.59H883.344V1301.59H882.344V1302.59ZM882.776 1288.12H883.776V1284.79L881.942 1287.57L882.776 1288.12ZM876.728 1297.26L875.894 1296.71L874.868 1298.26H876.728V1297.26ZM882.776 1297.26V1298.26H883.776V1297.26H882.776ZM871.248 1302.59V1297.62H869.248V1302.59H871.248ZM871.068 1298.2L882.444 1281.92L880.805 1280.78L869.429 1297.05L871.068 1298.2ZM881.624 1282.35H888.5V1280.35H881.624V1282.35ZM887.5 1281.35V1297.26H889.5V1281.35H887.5ZM888.5 1298.26H891.452V1296.26H888.5V1298.26ZM890.452 1297.26V1302.59H892.452V1297.26H890.452ZM891.452 1301.59H888.5V1303.59H891.452V1301.59ZM887.5 1302.59V1307.27H889.5V1302.59H887.5ZM888.5 1306.27H882.344V1308.27H888.5V1306.27ZM883.344 1307.27V1302.59H881.344V1307.27H883.344ZM882.344 1301.59H870.248V1303.59H882.344V1301.59ZM881.942 1287.57L875.894 1296.71L877.562 1297.81L883.61 1288.67L881.942 1287.57ZM876.728 1298.26H882.776V1296.26H876.728V1298.26ZM883.776 1297.26V1288.12H881.776V1297.26H883.776Z" fill="#FA6F24"/>
<path d="M343.996 658.015L343.168 657.454L343.164 657.46L343.996 658.015ZM359.44 658.015L358.608 658.569L358.612 658.575L359.44 658.015ZM359.44 677.599L358.612 677.038L358.608 677.044L359.44 677.599ZM343.996 677.599L343.164 678.153L343.168 678.159L343.996 677.599ZM355.012 662.191L354.084 662.562L354.086 662.568L355.012 662.191ZM348.46 662.191L349.386 662.568L349.388 662.562L348.46 662.191ZM347.956 671.839L346.971 672.014L346.972 672.017L347.956 671.839ZM349.108 674.431L348.349 675.081L348.361 675.096L348.374 675.11L349.108 674.431ZM354.328 674.431L353.582 673.764L353.581 673.766L354.328 674.431ZM355.516 671.839L356.5 672.017L356.501 672.014L355.516 671.839ZM342.62 667.771C342.62 663.756 343.392 660.723 344.828 658.569L343.164 657.46C341.432 660.058 340.62 663.529 340.62 667.771H342.62ZM344.824 658.575C346.201 656.541 348.426 655.451 351.736 655.451V653.451C347.942 653.451 345.007 654.736 343.168 657.454L344.824 658.575ZM351.736 655.451C355.046 655.451 357.255 656.541 358.608 658.569L360.272 657.46C358.457 654.737 355.53 653.451 351.736 653.451V655.451ZM358.612 658.575C360.069 660.728 360.852 663.759 360.852 667.771H362.852C362.852 663.526 362.027 660.053 360.268 657.454L358.612 658.575ZM360.852 667.771C360.852 671.833 360.068 674.887 358.612 677.038L360.268 678.159C362.028 675.558 362.852 672.06 362.852 667.771H360.852ZM358.608 677.044C357.255 679.073 355.046 680.163 351.736 680.163V682.163C355.53 682.163 358.457 680.877 360.272 678.153L358.608 677.044ZM351.736 680.163C348.426 680.163 346.201 679.072 344.824 677.038L343.168 678.159C345.007 680.877 347.942 682.163 351.736 682.163V680.163ZM344.828 677.044C343.393 674.892 342.62 671.836 342.62 667.771H340.62C340.62 672.057 341.431 675.553 343.164 678.153L344.828 677.044ZM356.804 667.771C356.804 665.298 356.538 663.286 355.938 661.813L354.086 662.568C354.542 663.687 354.804 665.395 354.804 667.771H356.804ZM355.94 661.819C355.605 660.981 355.068 660.305 354.314 659.85C353.572 659.401 352.693 659.211 351.736 659.211V661.211C352.435 661.211 352.93 661.35 353.28 661.561C353.618 661.766 353.891 662.08 354.084 662.562L355.94 661.819ZM351.736 659.211C350.779 659.211 349.9 659.401 349.158 659.85C348.404 660.305 347.867 660.981 347.532 661.819L349.388 662.562C349.581 662.08 349.854 661.766 350.192 661.561C350.542 661.35 351.037 661.211 351.736 661.211V659.211ZM347.534 661.813C346.934 663.286 346.668 665.298 346.668 667.771H348.668C348.668 665.395 348.93 663.687 349.386 662.568L347.534 661.813ZM346.668 667.771C346.668 669.436 346.766 670.855 346.971 672.014L348.941 671.663C348.762 670.662 348.668 669.369 348.668 667.771H346.668ZM346.972 672.017C347.189 673.211 347.635 674.249 348.349 675.081L349.867 673.78C349.429 673.268 349.107 672.578 348.94 671.66L346.972 672.017ZM348.374 675.11C349.217 676.02 350.395 676.403 351.736 676.403V674.403C350.773 674.403 350.199 674.137 349.842 673.751L348.374 675.11ZM351.736 676.403C353.075 676.403 354.253 676.021 355.075 675.095L353.581 673.766C353.251 674.136 352.701 674.403 351.736 674.403V676.403ZM355.074 675.097C355.818 674.263 356.281 673.22 356.5 672.017L354.532 671.66C354.367 672.569 354.038 673.254 353.582 673.764L355.074 675.097ZM356.501 672.014C356.706 670.855 356.804 669.436 356.804 667.771H354.804C354.804 669.369 354.71 670.662 354.531 671.663L356.501 672.014ZM365.32 662.407L364.321 662.369L364.282 663.407H365.32V662.407ZM367.84 656.467L368.5 657.218L367.84 656.467ZM378.892 655.315L378.452 656.212L378.459 656.216L378.892 655.315ZM381.808 657.871L380.951 658.385L380.955 658.392L380.959 658.399L381.808 657.871ZM381.628 665.395L382.407 666.022L382.415 666.012L381.628 665.395ZM378.856 667.411L378.534 666.464L377.856 666.695V667.411H378.856ZM378.856 667.555H377.856V668.275L378.54 668.503L378.856 667.555ZM382.24 677.851L381.384 677.333L381.381 677.339L382.24 677.851ZM379.252 680.515L378.812 679.617L378.805 679.62L379.252 680.515ZM367.696 679.363L367.057 680.132L367.063 680.136L367.696 679.363ZM364.996 672.955V671.955H363.962L363.997 672.988L364.996 672.955ZM370.972 672.955L371.972 672.932L371.95 671.955H370.972V672.955ZM371.872 675.475L371.138 676.153L371.144 676.16L371.151 676.167L371.872 675.475ZM376.552 675.583L375.83 674.891L375.829 674.892L376.552 675.583ZM376.228 670.939L375.637 671.745L375.652 671.756L375.668 671.766L376.228 670.939ZM371.584 670.147H370.584V671.147H371.584V670.147ZM371.584 665.143V664.143H370.584V665.143H371.584ZM375.688 664.531L376.169 665.407L376.179 665.402L375.688 664.531ZM376.12 660.247L376.827 659.539H376.827L376.12 660.247ZM372.088 660.355L371.317 659.718L371.309 659.728L371.301 659.738L372.088 660.355ZM371.332 662.407V663.407H372.248L372.329 662.494L371.332 662.407ZM366.32 662.444C366.408 660.086 367.167 658.39 368.5 657.218L367.18 655.715C365.346 657.327 364.425 659.591 364.321 662.369L366.32 662.444ZM368.5 657.218C369.855 656.028 371.744 655.379 374.284 655.379V653.379C371.401 653.379 368.994 654.121 367.18 655.715L368.5 657.218ZM374.284 655.379C375.972 655.379 377.349 655.671 378.452 656.212L379.333 654.417C377.892 653.71 376.197 653.379 374.284 653.379V655.379ZM378.459 656.216C379.604 656.767 380.417 657.495 380.951 658.385L382.666 657.356C381.904 656.086 380.772 655.11 379.326 654.414L378.459 656.216ZM380.959 658.399C381.527 659.311 381.816 660.338 381.816 661.507H383.816C383.816 659.987 383.434 658.59 382.657 657.342L380.959 658.399ZM381.816 661.507C381.816 662.921 381.466 663.983 380.842 664.777L382.415 666.012C383.375 664.79 383.816 663.26 383.816 661.507H381.816ZM380.849 664.767C380.16 665.624 379.388 666.173 378.534 666.464L379.179 668.357C380.437 667.928 381.513 667.133 382.407 666.022L380.849 664.767ZM377.856 667.411V667.555H379.856V667.411H377.856ZM378.54 668.503C379.734 668.901 380.638 669.544 381.296 670.423L382.896 669.223C381.971 667.989 380.715 667.12 379.173 666.606L378.54 668.503ZM381.296 670.423C381.929 671.266 382.284 672.395 382.284 673.891H384.284C384.284 672.074 383.848 670.492 382.896 669.223L381.296 670.423ZM382.284 673.891C382.284 675.216 381.976 676.354 381.384 677.333L383.096 678.368C383.896 677.043 384.284 675.541 384.284 673.891H382.284ZM381.381 677.339C380.82 678.281 379.979 679.044 378.812 679.617L379.693 681.412C381.165 680.689 382.317 679.676 383.099 678.362L381.381 677.339ZM378.805 679.62C377.678 680.184 376.29 680.487 374.608 680.487V682.487C376.527 682.487 378.235 682.141 379.7 681.409L378.805 679.62ZM374.608 680.487C371.892 680.487 369.833 679.821 368.33 678.589L367.063 680.136C369.016 681.736 371.565 682.487 374.608 682.487V680.487ZM368.335 678.593C366.911 677.41 366.085 675.58 365.996 672.921L363.997 672.988C364.1 676.041 365.074 678.483 367.057 680.132L368.335 678.593ZM364.996 673.955H370.972V671.955H364.996V673.955ZM369.973 672.977C370.001 674.215 370.359 675.309 371.138 676.153L372.607 674.796C372.234 674.392 371.992 673.806 371.972 672.932L369.973 672.977ZM371.151 676.167C371.971 677.022 373.109 677.375 374.392 677.375V675.375C373.468 675.375 372.925 675.127 372.594 674.782L371.151 676.167ZM374.392 677.375C375.52 677.375 376.533 677.051 377.276 676.273L375.829 674.892C375.563 675.17 375.136 675.375 374.392 675.375V677.375ZM377.275 676.274C378.01 675.506 378.344 674.523 378.344 673.423H376.344C376.344 674.098 376.151 674.556 375.83 674.891L377.275 676.274ZM378.344 673.423C378.344 672.044 377.885 670.853 376.789 670.111L375.668 671.766C376.06 672.032 376.344 672.497 376.344 673.423H378.344ZM376.82 670.132C375.838 669.412 374.408 669.147 372.736 669.147V671.147C374.281 671.147 375.179 671.409 375.637 671.745L376.82 670.132ZM372.736 669.147H371.584V671.147H372.736V669.147ZM372.584 670.147V665.143H370.584V670.147H372.584ZM371.584 666.143H372.736V664.143H371.584V666.143ZM372.736 666.143C374.059 666.143 375.227 665.924 376.169 665.407L375.208 663.654C374.662 663.953 373.862 664.143 372.736 664.143V666.143ZM376.179 665.402C377.337 664.75 377.84 663.608 377.84 662.263H375.84C375.84 663.077 375.576 663.447 375.198 663.659L376.179 665.402ZM377.84 662.263C377.84 661.209 377.543 660.255 376.827 659.539L375.413 660.954C375.658 661.198 375.84 661.588 375.84 662.263H377.84ZM376.827 659.539C376.118 658.829 375.179 658.527 374.14 658.527V660.527C374.782 660.527 375.163 660.704 375.413 660.954L376.827 659.539ZM374.14 658.527C373.019 658.527 372.013 658.875 371.317 659.718L372.859 660.991C373.075 660.73 373.438 660.527 374.14 660.527V658.527ZM371.301 659.738C370.731 660.467 370.422 661.343 370.336 662.319L372.329 662.494C372.386 661.838 372.582 661.346 372.876 660.971L371.301 659.738ZM371.332 661.407H365.32V663.407H371.332V661.407Z" fill="#FA6F24"/>
</svg>
