<svg width="248" height="707" viewBox="0 0 248 707" fill="none" xmlns="http://www.w3.org/2000/svg">
<path d="M21.5 75L0.1 0.499994H8.2L26.7 67.2H25L44 0.499994H52.5L71.4 67.2H69.6L88.2 0.499994H96.3L74.9 75H66.4L47.3 8H49.1L30 75H21.5ZM127.534 76.2C122.534 76.2 118 75 113.934 72.6C109.934 70.1333 106.767 66.7667 104.434 62.5C102.1 58.2333 100.934 53.4 100.934 48C100.934 42.6 102.067 37.8333 104.334 33.7C106.6 29.5 109.667 26.2 113.534 23.8C117.467 21.4 121.867 20.2 126.734 20.2C130.6 20.2 134.034 20.9333 137.034 22.4C140.1 23.8 142.7 25.7333 144.834 28.2C146.967 30.6 148.6 33.3333 149.734 36.4C150.867 39.4 151.434 42.5 151.434 45.7C151.434 46.3667 151.4 47.1333 151.334 48C151.267 48.8 151.167 49.6333 151.034 50.5H105.734V43.5H146.734L143.134 46.5C143.734 42.8333 143.3 39.5667 141.834 36.7C140.434 33.7667 138.4 31.4667 135.734 29.8C133.067 28.0667 130.067 27.2 126.734 27.2C123.4 27.2 120.3 28.0667 117.434 29.8C114.634 31.5333 112.434 33.9667 110.834 37.1C109.234 40.1667 108.6 43.8333 108.934 48.1C108.6 52.3667 109.267 56.1 110.934 59.3C112.667 62.4333 115 64.8667 117.934 66.6C120.934 68.3333 124.134 69.2 127.534 69.2C131.467 69.2 134.767 68.2667 137.434 66.4C140.1 64.5333 142.267 62.2 143.934 59.4L150.334 62.8C149.267 65.2 147.634 67.4333 145.434 69.5C143.234 71.5 140.6 73.1333 137.534 74.4C134.534 75.6 131.2 76.2 127.534 76.2ZM4.5 201V193H8.5C12.2333 193 15.1667 191.9 17.3 189.7C19.4333 187.433 20.5 184.367 20.5 180.5V126.5H28.5V180.5C28.5 184.7 27.6667 188.333 26 191.4C24.4 194.467 22.1 196.833 19.1 198.5C16.1 200.167 12.5667 201 8.5 201H4.5ZM65.9813 202.2C62.2479 202.2 58.8479 201.333 55.7813 199.6C52.7146 197.8 50.2813 195.333 48.4813 192.2C46.7479 189 45.8812 185.333 45.8812 181.2V147.4H53.3813V180.3C53.3813 183.167 53.9479 185.7 55.0813 187.9C56.2813 190.033 57.9146 191.7 59.9813 192.9C62.1146 194.1 64.5479 194.7 67.2813 194.7C70.0146 194.7 72.4479 194.1 74.5813 192.9C76.7146 191.633 78.3813 189.867 79.5813 187.6C80.7813 185.267 81.3813 182.5 81.3813 179.3V147.4H88.8813V201H81.3813V190.6L83.0813 191C81.8146 194.467 79.6479 197.2 76.5813 199.2C73.5146 201.2 69.9813 202.2 65.9813 202.2ZM124.905 202.2C119.772 202.2 115.272 200.9 111.405 198.3C107.539 195.7 104.739 192.167 103.005 187.7L109.305 184.7C110.839 187.967 112.972 190.567 115.705 192.5C118.505 194.433 121.572 195.4 124.905 195.4C128.105 195.4 130.805 194.633 133.005 193.1C135.205 191.5 136.305 189.433 136.305 186.9C136.305 185.033 135.772 183.567 134.705 182.5C133.639 181.367 132.405 180.5 131.005 179.9C129.605 179.3 128.372 178.867 127.305 178.6L119.605 176.4C114.672 175 111.105 173.033 108.905 170.5C106.705 167.967 105.605 165.033 105.605 161.7C105.605 158.567 106.405 155.833 108.005 153.5C109.605 151.167 111.772 149.367 114.505 148.1C117.239 146.833 120.272 146.2 123.605 146.2C128.139 146.2 132.239 147.4 135.905 149.8C139.639 152.133 142.272 155.4 143.805 159.6L137.405 162.6C136.072 159.6 134.139 157.267 131.605 155.6C129.139 153.867 126.372 153 123.305 153C120.305 153 117.905 153.767 116.105 155.3C114.305 156.833 113.405 158.767 113.405 161.1C113.405 162.9 113.872 164.333 114.805 165.4C115.739 166.467 116.805 167.267 118.005 167.8C119.272 168.333 120.372 168.733 121.305 169L130.205 171.6C134.539 172.867 137.905 174.833 140.305 177.5C142.772 180.167 144.005 183.3 144.005 186.9C144.005 189.833 143.172 192.467 141.505 194.8C139.905 197.133 137.672 198.967 134.805 200.3C131.939 201.567 128.639 202.2 124.905 202.2ZM179.684 201.6C174.884 201.6 171.184 200.2 168.584 197.4C165.984 194.6 164.684 190.6 164.684 185.4V154.9H154.784V147.4H157.284C159.551 147.4 161.351 146.667 162.684 145.2C164.018 143.667 164.684 141.767 164.684 139.5V135H172.184V147.4H183.984V154.9H172.184V185.4C172.184 187.2 172.451 188.8 172.984 190.2C173.518 191.533 174.418 192.6 175.684 193.4C177.018 194.2 178.784 194.6 180.984 194.6C181.518 194.6 182.151 194.567 182.884 194.5C183.618 194.433 184.251 194.367 184.784 194.3V201C183.984 201.2 183.084 201.333 182.084 201.4C181.084 201.533 180.284 201.6 179.684 201.6ZM21.5 327L0.1 252.5H8.2L26.7 319.2H25L44 252.5H52.5L71.4 319.2H69.6L88.2 252.5H96.3L74.9 327H66.4L47.3 260H49.1L30 327H21.5ZM118.634 328.2C115.234 328.2 112.2 327.567 109.534 326.3C106.867 324.967 104.767 323.167 103.234 320.9C101.7 318.633 100.934 316.033 100.934 313.1C100.934 310.3 101.534 307.767 102.734 305.5C103.934 303.167 105.8 301.2 108.334 299.6C110.867 298 114.1 296.867 118.034 296.2L139.034 292.7V299.5L119.834 302.7C115.967 303.367 113.167 304.6 111.434 306.4C109.767 308.2 108.934 310.333 108.934 312.8C108.934 315.2 109.867 317.233 111.734 318.9C113.667 320.567 116.134 321.4 119.134 321.4C122.8 321.4 126 320.633 128.734 319.1C131.467 317.5 133.6 315.367 135.134 312.7C136.667 310.033 137.434 307.067 137.434 303.8V290.2C137.434 287 136.267 284.4 133.934 282.4C131.6 280.4 128.567 279.4 124.834 279.4C121.567 279.4 118.7 280.233 116.234 281.9C113.767 283.5 111.934 285.6 110.734 288.2L103.934 284.5C104.934 282.233 106.5 280.167 108.634 278.3C110.834 276.433 113.334 274.967 116.134 273.9C118.934 272.767 121.834 272.2 124.834 272.2C128.767 272.2 132.234 272.967 135.234 274.5C138.3 276.033 140.667 278.167 142.334 280.9C144.067 283.567 144.934 286.667 144.934 290.2V327H137.434V316.3L138.534 317.4C137.6 319.4 136.134 321.233 134.134 322.9C132.2 324.5 129.9 325.8 127.234 326.8C124.634 327.733 121.767 328.2 118.634 328.2ZM162.36 327V273.4H169.86V283.8L168.16 283.4C169.493 279.933 171.66 277.2 174.66 275.2C177.727 273.2 181.26 272.2 185.26 272.2C189.06 272.2 192.46 273.067 195.46 274.8C198.527 276.533 200.927 278.933 202.66 282C204.46 285 205.36 288.4 205.36 292.2V327H197.86V295.1C197.86 291.833 197.26 289.067 196.06 286.8C194.927 284.533 193.293 282.8 191.16 281.6C189.093 280.333 186.693 279.7 183.96 279.7C181.227 279.7 178.793 280.333 176.66 281.6C174.527 282.8 172.86 284.567 171.66 286.9C170.46 289.167 169.86 291.9 169.86 295.1V327H162.36ZM242.184 327.6C237.384 327.6 233.684 326.2 231.084 323.4C228.484 320.6 227.184 316.6 227.184 311.4V280.9H217.284V273.4H219.784C222.051 273.4 223.851 272.667 225.184 271.2C226.518 269.667 227.184 267.767 227.184 265.5V261H234.684V273.4H246.484V280.9H234.684V311.4C234.684 313.2 234.951 314.8 235.484 316.2C236.018 317.533 236.918 318.6 238.184 319.4C239.518 320.2 241.284 320.6 243.484 320.6C244.018 320.6 244.651 320.567 245.384 320.5C246.118 320.433 246.751 320.367 247.284 320.3V327C246.484 327.2 245.584 327.333 244.584 327.4C243.584 327.533 242.784 327.6 242.184 327.6ZM26.2 453V418.4L0.1 378.5H9L31.8 413.2H28.6L51.3 378.5H60.2L34.2 418.4V453H26.2ZM86.1438 454.2C81.0771 454.2 76.4771 453 72.3438 450.6C68.2104 448.133 64.9104 444.8 62.4438 440.6C60.0438 436.333 58.8438 431.5 58.8438 426.1C58.8438 420.767 60.0438 416 62.4438 411.8C64.8438 407.6 68.0771 404.3 72.1438 401.9C76.2771 399.433 80.9438 398.2 86.1438 398.2C91.3438 398.2 95.9771 399.4 100.044 401.8C104.177 404.2 107.41 407.5 109.744 411.7C112.144 415.9 113.344 420.7 113.344 426.1C113.344 431.567 112.11 436.433 109.644 440.7C107.177 444.9 103.877 448.2 99.7438 450.6C95.6771 453 91.1438 454.2 86.1438 454.2ZM86.1438 446.7C89.7438 446.7 92.9771 445.8 95.8438 444C98.7771 442.2 101.077 439.733 102.744 436.6C104.477 433.467 105.344 429.967 105.344 426.1C105.344 422.233 104.477 418.767 102.744 415.7C101.077 412.633 98.7771 410.2 95.8438 408.4C92.9771 406.6 89.7438 405.7 86.1438 405.7C82.5438 405.7 79.2771 406.6 76.3438 408.4C73.4771 410.2 71.1771 412.633 69.4438 415.7C67.7104 418.767 66.8438 422.233 66.8438 426.1C66.8438 429.967 67.7104 433.467 69.4438 436.6C71.1771 439.733 73.4771 442.2 76.3438 444C79.2771 445.8 82.5438 446.7 86.1438 446.7ZM147.571 454.2C143.838 454.2 140.438 453.333 137.371 451.6C134.304 449.8 131.871 447.333 130.071 444.2C128.338 441 127.471 437.333 127.471 433.2V399.4H134.971V432.3C134.971 435.167 135.538 437.7 136.671 439.9C137.871 442.033 139.504 443.7 141.571 444.9C143.704 446.1 146.138 446.7 148.871 446.7C151.604 446.7 154.038 446.1 156.171 444.9C158.304 443.633 159.971 441.867 161.171 439.6C162.371 437.267 162.971 434.5 162.971 431.3V399.4H170.471V453H162.971V442.6L164.671 443C163.404 446.467 161.238 449.2 158.171 451.2C155.104 453.2 151.571 454.2 147.571 454.2ZM187.895 453V399.4H195.395V408.2L194.395 406.9C195.662 404.367 197.562 402.367 200.095 400.9C202.695 399.433 205.829 398.7 209.495 398.7H212.895V406.2H208.195C204.329 406.2 201.229 407.4 198.895 409.8C196.562 412.2 195.395 415.6 195.395 420V453H187.895ZM20.7 579V512H0.1V504.5H49.1V512H28.7V579H20.7ZM53.9148 579V525.4H61.4148V534.2L60.4148 532.9C61.6815 530.367 63.5815 528.367 66.1148 526.9C68.7148 525.433 71.8482 524.7 75.5148 524.7H78.9148V532.2H74.2148C70.3482 532.2 67.2482 533.4 64.9148 535.8C62.5815 538.2 61.4148 541.6 61.4148 546V579H53.9148ZM108.704 580.2C104.971 580.2 101.571 579.333 98.5039 577.6C95.4372 575.8 93.0039 573.333 91.2039 570.2C89.4706 567 88.6039 563.333 88.6039 559.2V525.4H96.1039V558.3C96.1039 561.167 96.6706 563.7 97.8039 565.9C99.0039 568.033 100.637 569.7 102.704 570.9C104.837 572.1 107.271 572.7 110.004 572.7C112.737 572.7 115.171 572.1 117.304 570.9C119.437 569.633 121.104 567.867 122.304 565.6C123.504 563.267 124.104 560.5 124.104 557.3V525.4H131.604V579H124.104V568.6L125.804 569C124.537 572.467 122.371 575.2 119.304 577.2C116.237 579.2 112.704 580.2 108.704 580.2ZM167.628 580.2C162.495 580.2 157.995 578.9 154.128 576.3C150.261 573.7 147.461 570.167 145.728 565.7L152.028 562.7C153.561 565.967 155.695 568.567 158.428 570.5C161.228 572.433 164.295 573.4 167.628 573.4C170.828 573.4 173.528 572.633 175.728 571.1C177.928 569.5 179.028 567.433 179.028 564.9C179.028 563.033 178.495 561.567 177.428 560.5C176.361 559.367 175.128 558.5 173.728 557.9C172.328 557.3 171.095 556.867 170.028 556.6L162.328 554.4C157.395 553 153.828 551.033 151.628 548.5C149.428 545.967 148.328 543.033 148.328 539.7C148.328 536.567 149.128 533.833 150.728 531.5C152.328 529.167 154.495 527.367 157.228 526.1C159.961 524.833 162.995 524.2 166.328 524.2C170.861 524.2 174.961 525.4 178.628 527.8C182.361 530.133 184.995 533.4 186.528 537.6L180.128 540.6C178.795 537.6 176.861 535.267 174.328 533.6C171.861 531.867 169.095 531 166.028 531C163.028 531 160.628 531.767 158.828 533.3C157.028 534.833 156.128 536.767 156.128 539.1C156.128 540.9 156.595 542.333 157.528 543.4C158.461 544.467 159.528 545.267 160.728 545.8C161.995 546.333 163.095 546.733 164.028 547L172.928 549.6C177.261 550.867 180.628 552.833 183.028 555.5C185.495 558.167 186.728 561.3 186.728 564.9C186.728 567.833 185.895 570.467 184.228 572.8C182.628 575.133 180.395 576.967 177.528 578.3C174.661 579.567 171.361 580.2 167.628 580.2ZM222.407 579.6C217.607 579.6 213.907 578.2 211.307 575.4C208.707 572.6 207.407 568.6 207.407 563.4V532.9H197.507V525.4H200.007C202.274 525.4 204.074 524.667 205.407 523.2C206.74 521.667 207.407 519.767 207.407 517.5V513H214.907V525.4H226.707V532.9H214.907V563.4C214.907 565.2 215.174 566.8 215.707 568.2C216.24 569.533 217.14 570.6 218.407 571.4C219.74 572.2 221.507 572.6 223.707 572.6C224.24 572.6 224.874 572.567 225.607 572.5C226.34 572.433 226.974 572.367 227.507 572.3V579C226.707 579.2 225.807 579.333 224.807 579.4C223.807 579.533 223.007 579.6 222.407 579.6ZM7.8 705V630.5H15.8V705H7.8ZM34.2859 705V651.4H41.7859V661.8L40.0859 661.4C41.4193 657.933 43.5859 655.2 46.5859 653.2C49.6526 651.2 53.1859 650.2 57.1859 650.2C60.9859 650.2 64.3859 651.067 67.3859 652.8C70.4526 654.533 72.8526 656.933 74.5859 660C76.3859 663 77.2859 666.4 77.2859 670.2V705H69.7859V673.1C69.7859 669.833 69.1859 667.067 67.9859 664.8C66.8526 662.533 65.2193 660.8 63.0859 659.6C61.0193 658.333 58.6193 657.7 55.8859 657.7C53.1526 657.7 50.7193 658.333 48.5859 659.6C46.4526 660.8 44.7859 662.567 43.5859 664.9C42.3859 667.167 41.7859 669.9 41.7859 673.1V705H34.2859ZM139.902 706.2C134.636 706.2 130.002 705.1 126.002 702.9C122.002 700.7 118.902 697.7 116.702 693.9C114.502 690.033 113.402 685.633 113.402 680.7V630.5H121.402V680.7C121.402 684.3 122.169 687.467 123.702 690.2C125.302 692.867 127.469 694.967 130.202 696.5C133.002 697.967 136.236 698.7 139.902 698.7C143.569 698.7 146.769 697.967 149.502 696.5C152.302 694.967 154.469 692.867 156.002 690.2C157.602 687.467 158.402 684.3 158.402 680.7V630.5H166.402V680.7C166.402 685.633 165.302 690.033 163.102 693.9C160.902 697.7 157.802 700.7 153.802 702.9C149.869 705.1 145.236 706.2 139.902 706.2ZM203.222 706.2C198.089 706.2 193.589 704.9 189.722 702.3C185.855 699.7 183.055 696.167 181.322 691.7L187.622 688.7C189.155 691.967 191.289 694.567 194.022 696.5C196.822 698.433 199.889 699.4 203.222 699.4C206.422 699.4 209.122 698.633 211.322 697.1C213.522 695.5 214.622 693.433 214.622 690.9C214.622 689.033 214.089 687.567 213.022 686.5C211.955 685.367 210.722 684.5 209.322 683.9C207.922 683.3 206.689 682.867 205.622 682.6L197.922 680.4C192.989 679 189.422 677.033 187.222 674.5C185.022 671.967 183.922 669.033 183.922 665.7C183.922 662.567 184.722 659.833 186.322 657.5C187.922 655.167 190.089 653.367 192.822 652.1C195.555 650.833 198.589 650.2 201.922 650.2C206.455 650.2 210.555 651.4 214.222 653.8C217.955 656.133 220.589 659.4 222.122 663.6L215.722 666.6C214.389 663.6 212.455 661.267 209.922 659.6C207.455 657.867 204.689 657 201.622 657C198.622 657 196.222 657.767 194.422 659.3C192.622 660.833 191.722 662.767 191.722 665.1C191.722 666.9 192.189 668.333 193.122 669.4C194.055 670.467 195.122 671.267 196.322 671.8C197.589 672.333 198.689 672.733 199.622 673L208.522 675.6C212.855 676.867 216.222 678.833 218.622 681.5C221.089 684.167 222.322 687.3 222.322 690.9C222.322 693.833 221.489 696.467 219.822 698.8C218.222 701.133 215.989 702.967 213.122 704.3C210.255 705.567 206.955 706.2 203.222 706.2Z" fill="#010101" fill-opacity="0.16"/>
<path d="M21.5 75L21.0194 75.138L21.1234 75.5H21.5V75ZM0.1 0.499994V-5.72205e-06H-0.563843L-0.380567 0.638035L0.1 0.499994ZM8.2 0.499994L8.68181 0.366358L8.5802 -5.72205e-06H8.2V0.499994ZM26.7 67.2V67.7H27.3576L27.1818 67.0664L26.7 67.2ZM25 67.2L24.5191 67.063L24.3377 67.7H25V67.2ZM44 0.499994V-5.72205e-06H43.6225L43.5191 0.363014L44 0.499994ZM52.5 0.499994L52.9811 0.363682L52.878 -5.72205e-06H52.5V0.499994ZM71.4 67.2V67.7H72.0614L71.8811 67.0637L71.4 67.2ZM69.6 67.2L69.1184 67.0657L68.9415 67.7H69.6V67.2ZM88.2 0.499994V-5.72205e-06H87.8204L87.7184 0.365688L88.2 0.499994ZM96.3 0.499994L96.7806 0.638035L96.9639 -5.72205e-06H96.3V0.499994ZM74.9 75V75.5H75.2766L75.3806 75.138L74.9 75ZM66.4 75L65.9192 75.1371L66.0226 75.5H66.4V75ZM47.3 8V7.5H46.6375L46.8192 8.13707L47.3 8ZM49.1 8L49.5808 8.13707L49.7625 7.5H49.1V8ZM30 75V75.5H30.3774L30.4808 75.1371L30 75ZM21.9806 74.862L0.580567 0.361952L-0.380567 0.638035L21.0194 75.138L21.9806 74.862ZM0.1 0.999994H8.2V-5.72205e-06H0.1V0.999994ZM7.71819 0.633629L26.2182 67.3336L27.1818 67.0664L8.68181 0.366358L7.71819 0.633629ZM26.7 66.7H25V67.7H26.7V66.7ZM25.4809 67.337L44.4809 0.636972L43.5191 0.363014L24.5191 67.063L25.4809 67.337ZM44 0.999994H52.5V-5.72205e-06H44V0.999994ZM52.0189 0.636307L70.9189 67.3363L71.8811 67.0637L52.9811 0.363682L52.0189 0.636307ZM71.4 66.7H69.6V67.7H71.4V66.7ZM70.0816 67.3343L88.6816 0.6343L87.7184 0.365688L69.1184 67.0657L70.0816 67.3343ZM88.2 0.999994H96.3V-5.72205e-06H88.2V0.999994ZM95.8194 0.361952L74.4194 74.862L75.3806 75.138L96.7806 0.638035L95.8194 0.361952ZM74.9 74.5H66.4V75.5H74.9V74.5ZM66.8808 74.8629L47.7808 7.86292L46.8192 8.13707L65.9192 75.1371L66.8808 74.8629ZM47.3 8.5H49.1V7.5H47.3V8.5ZM48.6192 7.86292L29.5192 74.8629L30.4808 75.1371L49.5808 8.13707L48.6192 7.86292ZM30 74.5H21.5V75.5H30V74.5ZM113.934 72.6L113.671 73.0257L113.679 73.0306L113.934 72.6ZM104.434 62.5L103.995 62.7399L104.434 62.5ZM104.334 33.7L104.772 33.9404L104.774 33.9375L104.334 33.7ZM113.534 23.8L113.273 23.3732L113.27 23.3752L113.534 23.8ZM137.034 22.4L136.814 22.8493L136.826 22.8548L137.034 22.4ZM144.834 28.2L144.455 28.5271L144.46 28.5322L144.834 28.2ZM149.734 36.4L149.265 36.5733L149.266 36.5767L149.734 36.4ZM151.334 48L151.832 48.0415L151.832 48.0383L151.334 48ZM151.034 50.5V51H151.463L151.528 50.576L151.034 50.5ZM105.734 50.5H105.234V51H105.734V50.5ZM105.734 43.5V43H105.234V43.5H105.734ZM146.734 43.5L147.054 43.8841L148.115 43H146.734V43.5ZM143.134 46.5L142.64 46.4193L142.424 47.7425L143.454 46.8841L143.134 46.5ZM141.834 36.7L141.382 36.9154L141.388 36.9277L141.834 36.7ZM135.734 29.8L135.461 30.2193L135.469 30.224L135.734 29.8ZM117.434 29.8L117.175 29.3721L117.17 29.3749L117.434 29.8ZM110.834 37.1L111.277 37.3313L111.279 37.3274L110.834 37.1ZM108.934 48.1L109.432 48.1389L109.435 48.1L109.432 48.0611L108.934 48.1ZM110.934 59.3L110.49 59.531L110.496 59.542L110.934 59.3ZM117.934 66.6L117.679 67.0305L117.683 67.0329L117.934 66.6ZM137.434 66.4L137.72 66.8096L137.434 66.4ZM143.934 59.4L144.168 58.9584L143.748 58.735L143.504 59.1443L143.934 59.4ZM150.334 62.8L150.79 63.0031L150.98 62.5771L150.568 62.3584L150.334 62.8ZM145.434 69.5L145.77 69.87L145.776 69.8644L145.434 69.5ZM137.534 74.4L137.719 74.8643L137.724 74.8621L137.534 74.4ZM127.534 75.7C122.618 75.7 118.173 74.5213 114.188 72.1694L113.679 73.0306C117.828 75.4787 122.45 76.7 127.534 76.7V75.7ZM114.196 72.1744C110.273 69.7549 107.165 66.4534 104.872 62.2601L103.995 62.7399C106.368 67.0799 109.595 70.5117 113.671 73.0256L114.196 72.1744ZM104.872 62.2601C102.583 58.0749 101.434 53.3256 101.434 48H100.434C100.434 53.4744 101.617 58.3918 103.995 62.7399L104.872 62.2601ZM101.434 48C101.434 42.6717 102.551 37.9899 104.772 33.9404L103.895 33.4596C101.583 37.6767 100.434 42.5283 100.434 48H101.434ZM104.774 33.9375C107.001 29.8103 110.008 26.5765 113.797 24.2248L113.27 23.3752C109.325 25.8235 106.2 29.1897 103.894 33.4625L104.774 33.9375ZM113.794 24.2268C117.644 21.8774 121.953 20.7 126.734 20.7V19.7C121.78 19.7 117.289 20.9226 113.273 23.3732L113.794 24.2268ZM126.734 20.7C130.536 20.7 133.892 21.4209 136.814 22.8492L137.253 21.9508C134.175 20.4458 130.664 19.7 126.734 19.7V20.7ZM136.826 22.8548C139.83 24.226 142.371 26.1166 144.455 28.5271L145.212 27.8729C143.03 25.3501 140.371 23.374 137.241 21.9452L136.826 22.8548ZM144.46 28.5322C146.551 30.8848 148.152 33.564 149.265 36.5733L150.203 36.2267C149.048 33.1027 147.383 30.3152 145.207 27.8678L144.46 28.5322ZM149.266 36.5767C150.378 39.5204 150.934 42.5605 150.934 45.7H151.934C151.934 42.4395 151.356 39.2796 150.201 36.2233L149.266 36.5767ZM150.934 45.7C150.934 46.3507 150.901 47.1041 150.835 47.9617L151.832 48.0383C151.899 47.1625 151.934 46.3826 151.934 45.7H150.934ZM150.835 47.9585C150.77 48.7459 150.671 49.5677 150.539 50.424L151.528 50.576C151.663 49.6989 151.764 48.8541 151.832 48.0415L150.835 47.9585ZM151.034 50H105.734V51H151.034V50ZM106.234 50.5V43.5H105.234V50.5H106.234ZM105.734 44H146.734V43H105.734V44ZM146.413 43.1159L142.814 46.1159L143.454 46.8841L147.054 43.8841L146.413 43.1159ZM143.627 46.5807C144.242 42.8256 143.801 39.4481 142.279 36.4723L141.388 36.9277C142.799 39.6852 143.226 42.8411 142.64 46.4193L143.627 46.5807ZM142.285 36.4846C140.845 33.4685 138.749 31.0948 135.999 29.376L135.469 30.224C138.052 31.8385 140.022 34.0648 141.382 36.9154L142.285 36.4846ZM136.006 29.3808C133.254 27.5921 130.159 26.7 126.734 26.7V27.7C129.975 27.7 132.88 28.5412 135.461 30.2192L136.006 29.3808ZM126.734 26.7C123.309 26.7 120.119 27.5919 117.175 29.3721L117.692 30.2279C120.481 28.5415 123.492 27.7 126.734 27.7V26.7ZM117.17 29.3749C114.287 31.1596 112.027 33.6637 110.388 36.8726L111.279 37.3274C112.84 34.2696 114.98 31.9071 117.697 30.2251L117.17 29.3749ZM110.39 36.8687C108.738 40.0362 108.096 43.801 108.435 48.1389L109.432 48.0611C109.104 43.8657 109.729 40.2971 111.277 37.3313L110.39 36.8687ZM108.435 48.0611C108.096 52.4035 108.773 56.2336 110.49 59.531L111.377 59.069C109.761 55.9664 109.105 52.3298 109.432 48.1389L108.435 48.0611ZM110.496 59.542C112.27 62.7492 114.665 65.2494 117.679 67.0305L118.188 66.1695C115.335 64.4839 113.064 62.1174 111.371 59.058L110.496 59.542ZM117.683 67.0329C120.758 68.8093 124.044 69.7 127.534 69.7V68.7C124.223 68.7 121.109 67.8573 118.184 66.1671L117.683 67.0329ZM127.534 69.7C131.548 69.7 134.953 68.7465 137.72 66.8096L137.147 65.9904C134.58 67.7869 131.386 68.7 127.534 68.7V69.7ZM137.72 66.8096C140.445 64.9023 142.66 62.5165 144.363 59.6557L143.504 59.1443C141.873 61.8835 139.755 64.1644 137.147 65.9904L137.72 66.8096ZM143.699 59.8416L150.099 63.2416L150.568 62.3584L144.168 58.9584L143.699 59.8416ZM149.877 62.5969C148.841 64.9276 147.25 67.1078 145.091 69.1356L145.776 69.8644C148.017 67.7589 149.693 65.4724 150.79 63.0031L149.877 62.5969ZM145.097 69.13C142.945 71.0869 140.362 72.6907 137.343 73.9379L137.724 74.8621C140.838 73.5759 143.522 71.9131 145.77 69.87L145.097 69.13ZM137.348 73.9358C134.414 75.1092 131.145 75.7 127.534 75.7V76.7C131.255 76.7 134.653 76.0908 137.719 74.8642L137.348 73.9358ZM4.5 201H4V201.5H4.5V201ZM4.5 193V192.5H4V193H4.5ZM17.3 189.7L17.659 190.048L17.6641 190.043L17.3 189.7ZM20.5 126.5V126H20V126.5H20.5ZM28.5 126.5H29V126H28.5V126.5ZM26 191.4L25.5606 191.161L25.5567 191.169L26 191.4ZM5 201V193H4V201H5ZM4.5 193.5H8.5V192.5H4.5V193.5ZM8.5 193.5C12.337 193.5 15.4115 192.366 17.659 190.048L16.9411 189.352C14.9218 191.434 12.1297 192.5 8.5 192.5V193.5ZM17.6641 190.043C19.9046 187.662 21 184.462 21 180.5H20C20 184.272 18.962 187.205 16.9359 189.357L17.6641 190.043ZM21 180.5V126.5H20V180.5H21ZM20.5 127H28.5V126H20.5V127ZM28 126.5V180.5H29V126.5H28ZM28 180.5C28 184.633 27.1802 188.181 25.5607 191.161L26.4393 191.639C28.1532 188.485 29 184.767 29 180.5H28ZM25.5567 191.169C24.0016 194.149 21.7709 196.444 18.8572 198.063L19.3428 198.937C22.4291 197.223 24.7984 194.784 26.4433 191.631L25.5567 191.169ZM18.8572 198.063C15.9441 199.681 12.4974 200.5 8.5 200.5V201.5C12.6359 201.5 16.2559 200.652 19.3428 198.937L18.8572 198.063ZM8.5 200.5H4.5V201.5H8.5V200.5ZM55.7812 199.6L55.5281 200.031L55.5352 200.035L55.7812 199.6ZM48.4813 192.2L48.0415 192.438L48.0477 192.449L48.4813 192.2ZM45.8812 147.4V146.9H45.3812V147.4H45.8812ZM53.3812 147.4H53.8812V146.9H53.3812V147.4ZM55.0812 187.9L54.6368 188.129L54.641 188.137L54.6455 188.145L55.0812 187.9ZM59.9813 192.9L59.7302 193.332L59.7361 193.336L59.9813 192.9ZM74.5813 192.9L74.8264 193.336L74.8365 193.33L74.5813 192.9ZM79.5813 187.6L80.0232 187.834L80.0259 187.829L79.5813 187.6ZM81.3813 147.4V146.9H80.8813V147.4H81.3813ZM88.8812 147.4H89.3812V146.9H88.8812V147.4ZM88.8812 201V201.5H89.3812V201H88.8812ZM81.3813 201H80.8813V201.5H81.3813V201ZM81.3813 190.6L81.4958 190.113L80.8813 189.969V190.6H81.3813ZM83.0813 191L83.5509 191.172L83.7443 190.642L83.1958 190.513L83.0813 191ZM76.5813 199.2L76.3081 198.781L76.5813 199.2ZM65.9813 201.7C62.3288 201.7 59.0144 200.853 56.0273 199.165L55.5352 200.035C58.6815 201.814 62.167 202.7 65.9813 202.7V201.7ZM56.0344 199.169C53.0439 197.414 50.6722 195.01 48.9148 191.951L48.0477 192.449C49.8903 195.656 52.3853 198.186 55.5281 200.031L56.0344 199.169ZM48.9209 191.962C47.2323 188.844 46.3812 185.262 46.3812 181.2H45.3812C45.3812 185.405 46.2636 189.156 48.0416 192.438L48.9209 191.962ZM46.3812 181.2V147.4H45.3812V181.2H46.3812ZM45.8812 147.9H53.3812V146.9H45.8812V147.9ZM52.8812 147.4V180.3H53.8812V147.4H52.8812ZM52.8812 180.3C52.8812 183.234 53.4616 185.848 54.6368 188.129L55.5257 187.671C54.4343 185.552 53.8812 183.1 53.8812 180.3H52.8812ZM54.6455 188.145C55.8881 190.354 57.5844 192.086 59.7302 193.332L60.2323 192.468C58.2448 191.314 56.6744 189.712 55.517 187.655L54.6455 188.145ZM59.7361 193.336C61.9527 194.583 64.4723 195.2 67.2812 195.2V194.2C64.6236 194.2 62.2764 193.617 60.2264 192.464L59.7361 193.336ZM67.2812 195.2C70.0902 195.2 72.6098 194.583 74.8264 193.336L74.3361 192.464C72.2861 193.617 69.9389 194.2 67.2812 194.2V195.2ZM74.8365 193.33C77.0517 192.015 78.7817 190.179 80.0231 187.834L79.1394 187.366C77.9808 189.554 76.3775 191.252 74.326 192.47L74.8365 193.33ZM80.0259 187.829C81.2694 185.411 81.8813 182.562 81.8813 179.3H80.8813C80.8813 182.438 80.2931 185.123 79.1366 187.371L80.0259 187.829ZM81.8813 179.3V147.4H80.8813V179.3H81.8813ZM81.3813 147.9H88.8812V146.9H81.3813V147.9ZM88.3812 147.4V201H89.3812V147.4H88.3812ZM88.8812 200.5H81.3813V201.5H88.8812V200.5ZM81.8813 201V190.6H80.8813V201H81.8813ZM81.2667 191.087L82.9667 191.487L83.1958 190.513L81.4958 190.113L81.2667 191.087ZM82.6116 190.828C81.3817 194.194 79.2835 196.841 76.3081 198.781L76.8544 199.619C80.0123 197.559 82.2475 194.739 83.5509 191.172L82.6116 190.828ZM76.3081 198.781C73.3302 200.723 69.8936 201.7 65.9813 201.7V202.7C70.0689 202.7 73.699 201.677 76.8544 199.619L76.3081 198.781ZM111.405 198.3L111.684 197.885L111.405 198.3ZM103.005 187.7L102.791 187.249L102.371 187.448L102.539 187.881L103.005 187.7ZM109.305 184.7L109.758 184.488L109.544 184.032L109.09 184.249L109.305 184.7ZM115.705 192.5L115.417 192.908L115.421 192.911L115.705 192.5ZM133.005 193.1L133.291 193.51L133.3 193.504L133.005 193.1ZM134.705 182.5L134.341 182.843L134.347 182.848L134.352 182.854L134.705 182.5ZM131.005 179.9L130.809 180.36L131.005 179.9ZM127.305 178.6L127.168 179.081L127.176 179.083L127.184 179.085L127.305 178.6ZM119.605 176.4L119.743 175.919L119.742 175.919L119.605 176.4ZM108.905 170.5L108.528 170.828L108.905 170.5ZM108.005 153.5L108.418 153.783L108.005 153.5ZM114.505 148.1L114.716 148.554L114.505 148.1ZM135.905 149.8L135.632 150.218L135.64 150.224L135.905 149.8ZM143.805 159.6L144.018 160.053L144.432 159.858L144.275 159.429L143.805 159.6ZM137.405 162.6L136.949 162.803L137.156 163.269L137.618 163.053L137.405 162.6ZM131.605 155.6L131.318 156.009L131.324 156.014L131.331 156.018L131.605 155.6ZM116.105 155.3L116.43 155.681L116.105 155.3ZM114.805 165.4L114.429 165.729L114.805 165.4ZM118.005 167.8L117.802 168.257L117.811 168.261L118.005 167.8ZM121.305 169L121.446 168.52L121.443 168.519L121.305 169ZM130.205 171.6L130.346 171.12L130.346 171.12L130.205 171.6ZM140.305 177.5L139.934 177.835L139.938 177.84L140.305 177.5ZM141.505 194.8L141.099 194.509L141.093 194.517L141.505 194.8ZM134.805 200.3L135.008 200.757L135.016 200.753L134.805 200.3ZM124.905 201.7C119.861 201.7 115.46 200.424 111.684 197.885L111.126 198.715C115.084 201.376 119.683 202.7 124.905 202.7V201.7ZM111.684 197.885C107.905 195.344 105.169 191.893 103.472 187.519L102.539 187.881C104.309 192.44 107.172 196.056 111.126 198.715L111.684 197.885ZM103.22 188.151L109.52 185.151L109.09 184.249L102.791 187.249L103.22 188.151ZM108.853 184.912C110.42 188.251 112.607 190.921 115.417 192.908L115.994 192.092C113.337 190.212 111.258 187.682 109.758 184.488L108.853 184.912ZM115.421 192.911C118.303 194.901 121.468 195.9 124.905 195.9V194.9C121.676 194.9 118.708 193.965 115.99 192.089L115.421 192.911ZM124.905 195.9C128.188 195.9 130.992 195.113 133.291 193.51L132.72 192.69C130.619 194.154 128.023 194.9 124.905 194.9V195.9ZM133.3 193.504C135.618 191.818 136.805 189.607 136.805 186.9H135.805C135.805 189.26 134.793 191.182 132.711 192.696L133.3 193.504ZM136.805 186.9C136.805 184.934 136.241 183.328 135.059 182.146L134.352 182.854C135.304 183.805 135.805 185.133 135.805 186.9H136.805ZM135.07 182.157C133.957 180.975 132.667 180.068 131.202 179.44L130.809 180.36C132.144 180.932 133.321 181.758 134.341 182.843L135.07 182.157ZM131.202 179.44C129.787 178.834 128.527 178.39 127.427 178.115L127.184 179.085C128.217 179.343 129.424 179.766 130.809 180.36L131.202 179.44ZM127.443 178.119L119.743 175.919L119.468 176.881L127.168 179.081L127.443 178.119ZM119.742 175.919C114.856 174.533 111.394 172.603 109.283 170.172L108.528 170.828C110.817 173.464 114.488 175.467 119.469 176.881L119.742 175.919ZM109.283 170.172C107.161 167.729 106.105 164.912 106.105 161.7H105.105C105.105 165.155 106.25 168.204 108.528 170.828L109.283 170.172ZM106.105 161.7C106.105 158.656 106.881 156.024 108.418 153.783L107.593 153.217C105.93 155.643 105.105 158.477 105.105 161.7H106.105ZM108.418 153.783C109.964 151.528 112.058 149.785 114.716 148.554L114.295 147.646C111.486 148.948 109.247 150.805 107.593 153.217L108.418 153.783ZM114.716 148.554C117.376 147.321 120.337 146.7 123.605 146.7V145.7C120.207 145.7 117.101 146.346 114.295 147.646L114.716 148.554ZM123.605 146.7C128.045 146.7 132.049 147.874 135.632 150.218L136.179 149.382C132.428 146.926 128.233 145.7 123.605 145.7V146.7ZM135.64 150.224C139.278 152.497 141.84 155.674 143.336 159.771L144.275 159.429C142.704 155.126 140 151.769 136.17 149.376L135.64 150.224ZM143.593 159.147L137.193 162.147L137.618 163.053L144.018 160.053L143.593 159.147ZM137.862 162.397C136.493 159.317 134.5 156.906 131.88 155.182L131.331 156.018C133.777 157.627 135.651 159.883 136.949 162.803L137.862 162.397ZM131.893 155.191C129.341 153.397 126.473 152.5 123.305 152.5V153.5C126.271 153.5 128.937 154.336 131.318 156.009L131.893 155.191ZM123.305 152.5C120.219 152.5 117.694 153.29 115.781 154.919L116.43 155.681C118.117 154.243 120.392 153.5 123.305 153.5V152.5ZM115.781 154.919C113.871 156.546 112.905 158.618 112.905 161.1H113.905C113.905 158.915 114.74 157.12 116.43 155.681L115.781 154.919ZM112.905 161.1C112.905 162.987 113.396 164.549 114.429 165.729L115.182 165.071C114.348 164.118 113.905 162.813 113.905 161.1H112.905ZM114.429 165.729C115.406 166.846 116.531 167.692 117.802 168.257L118.209 167.343C117.08 166.842 116.071 166.087 115.182 165.071L114.429 165.729ZM117.811 168.261C119.09 168.799 120.209 169.207 121.168 169.481L121.443 168.519C120.535 168.26 119.455 167.868 118.2 167.339L117.811 168.261ZM121.165 169.48L130.065 172.08L130.346 171.12L121.446 168.52L121.165 169.48ZM130.065 172.08C134.332 173.327 137.61 175.253 139.934 177.834L140.677 177.166C138.201 174.414 134.745 172.406 130.346 171.12L130.065 172.08ZM139.938 177.84C142.32 180.415 143.505 183.427 143.505 186.9H144.505C144.505 183.173 143.224 179.919 140.673 177.16L139.938 177.84ZM143.505 186.9C143.505 189.732 142.703 192.263 141.099 194.509L141.912 195.091C143.641 192.67 144.505 189.935 144.505 186.9H143.505ZM141.093 194.517C139.55 196.768 137.39 198.547 134.595 199.847L135.016 200.753C137.954 199.387 140.261 197.498 141.918 195.083L141.093 194.517ZM134.603 199.843C131.811 201.076 128.582 201.7 124.905 201.7V202.7C128.695 202.7 132.066 202.057 135.008 200.757L134.603 199.843ZM168.584 197.4L168.951 197.06L168.584 197.4ZM164.684 154.9H165.184V154.4H164.684V154.9ZM154.784 154.9H154.284V155.4H154.784V154.9ZM154.784 147.4V146.9H154.284V147.4H154.784ZM162.684 145.2L163.054 145.536L163.062 145.528L162.684 145.2ZM164.684 135V134.5H164.184V135H164.684ZM172.184 135H172.684V134.5H172.184V135ZM172.184 147.4H171.684V147.9H172.184V147.4ZM183.984 147.4H184.484V146.9H183.984V147.4ZM183.984 154.9V155.4H184.484V154.9H183.984ZM172.184 154.9V154.4H171.684V154.9H172.184ZM172.984 190.2L172.517 190.378L172.52 190.386L172.984 190.2ZM175.684 193.4L175.417 193.823L175.427 193.829L175.684 193.4ZM182.884 194.5L182.839 194.002L182.884 194.5ZM184.784 194.3H185.284V193.734L184.722 193.804L184.784 194.3ZM184.784 201L184.906 201.485L185.284 201.39V201H184.784ZM182.084 201.4L182.051 200.901L182.035 200.902L182.018 200.904L182.084 201.4ZM179.684 201.1C174.985 201.1 171.433 199.733 168.951 197.06L168.218 197.74C170.936 200.667 174.783 202.1 179.684 202.1V201.1ZM168.951 197.06C166.464 194.381 165.184 190.52 165.184 185.4H164.184C164.184 190.68 165.505 194.819 168.218 197.74L168.951 197.06ZM165.184 185.4V154.9H164.184V185.4H165.184ZM164.684 154.4H154.784V155.4H164.684V154.4ZM155.284 154.9V147.4H154.284V154.9H155.284ZM154.784 147.9H157.284V146.9H154.784V147.9ZM157.284 147.9C159.67 147.9 161.612 147.123 163.054 145.536L162.314 144.864C161.09 146.211 159.432 146.9 157.284 146.9V147.9ZM163.062 145.528C164.483 143.893 165.184 141.872 165.184 139.5H164.184C164.184 141.661 163.552 143.44 162.307 144.872L163.062 145.528ZM165.184 139.5V135H164.184V139.5H165.184ZM164.684 135.5H172.184V134.5H164.684V135.5ZM171.684 135V147.4H172.684V135H171.684ZM172.184 147.9H183.984V146.9H172.184V147.9ZM183.484 147.4V154.9H184.484V147.4H183.484ZM183.984 154.4H172.184V155.4H183.984V154.4ZM171.684 154.9V185.4H172.684V154.9H171.684ZM171.684 185.4C171.684 187.249 171.958 188.911 172.517 190.378L173.452 190.022C172.944 188.689 172.684 187.151 172.684 185.4H171.684ZM172.52 190.386C173.094 191.821 174.066 192.969 175.417 193.823L175.951 192.977C174.77 192.231 173.941 191.245 173.449 190.014L172.52 190.386ZM175.427 193.829C176.864 194.691 178.729 195.1 180.984 195.1V194.1C178.839 194.1 177.171 193.709 175.942 192.971L175.427 193.829ZM180.984 195.1C181.537 195.1 182.186 195.066 182.93 194.998L182.839 194.002C182.116 194.068 181.498 194.1 180.984 194.1V195.1ZM182.93 194.998C183.667 194.931 184.306 194.864 184.846 194.796L184.722 193.804C184.196 193.87 183.569 193.936 182.839 194.002L182.93 194.998ZM184.284 194.3V201H185.284V194.3H184.284ZM184.663 200.515C183.897 200.706 183.028 200.836 182.051 200.901L182.118 201.899C183.141 201.831 184.071 201.694 184.906 201.485L184.663 200.515ZM182.018 200.904C181.028 201.036 180.252 201.1 179.684 201.1V202.1C180.316 202.1 181.141 202.03 182.15 201.896L182.018 200.904ZM21.5 327L21.0194 327.138L21.1234 327.5H21.5V327ZM0.1 252.5V252H-0.563843L-0.380567 252.638L0.1 252.5ZM8.2 252.5L8.68181 252.366L8.5802 252H8.2V252.5ZM26.7 319.2V319.7H27.3576L27.1818 319.066L26.7 319.2ZM25 319.2L24.5191 319.063L24.3377 319.7H25V319.2ZM44 252.5V252H43.6225L43.5191 252.363L44 252.5ZM52.5 252.5L52.9811 252.364L52.878 252H52.5V252.5ZM71.4 319.2V319.7H72.0614L71.8811 319.064L71.4 319.2ZM69.6 319.2L69.1184 319.066L68.9415 319.7H69.6V319.2ZM88.2 252.5V252H87.8204L87.7184 252.366L88.2 252.5ZM96.3 252.5L96.7806 252.638L96.9639 252H96.3V252.5ZM74.9 327V327.5H75.2766L75.3806 327.138L74.9 327ZM66.4 327L65.9192 327.137L66.0226 327.5H66.4V327ZM47.3 260V259.5H46.6375L46.8192 260.137L47.3 260ZM49.1 260L49.5808 260.137L49.7625 259.5H49.1V260ZM30 327V327.5H30.3774L30.4808 327.137L30 327ZM21.9806 326.862L0.580567 252.362L-0.380567 252.638L21.0194 327.138L21.9806 326.862ZM0.1 253H8.2V252H0.1V253ZM7.71819 252.634L26.2182 319.334L27.1818 319.066L8.68181 252.366L7.71819 252.634ZM26.7 318.7H25V319.7H26.7V318.7ZM25.4809 319.337L44.4809 252.637L43.5191 252.363L24.5191 319.063L25.4809 319.337ZM44 253H52.5V252H44V253ZM52.0189 252.636L70.9189 319.336L71.8811 319.064L52.9811 252.364L52.0189 252.636ZM71.4 318.7H69.6V319.7H71.4V318.7ZM70.0816 319.334L88.6816 252.634L87.7184 252.366L69.1184 319.066L70.0816 319.334ZM88.2 253H96.3V252H88.2V253ZM95.8194 252.362L74.4194 326.862L75.3806 327.138L96.7806 252.638L95.8194 252.362ZM74.9 326.5H66.4V327.5H74.9V326.5ZM66.8808 326.863L47.7808 259.863L46.8192 260.137L65.9192 327.137L66.8808 326.863ZM47.3 260.5H49.1V259.5H47.3V260.5ZM48.6192 259.863L29.5192 326.863L30.4808 327.137L49.5808 260.137L48.6192 259.863ZM30 326.5H21.5V327.5H30V326.5ZM109.534 326.3L109.31 326.747L109.319 326.752L109.534 326.3ZM103.234 320.9L102.819 321.18L103.234 320.9ZM102.734 305.5L103.176 305.734L103.178 305.729L102.734 305.5ZM108.334 299.6L108.067 299.177L108.334 299.6ZM118.034 296.2L117.951 295.707L117.95 295.707L118.034 296.2ZM139.034 292.7H139.534V292.11L138.951 292.207L139.034 292.7ZM139.034 299.5L139.116 299.993L139.534 299.924V299.5H139.034ZM119.834 302.7L119.751 302.207L119.749 302.207L119.834 302.7ZM111.434 306.4L111.073 306.053L111.067 306.06L111.434 306.4ZM111.734 318.9L111.401 319.273L111.407 319.279L111.734 318.9ZM128.734 319.1L128.978 319.536L128.986 319.531L128.734 319.1ZM135.134 312.7L135.567 312.949L135.134 312.7ZM116.234 281.9L116.506 282.32L116.514 282.314L116.234 281.9ZM110.734 288.2L110.495 288.639L110.964 288.894L111.188 288.41L110.734 288.2ZM103.934 284.5L103.476 284.298L103.29 284.719L103.695 284.939L103.934 284.5ZM108.634 278.3L108.31 277.919L108.304 277.924L108.634 278.3ZM116.134 273.9L116.312 274.367L116.321 274.363L116.134 273.9ZM135.234 274.5L135.006 274.945L135.01 274.947L135.234 274.5ZM142.334 280.9L141.907 281.16L141.91 281.166L141.914 281.172L142.334 280.9ZM144.934 327V327.5H145.434V327H144.934ZM137.434 327H136.934V327.5H137.434V327ZM137.434 316.3L137.787 315.946L136.934 315.093V316.3H137.434ZM138.534 317.4L138.987 317.611L139.135 317.294L138.887 317.046L138.534 317.4ZM134.134 322.9L134.452 323.285L134.454 323.284L134.134 322.9ZM127.234 326.8L127.403 327.271L127.409 327.268L127.234 326.8ZM118.634 327.7C115.297 327.7 112.338 327.079 109.748 325.848L109.319 326.752C112.062 328.055 115.171 328.7 118.634 328.7V327.7ZM109.757 325.853C107.16 324.554 105.129 322.809 103.648 320.62L102.819 321.18C104.405 323.524 106.574 325.379 109.31 326.747L109.757 325.853ZM103.648 320.62C102.174 318.442 101.434 315.941 101.434 313.1H100.434C100.434 316.126 101.226 318.825 102.819 321.18L103.648 320.62ZM101.434 313.1C101.434 310.374 102.017 307.922 103.175 305.734L102.292 305.266C101.05 307.611 100.434 310.226 100.434 313.1H101.434ZM103.178 305.729C104.332 303.485 106.132 301.582 108.601 300.023L108.067 299.177C105.469 300.818 103.535 302.848 102.289 305.271L103.178 305.729ZM108.601 300.023C111.063 298.468 114.229 297.352 118.117 296.693L117.95 295.707C113.972 296.381 110.671 297.532 108.067 299.177L108.601 300.023ZM118.116 296.693L139.116 293.193L138.951 292.207L117.951 295.707L118.116 296.693ZM138.534 292.7V299.5H139.534V292.7H138.534ZM138.951 299.007L119.751 302.207L119.916 303.193L139.116 299.993L138.951 299.007ZM119.749 302.207C115.833 302.882 112.912 304.144 111.073 306.053L111.794 306.747C113.422 305.056 116.101 303.851 119.919 303.193L119.749 302.207ZM111.067 306.06C109.314 307.953 108.434 310.208 108.434 312.8H109.434C109.434 310.459 110.22 308.447 111.8 306.74L111.067 306.06ZM108.434 312.8C108.434 315.349 109.433 317.516 111.401 319.273L112.067 318.527C110.301 316.951 109.434 315.051 109.434 312.8H108.434ZM111.407 319.279C113.447 321.037 116.036 321.9 119.134 321.9V320.9C116.231 320.9 113.887 320.096 112.06 318.521L111.407 319.279ZM119.134 321.9C122.871 321.9 126.158 321.118 128.978 319.536L128.489 318.664C125.842 320.149 122.729 320.9 119.134 320.9V321.9ZM128.986 319.531C131.792 317.889 133.989 315.694 135.567 312.949L134.7 312.451C133.212 315.04 131.142 317.111 128.481 318.668L128.986 319.531ZM135.567 312.949C137.147 310.202 137.934 307.149 137.934 303.8H136.934C136.934 306.985 136.187 309.865 134.7 312.451L135.567 312.949ZM137.934 303.8V290.2H136.934V303.8H137.934ZM137.934 290.2C137.934 286.861 136.708 284.12 134.259 282.02L133.608 282.78C135.826 284.68 136.934 287.139 136.934 290.2H137.934ZM134.259 282.02C131.817 279.927 128.66 278.9 124.834 278.9V279.9C128.474 279.9 131.384 280.873 133.608 282.78L134.259 282.02ZM124.834 278.9C121.477 278.9 118.511 279.758 115.954 281.486L116.514 282.314C118.89 280.709 121.657 279.9 124.834 279.9V278.9ZM115.962 281.481C113.418 283.13 111.52 285.302 110.28 287.99L111.188 288.41C112.347 285.898 114.116 283.87 116.506 282.319L115.962 281.481ZM110.973 287.761L104.173 284.061L103.695 284.939L110.495 288.639L110.973 287.761ZM104.391 284.702C105.358 282.511 106.877 280.502 108.963 278.676L108.304 277.924C106.124 279.832 104.51 281.956 103.476 284.298L104.391 284.702ZM108.957 278.681C111.112 276.853 113.563 275.414 116.312 274.367L115.956 273.433C113.105 274.519 110.555 276.014 108.31 277.919L108.957 278.681ZM116.321 274.363C119.062 273.254 121.898 272.7 124.834 272.7V271.7C121.769 271.7 118.805 272.279 115.946 273.437L116.321 274.363ZM124.834 272.7C128.701 272.7 132.087 273.453 135.006 274.945L135.461 274.055C132.38 272.48 128.833 271.7 124.834 271.7V272.7ZM135.01 274.947C137.999 276.442 140.292 278.513 141.907 281.16L142.76 280.64C141.041 277.82 138.602 275.625 135.457 274.053L135.01 274.947ZM141.914 281.172C143.589 283.749 144.434 286.752 144.434 290.2H145.434C145.434 286.581 144.545 283.384 142.753 280.628L141.914 281.172ZM144.434 290.2V327H145.434V290.2H144.434ZM144.934 326.5H137.434V327.5H144.934V326.5ZM137.934 327V316.3H136.934V327H137.934ZM137.08 316.654L138.18 317.754L138.887 317.046L137.787 315.946L137.08 316.654ZM138.081 317.189C137.183 319.111 135.767 320.888 133.814 322.516L134.454 323.284C136.5 321.579 138.017 319.689 138.987 317.611L138.081 317.189ZM133.815 322.515C131.93 324.075 129.68 325.349 127.058 326.332L127.409 327.268C130.121 326.251 132.471 324.925 134.452 323.285L133.815 322.515ZM127.065 326.329C124.526 327.241 121.717 327.7 118.634 327.7V328.7C121.817 328.7 124.742 328.226 127.403 327.271L127.065 326.329ZM162.36 327H161.86V327.5H162.36V327ZM162.36 273.4V272.9H161.86V273.4H162.36ZM169.86 273.4H170.36V272.9H169.86V273.4ZM169.86 283.8L169.746 284.287L170.36 284.431V283.8H169.86ZM168.16 283.4L167.693 283.221L167.488 283.755L168.046 283.887L168.16 283.4ZM174.66 275.2L174.387 274.781L174.383 274.784L174.66 275.2ZM195.46 274.8L195.21 275.233L195.214 275.235L195.46 274.8ZM202.66 282L202.225 282.246L202.231 282.257L202.66 282ZM205.36 327V327.5H205.86V327H205.36ZM197.86 327H197.36V327.5H197.86V327ZM196.06 286.8L195.613 287.024L195.618 287.034L196.06 286.8ZM191.16 281.6L190.899 282.026L190.907 282.031L190.915 282.036L191.16 281.6ZM176.66 281.6L176.905 282.036L176.915 282.03L176.66 281.6ZM171.66 286.9L172.102 287.134L172.105 287.129L171.66 286.9ZM169.86 327V327.5H170.36V327H169.86ZM162.86 327V273.4H161.86V327H162.86ZM162.36 273.9H169.86V272.9H162.36V273.9ZM169.36 273.4V283.8H170.36V273.4H169.36ZM169.975 283.313L168.275 282.913L168.046 283.887L169.746 284.287L169.975 283.313ZM168.627 283.579C169.924 280.206 172.026 277.557 174.938 275.616L174.383 274.784C171.294 276.843 169.063 279.66 167.693 283.221L168.627 283.579ZM174.933 275.619C177.911 273.677 181.348 272.7 185.26 272.7V271.7C181.173 271.7 177.542 272.723 174.387 274.781L174.933 275.619ZM185.26 272.7C188.981 272.7 192.293 273.548 195.21 275.233L195.71 274.367C192.627 272.586 189.139 271.7 185.26 271.7V272.7ZM195.214 275.235C198.202 276.924 200.536 279.258 202.225 282.246L203.095 281.754C201.317 278.608 198.852 276.143 195.706 274.365L195.214 275.235ZM202.231 282.257C203.981 285.173 204.86 288.483 204.86 292.2H205.86C205.86 288.317 204.94 284.827 203.089 281.743L202.231 282.257ZM204.86 292.2V327H205.86V292.2H204.86ZM205.36 326.5H197.86V327.5H205.36V326.5ZM198.36 327V295.1H197.36V327H198.36ZM198.36 295.1C198.36 291.774 197.749 288.922 196.502 286.566L195.618 287.034C196.771 289.211 197.36 291.893 197.36 295.1H198.36ZM196.507 286.576C195.331 284.224 193.629 282.415 191.405 281.164L190.915 282.036C192.958 283.185 194.523 284.843 195.613 287.024L196.507 286.576ZM191.421 281.174C189.266 279.853 186.774 279.2 183.96 279.2V280.2C186.613 280.2 188.921 280.814 190.899 282.026L191.421 281.174ZM183.96 279.2C181.146 279.2 178.623 279.853 176.405 281.17L176.915 282.03C178.964 280.814 181.307 280.2 183.96 280.2V279.2ZM176.415 281.164C174.19 282.416 172.457 284.257 171.216 286.671L172.105 287.129C173.263 284.876 174.864 283.184 176.905 282.036L176.415 281.164ZM171.218 286.666C169.972 289.021 169.36 291.838 169.36 295.1H170.36C170.36 291.962 170.949 289.313 172.102 287.134L171.218 286.666ZM169.36 295.1V327H170.36V295.1H169.36ZM169.86 326.5H162.36V327.5H169.86V326.5ZM231.084 323.4L231.451 323.06L231.084 323.4ZM227.184 280.9H227.684V280.4H227.184V280.9ZM217.284 280.9H216.784V281.4H217.284V280.9ZM217.284 273.4V272.9H216.784V273.4H217.284ZM225.184 271.2L225.554 271.536L225.562 271.528L225.184 271.2ZM227.184 261V260.5H226.684V261H227.184ZM234.684 261H235.184V260.5H234.684V261ZM234.684 273.4H234.184V273.9H234.684V273.4ZM246.484 273.4H246.984V272.9H246.484V273.4ZM246.484 280.9V281.4H246.984V280.9H246.484ZM234.684 280.9V280.4H234.184V280.9H234.684ZM235.484 316.2L235.017 316.378L235.02 316.386L235.484 316.2ZM238.184 319.4L237.917 319.823L237.927 319.829L238.184 319.4ZM245.384 320.5L245.339 320.002L245.384 320.5ZM247.284 320.3H247.784V319.734L247.222 319.804L247.284 320.3ZM247.284 327L247.406 327.485L247.784 327.39V327H247.284ZM244.584 327.4L244.551 326.901L244.535 326.902L244.518 326.904L244.584 327.4ZM242.184 327.1C237.485 327.1 233.933 325.733 231.451 323.06L230.718 323.74C233.436 326.667 237.283 328.1 242.184 328.1V327.1ZM231.451 323.06C228.964 320.381 227.684 316.52 227.684 311.4H226.684C226.684 316.68 228.005 320.819 230.718 323.74L231.451 323.06ZM227.684 311.4V280.9H226.684V311.4H227.684ZM227.184 280.4H217.284V281.4H227.184V280.4ZM217.784 280.9V273.4H216.784V280.9H217.784ZM217.284 273.9H219.784V272.9H217.284V273.9ZM219.784 273.9C222.17 273.9 224.112 273.123 225.554 271.536L224.814 270.864C223.59 272.211 221.932 272.9 219.784 272.9V273.9ZM225.562 271.528C226.983 269.893 227.684 267.872 227.684 265.5H226.684C226.684 267.661 226.052 269.44 224.807 270.872L225.562 271.528ZM227.684 265.5V261H226.684V265.5H227.684ZM227.184 261.5H234.684V260.5H227.184V261.5ZM234.184 261V273.4H235.184V261H234.184ZM234.684 273.9H246.484V272.9H234.684V273.9ZM245.984 273.4V280.9H246.984V273.4H245.984ZM246.484 280.4H234.684V281.4H246.484V280.4ZM234.184 280.9V311.4H235.184V280.9H234.184ZM234.184 311.4C234.184 313.249 234.458 314.911 235.017 316.378L235.952 316.022C235.444 314.689 235.184 313.151 235.184 311.4H234.184ZM235.02 316.386C235.594 317.821 236.566 318.969 237.917 319.823L238.451 318.977C237.27 318.231 236.441 317.245 235.949 316.014L235.02 316.386ZM237.927 319.829C239.364 320.691 241.229 321.1 243.484 321.1V320.1C241.339 320.1 239.671 319.709 238.442 318.971L237.927 319.829ZM243.484 321.1C244.037 321.1 244.686 321.066 245.43 320.998L245.339 320.002C244.616 320.068 243.998 320.1 243.484 320.1V321.1ZM245.43 320.998C246.167 320.931 246.806 320.864 247.346 320.796L247.222 319.804C246.696 319.87 246.069 319.936 245.339 320.002L245.43 320.998ZM246.784 320.3V327H247.784V320.3H246.784ZM247.163 326.515C246.397 326.706 245.528 326.836 244.551 326.901L244.618 327.899C245.641 327.831 246.571 327.694 247.406 327.485L247.163 326.515ZM244.518 326.904C243.528 327.036 242.752 327.1 242.184 327.1V328.1C242.816 328.1 243.641 328.03 244.65 327.896L244.518 326.904ZM26.2 453H25.7V453.5H26.2V453ZM26.2 418.4H26.7V418.251L26.6184 418.126L26.2 418.4ZM0.1 378.5V378H-0.82454L-0.318429 378.774L0.1 378.5ZM9 378.5L9.41787 378.225L9.26974 378H9V378.5ZM31.8 413.2V413.7H32.7268L32.2179 412.925L31.8 413.2ZM28.6 413.2L28.1816 412.926L27.6754 413.7H28.6V413.2ZM51.3 378.5V378H51.0296L50.8816 378.226L51.3 378.5ZM60.2 378.5L60.6189 378.773L61.1226 378H60.2V378.5ZM34.2 418.4L33.7811 418.127L33.7 418.251V418.4H34.2ZM34.2 453V453.5H34.7V453H34.2ZM26.7 453V418.4H25.7V453H26.7ZM26.6184 418.126L0.51843 378.226L-0.318429 378.774L25.7816 418.674L26.6184 418.126ZM0.1 379H9V378H0.1V379ZM8.58213 378.775L31.3821 413.475L32.2179 412.925L9.41787 378.225L8.58213 378.775ZM31.8 412.7H28.6V413.7H31.8V412.7ZM29.0184 413.474L51.7184 378.774L50.8816 378.226L28.1816 412.926L29.0184 413.474ZM51.3 379H60.2V378H51.3V379ZM59.7811 378.227L33.7811 418.127L34.6189 418.673L60.6189 378.773L59.7811 378.227ZM33.7 418.4V453H34.7V418.4H33.7ZM34.2 452.5H26.2V453.5H34.2V452.5ZM72.3438 450.6L72.0875 451.029L72.0927 451.032L72.3438 450.6ZM62.4438 440.6L62.0079 440.845L62.0126 440.853L62.4438 440.6ZM62.4438 411.8L62.0096 411.552L62.4438 411.8ZM72.1438 401.9L72.3979 402.331L72.4 402.329L72.1438 401.9ZM100.044 401.8L99.7896 402.231L99.7927 402.232L100.044 401.8ZM109.744 411.7L109.307 411.943L109.31 411.948L109.744 411.7ZM109.644 440.7L110.075 440.953L110.077 440.95L109.644 440.7ZM99.7438 450.6L99.4927 450.168L99.4896 450.169L99.7438 450.6ZM95.8438 444L95.5822 443.574L95.5779 443.577L95.8438 444ZM102.744 436.6L102.306 436.358L102.302 436.365L102.744 436.6ZM102.744 415.7L102.304 415.939L102.308 415.946L102.744 415.7ZM95.8438 408.4L95.5779 408.823L95.5822 408.826L95.8438 408.4ZM76.3438 408.4L76.0822 407.974L76.0779 407.977L76.3438 408.4ZM69.4437 415.7L69.879 415.946L69.4437 415.7ZM69.4437 436.6L69.8813 436.358L69.4437 436.6ZM76.3438 444L76.0779 444.423L76.0822 444.426L76.3438 444ZM86.1438 453.7C81.1598 453.7 76.6473 452.521 72.5948 450.168L72.0927 451.032C76.3069 453.479 80.9944 454.7 86.1438 454.7V453.7ZM72.6 450.171C68.5397 447.748 65.2995 444.475 62.8749 440.347L62.0126 440.853C64.5213 445.125 67.8811 448.519 72.0875 451.029L72.6 450.171ZM62.8795 440.355C60.5259 436.171 59.3438 431.423 59.3438 426.1H58.3438C58.3438 431.577 59.5616 436.496 62.008 440.845L62.8795 440.355ZM59.3438 426.1C59.3438 420.845 60.5254 416.165 62.8779 412.048L62.0096 411.552C59.5621 415.835 58.3438 420.689 58.3438 426.1H59.3438ZM62.8779 412.048C65.2359 407.922 68.4079 404.685 72.3979 402.331L71.8896 401.469C67.7462 403.915 64.4516 407.278 62.0096 411.552L62.8779 412.048ZM72.4 402.329C76.4496 399.913 81.0265 398.7 86.1438 398.7V397.7C80.861 397.7 76.1045 398.954 71.8875 401.471L72.4 402.329ZM86.1438 398.7C91.2637 398.7 95.8076 399.881 99.7896 402.231L100.298 401.369C96.1466 398.919 91.4238 397.7 86.1438 397.7V398.7ZM99.7927 402.232C103.848 404.587 107.017 407.821 109.307 411.943L110.181 411.457C107.804 407.179 104.507 403.813 100.295 401.368L99.7927 402.232ZM109.31 411.948C111.662 416.064 112.844 420.777 112.844 426.1H113.844C113.844 420.623 112.626 415.736 110.178 411.452L109.31 411.948ZM112.844 426.1C112.844 431.489 111.629 436.267 109.211 440.45L110.077 440.95C112.592 436.599 113.844 431.645 113.844 426.1H112.844ZM109.213 440.447C106.789 444.574 103.55 447.812 99.4927 450.168L99.9948 451.032C104.204 448.588 107.565 445.226 110.075 440.953L109.213 440.447ZM99.4896 450.169C95.5045 452.521 91.0598 453.7 86.1438 453.7V454.7C91.2277 454.7 95.8496 453.479 99.9979 451.031L99.4896 450.169ZM86.1438 447.2C89.8316 447.2 93.1582 446.277 96.1096 444.423L95.5779 443.577C92.796 445.323 89.6559 446.2 86.1438 446.2V447.2ZM96.1053 444.426C99.117 442.578 101.478 440.044 103.185 436.835L102.302 436.365C100.676 439.422 98.4372 441.822 95.5822 443.574L96.1053 444.426ZM103.181 436.842C104.959 433.629 105.844 430.044 105.844 426.1H104.844C104.844 429.889 103.995 433.305 102.306 436.358L103.181 436.842ZM105.844 426.1C105.844 422.156 104.959 418.603 103.179 415.454L102.308 415.946C103.995 418.93 104.844 422.311 104.844 426.1H105.844ZM103.183 415.461C101.475 412.319 99.1144 409.82 96.1053 407.974L95.5822 408.826C98.4398 410.58 100.679 412.948 102.304 415.939L103.183 415.461ZM96.1096 407.977C93.1582 406.123 89.8316 405.2 86.1438 405.2V406.2C89.6559 406.2 92.796 407.077 95.5779 408.823L96.1096 407.977ZM86.1438 405.2C82.4559 405.2 79.098 406.123 76.0822 407.974L76.6053 408.826C79.4562 407.077 82.6316 406.2 86.1438 406.2V405.2ZM76.0779 407.977C73.138 409.823 70.7809 412.318 69.0085 415.454L69.879 415.946C71.5732 412.949 73.8162 410.577 76.6096 408.823L76.0779 407.977ZM69.0085 415.454C67.2287 418.603 66.3438 422.156 66.3438 426.1H67.3438C67.3438 422.311 68.1922 418.93 69.879 415.946L69.0085 415.454ZM66.3438 426.1C66.3438 430.044 67.2287 433.629 69.0062 436.842L69.8813 436.358C68.1922 433.305 67.3438 429.889 67.3438 426.1H66.3438ZM69.0062 436.842C70.7781 440.045 73.1354 442.576 76.0779 444.423L76.6096 443.577C73.8188 441.824 71.5761 439.422 69.8813 436.358L69.0062 436.842ZM76.0822 444.426C79.098 446.277 82.4559 447.2 86.1438 447.2V446.2C82.6316 446.2 79.4562 445.323 76.6053 443.574L76.0822 444.426ZM137.371 451.6L137.118 452.031L137.125 452.035L137.371 451.6ZM130.071 444.2L129.631 444.438L129.638 444.449L130.071 444.2ZM127.471 399.4V398.9H126.971V399.4H127.471ZM134.971 399.4H135.471V398.9H134.971V399.4ZM136.671 439.9L136.227 440.129L136.231 440.137L136.235 440.145L136.671 439.9ZM141.571 444.9L141.32 445.332L141.326 445.336L141.571 444.9ZM156.171 444.9L156.416 445.336L156.426 445.33L156.171 444.9ZM161.171 439.6L161.613 439.834L161.616 439.829L161.171 439.6ZM162.971 399.4V398.9H162.471V399.4H162.971ZM170.471 399.4H170.971V398.9H170.471V399.4ZM170.471 453V453.5H170.971V453H170.471ZM162.971 453H162.471V453.5H162.971V453ZM162.971 442.6L163.086 442.113L162.471 441.969V442.6H162.971ZM164.671 443L165.141 443.172L165.334 442.642L164.786 442.513L164.671 443ZM158.171 451.2L157.898 450.781L158.171 451.2ZM147.571 453.7C143.919 453.7 140.604 452.853 137.617 451.165L137.125 452.035C140.271 453.814 143.757 454.7 147.571 454.7V453.7ZM137.624 451.169C134.634 449.414 132.262 447.01 130.505 443.951L129.638 444.449C131.48 447.656 133.975 450.186 137.118 452.031L137.624 451.169ZM130.511 443.962C128.822 440.844 127.971 437.262 127.971 433.2H126.971C126.971 437.405 127.853 441.156 129.631 444.438L130.511 443.962ZM127.971 433.2V399.4H126.971V433.2H127.971ZM127.471 399.9H134.971V398.9H127.471V399.9ZM134.471 399.4V432.3H135.471V399.4H134.471ZM134.471 432.3C134.471 435.234 135.051 437.848 136.227 440.129L137.116 439.671C136.024 437.552 135.471 435.1 135.471 432.3H134.471ZM136.235 440.145C137.478 442.354 139.174 444.086 141.32 445.332L141.822 444.468C139.835 443.314 138.264 441.712 137.107 439.655L136.235 440.145ZM141.326 445.336C143.543 446.583 146.062 447.2 148.871 447.2V446.2C146.213 446.2 143.866 445.617 141.816 444.464L141.326 445.336ZM148.871 447.2C151.68 447.2 154.2 446.583 156.416 445.336L155.926 444.464C153.876 445.617 151.529 446.2 148.871 446.2V447.2ZM156.426 445.33C158.641 444.015 160.372 442.179 161.613 439.834L160.729 439.366C159.571 441.554 157.967 443.252 155.916 444.47L156.426 445.33ZM161.616 439.829C162.859 437.411 163.471 434.562 163.471 431.3H162.471C162.471 434.438 161.883 437.123 160.726 439.371L161.616 439.829ZM163.471 431.3V399.4H162.471V431.3H163.471ZM162.971 399.9H170.471V398.9H162.971V399.9ZM169.971 399.4V453H170.971V399.4H169.971ZM170.471 452.5H162.971V453.5H170.471V452.5ZM163.471 453V442.6H162.471V453H163.471ZM162.857 443.087L164.557 443.487L164.786 442.513L163.086 442.113L162.857 443.087ZM164.201 442.828C162.972 446.194 160.873 448.841 157.898 450.781L158.444 451.619C161.602 449.559 163.837 446.739 165.141 443.172L164.201 442.828ZM157.898 450.781C154.92 452.723 151.483 453.7 147.571 453.7V454.7C151.659 454.7 155.289 453.677 158.444 451.619L157.898 450.781ZM187.895 453H187.395V453.5H187.895V453ZM187.895 399.4V398.9H187.395V399.4H187.895ZM195.395 399.4H195.895V398.9H195.395V399.4ZM195.395 408.2L194.999 408.505L195.895 409.67V408.2H195.395ZM194.395 406.9L193.948 406.676L193.808 406.957L193.999 407.205L194.395 406.9ZM200.095 400.9L199.85 400.464L199.845 400.467L200.095 400.9ZM212.895 398.7H213.395V398.2H212.895V398.7ZM212.895 406.2V406.7H213.395V406.2H212.895ZM198.895 409.8L199.254 410.149L198.895 409.8ZM195.395 453V453.5H195.895V453H195.395ZM188.395 453V399.4H187.395V453H188.395ZM187.895 399.9H195.395V398.9H187.895V399.9ZM194.895 399.4V408.2H195.895V399.4H194.895ZM195.792 407.895L194.792 406.595L193.999 407.205L194.999 408.505L195.792 407.895ZM194.843 407.124C196.064 404.681 197.894 402.752 200.346 401.333L199.845 400.467C197.23 401.981 195.26 404.053 193.948 406.676L194.843 407.124ZM200.341 401.335C202.851 399.92 205.895 399.2 209.495 399.2V398.2C205.762 398.2 202.54 398.947 199.85 400.465L200.341 401.335ZM209.495 399.2H212.895V398.2H209.495V399.2ZM212.395 398.7V406.2H213.395V398.7H212.395ZM212.895 405.7H208.195V406.7H212.895V405.7ZM208.195 405.7C204.216 405.7 200.979 406.939 198.537 409.451L199.254 410.149C201.478 407.861 204.441 406.7 208.195 406.7V405.7ZM198.537 409.451C196.087 411.971 194.895 415.512 194.895 420H195.895C195.895 415.688 197.037 412.429 199.254 410.149L198.537 409.451ZM194.895 420V453H195.895V420H194.895ZM195.395 452.5H187.895V453.5H195.395V452.5ZM20.7 579H20.2V579.5H20.7V579ZM20.7 512H21.2V511.5H20.7V512ZM0.1 512H-0.4V512.5H0.1V512ZM0.1 504.5V504H-0.4V504.5H0.1ZM49.1 504.5H49.6V504H49.1V504.5ZM49.1 512V512.5H49.6V512H49.1ZM28.7 512V511.5H28.2V512H28.7ZM28.7 579V579.5H29.2V579H28.7ZM21.2 579V512H20.2V579H21.2ZM20.7 511.5H0.1V512.5H20.7V511.5ZM0.6 512V504.5H-0.4V512H0.6ZM0.1 505H49.1V504H0.1V505ZM48.6 504.5V512H49.6V504.5H48.6ZM49.1 511.5H28.7V512.5H49.1V511.5ZM28.2 512V579H29.2V512H28.2ZM28.7 578.5H20.7V579.5H28.7V578.5ZM53.9148 579H53.4148V579.5H53.9148V579ZM53.9148 525.4V524.9H53.4148V525.4H53.9148ZM61.4148 525.4H61.9148V524.9H61.4148V525.4ZM61.4148 534.2L61.0185 534.505L61.9148 535.67V534.2H61.4148ZM60.4148 532.9L59.9676 532.676L59.8275 532.957L60.0185 533.205L60.4148 532.9ZM66.1148 526.9L65.8692 526.464L65.8643 526.467L66.1148 526.9ZM78.9148 524.7H79.4148V524.2H78.9148V524.7ZM78.9148 532.2V532.7H79.4148V532.2H78.9148ZM64.9148 535.8L65.2733 536.149L64.9148 535.8ZM61.4148 579V579.5H61.9148V579H61.4148ZM54.4148 579V525.4H53.4148V579H54.4148ZM53.9148 525.9H61.4148V524.9H53.9148V525.9ZM60.9148 525.4V534.2H61.9148V525.4H60.9148ZM61.8112 533.895L60.8112 532.595L60.0185 533.205L61.0185 534.505L61.8112 533.895ZM60.8621 533.124C62.0835 530.681 63.9136 528.752 66.3654 527.333L65.8643 526.467C63.2494 527.981 61.2795 530.053 59.9676 532.676L60.8621 533.124ZM66.3605 527.336C68.8702 525.92 71.9148 525.2 75.5148 525.2V524.2C71.7816 524.2 68.5595 524.947 65.8692 526.465L66.3605 527.336ZM75.5148 525.2H78.9148V524.2H75.5148V525.2ZM78.4148 524.7V532.2H79.4148V524.7H78.4148ZM78.9148 531.7H74.2148V532.7H78.9148V531.7ZM74.2148 531.7C70.2359 531.7 66.9986 532.939 64.5564 535.451L65.2733 536.149C67.4977 533.861 70.4604 532.7 74.2148 532.7V531.7ZM64.5564 535.451C62.1065 537.971 60.9148 541.512 60.9148 546H61.9148C61.9148 541.688 63.0565 538.429 65.2733 536.149L64.5564 535.451ZM60.9148 546V579H61.9148V546H60.9148ZM61.4148 578.5H53.9148V579.5H61.4148V578.5ZM98.5039 577.6L98.2508 578.031L98.2579 578.035L98.5039 577.6ZM91.2039 570.2L90.7641 570.438L90.7704 570.449L91.2039 570.2ZM88.6039 525.4V524.9H88.1039V525.4H88.6039ZM96.1039 525.4H96.6039V524.9H96.1039V525.4ZM97.8039 565.9L97.3594 566.129L97.3636 566.137L97.3681 566.145L97.8039 565.9ZM102.704 570.9L102.453 571.332L102.459 571.336L102.704 570.9ZM117.304 570.9L117.549 571.336L117.559 571.33L117.304 570.9ZM122.304 565.6L122.746 565.834L122.749 565.829L122.304 565.6ZM124.104 525.4V524.9H123.604V525.4H124.104ZM131.604 525.4H132.104V524.9H131.604V525.4ZM131.604 579V579.5H132.104V579H131.604ZM124.104 579H123.604V579.5H124.104V579ZM124.104 568.6L124.218 568.113L123.604 567.969V568.6H124.104ZM125.804 569L126.274 569.172L126.467 568.642L125.918 568.513L125.804 569ZM119.304 577.2L119.031 576.781L119.304 577.2ZM108.704 579.7C105.051 579.7 101.737 578.853 98.7499 577.165L98.2579 578.035C101.404 579.814 104.89 580.7 108.704 580.7V579.7ZM98.757 577.169C95.7666 575.414 93.3949 573.01 91.6375 569.951L90.7704 570.449C92.6129 573.656 95.1079 576.186 98.2508 578.031L98.757 577.169ZM91.6436 569.962C89.9549 566.844 89.1039 563.262 89.1039 559.2H88.1039C88.1039 563.405 88.9862 567.156 90.7643 570.438L91.6436 569.962ZM89.1039 559.2V525.4H88.1039V559.2H89.1039ZM88.6039 525.9H96.1039V524.9H88.6039V525.9ZM95.6039 525.4V558.3H96.6039V525.4H95.6039ZM95.6039 558.3C95.6039 561.234 96.1842 563.848 97.3594 566.129L98.2484 565.671C97.1569 563.552 96.6039 561.1 96.6039 558.3H95.6039ZM97.3681 566.145C98.6108 568.354 100.307 570.086 102.453 571.332L102.955 570.468C100.967 569.314 99.397 567.712 98.2397 565.655L97.3681 566.145ZM102.459 571.336C104.675 572.583 107.195 573.2 110.004 573.2V572.2C107.346 572.2 104.999 571.617 102.949 570.464L102.459 571.336ZM110.004 573.2C112.813 573.2 115.332 572.583 117.549 571.336L117.059 570.464C115.009 571.617 112.662 572.2 110.004 572.2V573.2ZM117.559 571.33C119.774 570.015 121.504 568.179 122.746 565.834L121.862 565.366C120.703 567.554 119.1 569.252 117.049 570.47L117.559 571.33ZM122.749 565.829C123.992 563.411 124.604 560.562 124.604 557.3H123.604C123.604 560.438 123.016 563.123 121.859 565.371L122.749 565.829ZM124.604 557.3V525.4H123.604V557.3H124.604ZM124.104 525.9H131.604V524.9H124.104V525.9ZM131.104 525.4V579H132.104V525.4H131.104ZM131.604 578.5H124.104V579.5H131.604V578.5ZM124.604 579V568.6H123.604V579H124.604ZM123.989 569.087L125.689 569.487L125.918 568.513L124.218 568.113L123.989 569.087ZM125.334 568.828C124.104 572.195 122.006 574.841 119.031 576.781L119.577 577.619C122.735 575.559 124.97 572.739 126.274 569.172L125.334 568.828ZM119.031 576.781C116.053 578.723 112.616 579.7 108.704 579.7V580.7C112.792 580.7 116.422 579.677 119.577 577.619L119.031 576.781ZM154.128 576.3L154.407 575.885L154.128 576.3ZM145.728 565.7L145.513 565.249L145.094 565.448L145.262 565.881L145.728 565.7ZM152.028 562.7L152.481 562.488L152.267 562.032L151.813 562.249L152.028 562.7ZM158.428 570.5L158.139 570.908L158.144 570.911L158.428 570.5ZM175.728 571.1L176.014 571.51L176.022 571.504L175.728 571.1ZM177.428 560.5L177.064 560.843L177.069 560.848L177.075 560.854L177.428 560.5ZM173.728 557.9L173.531 558.36L173.728 557.9ZM170.028 556.6L169.891 557.081L169.899 557.083L169.907 557.085L170.028 556.6ZM162.328 554.4L162.465 553.919L162.465 553.919L162.328 554.4ZM151.628 548.5L151.251 548.828L151.628 548.5ZM150.728 531.5L151.14 531.783L150.728 531.5ZM157.228 526.1L157.438 526.554L157.228 526.1ZM178.628 527.8L178.354 528.218L178.363 528.224L178.628 527.8ZM186.528 537.6L186.74 538.053L187.155 537.858L186.998 537.429L186.528 537.6ZM180.128 540.6L179.671 540.803L179.878 541.269L180.34 541.053L180.128 540.6ZM174.328 533.6L174.041 534.009L174.047 534.013L174.053 534.018L174.328 533.6ZM158.828 533.3L159.152 533.681L158.828 533.3ZM157.528 543.4L157.152 543.729L157.528 543.4ZM160.728 545.8L160.525 546.257L160.534 546.261L160.728 545.8ZM164.028 547L164.168 546.52L164.165 546.519L164.028 547ZM172.928 549.6L173.068 549.12H173.068L172.928 549.6ZM183.028 555.5L182.656 555.835L182.661 555.84L183.028 555.5ZM184.228 572.8L183.821 572.509L183.816 572.517L184.228 572.8ZM177.528 578.3L177.73 578.757L177.739 578.753L177.528 578.3ZM167.628 579.7C162.584 579.7 158.183 578.424 154.407 575.885L153.849 576.715C157.807 579.376 162.406 580.7 167.628 580.7V579.7ZM154.407 575.885C150.628 573.344 147.892 569.893 146.194 565.519L145.262 565.881C147.031 570.44 149.895 574.056 153.849 576.715L154.407 575.885ZM145.943 566.151L152.243 563.151L151.813 562.249L145.513 565.249L145.943 566.151ZM151.576 562.912C153.143 566.251 155.33 568.921 158.139 570.908L158.717 570.092C156.06 568.212 153.98 565.682 152.481 562.488L151.576 562.912ZM158.144 570.911C161.026 572.901 164.191 573.9 167.628 573.9V572.9C164.399 572.9 161.431 571.966 158.712 570.089L158.144 570.911ZM167.628 573.9C170.91 573.9 173.715 573.113 176.014 571.51L175.442 570.69C173.341 572.154 170.746 572.9 167.628 572.9V573.9ZM176.022 571.504C178.34 569.818 179.528 567.607 179.528 564.9H178.528C178.528 567.26 177.516 569.182 175.434 570.696L176.022 571.504ZM179.528 564.9C179.528 562.934 178.963 561.328 177.782 560.146L177.075 560.854C178.026 561.805 178.528 563.133 178.528 564.9H179.528ZM177.792 560.157C176.68 558.975 175.39 558.068 173.925 557.44L173.531 558.36C174.867 558.932 176.043 559.758 177.064 560.843L177.792 560.157ZM173.925 557.44C172.509 556.834 171.25 556.39 170.149 556.115L169.907 557.085C170.94 557.343 172.147 557.766 173.531 558.36L173.925 557.44ZM170.165 556.119L162.465 553.919L162.191 554.881L169.891 557.081L170.165 556.119ZM162.465 553.919C157.579 552.532 154.117 550.603 152.006 548.172L151.251 548.828C153.54 551.464 157.211 553.468 162.192 554.881L162.465 553.919ZM152.006 548.172C149.884 545.729 148.828 542.912 148.828 539.7H147.828C147.828 543.155 148.972 546.204 151.251 548.828L152.006 548.172ZM148.828 539.7C148.828 536.656 149.604 534.024 151.14 531.783L150.316 531.217C148.653 533.643 147.828 536.477 147.828 539.7H148.828ZM151.14 531.783C152.686 529.528 154.781 527.785 157.438 526.554L157.018 525.646C154.209 526.948 151.97 528.805 150.316 531.217L151.14 531.783ZM157.438 526.554C160.099 525.321 163.06 524.7 166.328 524.7V523.7C162.93 523.7 159.824 524.346 157.018 525.646L157.438 526.554ZM166.328 524.7C170.768 524.7 174.772 525.874 178.354 528.218L178.902 527.382C175.151 524.926 170.955 523.7 166.328 523.7V524.7ZM178.363 528.224C182 530.497 184.563 533.674 186.058 537.771L186.998 537.429C185.427 533.126 182.722 529.769 178.893 527.376L178.363 528.224ZM186.316 537.147L179.916 540.147L180.34 541.053L186.74 538.053L186.316 537.147ZM180.585 540.397C179.216 537.317 177.223 534.906 174.603 533.182L174.053 534.018C176.5 535.627 178.373 537.883 179.671 540.803L180.585 540.397ZM174.616 533.191C172.063 531.397 169.196 530.5 166.028 530.5V531.5C168.994 531.5 171.66 532.336 174.041 534.009L174.616 533.191ZM166.028 530.5C162.942 530.5 160.417 531.29 158.504 532.919L159.152 533.681C160.84 532.243 163.114 531.5 166.028 531.5V530.5ZM158.504 532.919C156.594 534.546 155.628 536.618 155.628 539.1H156.628C156.628 536.915 157.462 535.12 159.152 533.681L158.504 532.919ZM155.628 539.1C155.628 540.987 156.119 542.549 157.152 543.729L157.904 543.071C157.071 542.118 156.628 540.813 156.628 539.1H155.628ZM157.152 543.729C158.129 544.846 159.254 545.692 160.525 546.257L160.931 545.343C159.803 544.841 158.794 544.087 157.904 543.071L157.152 543.729ZM160.534 546.261C161.812 546.799 162.932 547.207 163.891 547.481L164.165 546.519C163.258 546.26 162.177 545.868 160.922 545.339L160.534 546.261ZM163.888 547.48L172.788 550.08L173.068 549.12L164.168 546.52L163.888 547.48ZM172.788 550.08C177.055 551.327 180.333 553.253 182.656 555.834L183.4 555.166C180.923 552.414 177.468 550.406 173.068 549.12L172.788 550.08ZM182.661 555.84C185.043 558.415 186.228 561.427 186.228 564.9H187.228C187.228 561.173 185.946 557.919 183.395 555.16L182.661 555.84ZM186.228 564.9C186.228 567.732 185.426 570.263 183.821 572.509L184.635 573.091C186.364 570.67 187.228 567.935 187.228 564.9H186.228ZM183.816 572.517C182.272 574.768 180.112 576.547 177.317 577.847L177.739 578.753C180.677 577.387 182.984 575.498 184.64 573.083L183.816 572.517ZM177.326 577.843C174.534 579.076 171.305 579.7 167.628 579.7V580.7C171.418 580.7 174.789 580.057 177.73 578.757L177.326 577.843ZM211.307 575.4L211.673 575.06L211.307 575.4ZM207.407 532.9H207.907V532.4H207.407V532.9ZM197.507 532.9H197.007V533.4H197.507V532.9ZM197.507 525.4V524.9H197.007V525.4H197.507ZM205.407 523.2L205.777 523.536L205.784 523.528L205.407 523.2ZM207.407 513V512.5H206.907V513H207.407ZM214.907 513H215.407V512.5H214.907V513ZM214.907 525.4H214.407V525.9H214.907V525.4ZM226.707 525.4H227.207V524.9H226.707V525.4ZM226.707 532.9V533.4H227.207V532.9H226.707ZM214.907 532.9V532.4H214.407V532.9H214.907ZM215.707 568.2L215.24 568.378L215.243 568.386L215.707 568.2ZM218.407 571.4L218.14 571.823L218.15 571.829L218.407 571.4ZM225.607 572.5L225.562 572.002L225.607 572.5ZM227.507 572.3H228.007V571.734L227.445 571.804L227.507 572.3ZM227.507 579L227.628 579.485L228.007 579.39V579H227.507ZM224.807 579.4L224.774 578.901L224.757 578.902L224.741 578.904L224.807 579.4ZM222.407 579.1C217.708 579.1 214.156 577.733 211.673 575.06L210.941 575.74C213.658 578.667 217.506 580.1 222.407 580.1V579.1ZM211.673 575.06C209.186 572.381 207.907 568.52 207.907 563.4H206.907C206.907 568.68 208.228 572.819 210.941 575.74L211.673 575.06ZM207.907 563.4V532.9H206.907V563.4H207.907ZM207.407 532.4H197.507V533.4H207.407V532.4ZM198.007 532.9V525.4H197.007V532.9H198.007ZM197.507 525.9H200.007V524.9H197.507V525.9ZM200.007 525.9C202.392 525.9 204.335 525.123 205.777 523.536L205.037 522.864C203.813 524.211 202.155 524.9 200.007 524.9V525.9ZM205.784 523.528C207.206 521.893 207.907 519.872 207.907 517.5H206.907C206.907 519.661 206.275 521.44 205.03 522.872L205.784 523.528ZM207.907 517.5V513H206.907V517.5H207.907ZM207.407 513.5H214.907V512.5H207.407V513.5ZM214.407 513V525.4H215.407V513H214.407ZM214.907 525.9H226.707V524.9H214.907V525.9ZM226.207 525.4V532.9H227.207V525.4H226.207ZM226.707 532.4H214.907V533.4H226.707V532.4ZM214.407 532.9V563.4H215.407V532.9H214.407ZM214.407 563.4C214.407 565.249 214.681 566.911 215.24 568.378L216.174 568.022C215.666 566.689 215.407 565.151 215.407 563.4H214.407ZM215.243 568.386C215.817 569.821 216.788 570.969 218.14 571.823L218.674 570.977C217.492 570.231 216.664 569.245 216.171 568.014L215.243 568.386ZM218.15 571.829C219.587 572.691 221.452 573.1 223.707 573.1V572.1C221.562 572.1 219.894 571.709 218.664 570.971L218.15 571.829ZM223.707 573.1C224.26 573.1 224.909 573.065 225.652 572.998L225.562 572.002C224.838 572.068 224.221 572.1 223.707 572.1V573.1ZM225.652 572.998C226.389 572.931 227.029 572.864 227.569 572.796L227.445 571.804C226.919 571.87 226.291 571.936 225.562 572.002L225.652 572.998ZM227.007 572.3V579H228.007V572.3H227.007ZM227.386 578.515C226.62 578.706 225.75 578.836 224.774 578.901L224.84 579.899C225.864 579.831 226.794 579.694 227.628 579.485L227.386 578.515ZM224.741 578.904C223.75 579.036 222.975 579.1 222.407 579.1V580.1C223.039 580.1 223.864 580.03 224.873 579.896L224.741 578.904ZM7.8 705H7.3V705.5H7.8V705ZM7.8 630.5V630H7.3V630.5H7.8ZM15.8 630.5H16.3V630H15.8V630.5ZM15.8 705V705.5H16.3V705H15.8ZM8.3 705V630.5H7.3V705H8.3ZM7.8 631H15.8V630H7.8V631ZM15.3 630.5V705H16.3V630.5H15.3ZM15.8 704.5H7.8V705.5H15.8V704.5ZM34.2859 705H33.7859V705.5H34.2859V705ZM34.2859 651.4V650.9H33.7859V651.4H34.2859ZM41.7859 651.4H42.2859V650.9H41.7859V651.4ZM41.7859 661.8L41.6714 662.287L42.2859 662.431V661.8H41.7859ZM40.0859 661.4L39.6193 661.221L39.4135 661.755L39.9714 661.887L40.0859 661.4ZM46.5859 653.2L46.3128 652.781L46.3086 652.784L46.5859 653.2ZM67.3859 652.8L67.1358 653.233L67.1399 653.235L67.3859 652.8ZM74.5859 660L74.1505 660.246L74.1572 660.257L74.5859 660ZM77.2859 705V705.5H77.7859V705H77.2859ZM69.7859 705H69.2859V705.5H69.7859V705ZM67.9859 664.8L67.5386 665.024L67.544 665.034L67.9859 664.8ZM63.0859 659.6L62.8247 660.026L62.8326 660.031L62.8408 660.036L63.0859 659.6ZM48.5859 659.6L48.8311 660.036L48.8412 660.03L48.5859 659.6ZM43.5859 664.9L44.0279 665.134L44.0306 665.129L43.5859 664.9ZM41.7859 705V705.5H42.2859V705H41.7859ZM34.7859 705V651.4H33.7859V705H34.7859ZM34.2859 651.9H41.7859V650.9H34.2859V651.9ZM41.2859 651.4V661.8H42.2859V651.4H41.2859ZM41.9005 661.313L40.2005 660.913L39.9714 661.887L41.6714 662.287L41.9005 661.313ZM40.5526 661.579C41.85 658.206 43.9521 655.557 46.8633 653.616L46.3086 652.784C43.2198 654.843 40.9885 657.66 39.6193 661.221L40.5526 661.579ZM46.8591 653.619C49.837 651.677 53.2736 650.7 57.1859 650.7V649.7C53.0983 649.7 49.4682 650.723 46.3128 652.781L46.8591 653.619ZM57.1859 650.7C60.9069 650.7 64.2191 651.548 67.1358 653.233L67.6361 652.367C64.5528 650.586 61.065 649.7 57.1859 649.7V650.7ZM67.1399 653.235C70.1275 654.924 72.462 657.258 74.1507 660.246L75.0212 659.754C73.2432 656.608 70.7777 654.143 67.632 652.365L67.1399 653.235ZM74.1572 660.257C75.9066 663.173 76.7859 666.483 76.7859 670.2H77.7859C77.7859 666.317 76.8653 662.827 75.0147 659.743L74.1572 660.257ZM76.7859 670.2V705H77.7859V670.2H76.7859ZM77.2859 704.5H69.7859V705.5H77.2859V704.5ZM70.2859 705V673.1H69.2859V705H70.2859ZM70.2859 673.1C70.2859 669.774 69.675 666.922 68.4278 664.566L67.544 665.034C68.6969 667.211 69.2859 669.893 69.2859 673.1H70.2859ZM68.4332 664.576C67.2568 662.224 65.5546 660.415 63.3311 659.164L62.8408 660.036C64.8839 661.185 66.4484 662.843 67.5387 665.024L68.4332 664.576ZM63.3472 659.174C61.1922 657.853 58.6994 657.2 55.8859 657.2V658.2C58.5391 658.2 60.8463 658.814 62.8247 660.026L63.3472 659.174ZM55.8859 657.2C53.0722 657.2 50.549 657.853 48.3307 659.17L48.8412 660.03C50.8896 658.814 53.233 658.2 55.8859 658.2V657.2ZM48.3408 659.164C46.1159 660.416 44.3827 662.257 43.1413 664.671L44.0306 665.129C45.1892 662.876 46.7893 661.184 48.8311 660.036L48.3408 659.164ZM43.144 664.666C41.8976 667.021 41.2859 669.838 41.2859 673.1H42.2859C42.2859 669.962 42.8743 667.313 44.0278 665.134L43.144 664.666ZM41.2859 673.1V705H42.2859V673.1H41.2859ZM41.7859 704.5H34.2859V705.5H41.7859V704.5ZM126.002 702.9L125.761 703.338L126.002 702.9ZM116.702 693.9L116.268 694.147L116.27 694.151L116.702 693.9ZM113.402 630.5V630H112.902V630.5H113.402ZM121.402 630.5H121.902V630H121.402V630.5ZM123.702 690.2L123.266 690.445L123.27 690.451L123.274 690.457L123.702 690.2ZM130.202 696.5L129.958 696.936L129.964 696.94L129.97 696.943L130.202 696.5ZM149.502 696.5L149.739 696.941L149.743 696.939L149.502 696.5ZM156.002 690.2L155.571 689.947L155.569 689.951L156.002 690.2ZM158.402 630.5V630H157.902V630.5H158.402ZM166.402 630.5H166.902V630H166.402V630.5ZM163.102 693.9L163.535 694.151L163.537 694.147L163.102 693.9ZM153.802 702.9L153.561 702.462L153.558 702.464L153.802 702.9ZM139.902 705.7C134.707 705.7 130.159 704.615 126.243 702.462L125.761 703.338C129.846 705.585 134.564 706.7 139.902 706.7V705.7ZM126.243 702.462C122.32 700.304 119.288 697.367 117.135 693.649L116.27 694.151C118.517 698.033 121.685 701.096 125.761 703.338L126.243 702.462ZM117.137 693.653C114.984 689.869 113.902 685.556 113.902 680.7H112.902C112.902 685.71 114.02 690.197 116.268 694.147L117.137 693.653ZM113.902 680.7V630.5H112.902V680.7H113.902ZM113.402 631H121.402V630H113.402V631ZM120.902 630.5V680.7H121.902V630.5H120.902ZM120.902 680.7C120.902 684.373 121.685 687.626 123.266 690.445L124.138 689.955C122.653 687.307 121.902 684.227 121.902 680.7H120.902ZM123.274 690.457C124.919 693.199 127.149 695.361 129.958 696.936L130.447 696.064C127.789 694.573 125.686 692.534 124.131 689.943L123.274 690.457ZM129.97 696.943C132.853 698.453 136.168 699.2 139.902 699.2V698.2C136.304 698.2 133.152 697.481 130.434 696.057L129.97 696.943ZM139.902 699.2C143.637 699.2 146.921 698.453 149.739 696.941L149.266 696.059C146.617 697.481 143.502 698.2 139.902 698.2V699.2ZM149.743 696.939C152.62 695.363 154.855 693.199 156.436 690.449L155.569 689.951C154.083 692.535 151.985 694.57 149.262 696.061L149.743 696.939ZM156.434 690.453C158.085 687.633 158.902 684.376 158.902 680.7H157.902C157.902 684.224 157.12 687.301 155.571 689.947L156.434 690.453ZM158.902 680.7V630.5H157.902V680.7H158.902ZM158.402 631H166.402V630H158.402V631ZM165.902 630.5V680.7H166.902V630.5H165.902ZM165.902 680.7C165.902 685.556 164.82 689.869 162.668 693.653L163.537 694.147C165.784 690.197 166.902 685.71 166.902 680.7H165.902ZM162.67 693.649C160.517 697.367 157.485 700.304 153.561 702.462L154.043 703.338C158.12 701.096 161.288 698.033 163.535 694.151L162.67 693.649ZM153.558 702.464C149.712 704.615 145.166 705.7 139.902 705.7V706.7C145.305 706.7 150.026 705.585 154.046 703.336L153.558 702.464ZM189.722 702.3L190.001 701.885L189.722 702.3ZM181.322 691.7L181.107 691.249L180.688 691.448L180.856 691.881L181.322 691.7ZM187.622 688.7L188.074 688.488L187.861 688.032L187.407 688.249L187.622 688.7ZM194.022 696.5L193.733 696.908L193.738 696.911L194.022 696.5ZM211.322 697.1L211.608 697.51L211.616 697.504L211.322 697.1ZM213.022 686.5L212.658 686.843L212.663 686.848L212.668 686.854L213.022 686.5ZM209.322 683.9L209.125 684.36L209.322 683.9ZM205.622 682.6L205.485 683.081L205.493 683.083L205.501 683.085L205.622 682.6ZM197.922 680.4L198.059 679.919L198.058 679.919L197.922 680.4ZM187.222 674.5L186.844 674.828L187.222 674.5ZM186.322 657.5L186.734 657.783L186.322 657.5ZM192.822 652.1L193.032 652.554L192.822 652.1ZM214.222 653.8L213.948 654.218L213.957 654.224L214.222 653.8ZM222.122 663.6L222.334 664.053L222.749 663.858L222.592 663.429L222.122 663.6ZM215.722 666.6L215.265 666.803L215.472 667.269L215.934 667.053L215.722 666.6ZM209.922 659.6L209.634 660.009L209.641 660.013L209.647 660.018L209.922 659.6ZM194.422 659.3L194.746 659.681L194.422 659.3ZM193.122 669.4L192.746 669.729L193.122 669.4ZM196.322 671.8L196.119 672.257L196.128 672.261L196.322 671.8ZM199.622 673L199.762 672.52L199.759 672.519L199.622 673ZM208.522 675.6L208.662 675.12H208.662L208.522 675.6ZM218.622 681.5L218.25 681.835L218.255 681.84L218.622 681.5ZM219.822 698.8L219.415 698.509L219.41 698.517L219.822 698.8ZM213.122 704.3L213.324 704.757L213.333 704.753L213.122 704.3ZM203.222 705.7C198.177 705.7 193.777 704.424 190.001 701.885L189.443 702.715C193.4 705.376 198 706.7 203.222 706.7V705.7ZM190.001 701.885C186.222 699.344 183.485 695.893 181.788 691.519L180.856 691.881C182.625 696.44 185.489 700.056 189.443 702.715L190.001 701.885ZM181.537 692.151L187.837 689.151L187.407 688.249L181.107 691.249L181.537 692.151ZM187.169 688.912C188.736 692.251 190.924 694.921 193.733 696.908L194.311 696.092C191.653 694.212 189.574 691.682 188.074 688.488L187.169 688.912ZM193.738 696.911C196.619 698.901 199.785 699.9 203.222 699.9V698.9C199.992 698.9 197.024 697.966 194.306 696.089L193.738 696.911ZM203.222 699.9C206.504 699.9 209.309 699.113 211.608 697.51L211.036 696.69C208.935 698.154 206.34 698.9 203.222 698.9V699.9ZM211.616 697.504C213.934 695.818 215.122 693.607 215.122 690.9H214.122C214.122 693.26 213.11 695.182 211.028 696.696L211.616 697.504ZM215.122 690.9C215.122 688.934 214.557 687.328 213.375 686.146L212.668 686.854C213.62 687.805 214.122 689.133 214.122 690.9H215.122ZM213.386 686.157C212.273 684.975 210.983 684.068 209.519 683.44L209.125 684.36C210.46 684.932 211.637 685.758 212.658 686.843L213.386 686.157ZM209.519 683.44C208.103 682.834 206.843 682.39 205.743 682.115L205.501 683.085C206.534 683.343 207.741 683.766 209.125 684.36L209.519 683.44ZM205.759 682.119L198.059 679.919L197.785 680.881L205.485 683.081L205.759 682.119ZM198.058 679.919C193.173 678.532 189.71 676.603 187.599 674.172L186.844 674.828C189.133 677.464 192.804 679.468 197.785 680.881L198.058 679.919ZM187.599 674.172C185.478 671.729 184.422 668.912 184.422 665.7H183.422C183.422 669.155 184.566 672.204 186.844 674.828L187.599 674.172ZM184.422 665.7C184.422 662.656 185.197 660.024 186.734 657.783L185.91 657.217C184.246 659.643 183.422 662.477 183.422 665.7H184.422ZM186.734 657.783C188.28 655.528 190.375 653.785 193.032 652.554L192.612 651.646C189.802 652.948 187.564 654.805 185.91 657.217L186.734 657.783ZM193.032 652.554C195.693 651.321 198.653 650.7 201.922 650.7V649.7C198.524 649.7 195.418 650.346 192.612 651.646L193.032 652.554ZM201.922 650.7C206.361 650.7 210.366 651.874 213.948 654.218L214.496 653.382C210.745 650.926 206.549 649.7 201.922 649.7V650.7ZM213.957 654.224C217.594 656.497 220.156 659.674 221.652 663.771L222.592 663.429C221.021 659.126 218.316 655.769 214.487 653.376L213.957 654.224ZM221.91 663.147L215.51 666.147L215.934 667.053L222.334 664.053L221.91 663.147ZM216.179 666.397C214.81 663.317 212.817 660.906 210.197 659.182L209.647 660.018C212.094 661.627 213.967 663.883 215.265 666.803L216.179 666.397ZM210.209 659.191C207.657 657.397 204.79 656.5 201.622 656.5V657.5C204.588 657.5 207.253 658.336 209.634 660.009L210.209 659.191ZM201.622 656.5C198.536 656.5 196.01 657.29 194.098 658.919L194.746 659.681C196.433 658.243 198.708 657.5 201.622 657.5V656.5ZM194.098 658.919C192.188 660.546 191.222 662.618 191.222 665.1H192.222C192.222 662.915 193.056 661.12 194.746 659.681L194.098 658.919ZM191.222 665.1C191.222 666.987 191.713 668.549 192.746 669.729L193.498 669.071C192.664 668.118 192.222 666.813 192.222 665.1H191.222ZM192.746 669.729C193.723 670.846 194.847 671.692 196.119 672.257L196.525 671.343C195.396 670.841 194.388 670.087 193.498 669.071L192.746 669.729ZM196.128 672.261C197.406 672.799 198.526 673.207 199.485 673.481L199.759 672.519C198.851 672.26 197.771 671.868 196.516 671.339L196.128 672.261ZM199.482 673.48L208.382 676.08L208.662 675.12L199.762 672.52L199.482 673.48ZM208.382 676.08C212.649 677.327 215.927 679.253 218.25 681.834L218.994 681.166C216.517 678.414 213.062 676.406 208.662 675.12L208.382 676.08ZM218.255 681.84C220.637 684.415 221.822 687.427 221.822 690.9H222.822C222.822 687.173 221.54 683.919 218.989 681.16L218.255 681.84ZM221.822 690.9C221.822 693.732 221.02 696.263 219.415 698.509L220.229 699.091C221.957 696.67 222.822 693.935 222.822 690.9H221.822ZM219.41 698.517C217.866 700.768 215.706 702.547 212.911 703.847L213.333 704.753C216.271 703.387 218.578 701.498 220.234 699.083L219.41 698.517ZM212.92 703.843C210.128 705.076 206.899 705.7 203.222 705.7V706.7C207.012 706.7 210.383 706.057 213.324 704.757L212.92 703.843Z" fill="black"/>
</svg>
