<?xml version="1.0" encoding="UTF-8"?>
<svg id="Layer_1" xmlns="http://www.w3.org/2000/svg" version="1.1" viewBox="0 0 1200 1200">
  <!-- Generator: Adobe Illustrator 29.1.0, SVG Export Plug-In . SVG Version: 2.1.0 Build 142)  -->
  <defs>
    <style>
      .st0 {
        fill: #fa6f24;
      }
    </style>
  </defs>
  <path class="st0" d="M268.06,656.24l9.81-5.16c33.09,23.39,73.92,14.47,95.45-19.55,3.88-6.13,4.8-19.54,5.88-20.5,2.64-2.32,24.93.76,34.44-1.68,14.27-3.65,38.39-28.87,43.65-42.94,3.21-8.57,1.44-21.19,5.64-28.04,3.18-5.17,30.42-16.5,40.88-31.29,6.61-9.35,13.42-34.44,15.04-35.49,7.46-4.83,26.22,3.85,47.43-17.52,32.24-32.49,21.55-78.68-14.69-101.27,15.63-25.88,37.45-74.44,73.81-63.76,45.43,13.34-21,96.79,28.91,84.96,19.8-4.69,21.26-48.03,61.34-35.69,56.65,17.45-28.38,80.19,14.14,92.12,17.95,5.03,19.27-11.33,29.16-19.29,46.66-37.57,78.33,30.35,35.94,55.52-54.06-28.84-110.81-42.55-172.83-33.77-52.67,7.46-68.2,59.76-40.52,102.26,36.13,55.47,115.72,24.66,134.41,53.6,6.87,10.63-4.74,37.12-5.48,52.88-1.72,37.04,3.85,73.1,3.99,109.89-53.22,57.18-95.03,163.6-175.82,185.03-37.67,9.99-83.2,1.9-111.82,37.4l-8.08-1.19-172.64-145.71c-6.01-11.15,21.93-55.68,21.93-74.56v-96.25Z"/>
  <path class="st0" d="M610.81,476.92c8.67-8.64,90.64-8.03,105.98-4.87,9.96,2.05,121.36,56.94,128.87,63.58,34.33,30.34,49.88,151.78,69.54,199.93,11.55,28.28,29.78,56.76,50.2,79.49l-181.25,155.72c-18.69,5.15-126.72-57.08-126.6-78.73l74.74-103.36c5.29-.16,41.47,74.53,54.52,30.12,5.2-17.69-29.45-71.55-35.5-97.36-8.23-35.1-6.2-62.68-.99-97.69,3.75-25.15,21.21-36.76-3.64-61.29-41.76-41.21-83.97-10.96-122.47-36.31-14.55-9.57-27.67-35.02-13.42-49.22Z"/>
  <path class="st0" d="M180.14,832.6c4.13-1.12,8.09-1.26,12.2-.01l232.23,196.78,1.64,10.75c-10,14.13-37.44,63.38-57.03,54.21l-233.58-199.98c-7.84-10.98,38-59.97,44.53-61.75Z"/>
  <path class="st0" d="M1007.68,832.59c4.4-.86,7.77-1.22,12.2.01,6.52,1.8,52.24,50.56,44.53,61.75l-233.58,199.98c-19.59,9.17-47.03-40.08-57.03-54.21l1.64-10.75,232.23-196.78Z"/>
  <path class="st0" d="M444.75,327.37c6.09-.94,9.1.51,14.37,2.78,4.44,1.91,75.25,52.87,78.41,56.52,16.73,19.37,10.47,42.16-13.19,49.85-15.02,2.26-99.83-59.38-102.35-74.07-2.81-16.36,5.39-32.39,22.76-35.08Z"/>
  <path class="st0" d="M314.86,467c9.58-2.75,15.43-.45,24.05,2.92,6.27,2.45,75.78,52.13,78.61,56.05,14.99,20.8-2.37,52.23-29.32,44.02-7.87-2.4-78.82-53.21-84.4-60.12-11.6-14.37-8.11-37.36,11.07-42.86Z"/>
  <path class="st0" d="M356.19,400.28c4.97-6.68,19.86-12.35,28.46-10.32,8.19,1.94,86.94,62.09,89.32,70,8.84,29.33-11.67,40.74-37.75,32.86-7.41-2.24-49.04-32.23-57.11-39.1-14.87-12.67-38.76-32.15-22.92-53.44Z"/>
  <path class="st0" d="M259.62,553.92c22.75-22.58,96.65,26.03,83.05,56.45-19.76,44.2-113.6-26.13-83.05-56.45Z"/>
  <path class="st0" d="M585.58,117.26c.32-2.01,5.23-11.75,7.87-12.34,5.8-1.64,21,2.3,21,7.52v77c0,9.55-28.87,9.56-28.87,0,0-21.02-3.06-53.2,0-72.19Z"/>
  <path class="st0" d="M391.17,187.32c19.43-7.68,49.35,48.33,52.81,62.09,4.19,16.69-13,19.33-24.34,9.76-4.65-3.92-32.36-50.83-34.03-57.5-2.09-8.34-2.48-9.37,5.56-14.35Z"/>
  <path class="st0" d="M795.72,187.77c5.36-1.6,11.5-2.15,16.09,1.55,6.54,4.8,4.14,6.34,2.62,12.34-1.13,4.47-31.22,55.1-34.07,57.48-11.42,9.55-28.51,6.95-24.32-9.74,2.38-9.48,31.85-59.3,39.68-61.63Z"/>
  <path class="st0" d="M843.96,471.99c32.29-10.01,59.58,18.96,37.49,47.01l-50.42-35.99c3.97-3.96,7.18-9.23,12.93-11.01Z"/>
</svg>