<?xml version="1.0" encoding="UTF-8"?>
<svg id="Layer_1" xmlns="http://www.w3.org/2000/svg" version="1.1" viewBox="0 0 1200 1200">
	<path class="st1" d="M698.31,220.02c-52.78-11.09-118.64,11.09-149.72,56.23-90.43,131.14,59.73,295.26,196.37,210.43,110.13-68.39,80.26-240.05-46.65-266.66ZM772.78,318.43c-40.84,34.1-77.16,74.7-118.25,108.36-7.31,5.99-16.78,14.96-26.53,13.96-14.16-1.46-54.66-53.11-68.92-63.68-6.49-18.09,7-31.55,25.34-27.91,11.19,2.22,32,34.86,42.16,39.49,2.75,1.25,4.83,1.6,7.61.19l108.14-98.3c2.38-2.1,5.03-3.82,8.17-4.55,21.32-4.93,33.59,14.48,22.26,32.44Z" />
	<path class="st0" fill="none" d="M834.36,447.52c77.05-155.02-78.02-322.74-238.4-257.51-132.65,53.99-154.59,231.39-43.1,320.55,91.45,73.16,230.71,39.06,281.49-63.04Z" />
	<path class="st1"   d="M799.72,640.73c-9.4,8.64-28.28,15.79-40.84,19.03l28.05,68.7c11.33-9,28.12-51.73,38.76-56.67,17.97-8.34,51.05,8.68,70.68,8.3l-44.6-104.39c-10.4-2.4-42.62,56.36-52.05,65.02Z" />
	<path class="st1"   d="M526.13,628.96c-5.59-6.83-24.9-41.61-26.99-43.06-4.43-3.05-14.5,16.13-16.62,20.24-16.74,32.47-27.91,69.21-44.43,101.95,3.93,3.78,69.58-21.58,77.53-2.42l31.91,53.34,43.32-96.72c-27.92-1.3-47.37-12.12-64.71-33.33Z" />
	<path class="st1"   d="M818.79,547.77c20.43-16.3,67.08-25.78,77.68-44.56,12.94-22.96-3.26-63.04.58-91.06,3.89-28.6,36.19-62.94,31.37-88.63-4.72-25.2-42.61-43.73-57.06-67.81-19.17-31.86-10.75-90.09-52.87-97.38-26.12-4.52-50.1.49-76.22-10.31-21.94-9.05-51.12-41.64-71.21-43.49-23.01-2.09-44.99,23.15-63.53,34.63-35.95,22.23-53.56,13.13-91.55,19.26-37.41,5.98-32.98,47.67-43,76.61-11.72,33.86-30.55,41.35-52.83,64.31-36.87,38.04,12.94,71.7,17.61,112.41,3.11,27.09-12.79,70.24,1.7,92.52,11.97,18.48,53.94,26.27,73.69,40.86,27.63,20.43,42.56,78.41,78.61,76.27,26.46-1.6,50.69-19.85,81.91-17.8,24.18,1.61,59,21.11,80.21,16.83,25.68-5.2,41.74-54.24,64.89-72.67ZM552.86,510.56c-111.49-89.16-89.55-266.56,43.1-320.55,160.37-65.23,315.45,102.49,238.4,257.51-50.78,102.1-190.05,136.2-281.49,63.04Z" />
	<path class="st1"   d="M212.04,870.85c-2.11-3.55-5.74-4.12-9.59-3.1-6.41,4.28-37.71,18.77-39.36,24.26-.59,1.97-.47,3.96.06,5.92,35.05,66.38,74.68,130.08,110.3,196.16,5.63,5.53,21.44-5.88,27.42-9.29,6.06-3.45,23.7-11.21,21.57-18.7l-110.41-195.26ZM203.37,918.88c-19.57,4.27-22.96-22.71-7.59-26.06,19.57-4.27,22.96,22.71,7.59,26.06Z" />
	<path class="st0" d="M211.77,851.85c.38.27.91.34,1.48.34" />
	<path class="st0" d="M318.39,1040.55c.53-.14,1.02-.32,1.54-.48l-84.39-148.61c1.19,2.92,3.18,5.85,4.41,8.29,24.35,48.39,54.19,92.75,78.44,140.8Z" />
	<path class="st1" d="M704.71,945.62c.03-1.93-.53-3.32-1.4-4.59.87,1.28,1.43,2.67,1.4,4.59Z" />
	<path class="st1" d="M1024.84,866.78c-72.33,44.14-143.82,91.28-215.82,135.14-31.99,19.49-114.84,75.59-145.31,82.99-37.12,9.01-100.59-12.36-139.08-22.35-43.6-11.33-111.23-38.04-153.13-42.21-18.79-1.87-28.64,9.14-43.02,16.24l-85.82-157.19c43.34-22.78,84.7-51.63,127.89-74.02,80.52-41.76,103.67-11.43,179.99,13.19,18.61,6,37.59,10,56.3,15.25,18.09,5.08,50.82,9.68,61.32,23.87,12.05,16.29,6.79,30.42-2.26,46.55-5.42-.99-9.91,3.79-14.9,4.42-39.45,4.97-100.17-26.69-140.67-31.82-15.68.61-22.79,19.45-12.6,30.88,5.67,6.36,36.95,13.28,47.28,16.33,48.02,14.18,110.36,33.47,159.5,23.36,36.1-7.42,76.1-35.7,108.29-54.13,41.65-23.85,133.48-87.21,176.81-91.23,16.43-1.53,36.33.48,43.69,17.61,6.65,15.47,5.66,36.26-8.48,47.13Z" />
	<path class="st1" d="M339.07,1073.42s-.02.01-.03.02c.7,1.19.63,1.03.03-.02Z" />
</svg>
