<?xml version="1.0" encoding="UTF-8"?>
<svg id="Layer_1" xmlns="http://www.w3.org/2000/svg" version="1.1" viewBox="0 0 1200 1200">
  <!-- Generator: Adobe Illustrator 29.1.0, SVG Export Plug-In . SVG Version: 2.1.0 Build 142)  -->
  <defs>
    <style>
      .st0 {
        fill: #fa6f24;
      }
    </style>
  </defs>
  <path class="st0" d="M537.9,1126.86c.03-15.15-27.25-18.12-24.72-39.55h182.93c5.14,23.32-25.05,22.74-24.72,39.55h-133.49Z"/>
  <path class="st0" d="M715.88,869.76v-165.63c0-4.86,44.12-48.41,52.92-80.57,20.4-74.53-17.81-185.67-97.32-206.41-22.12-5.77-59.42,16.74-59.42,34.83v116.19h-14.83v-116.19c0-1.65-15.45-24.98-18.51-27.32-39.1-29.96-98.78,25.2-119.13,57.79-33.15,53.08-34.12,120.57-3.92,175.36,7.16,12.99,37.73,43.34,37.73,46.33v165.63c-39.17,8.06-39.01-21.01-57.29-44.07-52.54-66.28-105.7-103.09-115.16-196.32-37.66-371.49,489.72-437.8,561.66-101.86,32.53,151.92-27.54,194.85-109.45,298.18-18.27,23.05-18.12,52.13-57.29,44.07Z"/>
  <path class="st0" d="M532.95,689.3c-1.36-4.78-30.38-28.06-36.76-37.4-27.48-40.26-30.69-93.89-9.73-137.63,9.45-19.72,66.35-87.54,71.45-42.75,4.71,41.35-19.24,146.51,55.35,135.23,66.09-9.99,22.61-147.57,45.87-152.31,7.23-1.47,38.14,23.28,44.12,29.95,36.74,41.01,42.76,102.98,18.48,151.42-7.84,15.65-45.4,53.3-45.4,58.43v168.1l-7.42,7.42h-128.55l-7.42-7.42v-173.04Z"/>
  <path class="st0" d="M735.65,973.64c-3.41,3.78,39.52,55.99-5.7,70.88l-238.55,2.76c-63.49-9.11-14.47-70-17.77-73.64-44.11-1.7-46.09-50.37-7.32-64.21h276.66c39.21,14.22,36.35,62.65-7.32,64.21Z"/>
  <path class="st0" d="M241.23,583.08c2.99,18.57-11.62,23-27.08,24.75-18.9,2.13-122.28,4.58-126.15-12.58-.82-5.68,5.53-12.58,9.95-14.62,12.37-5.73,139.06-3.92,143.27,2.46Z"/>
  <path class="st0" d="M981.43,579.09c11.48-3.44,121.06-2.56,129.9,1.52,4.26,1.97,11.14,9.34,9.95,14.62-5.71,7.21-13.62,10.78-22.54,12.17-20.11,3.13-88.03,3.13-108.14,0-8.92-1.39-16.82-4.97-22.54-12.17-1.46-6.45,7.99-14.54,13.37-16.15Z"/>
  <path class="st0" d="M249.29,222.38c9.47-1.62,84.06,82.88,98.42,93.74,5.76,9.24-.08,16.39-7.52,22.41-6.39,2.94-15.26-6.44-19.96-10.07-8.9-6.88-79.23-76.51-81.62-81.76-4.34-9.54,1.72-22.79,10.68-24.32Z"/>
  <path class="st0" d="M859.67,850.41c3.26-4.48,15.94-4.75,21.92-.89,6.02,3.88,83.26,81.17,86.69,86.74,10.08,16.36.75,26.71-16.55,21.7-5.89-1.7-83.48-78.41-87.75-85.46-3.47-5.72-8.09-16.86-4.3-22.09Z"/>
  <path class="st0" d="M960.68,223.2l11.76,12.25c1.76,4.3-.05,7.45-1.77,11.26-2.39,5.26-72.71,74.88-81.62,81.76-4.7,3.63-13.57,13.01-19.96,10.07l-9.29-11.16c-1.77-4.3.05-7.45,1.77-11.26,3.39-7.5,92.32-93.48,99.11-92.92Z"/>
  <path class="st0" d="M349.88,850.13c3.43,4.83-1.18,16.74-4.56,22.36-4.18,6.95-81.86,83.76-87.75,85.47-17.3,5.01-26.63-5.33-16.55-21.7,5.29-8.59,87.38-87.3,93.66-88.88,3.02-.76,14.77,2.12,15.21,2.75Z"/>
  <path class="st0" d="M592.28,86.12c3.09-19.73,24.72-14.69,24.72,0v133.49c0,9.31-24.72,9.31-24.72,0,0-38-5.39-99.01,0-133.49Z"/>
</svg>