<?xml version="1.0" encoding="UTF-8"?>
<svg id="Layer_1" xmlns="http://www.w3.org/2000/svg" version="1.1" viewBox="0 0 1200 1200">
  <!-- Generator: Adobe Illustrator 29.1.0, SVG Export Plug-In . SVG Version: 2.1.0 Build 142)  -->
  <defs>
    <style>
      .st0 {
        fill: #fa6f24;
      }
    </style>
  </defs>
  <path class="st0" d="M840.52,1065.62c-7.8,7.06-34.93,17.49-46.23,18.88-119.08,14.72-268.08-11.06-390.43-.39-61.45-11.41-53.99-87.95-45.84-135.83,11.54-67.8,62.59-123.74,120.18-157.19,79.81,60.72,172.54,59.39,252.66.02,87.82,50.47,132.72,138.63,123.1,239.86-1.15,12.15-3.92,26.02-13.45,34.64Z"/>
  <path class="st0" d="M766.74,226.06c2.39,3.78,3.47,8.29,3.88,12.76.77,8.26-.61,16.7-3.94,24.3-10.94,24.88-36.94,32.55-57.49,47-4.78,3.36-9.72,7.05-12.03,12.41-1.96,4.53-1.76,9.7-.97,14.57,3,18.46,13.82,34.63,19.6,52.42s4.73,40.62-10.77,51.09c-14.19,9.58-33.91,4.16-47.9-5.72-13.98-9.88-24.98-23.67-39.51-32.71-5.4-3.36-11.49-6.08-17.85-5.99-4.54.07-8.95,1.57-13.05,3.52-16.25,7.74-28.07,22.25-42.41,33.12-14.34,10.87-34.64,17.98-50.03,8.66-16.42-9.94-18.59-33.4-13.2-51.83,5.39-18.43,16.29-35.11,19.74-53.99.76-4.15,1.13-8.51-.22-12.5-1.62-4.77-5.48-8.42-9.44-11.53-14.96-11.78-33.23-19.09-47.15-32.08s-22.47-35.32-11.74-51.05c5.42-7.95,14.75-12.53,24.2-14.37,9.45-1.84,19.17-1.25,28.79-.87,11.88.47,23.77.64,35.66.49,5.08-.06,10.43-.26,14.77-2.89,3.49-2.11,5.94-5.58,7.95-9.13,9.67-17.07,11.23-37.47,18.01-55.89,5.76-15.66,19.36-34.42,37.79-34.99,19.29-.6,32.18,22.01,37.52,37.76,5.59,16.45,7.64,34.1,14.87,49.9,1.97,4.3,4.47,8.61,8.49,11.1,3.36,2.08,7.41,2.67,11.35,3.04,26.03,2.45,54.03-3.81,79.55,2.99,5.95,1.58,11.68,4.76,15.16,9.83.14.2.27.4.4.61Z"/>
  <path class="st0" d="M1118.13,783.11c-5.32,5.74-26.5,11.94-35.19,12.91-52.32,5.8-233.01,7.18-281.81-1.5-13.54-2.41-24.6-8.91-29.69-21.06-23.68-56.48,14.71-149.93,68.04-179.38,62.3,45.24,106.34,57.38,178.57,23.92,10.16-4.71,19.4-17.31,26.42-19.28,53.65-15,111.44,143.65,73.66,184.39Z"/>
  <path class="st0" d="M422.1,783.22c-6.88,6.88-35.57,11.96-46.54,12.88-56.88,4.75-218.54,7.67-270.6-1.58-11.14-1.98-26.83-9.56-29.98-20.77-17.6-62.68,10.13-147.57,68.33-179.68,69.25,59.3,144.8,55.17,214.99.01,21.82,1.29,61.87,68.65,66.92,89.68,4.55,18.93,9.21,87.11-3.13,99.46Z"/>
  <path class="st0" d="M580.42,520.05c185.13-29.12,217.03,242.63,53.89,268.79-198.46,31.82-224.59-241.94-53.89-268.79Z"/>
  <path class="st0" d="M235.23,389.89c138.54-19.53,159.61,197.2,20.38,201.9-135.02,4.56-137.16-185.43-20.38-201.9Z"/>
  <path class="st0" d="M872.54,561.96c-30.85-33.54-33.65-93.75-7.68-131.02,62.13-89.17,208.91-28.49,177.31,92.36-19.33,73.95-122.03,90.4-169.63,38.66Z"/>
</svg>