<?xml version="1.0" encoding="UTF-8"?>
<svg id="Layer_1" xmlns="http://www.w3.org/2000/svg" version="1.1" viewBox="0 0 1200 1200">
  <!-- Generator: Adobe Illustrator 29.1.0, SVG Export Plug-In . SVG Version: 2.1.0 Build 142)  -->
  <defs>
    <style>
      .st0 {
        fill: #fa6f24;
        fill-rule: evenodd;
      }
    </style>
  </defs>
  <g>
    <path class="st0" d="M747.12,125.45c.21,0-91.54.21-91.74.21l-28.12-87.43c-2.26-6.77-8.41-11.29-15.6-11.29s-13.34,4.52-15.6,11.29l-28.12,87.43-91.74-.21c-15.8,0-22.58,20.52-9.65,29.76l74.3,53.77-28.53,87.23c-4.93,14.98,12.52,27.71,25.24,18.27l74.09-54.18c73.07,52.13,73.89,57.26,83.74,57.26,11.08,0,19.09-10.88,15.6-21.35l-28.53-87.23,74.3-53.77c12.93-9.44,6.16-29.76-9.65-29.76Z"/>
    <path class="st0" d="M387.12,235.05c.2,0-66.5.21-66.7.21l-20.52-63.42c-4.93-15.19-26.27-15.19-31.2,0l-20.52,63.42-66.5-.21c-.21,0-11.9-.21-15.6,11.29-2.26,6.77.21,14.37,5.95,18.47l53.98,39-20.73,63.42c-4.93,15.19,12.52,27.71,25.45,18.27l53.77-39.2,53.77,39.2c12.72,9.44,30.17-3.28,25.24-18.27l-20.73-63.42,53.98-39c12.93-9.44,6.16-29.76-9.65-29.76Z"/>
    <path class="st0" d="M1041.64,234.85c.21,0-66.29.21-66.5.21l-20.52-63.42c-4.93-15.19-26.27-15.19-31.2,0l-20.52,63.42-66.5-.21c-.21,0-11.9-.21-15.6,11.29-2.26,6.77.21,14.37,5.95,18.47l53.98,39-20.73,63.42c-2.26,6.77.21,14.37,5.95,18.47,5.75,4.31,13.55,4.1,19.29,0l53.77-39.2c54.39,38.38,53.98,42.48,63.42,42.48,11.08,0,19.09-10.88,15.6-21.76l-20.73-63.42,53.98-39c12.93-9.44,6.16-29.76-9.65-29.76Z"/>
  </g>
  <path class="st0" d="M345.94,666.61h-194.78c-5.1,0-9.25,4.15-9.25,9.25v487.95c0,5.1,4.15,9.25,9.25,9.25h194.78c5.03,0,9.08-4.02,9.25-9.18v-3.7c-.17-.87-.28-1.78-.28-2.72s.1-1.85.28-2.72v-470.07c-.31-1.57-.35-3.25-.1-4.92.03-.17.07-.38.1-.56v-3.35c0-5.06-4.12-9.22-9.25-9.22Z"/>
  <path class="st0" d="M837.45,914.36h114.48c15.19-23.81,19.87-46.12,13.86-66.37-3.14-10.65-8.66-18.33-12.15-22.41h-116.19c-7.68,0-13.9-6.21-13.9-13.9s6.21-13.9,13.9-13.9h112.14c9.99-31.18,9.92-54.22-.28-68.5-17.25-24.23-64-26.85-111.9-26.05h-128.34c-3.7,0-7.26-1.5-9.88-4.12-2.58-2.65-4.05-6.21-4.02-9.92l2.76-217.19c0-33.41-23.53-61.83-53.59-64.69-29.96-2.76-57.01,18.82-61.52,49.12-14.84,98-49.54,167.62-103.1,206.9-38.09,27.93-75.97,32.96-96.78,33.2v447.06h424.16c23.15-1.92,44.3-7.89,62.98-17.7,44.03-23.18,49.51-54.01,49.05-69.72h-84.21c-7.65,0-13.9-6.21-13.9-13.9s6.21-13.9,13.9-13.9h92.14c19.9-11.38,29.15-29.57,28.21-55.44-.42-12.25-3.21-23.53-5.48-30.86h-112.39c-7.68,0-13.9-6.21-13.9-13.9.07-7.61,6.28-13.83,13.93-13.83Z"/>
</svg>