<svg width="40" height="41" viewBox="0 0 40 41" fill="none" xmlns="http://www.w3.org/2000/svg">
<g clip-path="url(#clip0_1013_18976)">
<g clip-path="url(#clip1_1013_18976)">
<mask id="mask0_1013_18976" style="mask-type:luminance" maskUnits="userSpaceOnUse" x="0" y="0" width="40" height="41">
<path d="M40 0.709961H0V40.71H40V0.709961Z" fill="white"/>
</mask>
<g mask="url(#mask0_1013_18976)">
<path d="M36.25 31.335H21.8125C21.7433 31.0563 21.6112 30.7972 21.4263 30.5775L17.9744 26.5538C17.9158 26.4852 17.843 26.4302 17.7611 26.3924C17.6793 26.3547 17.5902 26.3351 17.5 26.335H10.625V25.71C10.625 25.5442 10.5592 25.3853 10.4419 25.2681C10.3247 25.1508 10.1658 25.085 10 25.085H1.25C1.08424 25.085 0.925268 25.1508 0.808058 25.2681C0.690848 25.3853 0.625 25.5442 0.625 25.71V39.46C0.625 39.6258 0.690848 39.7847 0.808058 39.9019C0.925268 40.0192 1.08424 40.085 1.25 40.085H6.25C6.41576 40.085 6.57473 40.0192 6.69194 39.9019C6.80915 39.7847 6.875 39.6258 6.875 39.46V38.835H10C10.1658 38.835 10.3247 38.7692 10.4419 38.6519C10.5592 38.5347 10.625 38.3758 10.625 38.21V37.585H14.8125L18.405 39.98C18.5072 40.0481 18.6272 40.0847 18.75 40.085C18.795 40.0849 18.8398 40.08 18.8838 40.0706L38.8838 35.6956C39.023 35.6651 39.1476 35.5879 39.237 35.4769C39.3263 35.3658 39.375 35.2275 39.375 35.085V34.46C39.374 33.6315 39.0444 32.8372 38.4586 32.2514C37.8728 31.6656 37.0785 31.336 36.25 31.335ZM5.625 38.835H1.875V26.335H5.625V38.835ZM9.375 37.585H6.875V26.335H9.375V37.585ZM38.125 34.585L18.875 38.7931L15.3463 36.44C15.2436 36.3718 15.1232 36.3353 15 36.335H10.625V27.585H17.2125L20.4744 31.3906C20.5716 31.5039 20.625 31.6482 20.625 31.7975V32.585C20.625 32.7508 20.5592 32.9097 20.4419 33.0269C20.3247 33.1442 20.1658 33.21 20 33.21H19.2681C19.186 33.2101 19.1046 33.1939 19.0286 33.1625C18.9527 33.1311 18.8837 33.085 18.8256 33.0269L16.0669 30.2681L15.1831 31.1519L17.9419 33.9106C18.1156 34.0854 18.3222 34.224 18.5499 34.3183C18.7776 34.4126 19.0217 34.4608 19.2681 34.46H20C20.4973 34.46 20.9742 34.2625 21.3258 33.9108C21.6775 33.5592 21.875 33.0823 21.875 32.585H36.25C36.7473 32.585 37.2242 32.7825 37.5758 33.1342C37.9275 33.4858 38.125 33.9627 38.125 34.46V34.585ZM38.75 20.085H37.5V6.33496C37.5 5.83768 37.3025 5.36077 36.9508 5.00913C36.5992 4.6575 36.1223 4.45996 35.625 4.45996H31.2162C31.2073 4.44465 31.1975 4.42984 31.1869 4.41559L29.4194 2.64746C29.3022 2.53029 29.1432 2.46447 28.9775 2.46447C28.8118 2.46447 28.6528 2.53029 28.5356 2.64746L27.8869 3.29621C27.5626 3.12669 27.224 2.98614 26.875 2.87621V1.95996C26.875 1.7942 26.8092 1.63523 26.6919 1.51802C26.5747 1.40081 26.4158 1.33496 26.25 1.33496H23.75C23.5842 1.33496 23.4253 1.40081 23.3081 1.51802C23.1908 1.63523 23.125 1.7942 23.125 1.95996V2.87621C22.776 2.98614 22.4374 3.12669 22.1131 3.29621L21.4644 2.64746C21.3472 2.53029 21.1882 2.46447 21.0225 2.46447C20.8568 2.46447 20.6978 2.53029 20.5806 2.64746L18.8125 4.41559C18.8021 4.42985 18.7925 4.44467 18.7838 4.45996H14.375C13.8777 4.45996 13.4008 4.6575 13.0492 5.00913C12.6975 5.36077 12.5 5.83768 12.5 6.33496V10.085H1.25C1.08424 10.085 0.925268 10.1508 0.808058 10.268C0.690848 10.3852 0.625 10.5442 0.625 10.71V18.21C0.625 18.3758 0.690848 18.5347 0.808058 18.6519C0.925268 18.7692 1.08424 18.835 1.25 18.835H12.5V20.085H11.25C11.0842 20.085 10.9253 20.1508 10.8081 20.2681C10.6908 20.3853 10.625 20.5442 10.625 20.71V23.21C10.625 23.7073 10.8225 24.1842 11.1742 24.5358C11.5258 24.8875 12.0027 25.085 12.5 25.085H37.5C37.9973 25.085 38.4742 24.8875 38.8258 24.5358C39.1775 24.1842 39.375 23.7073 39.375 23.21V20.71C39.375 20.5442 39.3092 20.3853 39.1919 20.2681C39.0747 20.1508 38.9158 20.085 38.75 20.085ZM36.25 6.33496V20.085H35V7.58496C35 7.4192 34.9342 7.26023 34.8169 7.14302C34.6997 7.02581 34.5408 6.95996 34.375 6.95996H30.9587C30.8488 6.61096 30.7083 6.27235 30.5387 5.94808L30.7769 5.70996H35.625C35.7908 5.70996 35.9497 5.77581 36.0669 5.89302C36.1842 6.01023 36.25 6.1692 36.25 6.33496ZM16.875 18.21V10.71C16.875 10.5442 16.8092 10.3852 16.6919 10.268C16.5747 10.1508 16.4158 10.085 16.25 10.085V8.20996H17.5V10.085C17.5 10.2507 17.5658 10.4097 17.6831 10.5269C17.8003 10.6441 17.9592 10.71 18.125 10.71H19.0413C19.1512 11.059 19.2917 11.3976 19.4613 11.7219L18.8125 12.3706C18.6953 12.4878 18.6295 12.6468 18.6295 12.8125C18.6295 12.9782 18.6953 13.1372 18.8125 13.2544L20.5806 15.0225C20.6978 15.1397 20.8568 15.2055 21.0225 15.2055C21.1882 15.2055 21.3472 15.1397 21.4644 15.0225L22.1131 14.3737C22.4374 14.5433 22.776 14.6839 23.125 14.7937V15.71C23.125 15.8758 23.1908 16.0347 23.3081 16.1519C23.4253 16.2692 23.5842 16.335 23.75 16.335H26.25C26.4158 16.335 26.5747 16.2692 26.6919 16.1519C26.8092 16.0347 26.875 15.8758 26.875 15.71V14.7937C27.224 14.6836 27.5626 14.5429 27.8869 14.3731L28.5356 15.0225C28.6528 15.1397 28.8118 15.2055 28.9775 15.2055C29.1432 15.2055 29.3022 15.1397 29.4194 15.0225L31.1875 13.2544C31.3047 13.1372 31.3705 12.9782 31.3705 12.8125C31.3705 12.6468 31.3047 12.4878 31.1875 12.3706L30.5394 11.7219C30.7087 11.3976 30.849 11.059 30.9587 10.71H31.875C32.0408 10.71 32.1997 10.6441 32.3169 10.5269C32.4342 10.4097 32.5 10.2507 32.5 10.085V8.20996H33.75V20.085H16.25V18.835C16.4158 18.835 16.5747 18.7692 16.6919 18.6519C16.8092 18.5347 16.875 18.3758 16.875 18.21ZM20.1287 7.72371C20.2534 7.17579 20.4705 6.65311 20.7706 6.17808C20.8463 6.05813 20.8789 5.916 20.8631 5.77505C20.8473 5.63409 20.7841 5.5027 20.6838 5.40246L20.1388 4.85746L21.0225 3.97371L21.5675 4.51871C21.6677 4.61905 21.7991 4.68231 21.9401 4.6981C22.081 4.71388 22.2232 4.68126 22.3431 4.60558C22.8181 4.30542 23.3408 4.08835 23.8888 3.96371C24.027 3.93224 24.1504 3.85473 24.2387 3.74388C24.3271 3.63304 24.3751 3.49546 24.375 3.35371V2.58496H25.625V3.35371C25.6249 3.49546 25.6729 3.63304 25.7613 3.74388C25.8496 3.85473 25.973 3.93224 26.1112 3.96371C26.6592 4.08835 27.1819 4.30542 27.6569 4.60558C27.7768 4.68126 27.919 4.71388 28.0599 4.6981C28.2009 4.68231 28.3323 4.61905 28.4325 4.51871L28.9775 3.97371L29.8612 4.85746L29.3162 5.40246C29.2159 5.5027 29.1527 5.63409 29.1369 5.77505C29.1211 5.916 29.1537 6.05813 29.2294 6.17808C29.5295 6.65311 29.7466 7.17579 29.8713 7.72371C29.9027 7.86192 29.9802 7.98533 30.0911 8.07369C30.2019 8.16204 30.3395 8.21009 30.4813 8.20996H31.25V9.45996H30.4813C30.3395 9.45982 30.2019 9.50788 30.0911 9.59623C29.9802 9.68459 29.9027 9.808 29.8713 9.94621C29.7466 10.4941 29.5295 11.0168 29.2294 11.4919C29.1537 11.6118 29.1211 11.754 29.1369 11.8949C29.1527 12.0359 29.2159 12.1673 29.3162 12.2675L29.8612 12.8125L28.9775 13.6962L28.4325 13.1512C28.3323 13.0511 28.201 12.9879 28.0602 12.9721C27.9194 12.9563 27.7774 12.9889 27.6575 13.0644C27.1824 13.3644 26.6597 13.5814 26.1119 13.7063C25.9737 13.7376 25.8502 13.8149 25.7617 13.9257C25.6732 14.0364 25.625 14.1739 25.625 14.3156V15.085H24.375V14.3156C24.375 14.1739 24.3268 14.0364 24.2383 13.9257C24.1498 13.8149 24.0263 13.7376 23.8881 13.7063C23.3403 13.5814 22.8176 13.3644 22.3425 13.0644C22.2226 12.9889 22.0806 12.9563 21.9398 12.9721C21.799 12.9879 21.6677 13.0511 21.5675 13.1512L21.0225 13.6962L20.1388 12.8125L20.6838 12.2675C20.7841 12.1673 20.8473 12.0359 20.8631 11.8949C20.8789 11.754 20.8463 11.6118 20.7706 11.4919C20.4705 11.0168 20.2534 10.4941 20.1287 9.94621C20.0973 9.808 20.0198 9.68459 19.9089 9.59623C19.7981 9.50788 19.6605 9.45982 19.5187 9.45996H18.75V8.20996H19.5187C19.6605 8.21009 19.7981 8.16204 19.9089 8.07369C20.0198 7.98533 20.0973 7.86192 20.1287 7.72371ZM13.75 6.33496C13.75 6.1692 13.8158 6.01023 13.9331 5.89302C14.0503 5.77581 14.2092 5.70996 14.375 5.70996H19.2231L19.4613 5.94808C19.2917 6.27235 19.1512 6.61096 19.0413 6.95996H15.625C15.4592 6.95996 15.3003 7.02581 15.1831 7.14302C15.0658 7.26023 15 7.4192 15 7.58496V10.085H13.75V6.33496ZM1.875 11.335H15.625V17.585H1.875V11.335ZM13.75 18.835H15V20.085H13.75V18.835ZM38.125 23.21C38.125 23.3758 38.0592 23.5347 37.9419 23.6519C37.8247 23.7692 37.6658 23.835 37.5 23.835H12.5C12.3342 23.835 12.1753 23.7692 12.0581 23.6519C11.9408 23.5347 11.875 23.3758 11.875 23.21V21.335H38.125V23.21Z" fill="#0A1220"/>
<path d="M24.9999 12.585C25.7415 12.585 26.4666 12.3651 27.0833 11.953C27.6999 11.541 28.1806 10.9553 28.4644 10.27C28.7482 9.5848 28.8225 8.8308 28.6778 8.10337C28.5331 7.37594 28.176 6.70776 27.6515 6.18331C27.1271 5.65886 26.4589 5.30171 25.7315 5.15702C25.004 5.01232 24.25 5.08658 23.5648 5.37041C22.8796 5.65424 22.2939 6.13489 21.8819 6.75157C21.4698 7.36826 21.2499 8.09328 21.2499 8.83496C21.2509 9.82922 21.6463 10.7825 22.3493 11.4856C23.0524 12.1886 24.0056 12.584 24.9999 12.585ZM24.9999 6.33496C25.4943 6.33496 25.9777 6.48158 26.3888 6.75629C26.7999 7.03099 27.1203 7.42144 27.3096 7.87825C27.4988 8.33507 27.5483 8.83773 27.4518 9.32269C27.3554 9.80764 27.1173 10.2531 26.7676 10.6027C26.418 10.9524 25.9725 11.1905 25.4876 11.287C25.0026 11.3834 24.5 11.3339 24.0432 11.1447C23.5863 10.9555 23.1959 10.635 22.9212 10.2239C22.6465 9.81276 22.4999 9.32941 22.4999 8.83496C22.4999 8.17192 22.7633 7.53604 23.2321 7.06719C23.7009 6.59835 24.3368 6.33496 24.9999 6.33496ZM5.18299 12.1431L3.30799 14.0181C3.19082 14.1353 3.125 14.2943 3.125 14.46C3.125 14.6257 3.19082 14.7847 3.30799 14.9019L5.18299 16.7769L6.06674 15.8931L4.63362 14.46L6.06674 13.0269L5.18299 12.1431ZM12.3167 12.1431L11.433 13.0269L12.8661 14.46L11.433 15.8931L12.3167 16.7769L14.1917 14.9019C14.3089 14.7847 14.3747 14.6257 14.3747 14.46C14.3747 14.2943 14.3089 14.1353 14.1917 14.0181L12.3167 12.1431ZM6.94112 16.68L9.44112 11.68L10.5592 12.2394L8.05924 17.2394L6.94112 16.68Z" fill="#0A1220"/>
</g>
</g>
</g>
<defs>
<clipPath id="clip0_1013_18976">
<rect width="40" height="40" fill="white" transform="translate(0 0.709961)"/>
</clipPath>
<clipPath id="clip1_1013_18976">
<rect width="40" height="40" fill="white" transform="translate(0 0.709961)"/>
</clipPath>
</defs>
</svg>
