<svg width="40" height="41" viewBox="0 0 40 41" fill="none" xmlns="http://www.w3.org/2000/svg">
<g clip-path="url(#clip0_1013_18990)">
<path d="M14.5442 27.5382C14.5442 27.4058 14.5968 27.2789 14.6904 27.1853C14.784 27.0917 14.9109 27.0391 15.0433 27.0391H21.6005C21.7328 27.0391 21.8598 27.0917 21.9534 27.1853C22.047 27.2789 22.0995 27.4058 22.0995 27.5382C22.0995 27.6705 22.047 27.7975 21.9534 27.8911C21.8598 27.9847 21.7328 28.0372 21.6005 28.0372H15.0433C14.9109 28.0372 14.784 27.9847 14.6904 27.8911C14.5968 27.7975 14.5442 27.6705 14.5442 27.5382ZM15.0433 30.4472H20.5515C20.6175 30.4481 20.6831 30.4358 20.7444 30.4111C20.8056 30.3864 20.8614 30.3497 20.9084 30.3033C20.9554 30.2569 20.9927 30.2016 21.0182 30.1406C21.0437 30.0797 21.0568 30.0143 21.0568 29.9482C21.0568 29.8822 21.0437 29.8168 21.0182 29.7558C20.9927 29.6948 20.9554 29.6396 20.9084 29.5931C20.8614 29.5467 20.8056 29.5101 20.7444 29.4854C20.6831 29.4607 20.6175 29.4484 20.5515 29.4492H15.0433C14.9772 29.4484 14.9117 29.4607 14.8504 29.4854C14.7891 29.5101 14.7334 29.5467 14.6864 29.5931C14.6394 29.6396 14.602 29.6948 14.5766 29.7558C14.5511 29.8168 14.538 29.8822 14.538 29.9482C14.538 30.0143 14.5511 30.0797 14.5766 30.1406C14.602 30.2016 14.6394 30.2569 14.6864 30.3033C14.7334 30.3497 14.7891 30.3864 14.8504 30.4111C14.9117 30.4358 14.9772 30.4481 15.0433 30.4472ZM13.3539 26.4035C13.4022 26.4478 13.4413 26.5011 13.469 26.5605C13.4967 26.6199 13.5124 26.6842 13.5153 26.7497C13.5181 26.8152 13.508 26.8806 13.4856 26.9421C13.4632 27.0037 13.4288 27.0603 13.3845 27.1086L12.9388 27.595C13.2815 28.2056 13.3834 28.9223 13.2246 29.6043C13.0658 30.2862 12.6576 30.8841 12.0804 31.2805C11.5032 31.6768 10.7986 31.843 10.1051 31.7463C9.41157 31.6496 8.7793 31.297 8.33251 30.7579C7.88572 30.2188 7.65672 29.532 7.6905 28.8326C7.72428 28.1332 8.0184 27.4717 8.51506 26.9782C9.01173 26.4846 9.67503 26.1946 10.3746 26.1652C11.0742 26.1358 11.7595 26.3691 12.2959 26.8192L12.6488 26.4341C12.7382 26.3365 12.8628 26.2785 12.995 26.2727C13.1272 26.2669 13.2563 26.3141 13.3539 26.4035ZM12.2063 28.394L10.9745 29.7378C10.8955 29.824 10.7887 29.8798 10.6727 29.8953C10.5568 29.9108 10.4391 29.885 10.3402 29.8226L9.29945 29.1652C9.1896 29.0936 9.11233 28.9816 9.08438 28.8535C9.05642 28.7254 9.08001 28.5914 9.15004 28.4806C9.22008 28.3697 9.33094 28.2909 9.45865 28.2611C9.58636 28.2313 9.72066 28.253 9.8325 28.3215L10.5205 28.7561L11.6207 27.5558C11.2823 27.2862 10.8581 27.1475 10.4258 27.1651C9.99352 27.1827 9.58201 27.3554 9.26662 27.6516C8.95123 27.9478 8.75308 28.3476 8.70842 28.778C8.66377 29.2083 8.77561 29.6404 9.02347 29.995C9.27132 30.3496 9.63862 30.6031 10.0581 30.7091C10.4776 30.8151 10.9212 30.7664 11.3077 30.572C11.6943 30.3776 11.9979 30.0505 12.163 29.6506C12.328 29.2506 12.3432 28.8044 12.2063 28.394ZM15.0433 20.4944H22.6214C22.7538 20.4944 22.8807 20.4418 22.9743 20.3482C23.0679 20.2546 23.1205 20.1277 23.1205 19.9953C23.1205 19.8629 23.0679 19.736 22.9743 19.6424C22.8807 19.5488 22.7538 19.4962 22.6214 19.4962H15.0433C14.9109 19.4962 14.784 19.5488 14.6904 19.6424C14.5968 19.736 14.5442 19.8629 14.5442 19.9953C14.5442 20.1277 14.5968 20.2546 14.6904 20.3482C14.784 20.4418 14.9109 20.4944 15.0433 20.4944ZM15.0433 22.9044H25.1766C25.2426 22.9052 25.3082 22.8929 25.3695 22.8682C25.4307 22.8435 25.4865 22.8068 25.5335 22.7604C25.5805 22.714 25.6178 22.6587 25.6433 22.5978C25.6688 22.5368 25.6819 22.4714 25.6819 22.4053C25.6819 22.3393 25.6688 22.2739 25.6433 22.2129C25.6178 22.152 25.5805 22.0967 25.5335 22.0502C25.4865 22.0038 25.4307 21.9672 25.3695 21.9425C25.3082 21.9178 25.2426 21.9055 25.1766 21.9063H15.0433C14.9772 21.9055 14.9117 21.9178 14.8504 21.9425C14.7891 21.9672 14.7334 22.0038 14.6864 22.0502C14.6394 22.0967 14.602 22.152 14.5766 22.2129C14.5511 22.2739 14.538 22.3393 14.538 22.4053C14.538 22.4714 14.5511 22.5368 14.5766 22.5978C14.602 22.6587 14.6394 22.714 14.6864 22.7604C14.7334 22.8068 14.7891 22.8435 14.8504 22.8682C14.9117 22.8929 14.9772 22.9052 15.0433 22.9044ZM13.3539 18.8606C13.4022 18.9049 13.4413 18.9582 13.469 19.0176C13.4967 19.0771 13.5124 19.1413 13.5153 19.2068C13.5181 19.2723 13.508 19.3377 13.4856 19.3992C13.4632 19.4608 13.4288 19.5174 13.3845 19.5657L12.9388 20.0521C13.2815 20.6627 13.3834 21.3794 13.2246 22.0614C13.0658 22.7433 12.6576 23.3412 12.0804 23.7376C11.5032 24.134 10.7986 24.3001 10.1051 24.2034C9.41157 24.1067 8.7793 23.7542 8.33251 23.215C7.88572 22.6759 7.65672 21.9891 7.6905 21.2897C7.72428 20.5903 8.0184 19.9289 8.51506 19.4353C9.01173 18.9417 9.67503 18.6517 10.3746 18.6223C11.0742 18.5929 11.7595 18.8262 12.2959 19.2763L12.6488 18.8912C12.6931 18.8429 12.7465 18.8038 12.8059 18.7761C12.8652 18.7484 12.9295 18.7326 12.995 18.7298C13.0605 18.7269 13.1259 18.737 13.1874 18.7594C13.249 18.7818 13.3056 18.8164 13.3539 18.8606ZM12.2063 20.8507L10.9745 22.1944C10.8955 22.2807 10.7887 22.3364 10.6727 22.3519C10.5568 22.3674 10.4391 22.3417 10.3402 22.2792L9.29945 21.6219C9.1896 21.5503 9.11233 21.4384 9.08438 21.3102C9.05642 21.1821 9.08001 21.0482 9.15004 20.9373C9.22008 20.8264 9.33094 20.7476 9.45865 20.7178C9.58636 20.688 9.72066 20.7097 9.8325 20.7782L10.5205 21.2128L11.6207 20.0126C11.2823 19.7429 10.8581 19.6042 10.4258 19.6218C9.99352 19.6394 9.58201 19.8121 9.26662 20.1083C8.95123 20.4045 8.75308 20.8043 8.70842 21.2347C8.66377 21.6651 8.77561 22.0971 9.02347 22.4517C9.27132 22.8064 9.63862 23.0599 10.0581 23.1658C10.4776 23.2718 10.9212 23.2231 11.3077 23.0287C11.6943 22.8343 11.9979 22.5072 12.163 22.1073C12.328 21.7074 12.3432 21.2612 12.2063 20.8507ZM15.0433 12.951H25.1766C25.3089 12.951 25.4359 12.8984 25.5295 12.8048C25.623 12.7112 25.6756 12.5843 25.6756 12.4519C25.6756 12.3196 25.623 12.1926 25.5295 12.099C25.4359 12.0054 25.3089 11.9529 25.1766 11.9529H15.0433C14.9109 11.9529 14.784 12.0054 14.6904 12.099C14.5968 12.1926 14.5442 12.3196 14.5442 12.4519C14.5442 12.5843 14.5968 12.7112 14.6904 12.8048C14.784 12.8984 14.9109 12.951 15.0433 12.951ZM15.0433 15.361H25.1766C25.2426 15.3618 25.3082 15.3495 25.3695 15.3248C25.4307 15.3001 25.4865 15.2635 25.5335 15.2171C25.5805 15.1706 25.6178 15.1153 25.6433 15.0544C25.6688 14.9934 25.6819 14.928 25.6819 14.862C25.6819 14.7959 25.6688 14.7305 25.6433 14.6695C25.6178 14.6086 25.5805 14.5533 25.5335 14.5069C25.4865 14.4605 25.4307 14.4238 25.3695 14.3991C25.3082 14.3744 25.2426 14.3621 25.1766 14.3629H15.0433C14.9772 14.3621 14.9117 14.3744 14.8504 14.3991C14.7891 14.4238 14.7334 14.4605 14.6864 14.5069C14.6394 14.5533 14.602 14.6086 14.5766 14.6695C14.5511 14.7305 14.538 14.7959 14.538 14.862C14.538 14.928 14.5511 14.9934 14.5766 15.0544C14.602 15.1153 14.6394 15.1706 14.6864 15.2171C14.7334 15.2635 14.7891 15.3001 14.8504 15.3248C14.9117 15.3495 14.9772 15.3618 15.0433 15.361ZM10.4971 11.0765C11.1554 11.0759 11.7926 11.3084 12.2958 11.7327L12.6488 11.3476C12.7387 11.2517 12.8627 11.195 12.9941 11.19C13.1255 11.185 13.2535 11.232 13.3504 11.3208C13.4473 11.4096 13.5053 11.5331 13.5117 11.6644C13.518 11.7957 13.4724 11.9243 13.3845 12.0221L12.9388 12.5085C13.2388 13.0448 13.354 13.665 13.2666 14.2732C13.1792 14.8815 12.8939 15.4441 12.455 15.8742C12.016 16.3043 11.4477 16.578 10.8378 16.653C10.2278 16.728 9.61016 16.6001 9.08009 16.2892C8.55002 15.9782 8.13703 15.5015 7.90484 14.9325C7.67266 14.3635 7.6342 13.7339 7.7954 13.1409C7.95659 12.5479 8.30849 12.0244 8.79677 11.6513C9.28505 11.2781 9.88257 11.0763 10.4971 11.0765ZM9.14406 13.3905C9.17904 13.3351 9.2246 13.2871 9.27814 13.2493C9.33168 13.2115 9.39214 13.1846 9.45607 13.1701C9.52 13.1557 9.58615 13.154 9.65074 13.1651C9.71533 13.1763 9.77709 13.2 9.8325 13.2351L10.5205 13.6697L11.6207 12.4694C11.2823 12.1998 10.8581 12.0611 10.4258 12.0787C9.99352 12.0963 9.58201 12.269 9.26662 12.5652C8.95123 12.8613 8.75308 13.2612 8.70842 13.6916C8.66377 14.1219 8.77561 14.554 9.02347 14.9086C9.27132 15.2632 9.63862 15.5167 10.0581 15.6227C10.4776 15.7287 10.9212 15.68 11.3077 15.4856C11.6943 15.2912 11.9979 14.9641 12.163 14.5642C12.328 14.1642 12.3435 13.7182 12.2066 13.3078L10.9749 14.6515C10.8959 14.7378 10.7891 14.7935 10.6731 14.809C10.5572 14.8245 10.4395 14.7988 10.3405 14.7363L9.29984 14.079C9.18794 14.0084 9.10866 13.8962 9.07944 13.7672C9.05023 13.6381 9.07347 13.5024 9.14406 13.3905ZM36.6656 32.1115C36.6662 33.4747 36.2875 34.8112 35.5717 35.9715C34.8559 37.1317 33.8314 38.0699 32.6128 38.6809C31.3942 39.292 30.0295 39.5519 28.6716 39.4314C27.3137 39.311 26.0161 38.8151 24.924 37.9991H6.6225C5.75064 37.9981 4.91477 37.6514 4.29827 37.0349C3.68177 36.4184 3.33498 35.5825 3.33398 34.7107V8.34213C3.33502 7.47029 3.68182 6.63446 4.29832 6.01799C4.91482 5.40152 5.75066 5.05476 6.6225 5.05377H11.3205V4.54384C11.3205 4.47831 11.3334 4.41342 11.3585 4.35287C11.3835 4.29233 11.4203 4.23732 11.4666 4.19098C11.513 4.14465 11.568 4.10789 11.6286 4.08282C11.6891 4.05775 11.754 4.04485 11.8195 4.04486H14.3097C14.4312 3.45594 14.7522 2.92697 15.2184 2.54716C15.6846 2.16735 16.2675 1.95996 16.8689 1.95996C17.4702 1.95996 18.0531 2.16735 18.5193 2.54716C18.9855 2.92697 19.3065 3.45594 19.428 4.04486H21.9182C21.9837 4.04485 22.0486 4.05775 22.1092 4.08282C22.1697 4.10789 22.2247 4.14465 22.2711 4.19098C22.3174 4.23732 22.3542 4.29233 22.3793 4.35287C22.4044 4.41342 22.4173 4.47831 22.4173 4.54384V5.05377H27.1153C27.9872 5.05476 28.823 5.40154 29.4395 6.01802C30.056 6.63451 30.4028 7.47036 30.4038 8.3422V11.6379L32.4841 9.67431C32.7048 9.46661 32.9988 9.3549 33.3016 9.36369C33.6045 9.37248 33.8916 9.50104 34.0998 9.72119L35.117 10.7986C35.3245 11.0192 35.4362 11.3132 35.4274 11.616C35.4186 11.9189 35.2901 12.2059 35.0701 12.4141L30.4038 16.8188V24.8433C32.1442 25.106 33.7328 25.9836 34.8816 27.317C36.0304 28.6505 36.6633 30.3514 36.6656 32.1115ZM29.406 17.7609L28.4515 18.6616V24.814C28.7387 24.7801 29.0277 24.763 29.3169 24.7629C29.3466 24.7629 29.3761 24.7636 29.4057 24.764L29.406 17.7609ZM11.3205 8.50963V8.00408H6.62258C6.53326 8.00521 6.44792 8.04119 6.38474 8.10433C6.32156 8.16748 6.28555 8.25281 6.28438 8.34213V34.7105C6.28553 34.7999 6.32153 34.8852 6.38471 34.9484C6.44789 35.0116 6.53324 35.0476 6.62258 35.0487H22.5816C22.1572 34.0763 21.9485 33.0236 21.9698 31.9629C21.991 30.9022 22.2417 29.8586 22.7047 28.904C23.1676 27.9494 23.8318 27.1064 24.6515 26.4329C25.4713 25.7594 26.4271 25.2714 27.4534 25.0025V19.4148L24.8284 20.0376C24.7432 20.0578 24.6542 20.0552 24.5702 20.0301C24.4863 20.005 24.4105 19.9583 24.3503 19.8946C24.2902 19.8309 24.2479 19.7525 24.2277 19.6672C24.2075 19.582 24.2101 19.493 24.2352 19.409L24.6419 18.0492C24.6439 18.0423 24.6461 18.0354 24.6485 18.0286L25.1021 16.7205L25.1059 16.7097C25.1337 16.6345 25.1793 16.567 25.2388 16.5132L27.4534 14.4227V8.34213C27.4523 8.25281 27.4163 8.16748 27.3531 8.10433C27.2899 8.04119 27.2046 8.00521 27.1152 8.00408H22.4173V8.50963C22.4173 8.64199 22.3647 8.76892 22.2711 8.86252C22.1775 8.95611 22.0506 9.00869 21.9182 9.00869H11.8195C11.6872 9.00869 11.5602 8.95611 11.4666 8.86252C11.373 8.76892 11.3205 8.64199 11.3205 8.50963ZM25.5952 18.3456L25.439 18.8669L26.5188 18.6107L25.7759 17.8236L25.5952 18.3456ZM26.2798 16.903L27.4958 18.1912L34.3849 11.6883C34.4124 11.6617 34.4284 11.6254 34.4295 11.5872C34.4306 11.549 34.4168 11.5118 34.3909 11.4836L33.3737 10.406C33.347 10.3785 33.3107 10.3625 33.2725 10.3614C33.2343 10.3604 33.1971 10.3742 33.169 10.4001L26.2798 16.903ZM22.4173 6.05142V7.00595H27.1152C27.4694 7.00641 27.8089 7.1473 28.0594 7.39774C28.3098 7.64818 28.4507 7.98772 28.4512 8.34189V13.4804L29.406 12.58V8.34213C29.4053 7.73489 29.1638 7.15273 28.7344 6.72336C28.305 6.29398 27.7229 6.05247 27.1156 6.05181L22.4173 6.05142ZM12.3186 8.01056H21.4191V5.04291H18.983C18.8519 5.04292 18.726 4.99128 18.6326 4.89917C18.5392 4.80706 18.4859 4.68188 18.4841 4.55072C18.4782 4.12624 18.3054 3.72116 18.0031 3.42307C17.7009 3.12499 17.2934 2.95787 16.8689 2.95787C16.4444 2.95787 16.0369 3.12499 15.7347 3.42307C15.4324 3.72116 15.2597 4.12624 15.2538 4.55072C15.252 4.68188 15.1986 4.80706 15.1052 4.89917C15.0118 4.99128 14.8859 5.04292 14.7548 5.04291H12.3186V8.01056ZM6.6225 37.0009H23.8362C23.5699 36.703 23.3282 36.3839 23.1135 36.0469H6.62258C6.26835 36.0465 5.92874 35.9056 5.67822 35.6552C5.42771 35.4047 5.28675 35.0651 5.28625 34.7109V8.34213C5.28673 7.98789 5.42768 7.64831 5.6782 7.39786C5.92872 7.14742 6.26834 7.00656 6.62258 7.00619H11.3205V6.05181H6.6225C6.01527 6.05247 5.43309 6.29398 5.00371 6.72336C4.57432 7.15273 4.33279 7.73489 4.33211 8.34213V34.7106C4.33279 35.3178 4.57432 35.9 5.00371 36.3294C5.43309 36.7587 6.01527 37.0003 6.6225 37.0009ZM35.6674 32.1115C35.6674 30.8554 35.295 29.6276 34.5972 28.5833C33.8994 27.5389 32.9076 26.7249 31.7472 26.2443C30.5868 25.7636 29.3099 25.6378 28.078 25.8829C26.8461 26.1279 25.7145 26.7327 24.8264 27.6208C23.9382 28.509 23.3334 29.6405 23.0884 30.8724C22.8433 32.1043 22.9691 33.3812 23.4497 34.5416C23.9304 35.702 24.7444 36.6939 25.7887 37.3917C26.833 38.0895 28.0609 38.4619 29.3169 38.4619C31.0005 38.46 32.6147 37.7904 33.8053 36.5998C34.9958 35.4093 35.6655 33.7951 35.6674 32.1115ZM32.0205 29.6919L28.4848 33.549L26.5119 32.3028C26.4 32.2343 26.2657 32.2126 26.138 32.2424C26.0103 32.2722 25.8995 32.351 25.8294 32.4619C25.7594 32.5728 25.7358 32.7067 25.7638 32.8349C25.7917 32.963 25.869 33.0749 25.9788 33.1465L28.3045 34.6153C28.4034 34.6778 28.5211 34.7035 28.637 34.688C28.753 34.6725 28.8598 34.6168 28.9388 34.5305L32.7563 30.3663C32.8005 30.318 32.8349 30.2614 32.8573 30.1999C32.8797 30.1383 32.8898 30.0729 32.8869 30.0074C32.8841 29.942 32.8684 29.8777 32.8407 29.8183C32.813 29.7589 32.7739 29.7055 32.7256 29.6613C32.6773 29.617 32.6207 29.5827 32.5592 29.5602C32.4976 29.5378 32.4322 29.5277 32.3667 29.5306C32.3012 29.5334 32.237 29.5491 32.1776 29.5768C32.1182 29.6045 32.0648 29.6436 32.0205 29.6919Z" fill="#0A1220"/>
</g>
<defs>
<clipPath id="clip0_1013_18990">
<rect width="40" height="40" fill="white" transform="translate(0 0.709961)"/>
</clipPath>
</defs>
</svg>
