<svg width="40" height="41" viewBox="0 0 40 41" fill="none" xmlns="http://www.w3.org/2000/svg">
<g clip-path="url(#clip0_1013_18998)">
<g clip-path="url(#clip1_1013_18998)">
<g clip-path="url(#clip2_1013_18998)">
<mask id="mask0_1013_18998" style="mask-type:luminance" maskUnits="userSpaceOnUse" x="0" y="0" width="40" height="41">
<path d="M40 0.709961H0V40.71H40V0.709961Z" fill="white"/>
</mask>
<g mask="url(#mask0_1013_18998)">
<path d="M37.1381 28.236C37.7724 27.5476 38.1247 26.6458 38.125 25.7097C38.125 23.6416 36.4431 21.9597 34.375 21.9597C32.3069 21.9597 30.625 23.6416 30.625 25.7097C30.625 26.6835 31.0012 27.5691 31.6119 28.236C30.0138 28.3722 28.75 29.7016 28.75 31.3347V35.0847C28.75 35.2505 28.8158 35.4095 28.9331 35.5267C29.0503 35.6439 29.2092 35.7097 29.375 35.7097H39.375C39.5408 35.7097 39.6997 35.6439 39.8169 35.5267C39.9342 35.4095 40 35.2505 40 35.0847V31.3347C40 29.7016 38.7363 28.3722 37.1381 28.236ZM34.375 23.2097C35.7537 23.2097 36.875 24.331 36.875 25.7097C36.875 27.0885 35.7537 28.2097 34.375 28.2097C32.9963 28.2097 31.875 27.0885 31.875 25.7097C31.875 24.331 32.9963 23.2097 34.375 23.2097ZM38.75 34.4597H37.5V32.8972C37.5 32.7315 37.4342 32.5725 37.3169 32.4553C37.1997 32.3381 37.0408 32.2722 36.875 32.2722C36.7092 32.2722 36.5503 32.3381 36.4331 32.4553C36.3158 32.5725 36.25 32.7315 36.25 32.8972V34.4597H32.5V32.8972C32.5 32.7315 32.4342 32.5725 32.3169 32.4553C32.1997 32.3381 32.0408 32.2722 31.875 32.2722C31.7092 32.2722 31.5503 32.3381 31.4331 32.4553C31.3158 32.5725 31.25 32.7315 31.25 32.8972V34.4597H30V31.3347C30 30.301 30.8412 29.4597 31.875 29.4597H36.875C37.9087 29.4597 38.75 30.301 38.75 31.3347V34.4597ZM8.38812 28.236C9.02242 27.5476 9.37469 26.6458 9.375 25.7097C9.375 23.6416 7.69312 21.9597 5.625 21.9597C3.55687 21.9597 1.875 23.6416 1.875 25.7097C1.875 26.6835 2.25125 27.5691 2.86188 28.236C1.26375 28.3722 0 29.7016 0 31.3347V35.0847C0 35.2505 0.065848 35.4095 0.183058 35.5267C0.300269 35.6439 0.45924 35.7097 0.625 35.7097H10.625C10.7908 35.7097 10.9497 35.6439 11.0669 35.5267C11.1842 35.4095 11.25 35.2505 11.25 35.0847V31.3347C11.25 29.7016 9.98625 28.3722 8.38812 28.236ZM5.625 23.2097C7.00375 23.2097 8.125 24.331 8.125 25.7097C8.125 27.0885 7.00375 28.2097 5.625 28.2097C4.24625 28.2097 3.125 27.0885 3.125 25.7097C3.125 24.331 4.24625 23.2097 5.625 23.2097ZM10 34.4597H8.75V32.8972C8.75 32.7315 8.68415 32.5725 8.56694 32.4553C8.44973 32.3381 8.29076 32.2722 8.125 32.2722C7.95924 32.2722 7.80027 32.3381 7.68306 32.4553C7.56585 32.5725 7.5 32.7315 7.5 32.8972V34.4597H3.75V32.8972C3.75 32.7315 3.68415 32.5725 3.56694 32.4553C3.44973 32.3381 3.29076 32.2722 3.125 32.2722C2.95924 32.2722 2.80027 32.3381 2.68306 32.4553C2.56585 32.5725 2.5 32.7315 2.5 32.8972V34.4597H1.25V31.3347C1.25 30.301 2.09125 29.4597 3.125 29.4597H8.125C9.15875 29.4597 10 30.301 10 31.3347V34.4597ZM23.125 31.9597H23.0556C23.4733 31.5535 23.8052 31.0676 24.0318 30.5309C24.2584 29.9941 24.3751 29.4174 24.375 28.8347C24.375 26.4222 22.4119 24.4597 20 24.4597C17.5881 24.4597 15.625 26.4222 15.625 28.8347C15.625 30.0585 16.1313 31.1647 16.9438 31.9597H16.875C15.1519 31.9597 13.75 33.3616 13.75 35.0847V40.0847C13.75 40.2505 13.8158 40.4095 13.9331 40.5267C14.0503 40.6439 14.2092 40.7097 14.375 40.7097H25.625C25.7908 40.7097 25.9497 40.6439 26.0669 40.5267C26.1842 40.4095 26.25 40.2505 26.25 40.0847V35.0847C26.25 33.3616 24.8481 31.9597 23.125 31.9597ZM16.875 28.8347C16.875 27.1116 18.2769 25.7097 20 25.7097C21.7231 25.7097 23.125 27.1116 23.125 28.8347C23.125 30.5579 21.7231 31.9597 20 31.9597C18.2769 31.9597 16.875 30.5579 16.875 28.8347ZM25 39.4597H23.125V37.5847C23.125 37.419 23.0592 37.26 22.9419 37.1428C22.8247 37.0256 22.6658 36.9597 22.5 36.9597C22.3342 36.9597 22.1753 37.0256 22.0581 37.1428C21.9408 37.26 21.875 37.419 21.875 37.5847V39.4597H18.125V37.5847C18.125 37.419 18.0592 37.26 17.9419 37.1428C17.8247 37.0256 17.6658 36.9597 17.5 36.9597C17.3342 36.9597 17.1753 37.0256 17.0581 37.1428C16.9408 37.26 16.875 37.419 16.875 37.5847V39.4597H15V35.0847C15 34.051 15.8413 33.2097 16.875 33.2097H23.125C24.1588 33.2097 25 34.051 25 35.0847V39.4597ZM20 7.07227C17.9944 7.07227 16.3631 8.70414 16.3631 10.7097C16.3631 12.7154 17.9944 14.3472 20 14.3472C22.0056 14.3472 23.6369 12.7154 23.6369 10.7097C23.6369 8.70414 22.0056 7.07227 20 7.07227ZM20 13.0972C18.6838 13.0972 17.6131 12.0266 17.6131 10.7097C17.6131 9.39289 18.6838 8.32227 20 8.32227C21.3162 8.32227 22.3869 9.39289 22.3869 10.7097C22.3869 12.0266 21.3162 13.0972 20 13.0972Z" fill="#0A1220"/>
<path d="M26.857 8.75382L25.7139 8.54257C25.6705 8.4275 25.6234 8.3139 25.5726 8.20195L26.232 7.24445C26.3764 7.03382 26.3782 6.7557 26.2364 6.54257C25.6899 5.72314 24.9869 5.01986 24.1676 4.4732C24.0637 4.40356 23.9413 4.36679 23.8162 4.36769C23.6911 4.36858 23.5692 4.40708 23.4664 4.4782L22.5089 5.13695C22.3967 5.0865 22.2832 5.03939 22.1682 4.9957L21.9564 3.8532C21.9336 3.73025 21.8746 3.61694 21.7868 3.52791C21.699 3.43889 21.5865 3.37825 21.4639 3.35382C20.4976 3.1607 19.5026 3.1607 18.5364 3.35382C18.4137 3.37825 18.3013 3.43889 18.2135 3.52791C18.1257 3.61694 18.0666 3.73025 18.0439 3.8532L17.8326 4.9957C17.7176 5.03945 17.6045 5.08695 17.492 5.13695L16.5345 4.4782C16.4315 4.40733 16.3096 4.36897 16.1846 4.36808C16.0596 4.36719 15.9372 4.4038 15.8332 4.4732C15.0135 5.01949 14.3102 5.72283 13.7639 6.54257C13.6942 6.64656 13.6574 6.76904 13.6582 6.89418C13.659 7.01932 13.6973 7.14134 13.7682 7.24445L14.4276 8.20195C14.377 8.31445 14.3301 8.42757 14.2864 8.54257L13.1432 8.75382C13.0202 8.77659 12.9068 8.83576 12.8178 8.92367C12.7288 9.01159 12.6682 9.12422 12.6439 9.24695C12.4507 10.2128 12.4507 11.2074 12.6439 12.1732C12.6932 12.4239 12.892 12.6195 13.1432 12.6664L14.2864 12.8776C14.3295 12.9926 14.3764 13.1064 14.4276 13.2182L13.7682 14.1757C13.6976 14.279 13.6595 14.4009 13.6587 14.526C13.658 14.6511 13.6946 14.7735 13.7639 14.8776C14.3103 15.6972 15.0136 16.4005 15.8332 16.947C15.9372 17.0165 16.0596 17.0532 16.1846 17.0524C16.3097 17.0515 16.4316 17.013 16.5345 16.942L17.492 16.2832C17.6045 16.3339 17.7176 16.3807 17.8326 16.4245L18.0439 17.567C18.0666 17.6899 18.1257 17.8032 18.2135 17.8923C18.3013 17.9813 18.4137 18.0419 18.5364 18.0664C19.5028 18.2581 20.4974 18.2581 21.4639 18.0664C21.5865 18.0419 21.699 17.9813 21.7868 17.8923C21.8746 17.8032 21.9336 17.6899 21.9564 17.567L22.1676 16.4245C22.2826 16.3807 22.3957 16.3332 22.5082 16.2832L23.4657 16.942C23.5687 17.0128 23.6906 17.0512 23.8156 17.0521C23.9406 17.053 24.063 17.0164 24.167 16.947C24.9867 16.4008 25.6898 15.6975 26.2357 14.8776C26.3054 14.7736 26.3422 14.6511 26.3414 14.526C26.3406 14.4009 26.3023 14.2788 26.2314 14.1757L25.572 13.2182C25.6226 13.1057 25.6695 12.9926 25.7132 12.8776L26.8564 12.6664C26.9794 12.6436 27.0928 12.5844 27.1818 12.4965C27.2708 12.4086 27.3314 12.296 27.3557 12.1732C27.5489 11.2074 27.5489 10.2128 27.3557 9.24695C27.3316 9.12423 27.2712 9.01159 27.1822 8.92365C27.0933 8.83571 26.98 8.77654 26.857 8.75382ZM26.1982 11.5157L25.1282 11.7132C25.0161 11.734 24.9118 11.785 24.8267 11.8608C24.7415 11.9366 24.6787 12.0343 24.6451 12.1432C24.5559 12.4322 24.4397 12.7122 24.2982 12.9795C24.1901 13.1851 24.2045 13.4339 24.3357 13.6257L24.9526 14.522C24.6239 14.9502 24.2404 15.3335 23.812 15.662L22.9151 15.0457C22.8213 14.981 22.7115 14.9432 22.5976 14.9364C22.4838 14.9297 22.3703 14.9543 22.2695 15.0076C22.0022 15.1485 21.7225 15.2644 21.4339 15.3539C21.3249 15.3876 21.2272 15.4505 21.1514 15.5357C21.0756 15.621 21.0246 15.7254 21.0039 15.8376L20.807 16.907C20.2713 16.977 19.7289 16.977 19.1932 16.907L18.9964 15.8376C18.9756 15.7253 18.9245 15.6209 18.8486 15.5356C18.7727 15.4503 18.6749 15.3875 18.5657 15.3539C18.2771 15.2644 17.9974 15.1485 17.7301 15.0076C17.6293 14.9543 17.5158 14.9297 17.402 14.9364C17.2881 14.9432 17.1783 14.981 17.0845 15.0457L16.1876 15.662C15.7592 15.3335 15.3757 14.9502 15.047 14.522L15.6639 13.6257C15.7957 13.4339 15.8095 13.1851 15.702 12.9795C15.5605 12.7122 15.4444 12.4322 15.3551 12.1432C15.3215 12.0343 15.2587 11.9366 15.1736 11.8608C15.0884 11.785 14.9841 11.734 14.872 11.7132L13.802 11.5157C13.732 10.9805 13.732 10.4384 13.802 9.9032L14.872 9.7057C14.9841 9.68496 15.0884 9.63393 15.1736 9.55814C15.2587 9.48234 15.3215 9.38465 15.3551 9.2757C15.4441 8.98663 15.5602 8.70663 15.702 8.43945C15.8101 8.23382 15.7957 7.98507 15.6639 7.7932L15.047 6.89695C15.3757 6.46872 15.7592 6.08545 16.1876 5.75695L17.0845 6.3732C17.2764 6.50507 17.5245 6.51882 17.7301 6.41132C17.9974 6.27041 18.2771 6.1545 18.5657 6.06507C18.7876 5.99632 18.9539 5.81007 18.9964 5.58132L19.1932 4.51195C19.7289 4.44195 20.2713 4.44195 20.807 4.51195L21.0039 5.58132C21.0246 5.69352 21.0756 5.79792 21.1514 5.88319C21.2272 5.96847 21.3249 6.03137 21.4339 6.06507C21.722 6.15445 22.0032 6.2707 22.2695 6.41132C22.3702 6.46493 22.4838 6.48973 22.5977 6.48301C22.7116 6.47628 22.8214 6.43828 22.9151 6.3732L23.8126 5.75695C24.241 6.08545 24.6245 6.46872 24.9532 6.89695L24.3364 7.7932C24.2718 7.88728 24.2342 7.99721 24.2276 8.1111C24.221 8.22499 24.2457 8.33853 24.2989 8.43945C24.4395 8.7057 24.5564 8.98695 24.6457 9.2757C24.7139 9.49757 24.9001 9.6632 25.1289 9.7057L26.1989 9.9032C26.2683 10.4385 26.2681 10.9805 26.1982 11.5157Z" fill="#0A1220"/>
<path d="M29.0212 23.1481C29.2369 23.0444 29.375 22.825 29.375 22.585V20.71H30.625C31.3137 20.71 31.875 20.1494 31.875 19.46V1.95996C31.875 1.27059 31.3137 0.709961 30.625 0.709961H9.375C8.68562 0.709961 8.125 1.27059 8.125 1.95996V19.46C8.125 20.1494 8.68562 20.71 9.375 20.71H10.625V22.585C10.6253 22.7026 10.6588 22.8178 10.7216 22.9172C10.7843 23.0167 10.8739 23.0964 10.9799 23.1473C11.0859 23.1982 11.2042 23.2182 11.321 23.205C11.4379 23.1917 11.5487 23.1458 11.6406 23.0725L14.5944 20.71H17.8125L19.5 22.96C19.7356 23.275 20.2644 23.275 20.5 22.96L22.1875 20.71H25.4056L28.3594 23.0731C28.4515 23.1465 28.5625 23.1924 28.6795 23.2057C28.7966 23.219 28.915 23.199 29.0212 23.1481ZM28.125 20.085V21.2844L26.0156 19.5969C25.9047 19.5083 25.767 19.46 25.625 19.46H21.875C21.778 19.46 21.6823 19.4826 21.5955 19.526C21.5087 19.5694 21.4332 19.6324 21.375 19.71L20 21.5431L18.625 19.71C18.5668 19.6324 18.4913 19.5694 18.4045 19.526C18.3177 19.4826 18.222 19.46 18.125 19.46H14.375C14.233 19.4599 14.0953 19.5082 13.9844 19.5969L11.875 21.2844V20.085C11.875 19.9192 11.8092 19.7603 11.6919 19.6431C11.5747 19.5258 11.4158 19.46 11.25 19.46H9.375V1.95996H30.625V19.46H28.75C28.5842 19.46 28.4253 19.5258 28.3081 19.6431C28.1908 19.7603 28.125 19.9192 28.125 20.085Z" fill="#0A1220"/>
</g>
</g>
</g>
</g>
<defs>
<clipPath id="clip0_1013_18998">
<rect width="40" height="40" fill="white" transform="translate(0 0.709961)"/>
</clipPath>
<clipPath id="clip1_1013_18998">
<rect width="40" height="40" fill="white" transform="translate(0 0.709961)"/>
</clipPath>
<clipPath id="clip2_1013_18998">
<rect width="40" height="40" fill="white" transform="translate(0 0.709961)"/>
</clipPath>
</defs>
</svg>
