<svg width="40" height="41" viewBox="0 0 40 41" fill="none" xmlns="http://www.w3.org/2000/svg">
<g clip-path="url(#clip0_1013_19013)">
<g clip-path="url(#clip1_1013_19013)">
<g clip-path="url(#clip2_1013_19013)">
<mask id="mask0_1013_19013" style="mask-type:luminance" maskUnits="userSpaceOnUse" x="0" y="0" width="40" height="41">
<path d="M40 0.709961H0V40.71H40V0.709961Z" fill="white"/>
</mask>
<g mask="url(#mask0_1013_19013)">
<path d="M39.2571 22.3509L33.6782 12.69C33.5612 12.4877 33.3687 12.3401 33.143 12.2796C32.9172 12.2191 32.6767 12.2507 32.4743 12.3674L30.5211 13.4963V6.0002C30.5211 5.9916 30.5211 5.98223 30.5172 5.97285L30.5125 5.9416C30.5125 5.93067 30.5071 5.91973 30.5047 5.90879L30.4985 5.88379L30.4868 5.85098C30.4868 5.84317 30.4813 5.83535 30.4789 5.82832L30.4649 5.79629C30.461 5.78926 30.4578 5.78145 30.4539 5.77442L30.4375 5.74551C30.4328 5.7377 30.4289 5.72989 30.4235 5.72207L30.4063 5.69707L30.3891 5.67364L30.3696 5.65098L30.3586 5.6377L26.5758 1.53691L26.5672 1.52832L26.5422 1.50332L26.5219 1.48535C26.5125 1.47754 26.5032 1.46973 26.493 1.4627C26.4866 1.45731 26.4798 1.45235 26.4727 1.44785L26.4383 1.4252L26.4211 1.41348L26.3789 1.39238L26.3649 1.38535C26.3485 1.37832 26.3313 1.37207 26.3133 1.36582H26.3063C26.2875 1.35957 26.268 1.35488 26.2477 1.3502C26.2274 1.34603 26.2071 1.3429 26.1868 1.34082H10.6352C10.3293 1.34123 10.036 1.46294 9.81971 1.67925C9.6034 1.89556 9.4817 2.18882 9.48128 2.49473V14.7799L7.52816 13.6509C7.32556 13.5342 7.08494 13.5027 6.85909 13.5632C6.63324 13.6236 6.44061 13.7713 6.32347 13.9736L0.743003 23.6361C0.626541 23.8386 0.595105 24.0791 0.655584 24.3047C0.716063 24.5304 0.863524 24.7229 1.06566 24.84L5.62503 27.4744C6.34173 28.1048 6.96282 28.8361 7.46878 29.6455L5.93753 32.3049C5.68439 32.7429 5.57769 33.2503 5.63297 33.7532C5.68825 34.2561 5.90262 34.7282 6.24487 35.1008C6.58712 35.4734 7.03938 35.727 7.53578 35.8247C8.03219 35.9224 8.54681 35.859 9.00472 35.6439C9.11441 35.9579 9.2887 36.2454 9.51635 36.4879C9.744 36.7304 10.02 36.9225 10.3264 37.0517C10.6329 37.181 10.963 37.2446 11.2955 37.2384C11.6281 37.2322 11.9556 37.1564 12.2571 37.0158C12.4535 37.5833 12.8578 38.0552 13.3885 38.3363C13.9191 38.6174 14.5366 38.6869 15.1164 38.5306C15.3642 38.4643 15.5997 38.3588 15.8141 38.2181C16.0027 38.6314 16.306 38.9818 16.688 39.2276C17.07 39.4735 17.5145 39.6044 17.9688 39.6049C18.3708 39.6052 18.7663 39.5036 19.1184 39.3096C19.4704 39.1156 19.7676 38.8355 19.9821 38.4955L22.118 39.7283C22.5761 39.9934 23.1026 40.1165 23.6308 40.0821C24.1589 40.0476 24.665 39.8572 25.0848 39.5349C25.5046 39.2127 25.8194 38.773 25.9891 38.2717C26.1589 37.7704 26.176 37.23 26.0383 36.7189C26.018 36.6408 25.9938 36.5627 25.9672 36.4924C26.0448 36.4783 26.123 36.4611 26.2016 36.4408C26.541 36.3505 26.8593 36.1941 27.1382 35.9805C27.417 35.7669 27.6509 35.5004 27.8265 35.1962C28.0021 34.892 28.1159 34.5561 28.1614 34.2078C28.2068 33.8595 28.1831 33.5057 28.0914 33.1666C28.0711 33.0884 28.0477 33.0142 28.0211 32.9408C28.4067 32.8739 28.7728 32.7231 29.0936 32.4991C29.4145 32.2751 29.6822 31.9834 29.8779 31.6445C30.0736 31.3057 30.1925 30.928 30.2261 30.5381C30.2598 30.1483 30.2074 29.7558 30.0727 29.3884C30.4582 29.3214 30.8242 29.1705 31.145 28.9464C31.4657 28.7223 31.7334 28.4305 31.9289 28.0916C31.9973 27.973 32.0566 27.8495 32.1063 27.722C32.4922 27.5345 32.8485 27.2174 33.1961 26.9072C33.4383 26.69 33.8446 26.3275 34.0024 26.3017C34.1166 26.3049 34.2294 26.2762 34.3282 26.2189L38.9375 23.5564C39.1394 23.4386 39.2864 23.2456 39.3463 23.0197C39.4061 22.7937 39.3741 22.5533 39.2571 22.3509ZM26.7414 3.56114L28.468 5.43614H26.7414V3.56114ZM10.7313 2.58535H25.4914V6.06114C25.4914 6.2269 25.5573 6.38587 25.6745 6.50308C25.7917 6.62029 25.9507 6.68614 26.1164 6.68614H29.2688V14.2181L28.0188 14.9384C25.5868 14.8384 21.9711 15.2275 19.5633 16.3361C19.423 16.4019 19.2768 16.4542 19.1266 16.4924C19.0547 16.5127 18.975 16.5361 18.875 16.5705C18.5786 16.6644 18.3004 16.8081 18.0524 16.9955C18.0271 16.9833 18.001 16.9729 17.9743 16.9642C16.4391 16.4377 14.1672 15.8892 11.9414 16.2033L10.7258 15.5002L10.7313 2.58535ZM5.76097 26.108L2.01097 23.9416L7.21957 14.9174L10.9696 17.0838L5.76097 26.108ZM9.18519 33.6791L8.96722 34.0556C8.89325 34.1839 8.79474 34.2963 8.67733 34.3865C8.55991 34.4766 8.42588 34.5428 8.28289 34.5812C8.1399 34.6196 7.99076 34.6294 7.84397 34.6101C7.69718 34.5909 7.55562 34.5429 7.42738 34.4689C7.29913 34.3949 7.18672 34.2964 7.09654 34.179C7.00637 34.0616 6.9402 33.9276 6.90182 33.7846C6.86345 33.6416 6.85361 33.4925 6.87287 33.3457C6.89214 33.1989 6.94013 33.0573 7.0141 32.9291L9.27113 29.0228C9.3451 28.8946 9.44361 28.7822 9.56102 28.692C9.67844 28.6018 9.81247 28.5356 9.95546 28.4973C10.0984 28.4589 10.2476 28.4491 10.3944 28.4683C10.5412 28.4876 10.6827 28.5356 10.811 28.6095C10.9392 28.6835 11.0516 28.782 11.1418 28.8994C11.232 29.0169 11.2981 29.1509 11.3365 29.2939C11.3749 29.4369 11.3847 29.586 11.3655 29.7328C11.3462 29.8796 11.2982 30.0211 11.2243 30.1494L9.18675 33.6791H9.18519ZM12.4383 35.0494L12.2203 35.4275C12.07 35.6852 11.8239 35.8731 11.5357 35.9504C11.2475 36.0276 10.9404 35.988 10.6813 35.84C10.4229 35.6902 10.2345 35.4441 10.1572 35.1557C10.0799 34.8672 10.12 34.5599 10.2688 34.3009L12.3071 30.772C12.4565 30.513 12.7026 30.324 12.9914 30.2465C13.2802 30.169 13.5879 30.2094 13.8469 30.3588C14.1059 30.5082 14.295 30.7543 14.3725 31.0431C14.45 31.3319 14.4096 31.6396 14.2602 31.8986L12.4422 35.0478L12.4383 35.0494ZM15.4735 36.8041C15.3241 37.0631 15.0779 37.2521 14.7891 37.3296C14.5004 37.4071 14.1926 37.3667 13.9336 37.2174C13.6746 37.068 13.4856 36.8218 13.4081 36.533C13.3306 36.2443 13.371 35.9365 13.5203 35.6775L15.3391 32.5283C15.4881 32.2693 15.7338 32.0801 16.0223 32.0023C16.3108 31.9245 16.6184 31.9645 16.8774 32.1134C17.1364 32.2624 17.3256 32.5082 17.4034 32.7967C17.4812 33.0852 17.4412 33.3927 17.2922 33.6517L15.9125 36.0416L15.4735 36.8041ZM17.4063 38.2103C17.1488 38.0601 16.9611 37.8143 16.8838 37.5264C16.8066 37.2385 16.8461 36.9318 16.9938 36.6728L18.3735 34.283C18.4474 34.1547 18.5459 34.0423 18.6634 33.9521C18.7808 33.862 18.9148 33.7958 19.0578 33.7574C19.2008 33.7191 19.3499 33.7092 19.4967 33.7285C19.6435 33.7477 19.7851 33.7957 19.9133 33.8697C20.0416 33.9437 20.154 34.0422 20.2442 34.1596C20.3343 34.277 20.4005 34.411 20.4389 34.554C20.4772 34.697 20.4871 34.8462 20.4678 34.9929C20.4486 35.1397 20.4006 35.2813 20.3266 35.4095L19.2141 37.3369L18.9485 37.7978C18.7978 38.0561 18.5507 38.244 18.2615 38.3202C17.9723 38.3964 17.6647 38.3546 17.4063 38.2041V38.2103ZM24.6875 38.1322C24.4983 38.4595 24.1869 38.6983 23.8218 38.7963C23.4567 38.8943 23.0676 38.8434 22.7399 38.6549L20.6071 37.4228L21.4063 36.0275C21.6272 35.6446 21.7368 35.2076 21.7227 34.7658L24.1641 36.172C24.492 36.3618 24.7312 36.6737 24.8293 37.0396C24.9274 37.4055 24.8764 37.7953 24.6875 38.1236V38.1322ZM30.8407 27.4752C30.6513 27.8023 30.3399 28.041 29.9747 28.1389C29.6096 28.2367 29.2206 28.1857 28.893 27.997L23.711 25.0056C23.6398 24.962 23.5607 24.9331 23.4781 24.9205C23.3956 24.908 23.3114 24.9121 23.2305 24.9326C23.1496 24.9531 23.0737 24.9896 23.0071 25.04C22.9406 25.0904 22.8848 25.1535 22.843 25.2258C22.8013 25.2981 22.7744 25.378 22.7641 25.4608C22.7537 25.5436 22.76 25.6277 22.7827 25.708C22.8053 25.7883 22.8438 25.8633 22.8959 25.9285C22.948 25.9937 23.0126 26.0478 23.086 26.0877L28.268 29.0697C28.5875 29.2627 28.8186 29.5733 28.9117 29.9349C29.0049 30.2964 28.9526 30.68 28.7661 31.0033C28.5796 31.3267 28.2738 31.5641 27.9142 31.6646C27.5547 31.7651 27.1701 31.7206 26.843 31.5408L22.8633 29.2431C22.7922 29.2021 22.7137 29.1755 22.6323 29.1648C22.5509 29.1541 22.4682 29.1595 22.389 29.1807C22.3097 29.202 22.2353 29.2387 22.1702 29.2886C22.1051 29.3386 22.0504 29.4009 22.0094 29.472C21.9684 29.5431 21.9417 29.6216 21.931 29.703C21.9203 29.7844 21.9258 29.8671 21.947 29.9464C21.9683 30.0257 22.0049 30.1 22.0549 30.1651C22.1049 30.2303 22.1672 30.2849 22.2383 30.3259L26.2125 32.6205C26.54 32.8097 26.7789 33.1212 26.8767 33.4865C26.9745 33.8518 26.9232 34.241 26.734 34.5685C26.5448 34.896 26.2333 35.1349 25.868 35.2327C25.5027 35.3305 25.1135 35.2792 24.786 35.09L22.1149 33.5478C22.0008 33.4828 21.8691 33.4553 21.7386 33.4694C21.608 33.4834 21.4852 33.5382 21.3875 33.6259C21.1239 33.1801 20.7213 32.8331 20.2416 32.6379C19.7618 32.4428 19.2313 32.4103 18.7313 32.5455L18.6305 32.5744C18.6227 32.5408 18.6149 32.5064 18.6055 32.4728C18.5254 32.1719 18.3868 31.8897 18.1975 31.6423C18.0082 31.395 17.7721 31.1874 17.5025 31.0315C17.2329 30.8756 16.9352 30.7743 16.6265 30.7335C16.3177 30.6928 16.004 30.7133 15.7032 30.7939C15.6688 30.8033 15.636 30.8127 15.6024 30.8236C15.5946 30.7892 15.5868 30.7556 15.5774 30.7213C15.4971 30.4198 15.3582 30.1372 15.1685 29.8895C14.9788 29.6419 14.7421 29.4341 14.472 29.2782C14.2019 29.1222 13.9036 29.0211 13.5943 28.9806C13.285 28.9401 12.9707 28.9611 12.6696 29.0424L12.5696 29.0713C12.4657 28.6044 12.2234 28.1797 11.8743 27.8527C11.5251 27.5258 11.0854 27.3119 10.6127 27.239C10.14 27.166 9.65625 27.2375 9.2248 27.444C8.79336 27.6505 8.43429 27.9824 8.19457 28.3963L8.168 28.4416C7.76002 27.8639 7.29804 27.3263 6.78832 26.8361L12.2157 17.4291C14.0125 17.1947 15.8711 17.5994 17.2336 18.0345C17.1768 18.1625 17.1301 18.2946 17.0938 18.4299L16.2344 21.6502C16.2133 21.7283 16.193 21.7994 16.1743 21.8689C16.0446 22.3306 15.9321 22.7283 16.0344 23.3845C16.1266 23.9888 16.3448 24.567 16.675 25.0814C16.8797 25.3838 17.2102 25.7845 17.7141 25.79H17.7235C18.2563 25.79 18.561 25.3595 18.8055 25.0127C18.8328 24.9736 18.861 24.9345 18.8899 24.8947C19.4084 24.1626 19.8897 23.4049 20.3321 22.6244C20.7735 21.8689 21.2305 21.0869 21.5196 21.0174L22.2313 20.8478L30.3219 25.5189C30.6485 25.7088 30.8866 26.0204 30.9838 26.3855C31.081 26.7506 31.0296 27.1394 30.8407 27.4666V27.4752ZM32.2024 26.1213C32.1166 25.7713 31.9609 25.4424 31.7446 25.1542C31.5283 24.8661 31.2559 24.6247 30.9438 24.4447L22.6375 19.64C22.499 19.5601 22.3352 19.5364 22.1797 19.5736L21.2258 19.801C20.4172 19.9939 19.9274 20.833 19.2493 21.9931C18.8277 22.7389 18.3685 23.4628 17.8735 24.1619C17.8422 24.2049 17.8118 24.2478 17.7821 24.29L17.7125 24.3884L17.7063 24.3791C17.4803 24.0173 17.3306 23.6132 17.2664 23.1916C17.2063 22.8049 17.2664 22.6049 17.3743 22.2056C17.3946 22.1322 17.4164 22.0556 17.4383 21.9713L18.2977 18.7517C18.3519 18.548 18.4509 18.3591 18.5875 18.1986C18.6 18.1861 18.611 18.1728 18.6227 18.1595C18.7924 17.9742 19.008 17.8367 19.2477 17.7611C19.3344 17.7338 19.4039 17.7134 19.4672 17.6955C19.6782 17.6389 19.8837 17.5636 20.0813 17.4705C22.3844 16.4134 25.825 16.1259 27.8055 16.1791L33.1078 25.3627C32.8439 25.548 32.5933 25.7516 32.3578 25.972C32.3078 26.0228 32.2555 26.0658 32.2024 26.1127V26.1213ZM34.2407 24.8244L29.0289 15.8002L32.7789 13.6338L37.9891 22.658L34.2407 24.8244ZM16.3618 12.9494C16.5275 12.9494 16.6865 12.8835 16.8037 12.7663C16.9209 12.6491 16.9868 12.4901 16.9868 12.3244V8.13692C16.9868 7.97116 16.9209 7.81219 16.8037 7.69497C16.6865 7.57776 16.5275 7.51192 16.3618 7.51192H12.1711C12.0054 7.51192 11.8464 7.57776 11.7292 7.69497C11.612 7.81219 11.5461 7.97116 11.5461 8.13692V12.3259C11.5461 12.4917 11.612 12.6507 11.7292 12.7679C11.8464 12.8851 12.0054 12.9509 12.1711 12.9509L16.3618 12.9494ZM12.7977 8.76035H15.7368V11.6994H12.7961L12.7977 8.76035ZM15.461 10.0955L14.5094 11.1869C14.453 11.2514 14.384 11.3036 14.3066 11.3403C14.2292 11.377 14.145 11.3974 14.0594 11.4002H14.0383C13.9559 11.4006 13.8742 11.3848 13.7979 11.3536C13.7216 11.3223 13.6522 11.2763 13.5938 11.2181L13.0993 10.7236C13.0412 10.6655 12.9951 10.5965 12.9637 10.5206C12.9323 10.4447 12.9162 10.3633 12.9162 10.2812C12.9162 10.199 12.9325 10.1177 12.9639 10.0418C12.9954 9.96589 13.0415 9.89694 13.0996 9.83887C13.1578 9.7808 13.2268 9.73475 13.3027 9.70334C13.3786 9.67194 13.4599 9.65579 13.5421 9.65582C13.6243 9.65586 13.7056 9.67208 13.7815 9.70355C13.8574 9.73503 13.9263 9.78114 13.9844 9.83926L14.0063 9.86114L14.5164 9.27598C14.5698 9.21229 14.6353 9.15988 14.7092 9.12181C14.7831 9.08375 14.8638 9.0608 14.9466 9.0543C15.0295 9.0478 15.1128 9.05789 15.1917 9.08397C15.2706 9.11006 15.3435 9.15161 15.4061 9.2062C15.4688 9.2608 15.5199 9.32734 15.5565 9.40193C15.5931 9.47652 15.6145 9.55766 15.6194 9.64062C15.6243 9.72357 15.6126 9.80666 15.585 9.88504C15.5574 9.96341 15.5144 10.0355 15.4586 10.0971L15.461 10.0955ZM18.8071 12.5705C18.8071 12.4047 18.8729 12.2457 18.9901 12.1285C19.1073 12.0113 19.2663 11.9455 19.4321 11.9455H27.8305C27.9963 11.9455 28.1552 12.0113 28.2724 12.1285C28.3897 12.2457 28.4555 12.4047 28.4555 12.5705C28.4555 12.7362 28.3897 12.8952 28.2724 13.0124C28.1552 13.1296 27.9963 13.1955 27.8305 13.1955H19.4305C19.265 13.1955 19.1063 13.1298 18.9891 13.013C18.8719 12.8961 18.8059 12.7375 18.8055 12.572L18.8071 12.5705ZM18.8071 8.13535C18.8071 7.96959 18.8729 7.81062 18.9901 7.69341C19.1073 7.5762 19.2663 7.51035 19.4321 7.51035H23.3321C23.4978 7.51035 23.6568 7.5762 23.774 7.69341C23.8912 7.81062 23.9571 7.96959 23.9571 8.13535C23.9571 8.30112 23.8912 8.46009 23.774 8.5773C23.6568 8.69451 23.4978 8.76035 23.3321 8.76035H19.4305C19.265 8.76035 19.1063 8.69472 18.9891 8.57785C18.8719 8.46098 18.8059 8.30241 18.8055 8.13692L18.8071 8.13535ZM18.8071 10.3525C18.8071 10.1868 18.8729 10.0278 18.9901 9.9106C19.1073 9.79339 19.2663 9.72754 19.4321 9.72754H24.9789C25.1447 9.72754 25.3037 9.79339 25.4209 9.9106C25.5381 10.0278 25.6039 10.1868 25.6039 10.3525C25.6039 10.5183 25.5381 10.6773 25.4209 10.7945C25.3037 10.9117 25.1447 10.9775 24.9789 10.9775H19.4321C19.35 10.9777 19.2687 10.9618 19.1928 10.9305C19.1169 10.8993 19.0478 10.8535 18.9897 10.7956C18.9315 10.7377 18.8853 10.6689 18.8537 10.5932C18.8221 10.5174 18.8057 10.4362 18.8055 10.3541L18.8071 10.3525Z" fill="#0A1220"/>
</g>
</g>
</g>
</g>
<defs>
<clipPath id="clip0_1013_19013">
<rect width="40" height="40" fill="white" transform="translate(0 0.709961)"/>
</clipPath>
<clipPath id="clip1_1013_19013">
<rect width="40" height="40" fill="white" transform="translate(0 0.709961)"/>
</clipPath>
<clipPath id="clip2_1013_19013">
<rect width="40" height="40" fill="white" transform="translate(0 0.709961)"/>
</clipPath>
</defs>
</svg>
