<svg width="50" height="48" viewBox="0 0 50 48" fill="none" xmlns="http://www.w3.org/2000/svg">
<path d="M39.5831 11.9999C42.4539 11.9999 44.7914 9.75594 44.7914 6.99997C44.7914 4.244 42.4559 2 39.5831 2C36.7123 2 34.3748 4.244 34.3748 6.99997C34.3748 9.75594 36.7123 11.9999 39.5831 11.9999ZM39.5831 3.99997C41.306 3.99997 42.7081 5.34594 42.7081 6.99997C42.7081 8.654 41.3081 9.99997 39.5831 9.99997C37.8601 9.99997 36.4581 8.654 36.4581 6.99997C36.4581 5.34594 37.8623 3.99997 39.5831 3.99997Z" fill="#DFB303"/>
<path d="M48.656 28.63L47.3206 18.382C46.9976 15.884 44.7748 14.002 42.1539 14.002H37.0101C36.4309 14.002 35.8476 14.0999 35.2747 14.296C34.733 14.48 34.4497 15.052 34.6414 15.572C34.8351 16.092 35.4289 16.366 35.9706 16.18C36.3185 16.0619 36.6685 16.0019 37.0101 16.0019H42.1539C43.7268 16.0019 45.0581 17.1319 45.2539 18.6299L46.5893 28.8779C46.6268 29.1659 46.5373 29.446 46.3373 29.6639C46.1373 29.8819 45.8602 30.0019 45.556 30.0019H44.7915C44.2435 30.0019 43.7915 30.4059 43.7519 30.9299L42.779 44.002H36.3852L35.6352 33.928C35.5957 33.3779 35.0915 32.9459 34.5227 33.002C33.9498 33.04 33.5165 33.52 33.5582 34.07L34.3769 45.072C34.4186 45.594 34.8727 46 35.4165 46H43.7498C44.2956 46 44.7498 45.594 44.7873 45.0741L45.7602 31.996C46.581 31.944 47.3498 31.584 47.8977 30.988C48.4914 30.3419 48.7685 29.4839 48.656 28.63Z" fill="#DFB303"/>
<path d="M15.4623 33.2299C14.881 33.1779 14.3915 33.6059 14.3498 34.1559L13.6165 43.9999H7.22057L6.24977 30.9279C6.21012 30.406 5.75602 29.9999 5.20807 29.9999H4.44352C4.13932 29.9999 3.86227 29.8799 3.66227 29.662C3.46227 29.444 3.37272 29.1659 3.41022 28.876L4.74566 18.628C4.93941 17.1299 6.27066 16 7.84566 16H12.9894C13.2227 16 13.4707 16.034 13.7749 16.112C14.3311 16.244 14.9019 15.932 15.0478 15.398C15.1936 14.864 14.8603 14.316 14.3041 14.176C13.8228 14.056 13.4061 14 12.9874 14H7.84557C5.22477 14 3.00387 15.882 2.67887 18.38L1.34352 28.6279C1.23307 29.4819 1.50807 30.3399 2.10182 30.9859C2.64977 31.5819 3.41852 31.9419 4.23932 31.9939L5.21227 45.0719C5.25182 45.5939 5.70602 46 6.24977 46H14.5831C15.1289 46 15.5831 45.5939 15.6226 45.0719L16.4247 34.2979C16.4664 33.748 16.0331 33.2699 15.4623 33.2299Z" fill="#DFB303"/>
<path d="M10.4163 11.9999C13.2871 11.9999 15.6246 9.75594 15.6246 6.99997C15.6246 4.244 13.2892 2 10.4163 2C7.54551 2 5.20801 4.244 5.20801 6.99997C5.20801 9.75594 7.54551 11.9999 10.4163 11.9999ZM10.4163 3.99997C12.1393 3.99997 13.5413 5.34594 13.5413 6.99997C13.5413 8.654 12.1413 9.99997 10.4163 9.99997C8.69551 9.99997 7.29131 8.654 7.29131 6.99997C7.29131 5.34594 8.69551 3.99997 10.4163 3.99997Z" fill="#DFB303"/>
<path d="M34.1726 28.474L32.7913 16.858C32.4643 14.088 30.1788 12 27.4788 12H22.1601C19.4643 12 17.1809 14.088 16.8518 16.858L15.4705 28.474C15.356 29.446 15.6685 30.412 16.3268 31.12C16.8955 31.7301 17.6476 32.086 18.4663 32.13L19.6163 47.074C19.6559 47.596 20.1101 48 20.6538 48H28.9871C29.5329 48 29.9871 47.596 30.0246 47.074L31.1746 32.13C31.9913 32.086 32.7454 31.732 33.3142 31.12C33.9768 30.41 34.2872 29.446 34.1726 28.474ZM31.7643 29.788C31.6435 29.916 31.3851 30.1341 31.0018 30.1341H30.208C29.6622 30.1341 29.208 30.538 29.1685 31.06L28.0205 46H21.6226L20.4768 31.06C20.4351 30.538 19.983 30.1341 19.4372 30.1341H18.6455C18.2643 30.1341 18.0038 29.9161 17.883 29.788C17.6185 29.502 17.4935 29.106 17.5413 28.7001L18.9226 17.0841C19.1309 15.3261 20.5246 14.0001 22.1643 14.0001H27.483C29.1205 14.0001 30.5143 15.3261 30.7247 17.0841L32.106 28.7001C32.1538 29.106 32.0288 29.502 31.7643 29.788Z" fill="#DFB303"/>
<path d="M24.8206 10C27.6914 10 30.0289 7.75603 30.0289 5.00006C30.0289 2.24409 27.6936 0 24.8206 0C21.9498 0 19.6123 2.244 19.6123 4.99997C19.6123 7.75594 21.9498 10 24.8206 10ZM24.8206 1.99997C26.5436 1.99997 27.9456 3.34594 27.9456 4.99997C27.9456 6.654 26.5436 7.99997 24.8206 7.99997C23.0977 7.99997 21.6956 6.654 21.6956 4.99997C21.6956 3.34603 23.0998 1.99997 24.8206 1.99997Z" fill="#DFB303"/>
</svg>
