<svg width="51" height="51" viewBox="0 0 51 51" fill="none" xmlns="http://www.w3.org/2000/svg">
<path d="M5.10793 20.4014C2.29177 20.4014 0.00952148 22.6836 0.00952148 25.4998C0.00952148 28.3159 2.29177 30.5982 5.10793 30.5982C7.92249 30.5982 10.2063 28.3159 10.2063 25.4998C10.2063 22.6836 7.92249 20.4014 5.10793 20.4014ZM5.10793 28.8992C3.23208 28.8992 1.71005 27.3756 1.71005 25.4998C1.71005 23.6239 3.23368 22.1003 5.10793 22.1003C6.98218 22.1003 8.5074 23.6239 8.5074 25.4998C8.5074 27.3756 6.98218 28.8992 5.10952 28.8992H5.10793Z" fill="#DFB303"/>
<path d="M45.8921 20.4014C43.076 20.4014 40.7937 22.6836 40.7937 25.4998C40.7937 28.3159 43.076 30.5982 45.8921 30.5982C48.7067 30.5982 50.9905 28.3159 50.9905 25.4998C50.9905 22.6836 48.7067 20.4014 45.8921 20.4014ZM45.8921 28.8992C44.0179 28.8992 42.4926 27.3756 42.4926 25.4998C42.4926 23.6239 44.0179 22.1003 45.8921 22.1003C47.7664 22.1003 49.2916 23.6239 49.2916 25.4998C49.2916 27.3756 47.7664 28.8992 45.8921 28.8992Z" fill="#DFB303"/>
<path d="M25.5 20.4014C22.6839 20.4014 20.4016 22.6836 20.4016 25.4998C20.4016 28.3159 22.6839 30.5982 25.5 30.5982C28.3146 30.5982 30.5984 28.3159 30.5984 25.4998C30.5984 22.6836 28.3146 20.4014 25.5 20.4014ZM25.5 28.8992C23.6258 28.8992 22.1005 27.3756 22.1005 25.4998C22.1005 23.6239 23.6258 22.1003 25.5 22.1003C27.3743 22.1003 28.8995 23.6239 28.8995 25.4998C28.8995 27.3756 27.3743 28.8992 25.5 28.8992Z" fill="#DFB303"/>
</svg>
