<svg width="51" height="49" viewBox="0 0 51 49" fill="none" xmlns="http://www.w3.org/2000/svg">
<path d="M43.8893 6.37402H7.1108C5.79237 6.37665 4.52877 6.84444 3.5965 7.67501C2.66422 8.50559 2.13918 9.63133 2.13623 10.8059V43.5722C2.13918 44.7468 2.66422 45.8725 3.5965 46.7031C4.52877 47.5337 5.79237 48.0015 7.1108 48.0041H43.8893C45.2077 48.0015 46.4713 47.5337 47.4036 46.7031C48.3359 45.8725 48.8609 44.7468 48.8639 43.5722V10.8059C48.8609 9.63133 48.3359 8.50559 47.4036 7.67501C46.4713 6.84444 45.2077 6.37665 43.8893 6.37402Z" stroke="#DFB303" stroke-width="2.43902" stroke-miterlimit="10" stroke-linecap="round"/>
<path d="M12.1414 21.0146H23.991" stroke="#DFB303" stroke-width="2.43902" stroke-miterlimit="10" stroke-linecap="round"/>
<path d="M12.1414 30.127H37.7968" stroke="#DFB303" stroke-width="2.43902" stroke-miterlimit="10" stroke-linecap="round"/>
<path d="M18.2896 0.996094V10.7563" stroke="#DFB303" stroke-width="2.43902" stroke-miterlimit="10" stroke-linecap="round"/>
<path d="M32.7104 0.996094V10.7563" stroke="#DFB303" stroke-width="2.43902" stroke-miterlimit="10" stroke-linecap="round"/>
</svg>
