<svg width="42" height="49" viewBox="0 0 42 49" fill="none" xmlns="http://www.w3.org/2000/svg">
<path d="M21 6.5C17.0218 6.5 13.2064 8.08035 10.3934 10.8934C7.58035 13.7064 6 17.5218 6 21.5V41.5H36V21.5C36 17.5218 34.4196 13.7064 31.6066 10.8934C28.7936 8.08035 24.9782 6.5 21 6.5Z" stroke="#DFB303" stroke-width="2" stroke-linecap="round" stroke-linejoin="round"/>
<path d="M41 41.5H1" stroke="#DFB303" stroke-width="2" stroke-miterlimit="10" stroke-linecap="round"/>
<path d="M26 43C26 44.3261 25.4732 45.5979 24.5355 46.5355C23.5979 47.4732 22.3261 48 21 48C19.6739 48 18.4021 47.4732 17.4645 46.5355C16.5268 45.5979 16 44.3261 16 43" stroke="#DFB303" stroke-width="2" stroke-linecap="round" stroke-linejoin="round"/>
<path d="M21 6.5C22.3807 6.5 23.5 5.38071 23.5 4C23.5 2.61929 22.3807 1.5 21 1.5C19.6193 1.5 18.5 2.61929 18.5 4C18.5 5.38071 19.6193 6.5 21 6.5Z" stroke="#DFB303" stroke-width="2" stroke-linecap="round" stroke-linejoin="round"/>
</svg>
