<svg width="37" height="38" viewBox="0 0 37 38" fill="none" xmlns="http://www.w3.org/2000/svg">
<path d="M36.3375 8.3498C36.3375 7.8998 36.1875 7.52481 35.8875 7.22481L30.0375 1.3748C29.4375 0.774805 28.4625 0.774805 27.7875 1.3748L23.3625 5.79981L2.13745 27.0998C1.91245 27.3248 1.76245 27.6248 1.68745 27.9248L0.187451 35.2748C0.112451 35.7998 0.262451 36.3248 0.637451 36.6998C0.937451 36.9998 1.31245 37.1498 1.76245 37.1498C1.83745 37.1498 1.98745 37.1498 2.06245 37.1498L9.41245 35.6498C9.71245 35.5748 10.0125 35.4248 10.2375 35.1998L35.8875 9.5498C36.1875 9.1748 36.3375 8.7998 36.3375 8.3498ZM8.28745 32.5748L3.71245 33.4748L4.68745 28.9748L24.4875 9.1748L28.0875 12.7748L8.28745 32.5748ZM30.3375 10.5998L26.7375 6.99981L28.9875 4.7498L32.5875 8.3498L30.3375 10.5998Z" fill="#DFB303"/>
</svg>
