<svg width="48" height="48" viewBox="0 0 48 48" fill="none" xmlns="http://www.w3.org/2000/svg">
<path d="M19.4286 0H1.14286C0.839753 0 0.549063 0.120408 0.334735 0.334735C0.120408 0.549063 0 0.839753 0 1.14286V19.4286C0 19.7317 0.120408 20.0224 0.334735 20.2367C0.549063 20.451 0.839753 20.5714 1.14286 20.5714H19.4286C19.7317 20.5714 20.0224 20.451 20.2367 20.2367C20.451 20.0224 20.5714 19.7317 20.5714 19.4286V1.14286C20.5714 0.839753 20.451 0.549063 20.2367 0.334735C20.0224 0.120408 19.7317 0 19.4286 0ZM18.2857 18.2857H2.28571V2.28571H18.2857V18.2857ZM46.8571 0H28.5714C28.2683 0 27.9776 0.120408 27.7633 0.334735C27.549 0.549063 27.4286 0.839753 27.4286 1.14286V19.4286C27.4286 19.7317 27.549 20.0224 27.7633 20.2367C27.9776 20.451 28.2683 20.5714 28.5714 20.5714H46.8571C47.1602 20.5714 47.4509 20.451 47.6653 20.2367C47.8796 20.0224 48 19.7317 48 19.4286V1.14286C48 0.839753 47.8796 0.549063 47.6653 0.334735C47.4509 0.120408 47.1602 0 46.8571 0ZM45.7143 18.2857H29.7143V2.28571H45.7143V18.2857ZM19.4286 27.4286H1.14286C0.839753 27.4286 0.549063 27.549 0.334735 27.7633C0.120408 27.9776 0 28.2683 0 28.5714V46.8571C1.51539e-05 47.1602 0.120428 47.4509 0.334752 47.6652C0.549076 47.8796 0.839757 48 1.14286 48H19.4286C19.7317 48 20.0224 47.8796 20.2367 47.6652C20.451 47.4509 20.5714 47.1602 20.5714 46.8571V28.5714C20.5714 28.2683 20.451 27.9776 20.2367 27.7633C20.0224 27.549 19.7317 27.4286 19.4286 27.4286ZM18.2857 45.7143H2.28571V29.7143H18.2857V45.7143ZM46.8571 27.4286H28.5714C28.2683 27.4286 27.9776 27.549 27.7633 27.7633C27.549 27.9776 27.4286 28.2683 27.4286 28.5714V46.8571C27.4286 47.1602 27.549 47.4509 27.7633 47.6652C27.9776 47.8796 28.2683 48 28.5714 48H46.8571C47.1602 48 47.4509 47.8796 47.6652 47.6652C47.8796 47.4509 48 47.1602 48 46.8571V28.5714C48 28.2683 47.8796 27.9776 47.6653 27.7633C47.4509 27.549 47.1602 27.4286 46.8571 27.4286ZM45.7143 45.7143H29.7143V29.7143H45.7143V45.7143Z" fill="#DFB303"/>
</svg>
