<svg width="58" height="42" viewBox="0 0 58 42" fill="none" xmlns="http://www.w3.org/2000/svg">
<path d="M56.75 6.50004C56 3.25002 51 0.750059 44.5 0.750059C37.5 0.750059 32.25 3.50004 32 7.25004V35.5C32 35.75 32 36 32.25 36.25C33.2501 39.5 38.25 41.75 44.5001 41.75C50.5001 41.75 55.2501 39.7501 56.5001 36.7501C56.7501 36.5 57 36.2501 57 35.75V7.25004C57.2501 7.00002 57 6.75006 56.75 6.50004ZM44.5 3.25002C50.25 3.25002 54.5 5.50002 54.5 7.25004C54.5 9.25002 50.25 11.2501 44.5 11.2501C38.75 11.2501 34.5 9.00006 34.5 7.25004C34.75 5.50002 39 3.25002 44.5 3.25002ZM34.75 11.25C37 12.75 40.5 13.75 44.75 13.75C49.0001 13.75 52.5 12.75 54.75 11V14.5H54.5C54.5 16.5 50.25 18.5 44.5 18.5C38.75 18.5 34.5 16.25 34.5 14.5V11.25H34.75ZM34.75 18.5C37 20 40.5 21.0001 44.75 21.0001C49.0001 21.0001 52.5 20 54.75 18.2501V20.7501H54.5C54.5 22.7501 50.25 24.7501 44.5 24.7501C38.75 24.7501 34.5 22.5001 34.5 20.7501V18.5001L34.75 18.5ZM34.75 25C37 26.5 40.5 27.5 44.75 27.5C49.0001 27.5 52.5 26.5 54.75 24.7501V28.0001H54.5C54.5 30.0001 50.25 32.0001 44.5 32.0001C38.75 32.0001 34.5 29.7501 34.5 28.0001V25.0001L34.75 25ZM44.5 39.25C38.75 39.25 34.5 37 34.5 35.25V32C36.75 33.5 40.25 34.5 44.5 34.5C48.75 34.5 52.25 33.5 54.5 31.75V35H54.25C54.5 37 50.25 39.25 44.5 39.25ZM6.00004 9.50004H2.75002C1.50004 9.50004 0.25 10.5001 0.25 12.0001V39.7501C0.25 40.7501 1 41.5001 2.00002 41.5001H6.50002C7.50004 41.5001 8.25004 40.7501 8.25004 39.7501V12.0001C8.50006 10.7501 7.25002 9.50004 6.00004 9.50004ZM6.00004 39H2.75002V12H6.00004V39ZM16.75 0.75H13.25C12 0.75 10.75 1.75002 10.75 3.25002V40C10.75 41 11.5 41.75 12.5 41.75H17C18 41.75 18.75 41 18.75 40V3.25002C19.0001 1.75002 18 0.75 16.75 0.75ZM16.5 39.25H13.5V3.25002H16.7501V39.25H16.5ZM27.25 19H24C22.75 19 21.5 20 21.5 21.5V39.5C21.5 40.5001 22.25 41.2501 23.25 41.2501H27.75C28.75 41.2501 29.5 40.5001 29.5 39.5V21.25C29.75 20.25 28.75 19 27.25 19ZM27.25 39H24V21.75H27.25V39Z" fill="#DFB303"/>
</svg>
