<svg width="61" height="61" viewBox="0 0 61 61" fill="none" xmlns="http://www.w3.org/2000/svg">
<path d="M13.8125 5.80371C13.1495 5.80371 12.5136 6.0671 12.0447 6.53594C11.5759 7.00478 11.3125 7.64067 11.3125 8.30371V52.0537C11.3125 52.7168 11.5759 53.3526 12.0447 53.8215C12.5136 54.2903 13.1495 54.5537 13.8125 54.5537H47.8125C48.4755 54.5537 49.1114 54.2903 49.5803 53.8215C50.0491 53.3526 50.3125 52.7168 50.3125 52.0537V18.3037H40.3125C39.6495 18.3037 39.0136 18.0403 38.5447 17.5715C38.0759 17.1026 37.8125 16.4668 37.8125 15.8037V5.80371H13.8125ZM21.5 22.6787H40.125C40.4565 22.6787 40.7745 22.8104 41.0089 23.0448C41.2433 23.2792 41.375 23.5972 41.375 23.9287V48.5537C41.375 48.8852 41.2433 49.2032 41.0089 49.4376C40.7745 49.672 40.4565 49.8037 40.125 49.8037H21.5C21.1685 49.8037 20.8505 49.672 20.6161 49.4376C20.3817 49.2032 20.25 48.8852 20.25 48.5537V23.9287C20.25 23.5972 20.3817 23.2792 20.6161 23.0448C20.8505 22.8104 21.1685 22.6787 21.5 22.6787Z" stroke="#DFB303" stroke-width="1.25" stroke-linecap="round" stroke-linejoin="round"/>
<path d="M37.825 5.80371L50.3124 18.2912" stroke="#DFB303" stroke-width="1.25" stroke-linecap="round" stroke-linejoin="round"/>
<path d="M23.8999 29.3291H37.7249" stroke="#DFB303" stroke-width="1.25" stroke-linecap="round" stroke-linejoin="round"/>
<path d="M23.8999 36.166H37.7249" stroke="#DFB303" stroke-width="1.25" stroke-linecap="round" stroke-linejoin="round"/>
<path d="M23.8999 43.0283H37.7249" stroke="#DFB303" stroke-width="1.25" stroke-linecap="round" stroke-linejoin="round"/>
</svg>
