<svg width="60" height="47" viewBox="0 0 60 47" fill="none" xmlns="http://www.w3.org/2000/svg">
<path d="M46.0635 28.8066L48.811 31.5553C49.0705 31.8146 49.2763 32.1224 49.4168 32.4613C49.5573 32.8002 49.6296 33.1634 49.6296 33.5302C49.6296 33.897 49.5573 34.2602 49.4168 34.5991C49.2763 34.938 49.0705 35.2458 48.811 35.5051C48.5517 35.7646 48.2439 35.9705 47.905 36.1109C47.5662 36.2514 47.203 36.3237 46.8361 36.3237C46.4693 36.3237 46.1061 36.2514 45.7672 36.1109C45.4284 35.9705 45.1205 35.7646 44.8612 35.5051L42.9443 33.5894" stroke="#DFB303" stroke-width="1.26029" stroke-linecap="round" stroke-linejoin="round"/>
<path d="M42.1114 32.7578L46.5225 37.1688C47.046 37.693 47.3401 38.4035 47.3401 39.1444C47.3401 39.8852 47.046 40.5957 46.5225 41.1198C46.2631 41.3794 45.9551 41.5853 45.6162 41.7258C45.2772 41.8662 44.9139 41.9385 44.5469 41.9385C44.18 41.9385 43.8167 41.8662 43.4777 41.7258C43.1388 41.5853 42.8308 41.3794 42.5714 41.1198L38.1604 36.7088" stroke="#DFB303" stroke-width="1.26029" stroke-linecap="round" stroke-linejoin="round"/>
<path d="M37.0526 35.5996L41.7408 40.2879C42.2644 40.812 42.5585 41.5226 42.5585 42.2634C42.5585 43.0042 42.2644 43.7148 41.7408 44.2389C41.2167 44.7625 40.5062 45.0566 39.7653 45.0566C39.0245 45.0566 38.314 44.7625 37.7898 44.2389L33.1016 39.5506" stroke="#DFB303" stroke-width="1.26029" stroke-linecap="round" stroke-linejoin="round"/>
<path d="M31.9926 38.4424L34.6265 41.0764C35.1501 41.628 35.4333 42.365 35.4137 43.1252C35.3941 43.8855 35.0734 44.6069 34.522 45.1308C33.9978 45.6817 33.2764 46.002 32.5162 46.0213C31.756 46.0407 31.0192 45.7576 30.4676 45.2341L28.4927 43.2592" stroke="#DFB303" stroke-width="1.26029" stroke-linecap="round" stroke-linejoin="round"/>
<path d="M32.3267 15.0713L46.0626 28.8072" stroke="#DFB303" stroke-width="1.26029" stroke-linecap="round" stroke-linejoin="round"/>
<path d="M12.3647 27.1345L0.630127 15.3999L12.981 3.21289L18.617 8.85017C22.4563 7.97807 26.4491 8.04248 30.2583 9.03795" stroke="#DFB303" stroke-width="1.26029" stroke-linecap="round" stroke-linejoin="round"/>
<path d="M23.3097 44.3317L23.4692 44.4912C24.5161 45.5381 26.2134 45.5381 27.2602 44.4912L29.7243 42.0272C30.7712 40.9803 30.7712 39.283 29.7243 38.2362L29.5648 38.0766C28.5179 37.0298 26.8206 37.0298 25.7738 38.0766L23.3097 40.5407C22.2629 41.5876 22.2629 43.2848 23.3097 44.3317Z" stroke="#DFB303" stroke-width="1.26029" stroke-linecap="round" stroke-linejoin="round"/>
<path d="M18.7284 40.362L18.8879 40.5215C19.9348 41.5683 21.6321 41.5683 22.6789 40.5215L26.2026 36.9978C27.2495 35.951 27.2495 34.2537 26.2026 33.2068L26.0431 33.0473C24.9962 32.0005 23.2989 32.0005 22.2521 33.0473L18.7284 36.571C17.6816 37.6178 17.6816 39.3151 18.7284 40.362Z" stroke="#DFB303" stroke-width="1.26029" stroke-linecap="round" stroke-linejoin="round"/>
<path d="M10.8278 32.4596L10.9873 32.6191C12.0342 33.666 13.7315 33.666 14.7783 32.6191L18.302 29.0955C19.3488 28.0486 19.3488 26.3514 18.302 25.3045L18.1424 25.145C17.0956 24.0981 15.3983 24.0981 14.3514 25.145L10.8278 28.6686C9.78094 29.7155 9.78094 31.4128 10.8278 32.4596Z" stroke="#DFB303" stroke-width="1.26029" stroke-linecap="round" stroke-linejoin="round"/>
<path d="M14.0529 37.1364L14.2124 37.2959C15.2593 38.3428 16.9566 38.3428 18.0034 37.2959L22.9779 32.3214C24.0247 31.2746 24.0247 29.5773 22.9779 28.5304L22.8184 28.3709C21.7715 27.3241 20.0742 27.3241 19.0274 28.3709L14.0529 33.3454C13.006 34.3922 13.006 36.0895 14.0529 37.1364Z" stroke="#DFB303" stroke-width="1.26029" stroke-linecap="round" stroke-linejoin="round"/>
<path d="M45.2306 27.1447L59.3699 13.0054L47.7261 1.36035L37.6765 11.6884C37.6765 11.6884 30.9881 7.0783 27.245 9.98957C25.6401 11.2267 23.9612 12.3647 22.2178 13.3974C21.5499 13.7983 21.0533 14.4312 20.8229 15.1753C20.5924 15.9193 20.6444 16.7222 20.9688 17.4303C21.1475 17.8236 21.4045 18.1763 21.7242 18.4668C22.0439 18.7573 22.4195 18.9796 22.8281 19.1199C23.2366 19.2603 23.6695 19.3159 24.1002 19.2832C24.5309 19.2506 24.9505 19.1304 25.3332 18.9301L31.9106 15.4844" stroke="#DFB303" stroke-width="1.26029" stroke-linecap="round" stroke-linejoin="round"/>
</svg>
