<svg width="38" height="44" viewBox="0 0 38 44" fill="none" xmlns="http://www.w3.org/2000/svg">
<path d="M6.5 27C9.26142 27 11.5 24.7614 11.5 22C11.5 19.2386 9.26142 17 6.5 17C3.73858 17 1.5 19.2386 1.5 22C1.5 24.7614 3.73858 27 6.5 27Z" stroke="#DFB303" stroke-width="2.5" stroke-linejoin="round"/>
<path d="M31.5 12C34.2614 12 36.5 9.76142 36.5 7C36.5 4.23858 34.2614 2 31.5 2C28.7386 2 26.5 4.23858 26.5 7C26.5 9.76142 28.7386 12 31.5 12Z" stroke="#DFB303" stroke-width="2.5" stroke-linejoin="round"/>
<path d="M26.5 9.5L10.25 19.5" stroke="#DFB303" stroke-width="2.5"/>
<path d="M31.5 42C34.2614 42 36.5 39.7614 36.5 37C36.5 34.2386 34.2614 32 31.5 32C28.7386 32 26.5 34.2386 26.5 37C26.5 39.7614 28.7386 42 31.5 42Z" stroke="#DFB303" stroke-width="2.5" stroke-linejoin="round"/>
<path d="M10.25 25.75L26.5 34.5" stroke="#DFB303" stroke-width="2.5"/>
</svg>
