<svg width="51" height="47" viewBox="0 0 51 47" fill="none" xmlns="http://www.w3.org/2000/svg">
<g clip-path="url(#clip0_489_1068)">
<path d="M25.5009 1.82393C25.7232 1.82393 25.8698 2.19773 25.8698 2.19773L32.8871 15.9739L49.4055 18.2996L37.4532 29.5943L40.2749 45.531L25.5009 38.0007L10.7268 45.531L13.5485 29.5943L1.59619 18.2996L18.1146 15.9739L25.1255 2.20948C25.1255 2.20948 25.2785 1.82393 25.5009 1.82393ZM25.5009 0.00488281C24.8833 0.00488281 24.3215 0.333883 24.0577 0.849414L17.0333 14.6395L1.35554 16.847C0.765053 16.93 0.274975 17.3112 0.0845222 17.8333C-0.105134 18.3547 0.0375065 18.9305 0.455069 19.3248L11.8456 30.0886L9.15376 45.2931C9.05494 45.8482 9.30915 46.4071 9.80879 46.7302C10.0829 46.9094 10.4049 46.9997 10.7268 46.9997C10.9914 46.9997 11.2575 46.9381 11.4982 46.8162L25.5009 39.6788L39.5035 46.8162C39.7442 46.9381 40.0104 46.9997 40.2749 46.9997C40.5969 46.9997 40.9188 46.9094 41.1921 46.731C41.6918 46.4078 41.946 45.849 41.8471 45.2938L39.1553 30.0893L50.5458 19.3256C50.9626 18.9312 51.106 18.3554 50.9164 17.834C50.7267 17.3119 50.2359 16.9315 49.6454 16.8478L33.9676 14.6402L26.944 0.849414C26.6802 0.333883 26.1184 0.00488281 25.5009 0.00488281Z" fill="#DFB303"/>
</g>
<defs>
<clipPath id="clip0_489_1068">
<rect width="51" height="47" fill="white"/>
</clipPath>
</defs>
</svg>
