<svg width="399" height="266" viewBox="0 0 399 266" fill="none" xmlns="http://www.w3.org/2000/svg">
<path d="M51.4652 70.5218C60.3826 67.5972 68.2968 62.2219 74.3029 55.0108L89.4046 36.879C110.229 11.8764 141.916 -1.43089 174.348 1.2063L194.927 2.87966C203.055 3.54055 211.071 5.19311 218.798 7.80052L235.175 13.3275C244.207 16.3756 252.757 20.6994 260.565 26.1678L326.042 72.0242L369.111 88.6103C387.119 95.5456 399 112.852 399 132.15V135.415C399 163.533 385.407 189.916 362.511 206.238C338.451 223.389 311.148 235.457 282.269 241.705L194.45 260.703C169.121 266.182 142.968 266.687 117.447 262.188L50.9493 250.468L14.2354 240.469C0.504368 236.73 -4.32668 219.732 5.38508 209.33C25.8883 187.369 28.0351 153.987 10.5138 129.581L6.63443 124.177C-4.57837 108.558 2.60972 86.5449 20.8792 80.5531L51.4652 70.5218Z" fill="#223246" fill-opacity="0.07"/>
</svg>
