<svg width="30" height="30" viewBox="0 0 48 35" fill="none" xmlns="http://www.w3.org/2000/svg">
	<path d="M48 29.3333C48 30.7478 47.4381 32.1044 46.4379 33.1046C45.4377 34.1048 44.0812 34.6667 42.6667 34.6667H5.33333C3.91885 34.6667 2.56229 34.1048 1.5621 33.1046C0.561903 32.1044 0 30.7478 0 29.3333V5.33333C0 3.91885 0.561903 2.56229 1.5621 1.5621C2.56229 0.561903 3.91885 0 5.33333 0H42.6667C44.0812 0 45.4377 0.561903 46.4379 1.5621C47.4381 2.56229 48 3.91885 48 5.33333V29.3333Z" fill="#141414" />
	<path d="M0 10.667H48V24.0003H0V10.667Z" fill="#EEEEEE" />
	<path d="M42.6667 0H5.33333C3.91885 0 2.56229 0.561903 1.5621 1.5621C0.561903 2.56229 0 3.91885 0 5.33333L0 10.6667H48V5.33333C48 3.91885 47.4381 2.56229 46.4379 1.5621C45.4377 0.561903 44.0812 0 42.6667 0Z" fill="#CE1225" />
	<path d="M19.6667 22.0825C19.6667 22.0825 19.688 22.4159 19.9787 22.5825C19.9787 22.5825 19.896 22.8332 20.208 22.9785C20.52 23.1239 21.6453 23.3532 23.604 23.3532C25.5627 23.3532 26.6667 23.1452 26.9587 22.9985C27.2507 22.8532 27.2707 22.5199 27.2707 22.5199C27.2707 22.5199 27.5827 22.3532 27.5627 22.1452C27.5413 21.9372 27.1253 21.7079 27.1253 21.7079C27.1253 21.7079 27.0213 21.4372 26.7293 21.3332C26.4373 21.2292 25.5 21.7919 23.708 21.7079C21.916 21.6252 20.896 21.3532 20.5627 21.3745C20.2293 21.3959 20.084 21.7292 20.084 21.7292C20.084 21.7292 19.708 21.8959 19.6667 22.0825Z" fill="#BF9300" />
	<path d="M19.896 22.0631C19.8787 22.1871 20.1467 22.4591 20.1467 22.4591C20.1467 22.4591 20.1467 22.7711 20.4173 22.8551C20.688 22.9391 21.792 23.1471 23.584 23.1258C25.376 23.1044 26.6467 23.0004 26.792 22.8751C26.9373 22.7498 27.0627 22.4791 27.0627 22.4791C27.0627 22.4791 27.3547 22.2711 27.3333 22.1044C27.312 21.9378 26.896 21.8338 26.896 21.8338C26.896 21.8338 26.7787 21.5831 26.64 21.4791C26.5013 21.3751 25.6053 21.8951 23.688 21.8951C21.812 21.8951 20.7293 21.4364 20.5427 21.4578C20.3547 21.4791 20.2307 21.8324 20.2307 21.8324C20.2307 21.8324 19.9173 21.9178 19.896 22.0631Z" fill="#EEEEEE" />
	<path d="M27.812 13.979C27.812 13.979 27.7707 13.0003 26.8747 13.1243C25.9787 13.2496 25.916 13.687 24.9573 13.791L24.76 13.8096C24.6001 13.3761 24.5118 12.9195 24.4987 12.4576C24.4987 11.8323 24.6867 11.5616 24.04 11.2496C23.3947 10.9376 23.2693 11.2283 23.2693 11.2283C23.2693 11.2283 22.7693 10.9776 22.54 11.1656C22.3107 11.3536 22.436 11.8323 22.54 11.687C22.644 11.5416 23.0613 11.9576 23.0613 11.9576C23.2027 12.6496 22.8013 13.399 22.5267 13.8163C22.432 13.807 22.356 13.803 22.2493 13.791C21.2907 13.687 21.228 13.2496 20.332 13.1243C19.436 12.999 19.3947 13.979 19.3947 13.979L19.04 21.5416L19.7693 20.979L19.7733 20.8896L21.2907 19.5416L21.544 19.2883L20.916 21.1243C20.916 21.1243 19.9573 21.0616 20.228 21.8323C20.228 21.8323 20.3733 21.395 20.624 21.4776C20.8747 21.5603 21.6027 21.7483 21.6027 21.7483L21.8533 22.1443L22.1653 21.8523L23.144 21.811C23.144 21.811 23.456 21.8936 23.436 22.1656C23.4933 22.0486 23.5107 21.9161 23.4853 21.7883L23.78 21.7683C23.7483 21.9024 23.7644 22.0434 23.8253 22.167C23.804 21.8963 24.1173 21.8123 24.1173 21.8123L25.096 21.8536L25.4093 22.1456L25.66 21.7496C25.66 21.7496 26.388 21.5616 26.6373 21.479C26.8867 21.3963 27.0333 21.8336 27.0333 21.8336C27.304 21.063 26.3453 21.1256 26.3453 21.1256L25.7467 19.375L25.9147 19.543L27.432 20.891L27.436 20.9803L28.1653 21.543L27.812 13.979ZM23.6693 18.563C22.1667 17.635 22.0427 15.2923 22.0427 15.2923C22.0427 15.2923 22.972 15.2443 23.6467 14.771C24.2547 15.311 25.292 15.2496 25.292 15.2496C25.292 15.2496 25.2213 17.6016 23.6693 18.563ZM27.104 13.6883L25.8333 14.8963L25.62 14.9816C25.4013 14.9896 24.3373 14.9923 23.6667 14.3963C22.8333 14.9803 21.688 15.0216 21.688 15.0216L21.5107 14.951L20.104 13.6883L19.7347 13.8403C19.7507 13.6896 19.8333 13.351 20.292 13.4176C21.044 13.5256 21.3547 13.939 22.1467 14.0216L22.3707 14.0443L22.292 14.1456C22.4147 14.1456 22.596 14.1096 22.7293 14.0803L22.88 14.095L22.812 14.3323C22.9187 14.3003 23.0733 14.2083 23.2 14.127L23.5467 14.1603L23.6253 14.2696L23.8893 14.1376L24.0667 14.1203C24.22 14.2096 24.4387 14.2896 24.4387 14.2896L24.48 14.0816C24.668 14.207 24.98 14.207 24.98 14.207C24.944 14.1776 24.908 14.103 24.8707 14.039L25.0627 14.019C25.8547 13.9363 26.164 13.523 26.9173 13.415C27.376 13.3496 27.4587 13.687 27.4747 13.8376L27.104 13.6883Z" fill="#BF9300" />
	<path d="M23.1667 18.5217L22.416 21.375L21.1667 21.1257L22.4587 17.459L23.1667 18.5217ZM24.0987 18.5217L24.848 21.375L26.0987 21.1257L24.8067 17.459L24.0987 18.5217Z" fill="#EEEEEE" />
	<path d="M22.3547 15.5216C22.3547 15.5216 22.4587 16.7296 23 17.667V15.251C23 15.251 22.6453 15.459 22.3547 15.5216ZM24.9587 15.563C24.9587 15.563 24.8547 16.771 24.3133 17.7083V15.2923C24.312 15.2923 24.6667 15.5003 24.9587 15.563Z" fill="#BF9300" />
	<path d="M22.604 11.4367C22.604 11.4367 22.7493 11.2914 23.1667 11.5821C23.4373 11.7714 23.6773 11.9154 23.6773 11.9154C23.6773 11.9154 23.848 11.7354 24.0987 11.7767C24.3493 11.8181 24.2093 12.1661 24.2507 12.8941C24.292 13.6234 24.584 13.9354 24.584 13.9354L24.2293 13.7274L24.2507 13.9567L23.8547 13.7687L23.6667 14.0394L23.4787 13.7474L23.1747 13.9327L23.0827 13.6847L22.728 13.8727C22.728 13.8727 23.2493 13.2274 23.2907 12.5181C23.3027 12.3061 23.2493 11.8301 23.2493 11.8301C23.2493 11.8301 22.9173 11.4154 22.604 11.4367Z" fill="#EEEEEE" />
	<path d="M20.7293 22.2084C20.4907 22.3511 20.584 22.4377 20.7293 22.5004C20.8747 22.5631 21.7493 22.6684 23.5213 22.7084C25.3333 22.7497 26.4587 22.5417 26.604 22.4577C26.7493 22.3751 26.7707 22.2284 26.5213 22.1871C26.2707 22.1457 25.0213 22.3537 23.5 22.3537C21.6253 22.3551 20.8333 22.1457 20.7293 22.2084Z" fill="#BF9300" />
</svg>
