<svg width="15" height="15" viewBox="0 0 16 16" fill="none" xmlns="http://www.w3.org/2000/svg">
	<path d="M15.7188 9.71875L11.7188 13.7188C11.5104 13.9062 11.2708 14 11 14C10.7292 14 10.4896 13.9062 10.2812 13.7188C10.0938 13.5104 10 13.2708 10 13C10 12.7292 10.0938 12.4896 10.2812 12.2812L12.5938 10H1C0.708333 10 0.46875 9.90625 0.28125 9.71875C0.09375 9.51042 0 9.26042 0 8.96875C0.0625 8.36458 0.395833 8.04167 1 8H12.5938L10.2812 5.71875C10.0938 5.51042 10 5.27083 10 5C10 4.72917 10.0938 4.48958 10.2812 4.28125C10.4896 4.09375 10.7292 4 11 4C11.2708 4 11.5104 4.09375 11.7188 4.28125L15.7188 8.28125C15.9062 8.48958 16 8.72917 16 9C16 9.27083 15.9062 9.51042 15.7188 9.71875Z" fill="white" />
</svg>
