<svg width="9" height="10" viewBox="0 0 9 15" fill="none" xmlns="http://www.w3.org/2000/svg">
	<path d="M1.08984 14.665C0.81901 14.665 0.579427 14.5713 0.371094 14.3838C0.183594 14.1755 0.0898438 13.9359 0.0898438 13.665C0.0898438 13.3942 0.183594 13.1546 0.371094 12.9463L5.68359 7.66504L0.371094 2.38379C0.183594 2.17546 0.0898438 1.93587 0.0898438 1.66504C0.0898438 1.39421 0.183594 1.15462 0.371094 0.946289C0.579427 0.758789 0.81901 0.665039 1.08984 0.665039C1.36068 0.665039 1.60026 0.758789 1.80859 0.946289L7.80859 6.94629C7.99609 7.15462 8.08984 7.39421 8.08984 7.66504C8.08984 7.93587 7.99609 8.17546 7.80859 8.38379L1.80859 14.3838C1.60026 14.5713 1.36068 14.665 1.08984 14.665Z" fill="white" />
</svg>
