<svg width="38" height="34" viewBox="0 0 38 34" fill="none" xmlns="http://www.w3.org/2000/svg">
<path fill-rule="evenodd" clip-rule="evenodd" d="M27.7557 19.7897C28.2195 20.2047 28.2195 20.8773 27.7557 21.2922L19.839 28.3756C19.3752 28.7905 18.6235 28.7905 18.1597 28.3756L10.243 21.2922C9.77929 20.8773 9.77929 20.2047 10.243 19.7897C10.7068 19.3748 11.4586 19.3748 11.9223 19.7897L18.9994 26.1217L26.0763 19.7897C26.5401 19.3748 27.292 19.3748 27.7557 19.7897Z" fill="#1C274C"/>
<g opacity="0.5">
<path d="M20.1875 13.4583C20.1875 12.1078 19.7445 10.1055 18.3804 8.41042C16.9727 6.66114 14.637 5.3125 11.0833 5.3125C10.4275 5.3125 9.89583 5.7882 9.89583 6.375C9.89583 6.9618 10.4275 7.4375 11.0833 7.4375C13.863 7.4375 15.4856 8.44996 16.4529 9.65208C17.4639 10.9084 17.8125 12.4478 17.8125 13.4583V25.0598L19 26.1223L20.1875 25.0598V13.4583Z" fill="#1C274C"/>
<path d="M19.3125 28.6501C19.0679 28.7096 18.8063 28.6981 18.5685 28.6152C18.702 28.6618 18.8475 28.6875 18.9995 28.6875C19.1078 28.6875 19.2127 28.6745 19.3125 28.6501Z" fill="#1C274C"/>
</g>
</svg>
