<svg width="16" height="17" viewBox="0 0 16 17" fill="none" xmlns="http://www.w3.org/2000/svg">
<path d="M15.582 3.35498C15.5299 3.10498 15.444 2.868 15.3242 2.64404C15.2044 2.42008 15.056 2.21956 14.8789 2.04248C14.8268 1.9904 14.7695 1.93831 14.707 1.88623C14.6445 1.83415 14.5768 1.78727 14.5039 1.74561L14.4883 1.72998C14.4883 1.71956 14.4831 1.71436 14.4727 1.71436C14.4622 1.71436 14.4518 1.70915 14.4414 1.69873C14.4102 1.6779 14.3815 1.65967 14.3555 1.64404C14.3294 1.62842 14.306 1.6154 14.2852 1.60498H14.2695C14.082 1.51123 13.8867 1.43831 13.6836 1.38623C13.4805 1.33415 13.2695 1.30811 13.0508 1.30811H11.957V0.558105C11.957 0.474772 11.9258 0.399251 11.8633 0.331543C11.8008 0.263835 11.7227 0.22998 11.6289 0.22998C11.5456 0.22998 11.4701 0.26123 11.4023 0.32373C11.3346 0.38623 11.3008 0.464355 11.3008 0.558105V1.27686H5.03516V0.558105C5.03516 0.474772 5.0013 0.399251 4.93359 0.331543C4.86589 0.263835 4.79036 0.22998 4.70703 0.22998C4.6237 0.22998 4.54818 0.26123 4.48047 0.32373C4.41276 0.38623 4.37891 0.464355 4.37891 0.558105V1.27686H3.28516C3.12891 1.27686 2.96745 1.29248 2.80078 1.32373C2.63411 1.35498 2.47786 1.40186 2.33203 1.46436C2.16536 1.53727 2.00911 1.62061 1.86328 1.71436C1.71745 1.80811 1.58203 1.91748 1.45703 2.04248C1.38411 2.1154 1.31901 2.19092 1.26172 2.26904C1.20443 2.34717 1.14974 2.42269 1.09766 2.49561C1.04557 2.58936 0.996094 2.6805 0.949219 2.76904C0.902344 2.85758 0.863281 2.94873 0.832031 3.04248C0.811198 3.09456 0.792969 3.14665 0.777344 3.19873C0.761719 3.25081 0.748698 3.3029 0.738281 3.35498C0.727865 3.43831 0.717448 3.52425 0.707031 3.61279C0.696615 3.70133 0.691406 3.78727 0.691406 3.87061V13.6675C0.691406 14.0216 0.759115 14.355 0.894531 14.6675C1.02995 14.98 1.21224 15.2508 1.44141 15.48C1.68099 15.7196 1.95703 15.9045 2.26953 16.0347C2.58203 16.1649 2.91016 16.23 3.25391 16.23H13.0664C13.4206 16.23 13.7539 16.1623 14.0664 16.0269C14.3789 15.8914 14.6497 15.7091 14.8789 15.48C15.1185 15.2404 15.3034 14.9644 15.4336 14.6519C15.5638 14.3394 15.6289 14.0112 15.6289 13.6675V3.87061C15.6289 3.78727 15.6237 3.70133 15.6133 3.61279C15.6029 3.52425 15.5924 3.43831 15.582 3.35498ZM1.37891 3.85498C1.37891 3.79248 1.38151 3.72998 1.38672 3.66748C1.39193 3.60498 1.39974 3.54248 1.41016 3.47998C1.42057 3.41748 1.4362 3.35498 1.45703 3.29248C1.47786 3.22998 1.4987 3.16748 1.51953 3.10498C1.55078 3.03206 1.58724 2.95915 1.62891 2.88623C1.67057 2.81331 1.71224 2.74561 1.75391 2.68311C1.78516 2.65186 1.8138 2.62321 1.83984 2.59717C1.86589 2.57113 1.88932 2.53727 1.91016 2.49561C1.96224 2.44352 2.01953 2.39404 2.08203 2.34717C2.14453 2.30029 2.20703 2.25602 2.26953 2.21436C2.41536 2.13102 2.57161 2.06331 2.73828 2.01123C2.90495 1.95915 3.07682 1.93311 3.25391 1.93311H4.33203V2.65186C4.33203 2.74561 4.36328 2.82373 4.42578 2.88623C4.48828 2.94873 4.57161 2.97998 4.67578 2.97998C4.75911 2.97998 4.83464 2.94873 4.90234 2.88623C4.97005 2.82373 5.00391 2.74561 5.00391 2.65186V1.93311H11.3477V2.65186C11.3477 2.74561 11.3789 2.82373 11.4414 2.88623C11.5039 2.94873 11.5872 2.97998 11.6914 2.97998C11.7747 2.97998 11.8503 2.94873 11.918 2.88623C11.9857 2.82373 12.0195 2.74561 12.0195 2.65186V1.93311H13.0977C13.2852 1.93311 13.4622 1.95915 13.6289 2.01123C13.7956 2.06331 13.9518 2.13102 14.0977 2.21436C14.1602 2.25602 14.2201 2.30029 14.2773 2.34717C14.3346 2.39404 14.3893 2.44352 14.4414 2.49561C14.5768 2.63102 14.6888 2.77946 14.7773 2.94092C14.8659 3.10238 14.931 3.28206 14.9727 3.47998C14.9727 3.54248 14.9779 3.60498 14.9883 3.66748C14.9987 3.72998 15.0039 3.79248 15.0039 3.85498V5.29248H1.37891V3.85498ZM15.0195 13.6519C15.0195 13.9227 14.9701 14.1753 14.8711 14.4097C14.7721 14.644 14.6341 14.8498 14.457 15.0269C14.2799 15.2039 14.0742 15.342 13.8398 15.4409C13.6055 15.5399 13.3581 15.5894 13.0977 15.5894H3.28516C3.02474 15.5894 2.77734 15.5399 2.54297 15.4409C2.30859 15.342 2.10286 15.2039 1.92578 15.0269C1.75911 14.8498 1.6263 14.644 1.52734 14.4097C1.42839 14.1753 1.37891 13.9279 1.37891 13.6675V5.93311H15.0195V13.6519Z" fill="#F13737"/>
</svg>
