<svg width="21" height="21" viewBox="0 0 21 21" fill="none" xmlns="http://www.w3.org/2000/svg">
<path d="M13.4352 7.62691L9.14515 11.9269L7.49515 10.2769C7.40551 10.1722 7.29519 10.0872 7.17112 10.0272C7.04706 9.96716 6.91193 9.93344 6.77421 9.92812C6.63649 9.9228 6.49916 9.946 6.37083 9.99628C6.24251 10.0466 6.12596 10.1228 6.0285 10.2203C5.93105 10.3177 5.85479 10.4343 5.80452 10.5626C5.75424 10.6909 5.73104 10.8282 5.73635 10.966C5.74167 11.1037 5.7754 11.2388 5.83543 11.3629C5.89545 11.4869 5.98047 11.5973 6.08515 11.6869L8.43515 14.0469C8.52859 14.1396 8.63941 14.2129 8.76125 14.2627C8.88308 14.3124 9.01355 14.3377 9.14515 14.3369C9.40749 14.3358 9.65889 14.2317 9.84515 14.0469L14.8452 9.04691C14.9389 8.95395 15.0133 8.84335 15.064 8.72149C15.1148 8.59963 15.141 8.46893 15.141 8.33691C15.141 8.2049 15.1148 8.0742 15.064 7.95234C15.0133 7.83048 14.9389 7.71988 14.8452 7.62691C14.6578 7.44066 14.4043 7.33612 14.1402 7.33612C13.876 7.33612 13.6225 7.44066 13.4352 7.62691ZM10.7152 0.836914C8.73734 0.836914 6.80394 1.4234 5.15945 2.52222C3.51496 3.62103 2.23323 5.18282 1.47636 7.01008C0.719482 8.83734 0.521448 10.848 0.907301 12.7878C1.29315 14.7276 2.24556 16.5095 3.64409 17.908C5.04261 19.3065 6.82444 20.2589 8.76425 20.6448C10.7041 21.0306 12.7147 20.8326 14.542 20.0757C16.3692 19.3188 17.931 18.0371 19.0298 16.3926C20.1287 14.7481 20.7152 12.8147 20.7152 10.8369C20.7152 9.52369 20.4565 8.22334 19.9539 7.01008C19.4514 5.79682 18.7148 4.69443 17.7862 3.76585C16.8576 2.83726 15.7552 2.10067 14.542 1.59812C13.3287 1.09557 12.0284 0.836914 10.7152 0.836914ZM10.7152 18.8369C9.1329 18.8369 7.58618 18.3677 6.27059 17.4887C4.955 16.6096 3.92962 15.3602 3.32412 13.8984C2.71862 12.4366 2.56019 10.828 2.86887 9.27619C3.17755 7.72434 3.93948 6.29888 5.0583 5.18006C6.17712 4.06124 7.60258 3.29931 9.15443 2.99063C10.7063 2.68195 12.3148 2.84038 13.7766 3.44588C15.2384 4.05138 16.4879 5.07676 17.3669 6.39235C18.246 7.70795 18.7152 9.25466 18.7152 10.8369C18.7152 12.9586 17.8723 14.9935 16.372 16.4938C14.8717 17.9941 12.8369 18.8369 10.7152 18.8369Z" fill="#448C74"/>
</svg>
