<svg width="21" height="21" viewBox="0 0 21 21" fill="none" xmlns="http://www.w3.org/2000/svg">
<path d="M13.6599 7.62691L9.36989 11.9269L7.71988 10.2769C7.63024 10.1722 7.51992 10.0872 7.39585 10.0272C7.27179 9.96716 7.13666 9.93344 6.99894 9.92812C6.86122 9.9228 6.72389 9.946 6.59556 9.99628C6.46724 10.0466 6.35069 10.1228 6.25323 10.2203C6.15578 10.3177 6.07952 10.4343 6.02925 10.5626C5.97897 10.6909 5.95577 10.8282 5.96109 10.966C5.96641 11.1037 6.00014 11.2388 6.06016 11.3629C6.12018 11.4869 6.2052 11.5973 6.30988 11.6869L8.65988 14.0469C8.75332 14.1396 8.86414 14.2129 8.98598 14.2627C9.10782 14.3124 9.23828 14.3377 9.36989 14.3369C9.63223 14.3358 9.88363 14.2317 10.0699 14.0469L15.0699 9.04691C15.1636 8.95395 15.238 8.84335 15.2888 8.72149C15.3395 8.59963 15.3657 8.46893 15.3657 8.33691C15.3657 8.2049 15.3395 8.0742 15.2888 7.95234C15.238 7.83048 15.1636 7.71988 15.0699 7.62691C14.8825 7.44066 14.6291 7.33612 14.3649 7.33612C14.1007 7.33612 13.8472 7.44066 13.6599 7.62691ZM10.9399 0.836914C8.96207 0.836914 7.02867 1.4234 5.38418 2.52222C3.73969 3.62103 2.45797 5.18282 1.70109 7.01008C0.944213 8.83734 0.74618 10.848 1.13203 12.7878C1.51788 14.7276 2.47029 16.5095 3.86882 17.908C5.26734 19.3065 7.04917 20.2589 8.98898 20.6448C10.9288 21.0306 12.9395 20.8326 14.7667 20.0757C16.594 19.3188 18.1558 18.0371 19.2546 16.3926C20.3534 14.7481 20.9399 12.8147 20.9399 10.8369C20.9399 9.52369 20.6812 8.22334 20.1787 7.01008C19.6761 5.79682 18.9395 4.69443 18.011 3.76585C17.0824 2.83726 15.98 2.10067 14.7667 1.59812C13.5535 1.09557 12.2531 0.836914 10.9399 0.836914ZM10.9399 18.8369C9.35763 18.8369 7.81092 18.3677 6.49532 17.4887C5.17973 16.6096 4.15435 15.3602 3.54885 13.8984C2.94335 12.4366 2.78492 10.828 3.0936 9.27619C3.40228 7.72434 4.16421 6.29888 5.28303 5.18006C6.40185 4.06124 7.82731 3.29931 9.37916 2.99063C10.931 2.68195 12.5395 2.84038 14.0014 3.44588C15.4632 4.05138 16.7126 5.07676 17.5916 6.39235C18.4707 7.70795 18.9399 9.25466 18.9399 10.8369C18.9399 12.9586 18.097 14.9935 16.5967 16.4938C15.0964 17.9941 13.0616 18.8369 10.9399 18.8369Z" fill="#1681FE"/>
</svg>
