<svg width="31" height="31" viewBox="0 0 31 31" fill="none" xmlns="http://www.w3.org/2000/svg">
<path d="M24.2891 2.34668H17.2578C13.8658 2.34668 11.1055 5.10697 11.1055 8.49902C11.1055 11.5933 13.4015 14.1613 16.3789 14.5888V17.2881C16.3788 17.462 16.4303 17.6319 16.5268 17.7765C16.6234 17.921 16.7607 18.0336 16.9214 18.1C17.2456 18.2353 17.6258 18.1628 17.8793 17.9095L21.1374 14.6514H24.2891C27.6811 14.6514 30.5 11.8911 30.5 8.49902C30.5 5.10697 27.6811 2.34668 24.2891 2.34668ZM17.2578 9.37781C16.7723 9.37781 16.3789 8.98429 16.3789 8.4989C16.3789 8.01351 16.7723 7.62 17.2578 7.62C17.7432 7.62 18.1367 8.01351 18.1367 8.4989C18.1367 8.98429 17.7432 9.37781 17.2578 9.37781ZM20.7734 9.37781C20.2879 9.37781 19.8945 8.98429 19.8945 8.4989C19.8945 8.01351 20.2879 7.62 20.7734 7.62C21.2588 7.62 21.6523 8.01351 21.6523 8.4989C21.6523 8.98429 21.2588 9.37781 20.7734 9.37781ZM24.2891 9.37781C23.8036 9.37781 23.4102 8.98429 23.4102 8.4989C23.4102 8.01351 23.8036 7.62 24.2891 7.62C24.7745 7.62 25.168 8.01351 25.168 8.4989C25.168 8.98429 24.7745 9.37781 24.2891 9.37781Z" fill="white"/>
<path d="M20.2461 28.7139C21.7 28.7139 22.8828 27.5311 22.8828 26.0772V22.5615C22.8828 22.183 22.6408 21.8474 22.282 21.7281L17.0209 19.9703C16.7634 19.8836 16.4819 19.9231 16.2553 20.0724L14.0186 21.5633C11.6496 20.4338 8.83871 17.6228 7.70914 15.2539L9.2 13.0171C9.27415 12.9057 9.32189 12.7788 9.33958 12.6461C9.35728 12.5134 9.34447 12.3785 9.30213 12.2515L7.54432 6.99041C7.48611 6.81543 7.37428 6.66322 7.22469 6.55539C7.0751 6.44755 6.89534 6.38956 6.71094 6.38965H3.13672C1.68277 6.38965 0.5 7.56006 0.5 9.014C0.5 19.1403 10.1198 28.7139 20.2461 28.7139Z" fill="white"/>
</svg>
