<svg width="31" height="31" viewBox="0 0 31 31" fill="none" xmlns="http://www.w3.org/2000/svg">
<path d="M13.1503 11.3575C13.3028 11.4443 13.4765 11.4872 13.6519 11.4812C13.8316 11.4647 14.0058 11.4101 14.1628 11.3209L25.4222 4.75089C25.1775 4.32443 24.8249 3.96982 24.3999 3.72266C23.9749 3.4755 23.4923 3.34449 23.0006 3.34277H4.25063C3.75879 3.34433 3.27604 3.47526 2.85082 3.72243C2.4256 3.96959 2.0729 4.32429 1.82812 4.75089L13.1503 11.3575Z" fill="white"/>
<path d="M25.8125 6.68945V13.2051C24.9104 12.8804 23.9587 12.7154 23 12.7176C20.7633 12.7211 18.6192 13.6111 17.0376 15.1927C15.456 16.7743 14.566 18.9184 14.5625 21.1551C14.5623 21.4684 14.5811 21.7815 14.6188 22.0926H4.25C3.50476 22.0904 2.79069 21.7933 2.26372 21.2664C1.73676 20.7394 1.43973 20.0253 1.4375 19.2801V6.68945L12.2094 12.9801C12.6434 13.2175 13.1303 13.3419 13.625 13.3419C14.1197 13.3419 14.6066 13.2175 15.0406 12.9801L25.8125 6.68945Z" fill="white"/>
<path d="M23 14.5928C21.2595 14.5928 19.5903 15.2842 18.3596 16.5149C17.1289 17.7456 16.4375 19.4148 16.4375 21.1553C16.4375 22.8958 17.1289 24.565 18.3596 25.7957C19.5903 27.0264 21.2595 27.7178 23 27.7178C23.2486 27.7178 23.4871 27.619 23.6629 27.4432C23.8387 27.2674 23.9375 27.0289 23.9375 26.7803C23.9375 26.5317 23.8387 26.2932 23.6629 26.1174C23.4871 25.9416 23.2486 25.8428 23 25.8428C22.0729 25.8428 21.1666 25.5679 20.3958 25.0528C19.6249 24.5377 19.0241 23.8057 18.6693 22.9491C18.3145 22.0926 18.2217 21.1501 18.4026 20.2408C18.5834 19.3315 19.0299 18.4963 19.6854 17.8407C20.341 17.1852 21.1762 16.7387 22.0855 16.5579C22.9948 16.377 23.9373 16.4698 24.7938 16.8246C25.6504 17.1794 26.3824 17.7802 26.8975 18.5511C27.4126 19.3219 27.6875 20.2282 27.6875 21.1553V22.0928C27.6875 22.3414 27.5887 22.5799 27.4129 22.7557C27.2371 22.9315 26.9986 23.0303 26.75 23.0303C26.5014 23.0303 26.2629 22.9315 26.0871 22.7557C25.9113 22.5799 25.8125 22.3414 25.8125 22.0928V21.1553C25.8125 20.599 25.6476 20.0553 25.3385 19.5928C25.0295 19.1302 24.5902 18.7698 24.0763 18.5569C23.5624 18.344 22.9969 18.2883 22.4513 18.3968C21.9057 18.5054 21.4046 18.7732 21.0113 19.1666C20.6179 19.5599 20.3501 20.061 20.2415 20.6066C20.133 21.1522 20.1887 21.7177 20.4016 22.2316C20.6145 22.7455 20.9749 23.1848 21.4375 23.4938C21.9 23.8029 22.4437 23.9678 23 23.9678C23.4843 23.9647 23.9594 23.8351 24.3781 23.5919C24.7022 24.1083 25.1856 24.5051 25.7552 24.7224C26.3248 24.9397 26.9496 24.9656 27.5353 24.7963C28.121 24.627 28.6356 24.2715 29.0013 23.7838C29.367 23.296 29.564 22.7024 29.5625 22.0928V21.1553C29.5605 19.4154 28.8685 17.7474 27.6382 16.5171C26.4079 15.2868 24.7399 14.5948 23 14.5928ZM23 22.0928C22.8146 22.0928 22.6333 22.0378 22.4792 21.9348C22.325 21.8318 22.2048 21.6854 22.1339 21.5141C22.0629 21.3428 22.0443 21.1543 22.0805 20.9724C22.1167 20.7905 22.206 20.6235 22.3371 20.4924C22.4682 20.3613 22.6352 20.272 22.8171 20.2358C22.999 20.1996 23.1875 20.2182 23.3588 20.2892C23.5301 20.3601 23.6765 20.4803 23.7795 20.6345C23.8825 20.7886 23.9375 20.9699 23.9375 21.1553C23.9375 21.4039 23.8387 21.6424 23.6629 21.8182C23.4871 21.994 23.2486 22.0928 23 22.0928Z" fill="white"/>
</svg>
