<svg width="33" height="33" viewBox="0 0 33 33" fill="none" xmlns="http://www.w3.org/2000/svg">
<path fill-rule="evenodd" clip-rule="evenodd" d="M16.5 2.19824C11.536 2.19824 7.5 6.27024 7.5 11.2929C7.5 12.9942 8.24933 15.1049 9.34 17.2102C11.7413 21.8462 15.7413 26.5156 15.7413 26.5156C15.8352 26.6249 15.9516 26.7127 16.0826 26.7728C16.2135 26.833 16.3559 26.8641 16.5 26.8641C16.6441 26.8641 16.7865 26.833 16.9174 26.7728C17.0484 26.7127 17.1648 26.6249 17.2587 26.5156C17.2587 26.5156 21.2587 21.8462 23.66 17.2102C24.7507 15.1049 25.5 12.9942 25.5 11.2929C25.5 6.27024 21.464 2.19824 16.5 2.19824ZM16.5 7.53157C15.5447 7.55734 14.6371 7.95495 13.9705 8.63977C13.3039 9.3246 12.9309 10.2426 12.9309 11.1982C12.9309 12.1539 13.3039 13.0719 13.9705 13.7567C14.6371 14.4415 15.5447 14.8391 16.5 14.8649C17.4553 14.8391 18.3629 14.4415 19.0295 13.7567C19.6961 13.0719 20.0691 12.1539 20.0691 11.1982C20.0691 10.2426 19.6961 9.3246 19.0295 8.63977C18.3629 7.95495 17.4553 7.55734 16.5 7.53157Z" fill="white"/>
<path fill-rule="evenodd" clip-rule="evenodd" d="M22.8774 23.7005C23.9614 24.0259 24.8547 24.4285 25.472 24.9005C25.872 25.2045 26.1654 25.5018 26.1654 25.8645C26.1654 26.0778 26.044 26.2712 25.8734 26.4645C25.5907 26.7832 25.1707 27.0698 24.6507 27.3365C22.8134 28.2765 19.8427 28.8645 16.4987 28.8645C13.1547 28.8645 10.184 28.2765 8.3467 27.3365C7.8267 27.0698 7.4067 26.7832 7.12403 26.4645C6.95336 26.2712 6.83203 26.0778 6.83203 25.8645C6.83203 25.5018 7.12536 25.2045 7.52536 24.9005C8.1427 24.4285 9.03603 24.0259 10.12 23.7005C10.3741 23.6241 10.5874 23.4499 10.7131 23.2163C10.8387 22.9826 10.8664 22.7086 10.79 22.4545C10.7136 22.2004 10.5395 21.9871 10.3058 21.8615C10.0721 21.7358 9.79811 21.7081 9.54403 21.7845C7.89336 22.2818 6.6107 22.9632 5.84003 23.7165C5.1627 24.3765 4.83203 25.1152 4.83203 25.8645C4.83203 26.8005 5.36136 27.7338 6.43736 28.5125C8.32536 29.8778 12.1174 30.8645 16.4987 30.8645C20.88 30.8645 24.672 29.8778 26.56 28.5125C27.636 27.7338 28.1654 26.8005 28.1654 25.8645C28.1654 25.1152 27.8347 24.3765 27.1574 23.7165C26.3867 22.9632 25.104 22.2818 23.4534 21.7845C23.3276 21.7467 23.1955 21.734 23.0648 21.7472C22.9341 21.7604 22.8073 21.7992 22.6916 21.8615C22.5759 21.9237 22.4736 22.0081 22.3905 22.1098C22.3074 22.2116 22.2452 22.3287 22.2074 22.4545C22.1695 22.5803 22.1569 22.7123 22.1701 22.843C22.1833 22.9738 22.2221 23.1006 22.2843 23.2163C22.3465 23.332 22.4309 23.4343 22.5327 23.5174C22.6344 23.6005 22.7516 23.6627 22.8774 23.7005Z" fill="white"/>
</svg>
