<svg width="45" height="45" viewBox="0 0 45 45" fill="none" xmlns="http://www.w3.org/2000/svg">
<path d="M39.4212 7.90299H33.9212V6.06966C33.9212 5.58343 33.7281 5.11712 33.3843 4.7733C33.0404 4.42948 32.5741 4.23633 32.0879 4.23633H13.7546C13.2683 4.23633 12.802 4.42948 12.4582 4.7733C12.1144 5.11712 11.9212 5.58343 11.9212 6.06966V7.90299H6.42122C5.93499 7.90299 5.46868 8.09615 5.12486 8.43997C4.78104 8.78378 4.58789 9.2501 4.58789 9.73633V15.2363C4.58789 17.1812 5.36051 19.0465 6.73577 20.4218C8.11104 21.797 9.9763 22.5697 11.9212 22.5697H14.7446C16.4029 24.4198 18.6387 25.654 21.0879 26.0713V29.903H19.2546C17.7959 29.903 16.3969 30.4825 15.3655 31.5139C14.334 32.5454 13.7546 33.9443 13.7546 35.403V39.0697C13.7546 39.5559 13.9477 40.0222 14.2915 40.366C14.6353 40.7098 15.1017 40.903 15.5879 40.903H30.2546C30.7408 40.903 31.2071 40.7098 31.5509 40.366C31.8947 40.0222 32.0879 39.5559 32.0879 39.0697V35.403C32.0879 33.9443 31.5084 32.5454 30.477 31.5139C29.4455 30.4825 28.0466 29.903 26.5879 29.903H24.7546V26.0713C27.2038 25.654 29.4396 24.4198 31.0979 22.5697H33.9212C35.8661 22.5697 37.7314 21.797 39.1067 20.4218C40.4819 19.0465 41.2546 17.1812 41.2546 15.2363V9.73633C41.2546 9.2501 41.0614 8.78378 40.7176 8.43997C40.3738 8.09615 39.9075 7.90299 39.4212 7.90299ZM11.9212 18.903C10.9488 18.903 10.0161 18.5167 9.3285 17.8291C8.64087 17.1414 8.25456 16.2088 8.25456 15.2363V11.5697H11.9212V15.2363C11.9253 16.4861 12.1423 17.7261 12.5629 18.903H11.9212ZM26.5879 33.5697C27.0741 33.5697 27.5404 33.7628 27.8843 34.1066C28.2281 34.4504 28.4212 34.9168 28.4212 35.403V37.2363H17.4212V35.403C17.4212 34.9168 17.6144 34.4504 17.9582 34.1066C18.302 33.7628 18.7683 33.5697 19.2546 33.5697H26.5879ZM30.2546 15.2363C30.2546 17.1812 29.4819 19.0465 28.1067 20.4218C26.7314 21.797 24.8661 22.5697 22.9212 22.5697C20.9763 22.5697 19.111 21.797 17.7358 20.4218C16.3605 19.0465 15.5879 17.1812 15.5879 15.2363V7.90299H30.2546V15.2363ZM37.5879 15.2363C37.5879 16.2088 37.2016 17.1414 36.5139 17.8291C35.8263 18.5167 34.8937 18.903 33.9212 18.903H33.2796C33.7002 17.7261 33.9172 16.4861 33.9212 15.2363V11.5697H37.5879V15.2363Z" fill="white"/>
</svg>
