
<svg width="13" height="9" viewBox="0 0 13 9" fill="none" xmlns="http://www.w3.org/2000/svg">
	<path d="M6.5 6.75C6.07682 6.75 5.67904 6.625 5.30664 6.375L0 2.55469V7.875C0.0169271 8.1875 0.135417 8.45312 0.355469 8.67188C0.592448 8.875 0.880208 8.98438 1.21875 9H11.7812C12.1198 8.98438 12.4076 8.875 12.6445 8.67188C12.8646 8.45312 12.9831 8.1875 13 7.875V2.55469L7.69336 6.375C7.32096 6.625 6.92318 6.75 6.5 6.75ZM0.40625 1.89844L5.78906 5.76562C6.00911 5.92188 6.24609 6 6.5 6C6.75391 6 6.99089 5.92188 7.21094 5.76562L12.5938 1.89844C12.8477 1.69531 12.9831 1.4375 13 1.125C12.9831 0.8125 12.8646 0.546875 12.6445 0.328125C12.4076 0.125 12.1198 0.015625 11.7812 0H1.21875C0.880208 0.015625 0.592448 0.125 0.355469 0.328125C0.135417 0.546875 0.0169271 0.8125 0 1.125C0 1.4375 0.135417 1.69531 0.40625 1.89844Z" fill="#0E0D21"/>
	</svg>
	