<svg width="19" height="16" viewBox="0 0 19 16" fill="none" xmlns="http://www.w3.org/2000/svg">
<path d="M9.85419 11.1666H2.08919L7.05835 6.19742L9.00002 7.69159L10.9417 6.19659L12.2775 7.53242C12.5444 7.39106 12.8247 7.27661 13.1142 7.19075L11.6075 5.68408L16.5 1.91659V7.51658C16.7962 7.66385 17.0756 7.84267 17.3334 8.04992V1.58325C17.3325 1.252 17.2005 0.93457 16.9663 0.70034C16.732 0.46611 16.4146 0.334132 16.0834 0.333252H1.91669C1.58544 0.334132 1.26801 0.46611 1.03378 0.70034C0.799545 0.93457 0.667567 1.252 0.666687 1.58325V10.7499C0.666687 11.0814 0.798383 11.3994 1.0328 11.6338C1.26722 11.8682 1.58517 11.9999 1.91669 11.9999H9.85419C9.84169 11.8624 9.83335 11.7241 9.83335 11.5833C9.83335 11.4424 9.84169 11.3041 9.85419 11.1666ZM1.50002 10.5774V1.91742L6.39252 5.68408L1.50002 10.5774ZM16.0834 1.16659C16.0909 1.16659 16.0967 1.17075 16.1042 1.17075L9.00002 6.64158L1.89585 1.17075C1.90335 1.17075 1.90919 1.16659 1.91669 1.16659H16.0834ZM14.4167 7.83325C13.4225 7.83435 12.4693 8.2298 11.7663 8.93282C11.0632 9.63584 10.6678 10.589 10.6667 11.5833C10.6726 11.7228 10.6865 11.8619 10.7084 11.9999C10.8087 12.9142 11.2423 13.7595 11.9264 14.3743C12.6104 14.9892 13.4969 15.3306 14.4167 15.3333H14.8334V14.4999H14.4167C13.7171 14.498 13.0416 14.2443 12.5137 13.7852C11.9858 13.3262 11.6408 12.6924 11.5417 11.9999C11.5177 11.8622 11.5038 11.723 11.5 11.5833C11.4996 11.009 11.6689 10.4474 11.9865 9.96901C12.3041 9.49059 12.756 9.11664 13.2854 8.8941C13.8147 8.67156 14.3981 8.61034 14.9621 8.71812C15.5262 8.8259 16.0458 9.09787 16.4559 9.49992H15.6667V9.92742C15.3081 9.65178 14.8689 9.50157 14.4167 9.49992C14.0752 9.49895 13.7387 9.58194 13.4368 9.74158C13.135 9.90122 12.877 10.1326 12.6855 10.4154C12.4941 10.6982 12.3751 11.0237 12.3391 11.3633C12.303 11.7029 12.351 12.0461 12.4788 12.3628C12.6066 12.6795 12.8102 12.9599 13.0718 13.1794C13.3335 13.3988 13.645 13.5506 13.9791 13.6214C14.3132 13.6921 14.6595 13.6797 14.9877 13.5851C15.3158 13.4905 15.6157 13.3168 15.8609 13.0791C16.0044 13.3091 16.219 13.4861 16.4721 13.5833C16.7252 13.6804 17.0031 13.6925 17.2637 13.6176C17.5243 13.5428 17.7534 13.385 17.9163 13.1683C18.0792 12.9516 18.1671 12.6877 18.1667 12.4166V11.5833C18.1548 10.5924 17.7559 9.64545 17.0552 8.94475C16.3545 8.24405 15.4076 7.84515 14.4167 7.83325ZM14.4167 12.8333C14.159 12.8324 13.9079 12.7519 13.6978 12.6027C13.4878 12.4535 13.329 12.2429 13.2434 11.9999C13.194 11.8665 13.1681 11.7255 13.1667 11.5833C13.1667 11.2517 13.2984 10.9338 13.5328 10.6994C13.7672 10.4649 14.0852 10.3333 14.4167 10.3333C14.7482 10.3333 15.0661 10.4649 15.3006 10.6994C15.535 10.9338 15.6667 11.2517 15.6667 11.5833C15.6653 11.7255 15.6394 11.8665 15.59 11.9999C15.5044 12.2429 15.3456 12.4535 15.1355 12.6027C14.9255 12.7519 14.6744 12.8324 14.4167 12.8333ZM17.3334 12.4166C17.3334 12.5271 17.2895 12.6331 17.2113 12.7112C17.1332 12.7894 17.0272 12.8333 16.9167 12.8333C16.8062 12.8333 16.7002 12.7894 16.6221 12.7112C16.5439 12.6331 16.5 12.5271 16.5 12.4166V9.54409C17.0236 10.0953 17.321 10.8231 17.3334 11.5833V12.4166Z" fill="#fff"/>
</svg>
