<svg width="30" height="30" viewBox="0 0 41 29" fill="none" xmlns="http://www.w3.org/2000/svg">
	<mask id="mask0_444_87" style="mask-type:luminance" maskUnits="userSpaceOnUse" x="0" y="0" width="41" height="29">
		<path d="M38.0714 0H2.92857C1.31117 0 0 1.27279 0 2.84286V25.5857C0 27.1558 1.31117 28.4286 2.92857 28.4286H38.0714C39.6888 28.4286 41 27.1558 41 25.5857V2.84286C41 1.27279 39.6888 0 38.0714 0Z" fill="white" />
	</mask>
	<g mask="url(#mask0_444_87)">
		<path d="M40.9997 0H-0.00038147V28.4286H40.9997V0Z" fill="url(#paint0_linear_444_87)" />
		<path fill-rule="evenodd" clip-rule="evenodd" d="M-0.00038147 0H40.9997V1.89523H-0.00038147V0ZM-0.00038147 3.79048H40.9997V5.68571H-0.00038147V3.79048ZM-0.00038147 7.58095H40.9997V9.47619H-0.00038147V7.58095ZM-0.00038147 11.3714H40.9997V13.2667H-0.00038147V11.3714ZM-0.00038147 15.162H40.9997V17.0571H-0.00038147V15.162ZM-0.00038147 18.9523H40.9997V20.8477H-0.00038147V18.9523ZM-0.00038147 22.7429H40.9997V24.638H-0.00038147V22.7429ZM-0.00038147 26.5334H40.9997V28.4286H-0.00038147V26.5334Z" fill="url(#paint1_linear_444_87)" />
		<path d="M17.5711 0H-0.00038147V13.2667H17.5711V0Z" fill="url(#paint2_linear_444_87)" />
		<path fill-rule="evenodd" clip-rule="evenodd" d="M2.92845 3.79074C2.38932 3.79074 1.95226 3.36647 1.95226 2.84312C1.95226 2.31978 2.38932 1.89551 2.92845 1.89551C3.46759 1.89551 3.90465 2.31978 3.90465 2.84312C3.90465 3.36647 3.46759 3.79074 2.92845 3.79074ZM6.83322 3.79074C6.29408 3.79074 5.85702 3.36647 5.85702 2.84312C5.85702 2.31978 6.29408 1.89551 6.83322 1.89551C7.37234 1.89551 7.8094 2.31978 7.8094 2.84312C7.8094 3.36647 7.37234 3.79074 6.83322 3.79074ZM10.738 3.79074C10.1988 3.79074 9.76177 3.36647 9.76177 2.84312C9.76177 2.31978 10.1988 1.89551 10.738 1.89551C11.2771 1.89551 11.7142 2.31978 11.7142 2.84312C11.7142 3.36647 11.2771 3.79074 10.738 3.79074ZM14.6427 3.79074C14.1036 3.79074 13.6665 3.36647 13.6665 2.84312C13.6665 2.31978 14.1036 1.89551 14.6427 1.89551C15.1819 1.89551 15.6189 2.31978 15.6189 2.84312C15.6189 3.36647 15.1819 3.79074 14.6427 3.79074ZM4.88083 5.68597C4.34169 5.68597 3.90465 5.26172 3.90465 4.73836C3.90465 4.21501 4.34169 3.79074 4.88083 3.79074C5.41996 3.79074 5.85702 4.21501 5.85702 4.73836C5.85702 5.26172 5.41996 5.68597 4.88083 5.68597ZM8.78559 5.68597C8.24646 5.68597 7.8094 5.26172 7.8094 4.73836C7.8094 4.21501 8.24646 3.79074 8.78559 3.79074C9.32473 3.79074 9.76177 4.21501 9.76177 4.73836C9.76177 5.26172 9.32473 5.68597 8.78559 5.68597ZM12.6903 5.68597C12.1512 5.68597 11.7142 5.26172 11.7142 4.73836C11.7142 4.21501 12.1512 3.79074 12.6903 3.79074C13.2295 3.79074 13.6665 4.21501 13.6665 4.73836C13.6665 5.26172 13.2295 5.68597 12.6903 5.68597ZM14.6427 7.58122C14.1036 7.58122 13.6665 7.15695 13.6665 6.6336C13.6665 6.11024 14.1036 5.68597 14.6427 5.68597C15.1819 5.68597 15.6189 6.11024 15.6189 6.6336C15.6189 7.15695 15.1819 7.58122 14.6427 7.58122ZM10.738 7.58122C10.1988 7.58122 9.76177 7.15695 9.76177 6.6336C9.76177 6.11024 10.1988 5.68597 10.738 5.68597C11.2771 5.68597 11.7142 6.11024 11.7142 6.6336C11.7142 7.15695 11.2771 7.58122 10.738 7.58122ZM6.83322 7.58122C6.29408 7.58122 5.85702 7.15695 5.85702 6.6336C5.85702 6.11024 6.29408 5.68597 6.83322 5.68597C7.37234 5.68597 7.8094 6.11024 7.8094 6.6336C7.8094 7.15695 7.37234 7.58122 6.83322 7.58122ZM2.92845 7.58122C2.38932 7.58122 1.95226 7.15695 1.95226 6.6336C1.95226 6.11024 2.38932 5.68597 2.92845 5.68597C3.46759 5.68597 3.90465 6.11024 3.90465 6.6336C3.90465 7.15695 3.46759 7.58122 2.92845 7.58122ZM4.88083 9.47645C4.34169 9.47645 3.90465 9.05219 3.90465 8.52883C3.90465 8.00548 4.34169 7.58122 4.88083 7.58122C5.41996 7.58122 5.85702 8.00548 5.85702 8.52883C5.85702 9.05219 5.41996 9.47645 4.88083 9.47645ZM8.78559 9.47645C8.24646 9.47645 7.8094 9.05219 7.8094 8.52883C7.8094 8.00548 8.24646 7.58122 8.78559 7.58122C9.32473 7.58122 9.76177 8.00548 9.76177 8.52883C9.76177 9.05219 9.32473 9.47645 8.78559 9.47645ZM12.6903 9.47645C12.1512 9.47645 11.7142 9.05219 11.7142 8.52883C11.7142 8.00548 12.1512 7.58122 12.6903 7.58122C13.2295 7.58122 13.6665 8.00548 13.6665 8.52883C13.6665 9.05219 13.2295 9.47645 12.6903 9.47645ZM14.6427 11.3717C14.1036 11.3717 13.6665 10.9474 13.6665 10.4241C13.6665 9.90072 14.1036 9.47645 14.6427 9.47645C15.1819 9.47645 15.6189 9.90072 15.6189 10.4241C15.6189 10.9474 15.1819 11.3717 14.6427 11.3717ZM10.738 11.3717C10.1988 11.3717 9.76177 10.9474 9.76177 10.4241C9.76177 9.90072 10.1988 9.47645 10.738 9.47645C11.2771 9.47645 11.7142 9.90072 11.7142 10.4241C11.7142 10.9474 11.2771 11.3717 10.738 11.3717ZM6.83322 11.3717C6.29408 11.3717 5.85702 10.9474 5.85702 10.4241C5.85702 9.90072 6.29408 9.47645 6.83322 9.47645C7.37234 9.47645 7.8094 9.90072 7.8094 10.4241C7.8094 10.9474 7.37234 11.3717 6.83322 11.3717ZM2.92845 11.3717C2.38932 11.3717 1.95226 10.9474 1.95226 10.4241C1.95226 9.90072 2.38932 9.47645 2.92845 9.47645C3.46759 9.47645 3.90465 9.90072 3.90465 10.4241C3.90465 10.9474 3.46759 11.3717 2.92845 11.3717Z" fill="url(#paint3_linear_444_87)" />
	</g>
	<defs>
		<linearGradient id="paint0_linear_444_87" x1="20.4997" y1="0" x2="20.4997" y2="28.4286" gradientUnits="userSpaceOnUse">
			<stop stop-color="white" />
			<stop offset="1" stop-color="#F0F0F0" />
		</linearGradient>
		<linearGradient id="paint1_linear_444_87" x1="20.4997" y1="0" x2="20.4997" y2="28.4286" gradientUnits="userSpaceOnUse">
			<stop stop-color="#D02F44" />
			<stop offset="1" stop-color="#B12537" />
		</linearGradient>
		<linearGradient id="paint2_linear_444_87" x1="8.78534" y1="0" x2="8.78534" y2="13.2667" gradientUnits="userSpaceOnUse">
			<stop stop-color="#46467F" />
			<stop offset="1" stop-color="#3C3C6D" />
		</linearGradient>
		<linearGradient id="paint3_linear_444_87" x1="8.78559" y1="1.89551" x2="8.78559" y2="11.3717" gradientUnits="userSpaceOnUse">
			<stop stop-color="white" />
			<stop offset="1" stop-color="#F0F0F0" />
		</linearGradient>
	</defs>
</svg>
