
<svg width="14" height="18" viewBox="0 0 14 18" fill="none" xmlns="http://www.w3.org/2000/svg">
    <path d="M6.99792 0.560547C3.58733 0.560547 0.811525 3.33746 0.811523 6.74805C0.811521 12.7492 6.64966 17.3114 6.64966 17.3114C6.85475 17.4747 7.14549 17.4747 7.35059 17.3114C7.35059 17.3114 13.1898 12.7492 13.1898 6.74805C13.1898 3.33746 10.4085 0.560547 6.99792 0.560547ZM6.99792 3.93665C8.54456 3.93665 9.81372 5.20142 9.81372 6.74805C9.81373 8.2947 8.54457 9.56275 6.99792 9.56275C5.45128 9.56275 4.18651 8.2947 4.18652 6.74805C4.18653 5.20142 5.45129 3.93665 6.99792 3.93665Z" fill="black"/>
    </svg>
    