<svg width="18" height="23" viewBox="0 0 18 23" fill="none" xmlns="http://www.w3.org/2000/svg">
<path d="M17.8438 10.1147C17.8382 10.1025 17.8326 10.0903 17.826 10.0791L15.0004 5.05313V1.5C15.0004 1.10218 14.8424 0.720644 14.5611 0.43934C14.2798 0.158035 13.8982 0 13.5004 0H4.50041C4.10258 0 3.72105 0.158035 3.43975 0.43934C3.15844 0.720644 3.00041 1.10218 3.00041 1.5V5.055L0.174782 10.0791C0.16822 10.0903 0.162595 10.1025 0.156032 10.1147C0.0336152 10.3611 -0.0183836 10.6366 0.00576793 10.9107C0.0299195 11.1848 0.129284 11.4469 0.292907 11.6681L0.30322 11.6813L8.40697 22.2075C8.47704 22.2984 8.56701 22.3719 8.66997 22.4225C8.77294 22.4732 8.88614 22.4995 9.00088 22.4995C9.11561 22.4995 9.22881 22.4732 9.33178 22.4225C9.43474 22.3719 9.52472 22.2984 9.59478 22.2075L17.6976 11.6813L17.7079 11.6681C17.8716 11.4469 17.9709 11.1847 17.9949 10.9106C18.0189 10.6364 17.9666 10.361 17.8438 10.1147ZM13.5004 1.5V4.5H4.50041V1.5H13.5004ZM9.00041 12C8.7779 12 8.5604 11.934 8.37539 11.8104C8.19039 11.6868 8.04619 11.5111 7.96104 11.3055C7.87589 11.1 7.85362 10.8738 7.89702 10.6555C7.94043 10.4373 8.04758 10.2368 8.20491 10.0795C8.36225 9.92217 8.5627 9.81503 8.78093 9.77162C8.99916 9.72821 9.22536 9.75049 9.43093 9.83564C9.63649 9.92078 9.81219 10.065 9.93581 10.25C10.0594 10.435 10.1254 10.6525 10.1254 10.875C10.1254 11.1734 10.0069 11.4595 9.7959 11.6705C9.58492 11.8815 9.29878 12 9.00041 12ZM9.75041 19.5469V13.3903C10.3547 13.2102 10.8739 12.8185 11.2131 12.287C11.5523 11.7555 11.6889 11.1197 11.5979 10.4958C11.5069 9.87184 11.1943 9.30153 10.7174 8.88911C10.2404 8.4767 9.63094 8.24974 9.00041 8.24974C8.36987 8.24974 7.76041 8.4767 7.28346 8.88911C6.80651 9.30153 6.49394 9.87184 6.40291 10.4958C6.31188 11.1197 6.44847 11.7555 6.78771 12.287C7.12695 12.8185 7.64616 13.2102 8.25041 13.3903V19.5459L1.50041 10.7813L4.19009 6H13.8117L16.5004 10.7813L9.75041 19.5469Z" fill="#DFB303"/>
</svg>
