<svg width="20" height="12" viewBox="0 0 10 10" fill="none" xmlns="http://www.w3.org/2000/svg">
	<path d="M7.095 0H2.905C1.085 0 0 1.085 0 2.905V7.09C0 8.915 1.085 10 2.905 10H7.09C8.91 10 9.995 8.915 9.995 7.095V2.905C10 1.085 8.915 0 7.095 0ZM5 6.94C3.93 6.94 3.06 6.07 3.06 5C3.06 3.93 3.93 3.06 5 3.06C6.07 3.06 6.94 3.93 6.94 5C6.94 6.07 6.07 6.94 5 6.94ZM7.96 2.44C7.935 2.5 7.9 2.555 7.855 2.605C7.805 2.65 7.75 2.685 7.69 2.71C7.63 2.735 7.565 2.75 7.5 2.75C7.365 2.75 7.24 2.7 7.145 2.605C7.1 2.555 7.065 2.5 7.04 2.44C7.015 2.38 7 2.315 7 2.25C7 2.185 7.015 2.12 7.04 2.06C7.065 1.995 7.1 1.945 7.145 1.895C7.26 1.78 7.435 1.725 7.595 1.76C7.63 1.765 7.66 1.775 7.69 1.79C7.72 1.8 7.75 1.815 7.78 1.835C7.805 1.85 7.83 1.875 7.855 1.895C7.9 1.945 7.935 1.995 7.96 2.06C7.985 2.12 8 2.185 8 2.25C8 2.315 7.985 2.38 7.96 2.44Z" fill="#0E0D21" />
</svg>
