<svg width="20" height="12" viewBox="0 0 11 10" fill="none" xmlns="http://www.w3.org/2000/svg">
	<path fill-rule="evenodd" clip-rule="evenodd" d="M11 10H8.8V6.50049C8.8 5.54049 8.33415 5.00488 7.4987 5.00488C6.58955 5.00488 6.05 5.56299 6.05 6.50049V10H3.85V3.5H6.05V4.23096C6.05 4.23096 6.74025 3.12988 8.29565 3.12988C9.8516 3.12988 11 3.99305 11 5.77905V10ZM1.3431 2.46045C0.601151 2.46045 0 1.90948 0 1.22998C0 0.55098 0.601151 0 1.3431 0C2.0845 0 2.68565 0.55098 2.68565 1.22998C2.6862 1.90948 2.0845 2.46045 1.3431 2.46045ZM0 10H2.75V3.5H0V10Z" fill="#0E0D21" />
</svg>
