<svg width="14" height="16" viewBox="0 0 14 16" fill="none" xmlns="http://www.w3.org/2000/svg">
<path fill-rule="evenodd" clip-rule="evenodd" d="M7.23733 13.8279C7.13058 13.9062 7.03108 13.9773 6.94017 14.0411C6.84317 13.9767 6.73558 13.9028 6.61892 13.8193C6.06883 13.4257 5.35542 12.848 4.65282 12.1274C3.21168 10.6493 2 8.76258 2 6.75C2 3.98857 4.23857 1.75 7 1.75C9.76142 1.75 12 3.98857 12 6.75C12 8.741 10.7349 10.6223 9.24108 12.1161C8.51633 12.8409 7.787 13.4249 7.23733 13.8279ZM13.25 6.75C13.25 11.75 7 15.5 7 15.5C6.6875 15.5 0.75 11.75 0.75 6.75C0.75 3.29822 3.54822 0.5 7 0.5C10.4517 0.5 13.25 3.29822 13.25 6.75ZM8.25 6.75C8.25 7.44033 7.69033 8 7 8C6.30967 8 5.75 7.44033 5.75 6.75C5.75 6.05964 6.30967 5.5 7 5.5C7.69033 5.5 8.25 6.05964 8.25 6.75ZM9.5 6.75C9.5 8.13075 8.38075 9.25 7 9.25C5.61925 9.25 4.5 8.13075 4.5 6.75C4.5 5.36929 5.61925 4.25 7 4.25C8.38075 4.25 9.5 5.36929 9.5 6.75Z" fill="#454D57"/>
</svg>
