<svg width="44" height="45" viewBox="0 0 44 45" fill="none" xmlns="http://www.w3.org/2000/svg">
<g clip-path="url(#clip0_1104_12612)">
<g clip-path="url(#clip1_1104_12612)">
<path d="M39.3163 41.0726H37.439V22.575C37.439 22.4154 37.3756 22.2624 37.2628 22.1496C37.15 22.0368 36.997 21.9734 36.8375 21.9734H32.0251C31.8656 21.9734 31.7126 22.0368 31.5998 22.1496C31.4869 22.2624 31.4236 22.4154 31.4236 22.575V41.0726H29.403V26.2658C29.403 26.1063 29.3396 25.9533 29.2268 25.8405C29.114 25.7276 28.961 25.6643 28.8014 25.6643H23.989C23.8295 25.6643 23.6765 25.7276 23.5637 25.8405C23.4508 25.9533 23.3875 26.1063 23.3875 26.2658V41.0726H21.3669V29.9566C21.3669 29.797 21.3035 29.644 21.1907 29.5312C21.0779 29.4184 20.9249 29.355 20.7653 29.355H15.953C15.7935 29.355 15.6405 29.4184 15.5276 29.5312C15.4148 29.644 15.3515 29.797 15.3515 29.9566V41.0726H13.3309V33.6475C13.3309 33.488 13.2675 33.335 13.1547 33.2221C13.0419 33.1093 12.8889 33.046 12.7293 33.046H7.9169C7.75736 33.046 7.60435 33.1093 7.49154 33.2221C7.37872 33.335 7.31534 33.488 7.31534 33.6475V41.0726H5.43804C5.27849 41.0726 5.12548 41.136 5.01267 41.2488C4.89985 41.3616 4.83647 41.5146 4.83647 41.6742V43.7744C4.83647 43.9339 4.89985 44.0869 5.01267 44.1998C5.12548 44.3126 5.27849 44.3759 5.43804 44.3759H39.3162C39.4758 44.3759 39.6288 44.3126 39.7416 44.1998C39.8544 44.0869 39.9178 43.9339 39.9178 43.7744V41.6742C39.9178 41.5146 39.8544 41.3616 39.7416 41.2488C39.6288 41.136 39.4759 41.0726 39.3163 41.0726ZM32.6267 23.1765H36.2359V41.0726H32.6267V23.1765ZM24.5907 26.8674H28.2V41.0726H24.5907V26.8674ZM16.5547 30.5582H20.1639V41.0727H16.5547V30.5582ZM8.51864 34.2491H12.1279V41.0726H8.51864V34.2491ZM38.7149 43.1729H6.03969V42.2758H38.7148L38.7149 43.1729ZM21.6089 25.0614C21.7199 25.1782 21.8609 25.2623 22.0164 25.3045C22.1719 25.3467 22.336 25.3454 22.4908 25.3007C22.6458 25.2566 22.7857 25.1707 22.8953 25.0525C23.0049 24.9343 23.0798 24.7882 23.112 24.6303L24.2908 18.9028C24.3502 18.6134 24.2668 18.3255 24.0616 18.1125C23.8564 17.8997 23.5716 17.806 23.2803 17.8548L17.5577 18.8158C17.3996 18.8421 17.2516 18.9112 17.1298 19.0154C17.008 19.1196 16.9169 19.2551 16.8664 19.4073C16.8156 19.5594 16.8073 19.7224 16.8423 19.8788C16.8773 20.0353 16.9543 20.1792 17.065 20.2951L17.7923 21.0578C16.0697 22.6916 9.4178 28.7111 1.48371 32.145C1.34978 32.2029 1.24148 32.3076 1.17901 32.4395C1.11653 32.5714 1.10413 32.7215 1.14412 32.8619C1.1841 33.0022 1.27375 33.1233 1.39635 33.2024C1.51895 33.2816 1.66616 33.3135 1.81053 33.2922C10.6332 31.9889 16.5698 27.8179 20.7873 24.1995L21.6089 25.0614ZM6.29492 31.0774C11.9218 27.8918 16.7619 23.7898 19.064 21.502C19.1756 21.391 19.2393 21.2408 19.2414 21.0834C19.2435 20.926 19.1839 20.7741 19.0753 20.6602L18.3527 19.9022L23.0181 19.1187L22.0572 23.7879L21.2625 22.9544C21.1556 22.8422 21.0095 22.7757 20.8547 22.7686C20.7 22.7614 20.5484 22.8143 20.4317 22.9162C17.0862 25.8344 12.5926 29.2136 6.29492 31.0774ZM34.4312 1.06348C29.7723 1.06348 25.9819 4.85384 25.9819 9.51286C25.9819 10.6395 26.1988 11.7275 26.6263 12.7536L23.4628 15.9171C23.3882 15.9918 23.3346 16.0848 23.3073 16.1868C23.28 16.2888 23.28 16.3962 23.3073 16.4982C23.3346 16.6001 23.3883 16.6931 23.463 16.7678C23.5376 16.8425 23.6305 16.8962 23.7325 16.9236L25.6547 17.4386L25.5241 17.5691C25.4113 17.6819 25.348 17.835 25.348 17.9945C25.348 18.154 25.4114 18.3071 25.5242 18.4199C25.637 18.5327 25.79 18.596 25.9496 18.596C26.1091 18.596 26.2621 18.5326 26.3749 18.4198L26.5055 18.2893L27.0205 20.2114C27.0478 20.3135 27.1015 20.4065 27.1761 20.4812C27.2508 20.5559 27.3438 20.6096 27.4458 20.6369C27.5478 20.6643 27.6552 20.6643 27.7572 20.6369C27.8592 20.6096 27.9522 20.5559 28.0269 20.4812L31.1904 17.3178C32.2165 17.7452 33.3046 17.9621 34.4312 17.9621C39.0902 17.9621 42.8806 14.1718 42.8806 9.51286C42.8806 4.85393 39.0902 1.06348 34.4312 1.06348ZM25.0503 16.0311L27.7813 13.3L29.368 13.7252L26.6369 16.4563L25.0503 16.0311ZM32.9676 9.51286C32.9676 8.70582 33.6242 8.04925 34.4312 8.04925C35.2383 8.04925 35.8949 8.70582 35.8949 9.51286C35.8949 10.3199 35.2383 10.9764 34.4312 10.9764C34.2491 10.9764 34.0753 10.9415 33.9144 10.8804L34.8566 9.93825C34.9676 9.82505 35.0293 9.67264 35.0286 9.51414C35.0278 9.35564 34.9644 9.20386 34.8524 9.09178C34.7403 8.9797 34.5885 8.91639 34.43 8.9156C34.2715 8.9148 34.1191 8.9766 34.0059 9.08755L33.0637 10.0298C33.0005 9.86477 32.9679 9.68954 32.9676 9.51286ZM33.0205 11.7744C33.4432 12.0396 33.9322 12.1801 34.4312 12.1796C35.9017 12.1796 37.098 10.9833 37.098 9.51294C37.098 8.04255 35.9017 6.84621 34.4312 6.84621C32.9607 6.84621 31.7645 8.04255 31.7645 9.51294C31.764 10.012 31.9045 10.501 32.1698 10.9237L30.9576 12.1358C30.405 11.4057 30.0764 10.4971 30.0764 9.51286C30.0764 7.1115 32.03 5.15789 34.4313 5.15789C36.8326 5.15789 38.7863 7.1115 38.7863 9.51286C38.7863 11.9142 36.8326 13.8677 34.4313 13.8677C33.4471 13.8677 32.5384 13.5392 31.8083 12.9865L33.0205 11.7744ZM27.9129 18.8938L27.4877 17.307L30.2188 14.5759L30.644 16.1627L27.9129 18.8938ZM34.4312 16.759C33.5601 16.759 32.7162 16.6079 31.9144 16.3101C31.9125 16.2684 31.9064 16.2271 31.896 16.1868L31.3456 14.1331C32.258 14.7455 33.3323 15.072 34.4311 15.0708C37.4958 15.0708 39.9892 12.5775 39.9892 9.51286C39.9892 6.44815 37.4958 3.95476 34.4311 3.95476C31.3664 3.95476 28.8731 6.44815 28.8731 9.51286C28.8719 10.6117 29.1984 11.686 29.8109 12.5984L27.7571 12.0481C27.7168 12.0377 27.6755 12.0315 27.6339 12.0297C27.336 11.2277 27.185 10.3839 27.185 9.51286C27.185 5.51728 30.4355 2.26661 34.4311 2.26661C38.4267 2.26661 41.6774 5.51728 41.6774 9.51286C41.6774 13.5084 38.4268 16.759 34.4312 16.759Z" fill="#0E0D21"/>
</g>
</g>
<defs>
<clipPath id="clip0_1104_12612">
<rect width="44" height="44" fill="white" transform="translate(0 0.719727)"/>
</clipPath>
<clipPath id="clip1_1104_12612">
<rect width="44" height="44" fill="white" transform="translate(0 0.719727)"/>
</clipPath>
</defs>
</svg>
