<svg width="60" height="60" viewBox="0 0 60 60" fill="none" xmlns="http://www.w3.org/2000/svg">
<g clip-path="url(#clip0_1013_19048)">
<path d="M15.3546 28.6686C15.3428 28.9232 15.2304 29.1627 15.042 29.3343C14.8536 29.506 14.6047 29.5958 14.3501 29.584C14.0955 29.5722 13.856 29.4597 13.6843 29.2714C13.5127 29.083 13.4228 28.8341 13.4346 28.5795C13.4397 28.4528 13.4697 28.3284 13.523 28.2134C13.5763 28.0984 13.6518 27.9951 13.7452 27.9094C13.8386 27.8237 13.948 27.7573 14.0672 27.714C14.1863 27.6708 14.3129 27.6516 14.4395 27.6575C14.5661 27.6633 14.6903 27.6942 14.805 27.7483C14.9196 27.8023 15.0224 27.8786 15.1075 27.9726C15.1925 28.0665 15.2582 28.1764 15.3006 28.2959C15.343 28.4153 15.3614 28.542 15.3546 28.6686ZM55.055 43.5341C54.8011 44.1094 54.3398 44.551 53.7559 44.7773L50.8721 45.8954C50.6021 46.0003 50.3149 46.0542 50.0253 46.0543C49.0831 46.0543 48.192 45.4836 47.8314 44.5537L47.6268 44.026L45.4912 44.9171C45.5821 45.5789 45.4637 46.2603 45.1362 46.8558C44.7327 47.5895 44.0676 48.1234 43.261 48.3619C43.4823 49.1352 43.4125 49.9898 42.9985 50.7422C42.3796 51.8677 41.1699 52.4664 39.9651 52.3652C39.9753 52.9096 39.8424 53.4472 39.5796 53.9241C39.1729 54.6638 38.4998 55.2005 37.6843 55.4352C37.2355 55.5655 36.7634 55.5943 36.3021 55.5193C36.2925 56.0262 36.1596 56.5232 35.9148 56.9674C35.5078 57.7072 34.806 58.2629 33.9892 58.4918C33.712 58.57 33.4253 58.6097 33.1373 58.6101C32.6027 58.6103 32.0775 58.4698 31.6144 58.2029L30.9176 57.8027C30.5114 58.3332 29.9505 58.7236 29.2957 58.922C28.9902 59.0151 28.6725 59.0625 28.3531 59.0628C27.8311 59.0628 27.3148 58.9347 26.8429 58.6824C26.1997 58.3393 25.6923 57.7876 25.4041 57.1179C24.5571 57.439 23.5846 57.4031 22.7391 56.9508C22.1647 56.6432 21.6975 56.1681 21.3994 55.5888C20.4992 56.0297 19.4092 56.0477 18.4625 55.5413C17.706 55.1366 17.1516 54.4594 16.9015 53.6343C16.7754 53.221 16.7335 52.7866 16.7784 52.3568C16.2752 52.3458 15.7817 52.2165 15.3379 51.9791C14.5814 51.5745 14.027 50.8973 13.7771 50.072C13.5269 49.2468 13.6121 48.3757 14.0166 47.6193L14.765 46.22C14.6023 45.8123 14.5187 45.375 14.4392 44.9472C14.3025 44.2131 14.1913 43.7235 13.9 43.6104C13.7649 43.5579 13.4503 43.4273 12.3318 42.9293L12.0714 43.5184C11.6835 44.3956 10.821 44.9184 9.91855 44.9184C9.60156 44.9184 9.27988 44.8539 8.97191 44.7179L6.14277 43.4675C5.57007 43.2143 5.12957 42.752 4.90269 42.1655C4.67582 41.579 4.69023 40.9407 4.94336 40.368L11.4388 25.672C11.6919 25.0993 12.1543 24.6589 12.7408 24.4319C13.3271 24.2049 13.9654 24.2193 14.5383 24.4725L17.3675 25.7229C18.5526 26.2466 19.0907 27.6371 18.5669 28.8223L18.1301 29.8104L19.8583 30.6077C19.881 30.6182 19.9034 30.6297 19.9253 30.6419C20.8942 31.1872 21.9297 30.9443 23.2405 30.6371C24.9947 30.2259 27.1499 29.7213 29.6712 31.1743C33.1561 29.0525 35.8319 30.1432 37.8098 30.9517C39.2393 31.536 40.0886 31.8454 40.9193 31.4133L42.4246 30.6075L42.0232 29.5722C41.555 28.3639 42.1569 26.9999 43.3648 26.5315L46.2489 25.4136C46.8327 25.1872 47.4712 25.2025 48.0463 25.4562C48.6216 25.7102 49.0632 26.1714 49.2894 26.7551L55.0973 41.7363C55.324 42.3204 55.3089 42.9588 55.055 43.5341ZM10.3568 42.7605L16.8522 28.0645C16.9205 27.9098 16.8858 27.7708 16.8592 27.7015C16.8324 27.6324 16.7644 27.5062 16.6098 27.4379L13.7806 26.1875C13.7216 26.1612 13.6577 26.1476 13.5931 26.1476C13.5187 26.1476 13.4569 26.1653 13.4178 26.1806C13.3486 26.2074 13.2224 26.2752 13.1541 26.4299L6.65875 41.1259C6.59031 41.2806 6.625 41.4197 6.65172 41.4889C6.67843 41.558 6.7464 41.6842 6.90109 41.7525L9.73035 43.0029C9.96566 43.1071 10.2527 42.9959 10.3568 42.7605ZM17.6663 50.2128L19.5014 47.037C19.7764 46.3974 19.5174 45.6476 18.9013 45.3188C18.246 44.969 17.4282 45.2164 17.0784 45.8706L15.6701 48.5036C15.5016 48.8185 15.4667 49.1823 15.5714 49.5283C15.6763 49.8742 15.9074 50.1575 16.2223 50.3259C16.6851 50.5732 17.2497 50.5245 17.6663 50.2128ZM21.1743 53.3263L23.2121 49.3799C23.3154 48.8111 23.0372 48.2192 22.5259 47.9463C22.0592 47.697 21.4903 47.7479 21.0729 48.0652L18.795 52.0657C18.6265 52.3807 18.5916 52.7445 18.6964 53.0904C18.8012 53.4364 19.0323 53.7196 19.3472 53.888C20.0014 54.2379 20.8207 53.9859 21.1743 53.3263ZM25.3213 54.9341L27.1236 51.4706C27.2262 50.9021 26.948 50.3109 26.4371 50.0382C25.9281 49.7665 25.2866 49.8595 24.8716 50.2527L22.9159 54.04C22.8905 54.5576 23.1631 55.0512 23.6235 55.2975C24.2019 55.6068 24.9218 55.4491 25.3213 54.9341ZM29.5497 56.4767L30.8998 53.9518C31.1427 53.4975 31.1004 52.9331 30.792 52.5135C30.6747 52.3538 30.523 52.2227 30.348 52.1298C29.8389 51.8579 29.1969 51.9514 28.7818 52.3458L27.0228 55.7265C26.9805 56.255 27.2578 56.7777 27.7274 57.029C28.3821 57.3791 29.1995 57.1312 29.5497 56.4767ZM33.7639 54.3167C33.7175 54.2907 32.8922 53.8081 32.8922 53.8081C32.8387 54.1631 32.727 54.5112 32.5532 54.8361L31.8399 56.1699L32.5484 56.5769C32.8287 56.7378 33.1607 56.7767 33.4833 56.6863C33.8186 56.5923 34.106 56.3654 34.272 56.0637C34.611 55.4474 34.3831 54.6638 33.7639 54.3167ZM31.7578 48.0724C31.65 48.0123 31.555 47.9315 31.4785 47.8346C31.4019 47.7378 31.3452 47.6268 31.3117 47.5079C31.2781 47.3891 31.2684 47.2648 31.283 47.1422C31.2976 47.0196 31.3363 46.9011 31.3969 46.7935C31.4574 46.6859 31.5386 46.5913 31.6358 46.5152C31.733 46.4391 31.8443 46.3829 31.9633 46.3499C32.0823 46.3169 32.2066 46.3077 32.3291 46.3229C32.4516 46.338 32.57 46.3773 32.6773 46.4383L39.6175 50.3434C40.2359 50.6834 41.0158 50.4569 41.3557 49.8385C41.6927 49.2261 41.4627 48.4441 40.843 48.0952C39.216 47.1839 37.3721 46.1512 35.558 45.1127C35.3446 44.9879 35.189 44.784 35.1252 44.5452C35.0615 44.3063 35.0946 44.052 35.2174 43.8374C35.3402 43.6229 35.5428 43.4656 35.781 43.3997C36.0193 43.3337 36.2739 43.3646 36.4895 43.4855C38.2967 44.5202 40.1372 45.5509 41.761 46.4604C42.0511 46.6226 42.391 46.6607 42.7177 46.5673C43.0524 46.4716 43.3278 46.2531 43.4932 45.9523C43.6928 45.5895 43.7012 45.1633 43.5166 44.7827C43.3989 44.5403 43.2105 44.3394 42.9762 44.2065L35.306 39.8347C34.0566 39.1227 32.4563 39.7708 30.6027 40.521C27.778 41.6644 24.2632 43.0873 21.2383 39.1948C21.0229 38.9178 20.9407 38.5752 21.0067 38.2304C21.0728 37.8848 21.2768 37.5964 21.5809 37.4186C23.735 36.1614 25.553 34.7903 26.9852 33.3429C27.2998 33.0247 27.6269 32.7191 27.9658 32.4268C26.4205 31.8189 25.0756 32.1331 23.6686 32.4629C22.1764 32.8127 20.6338 33.1744 19.0407 32.2954L17.3723 31.5257L13.09 41.2144C14.086 41.6577 14.4545 41.8144 14.5787 41.8626C15.6305 42.2709 15.9835 43.2111 16.1734 44.0575C17.1525 43.2235 18.5825 43.0233 19.7841 43.6646C20.6855 44.1456 21.2691 45.003 21.4366 45.9463C22.1139 45.8489 22.8047 45.97 23.4086 46.292C24.1376 46.6799 24.6891 47.334 24.9483 48.1181C25.7437 47.8992 26.5927 47.9944 27.3198 48.384C28.0489 48.7718 28.6003 49.4257 28.8596 50.2097C29.6551 49.9908 30.5043 50.0862 31.2316 50.476C31.5973 50.6705 31.9215 50.9347 32.1858 51.2536L36.2021 53.5271C36.4952 53.6901 36.8375 53.7278 37.1657 53.6332C37.4983 53.5375 37.7721 53.3198 37.9369 53.0202C38.2739 52.4077 38.0439 51.6257 37.4243 51.2771M46.949 42.2772L43.1078 32.369L41.7947 33.0718C40.1427 33.9309 38.5963 33.2989 37.1007 32.6875C35.144 31.8876 33.1203 31.0602 30.2131 33.0545C29.5886 33.4812 28.9514 34.0216 28.3182 34.6615C26.929 36.0653 25.2169 37.3953 23.2212 38.6215C25.2358 40.6706 27.4108 39.7902 29.8993 38.7828C32.0116 37.9275 34.1958 37.0434 36.2345 38.2054L43.9049 42.5772C44.2022 42.7463 44.4705 42.9617 44.6998 43.2154L46.949 42.2772ZM53.3495 42.4144L47.5417 27.4332C47.4807 27.2754 47.3577 27.2017 47.2899 27.1718C47.2284 27.1447 47.162 27.1306 47.0948 27.1304C47.0374 27.1304 46.9806 27.1411 46.9272 27.162L44.0431 28.28C43.803 28.373 43.6789 28.6546 43.7719 28.8948L49.5798 43.8759C49.6728 44.1159 49.954 44.24 50.1945 44.147L53.0784 43.029C53.2361 42.9678 53.3098 42.845 53.3397 42.7771C53.3694 42.7094 53.4106 42.572 53.3495 42.4144ZM46.2009 28.6065C45.67 28.6065 45.2398 29.0368 45.2398 29.5675C45.2398 29.8224 45.3411 30.0668 45.5213 30.2471C45.7015 30.4273 45.946 30.5286 46.2009 30.5286C46.4557 30.5286 46.7002 30.4273 46.8804 30.2471C47.0607 30.0668 47.1619 29.8224 47.1619 29.5675C47.1619 29.3126 47.0607 29.0682 46.8804 28.8879C46.7002 28.7077 46.4557 28.6065 46.2009 28.6065ZM47.3928 22.523C47.4067 22.6538 47.393 22.786 47.3525 22.9111C47.312 23.0363 47.2457 23.1515 47.1578 23.2493C47.0699 23.3471 46.9624 23.4254 46.8423 23.479C46.7222 23.5325 46.5922 23.5603 46.4607 23.5604H37.4884C37.5053 23.6711 37.5202 23.7824 37.5323 23.8948C37.5462 24.0256 37.5325 24.1578 37.492 24.2829C37.4515 24.4081 37.3852 24.5233 37.2973 24.6211C37.2094 24.7189 37.1019 24.7972 36.9818 24.8507C36.8617 24.9043 36.7317 24.9321 36.6002 24.9322H23.3998C23.2683 24.9321 23.1382 24.9045 23.0181 24.8509C22.898 24.7973 22.7905 24.7191 22.7026 24.6213C22.6147 24.5235 22.5483 24.4082 22.5078 24.2831C22.4674 24.158 22.4537 24.0257 22.4677 23.8949C22.4798 23.7825 22.4946 23.6711 22.5114 23.5604H13.5393C13.4077 23.5604 13.2777 23.5328 13.1575 23.4792C13.0373 23.4257 12.9298 23.3474 12.8419 23.2496C12.754 23.1517 12.6876 23.0365 12.6472 22.9113C12.6067 22.7861 12.5931 22.6538 12.6072 22.523C12.8568 20.1906 14.3065 18.262 16.3052 17.3175C15.7034 16.6497 15.3365 15.7663 15.3365 14.7987C15.3365 12.7215 17.0264 11.0316 19.1036 11.0316C21.1807 11.0316 22.8707 12.7216 22.8707 14.7987C22.8707 15.7698 22.5012 16.6563 21.8956 17.3249C22.9257 17.8149 23.8213 18.5685 24.4782 19.5136C25.1828 18.7651 26.0325 18.168 26.9755 17.7588C26.1921 16.9805 25.7062 15.9031 25.7062 14.7142C25.7062 12.3466 27.6324 10.4202 30 10.4202C32.3677 10.4202 34.294 12.3466 34.294 14.7142C34.294 15.9032 33.808 16.9805 33.0245 17.7589C33.9676 18.1681 34.8173 18.7652 35.5219 19.5138C36.1786 18.5686 37.0743 17.815 38.1045 17.325C37.4989 16.6564 37.1294 15.77 37.1294 14.7988C37.1294 12.7216 38.8193 11.0317 40.8965 11.0317C42.9736 11.0317 44.6636 12.7217 44.6636 14.7988C44.6636 15.7665 44.2967 16.6497 43.6949 17.3177C45.6933 18.2618 47.1433 20.1905 47.3928 22.523ZM40.8964 16.6909C41.9397 16.6909 42.7885 15.8422 42.7885 14.7988C42.7885 13.7555 41.9397 12.9067 40.8964 12.9067C39.853 12.9067 39.0043 13.7555 39.0043 14.7988C39.0043 15.8422 39.853 16.6909 40.8964 16.6909ZM29.9999 17.133C31.3337 17.133 32.4189 16.0479 32.4189 14.7141C32.4189 13.3803 31.3337 12.2951 29.9999 12.2951C28.6662 12.2951 27.581 13.3803 27.581 14.7141C27.5812 16.0479 28.6663 17.133 29.9999 17.133ZM19.1036 16.6909C20.1469 16.6909 20.9957 15.8422 20.9957 14.7988C20.9957 13.7555 20.1469 12.9067 19.1036 12.9067C18.0603 12.9067 17.2115 13.7555 17.2115 14.7988C17.2115 15.8422 18.0603 16.6909 19.1036 16.6909ZM23.0502 21.6852C23.1239 21.514 23.2039 21.3456 23.2901 21.1803C22.5157 19.6008 20.8841 18.5658 19.1036 18.5658C17.0798 18.5658 15.3405 19.8503 14.7032 21.6852H23.0502ZM35.4592 23.057C34.7493 20.6887 32.5607 19.008 29.9999 19.008C27.439 19.008 25.2504 20.6887 24.5406 23.057H35.4592ZM45.2968 21.6852C44.6595 19.8503 42.9202 18.5658 40.8964 18.5658C39.1158 18.5658 37.4843 19.6008 36.7098 21.1804C36.796 21.3457 36.876 21.5141 36.9497 21.6852H45.2968ZM52.834 25.6456C52.834 25.8942 52.9328 26.1327 53.1086 26.3085C53.2844 26.4843 53.5229 26.5831 53.7715 26.5831C54.0202 26.5831 54.2586 26.4843 54.4344 26.3085C54.6102 26.1327 54.709 25.8942 54.709 25.6456C54.709 21.2761 53.5523 16.9814 51.3639 13.2257C51.2378 13.0128 51.0326 12.8585 50.7931 12.7963C50.5536 12.7341 50.2992 12.7691 50.0854 12.8936C49.8716 13.0182 49.7157 13.2223 49.6518 13.4613C49.5878 13.7003 49.6209 13.9549 49.7439 14.1697C51.7655 17.6391 52.834 21.6074 52.834 25.6456ZM6.22843 26.5831C6.47707 26.5831 6.71553 26.4843 6.89135 26.3085C7.06716 26.1327 7.16593 25.8942 7.16593 25.6456C7.16593 20.6349 8.78957 15.997 11.5366 12.2274L11.6038 14.1011C11.6082 14.2241 11.6368 14.3451 11.688 14.4571C11.7392 14.5691 11.8119 14.6699 11.902 14.7537C11.9921 14.8376 12.0979 14.9029 12.2133 14.9459C12.3286 14.9889 12.4513 15.0088 12.5744 15.0044C12.6974 15 12.8184 14.9714 12.9304 14.9202C13.0423 14.869 13.1431 14.7963 13.227 14.7062C13.3109 14.6161 13.3762 14.5103 13.4192 14.3949C13.4622 14.2796 13.4821 14.1569 13.4777 14.0338L13.3347 10.0536C17.5042 5.59988 23.4321 2.81152 29.9999 2.81152C34.8334 2.81152 39.5467 4.35406 43.4329 7.18168L41.5443 7.24953C41.2958 7.25845 41.061 7.36571 40.8916 7.54773C40.7222 7.72974 40.6321 7.97159 40.641 8.22007C40.6499 8.46856 40.7572 8.70332 40.9392 8.87272C41.1212 9.04212 41.3631 9.13228 41.6116 9.12336L45.9941 8.96597C46.1363 8.96089 46.2754 8.92352 46.401 8.8567C46.5266 8.78988 46.6353 8.69536 46.719 8.58029C46.8026 8.46523 46.859 8.33264 46.8838 8.19257C46.9086 8.0525 46.9012 7.90862 46.8621 7.77183L45.6589 3.55461C45.5906 3.31549 45.4302 3.11327 45.2129 2.99243C44.9956 2.87159 44.7392 2.84203 44.5001 2.91025C44.2609 2.97847 44.0587 3.13889 43.9379 3.3562C43.817 3.57352 43.7875 3.82994 43.8557 4.06906L44.2539 5.46464C40.1035 2.53308 35.114 0.936523 29.9999 0.936523C22.8557 0.936523 16.4111 3.98539 11.8957 8.84902L7.90879 9.98656C7.66969 10.0548 7.46749 10.2152 7.34667 10.4325C7.22585 10.6498 7.19631 10.9062 7.26455 11.1453C7.33278 11.3844 7.49321 11.5866 7.71053 11.7075C7.92784 11.8283 8.18426 11.8578 8.42336 11.7896L9.83019 11.3882C6.97246 15.419 5.29093 20.3395 5.29093 25.6456C5.29093 25.8942 5.38971 26.1327 5.56552 26.3085C5.74134 26.4843 5.97979 26.5831 6.22843 26.5831Z" fill="white"/>
</g>
<defs>
<clipPath id="clip0_1013_19048">
<rect width="60" height="60" fill="white"/>
</clipPath>
</defs>
</svg>
