<svg width="60" height="60" viewBox="0 0 60 60" fill="none" xmlns="http://www.w3.org/2000/svg">
<g clip-path="url(#clip0_1013_19083)">
<path d="M11.288 40.5905C11.288 40.3729 11.3744 40.1643 11.5282 40.0104C11.6821 39.8566 11.8907 39.7701 12.1083 39.7701H31.9404C32.158 39.7701 32.3666 39.8566 32.5204 40.0104C32.6743 40.1643 32.7607 40.3729 32.7607 40.5905C32.7607 40.808 32.6743 41.0167 32.5204 41.1705C32.3666 41.3243 32.158 41.4108 31.9404 41.4108H12.1083C11.8907 41.4108 11.6821 41.3243 11.5282 41.1705C11.3744 41.0167 11.288 40.808 11.288 40.5905ZM12.1083 35.3292H26.5962C26.8137 35.3292 27.0224 35.2428 27.1762 35.0889C27.3301 34.9351 27.4165 34.7265 27.4165 34.5089C27.4165 34.2913 27.3301 34.0827 27.1762 33.9289C27.0224 33.775 26.8137 33.6886 26.5962 33.6886H12.1083C11.8907 33.6886 11.6821 33.775 11.5282 33.9289C11.3744 34.0827 11.288 34.2913 11.288 34.5089C11.288 34.7265 11.3744 34.9351 11.5282 35.0889C11.6821 35.2428 11.8907 35.3292 12.1083 35.3292ZM45.685 47.3113V57.0449C45.685 58.0928 44.8325 58.9452 43.7846 58.9452H30.7103C29.6624 58.9452 28.81 58.0928 28.81 57.0449V51.1011C26.6333 51.6068 24.356 51.8634 22.0243 51.8634C21.0578 51.8634 20.0863 51.8182 19.1319 51.7289L9.00012 58.7978C8.86411 58.8928 8.70249 58.9442 8.53661 58.9454C8.37072 58.9466 8.20839 58.8974 8.07105 58.8043C7.9337 58.7114 7.82774 58.579 7.76716 58.4246C7.70657 58.2702 7.6942 58.101 7.73168 57.9395L9.7657 49.1771C4.29727 46.4945 1.05469 42.1855 1.05469 37.5497C1.05469 34.3704 2.53594 31.3652 5.33824 28.8592C8.01926 26.4616 11.6675 24.7315 15.8888 23.8559C16.1014 23.8125 16.3226 23.8552 16.5039 23.9746C16.6852 24.0941 16.8117 24.2805 16.8558 24.493C16.8999 24.7055 16.8579 24.9269 16.7392 25.1086C16.6204 25.2902 16.4344 25.4174 16.222 25.4623C12.3396 26.2676 8.86266 27.9083 6.43195 30.082C3.98742 32.2682 2.69531 34.8504 2.69531 37.5497C2.69531 41.6938 5.82012 45.5898 11.0542 47.9714C11.2266 48.0498 11.3666 48.1855 11.4503 48.3554C11.534 48.5253 11.5563 48.719 11.5134 48.9035L9.8127 56.2302L18.4417 50.2098C18.6033 50.0972 18.7999 50.0464 18.9959 50.0666C20.002 50.1706 21.0128 50.2227 22.0243 50.2226C24.3643 50.2226 26.6435 49.95 28.81 49.4135V47.3112C28.81 46.2633 29.6624 45.4108 30.7103 45.4108H37.1584C39.8658 43.1744 41.3534 40.3922 41.3534 37.5496C41.3534 34.5123 39.6704 31.5678 36.6145 29.2587C36.5274 29.1942 36.4539 29.113 36.3983 29.02C36.3427 28.9269 36.3061 28.8237 36.2906 28.7164C36.2751 28.6091 36.281 28.4998 36.3081 28.3948C36.3351 28.2898 36.3826 28.1912 36.448 28.1047C36.5134 28.0182 36.5952 27.9455 36.6889 27.8908C36.7825 27.8362 36.886 27.8006 36.9935 27.7862C37.1009 27.7718 37.2102 27.7788 37.3149 27.8069C37.4196 27.835 37.5178 27.8836 37.6036 27.9498C41.0796 30.5764 42.994 33.9857 42.994 37.5496C42.994 40.3614 41.7911 43.0937 39.5685 45.4108H43.7845C44.8324 45.4108 45.685 46.2634 45.685 47.3113ZM44.0443 47.3113C44.0443 47.1705 43.9254 47.0516 43.7846 47.0516H30.7103C30.5695 47.0516 30.4506 47.1705 30.4506 47.3113V57.0449C30.4506 57.1856 30.5695 57.3046 30.7103 57.3046H43.7846C43.9254 57.3046 44.0443 57.1856 44.0443 57.0449V47.3113ZM40.4082 52.178C40.4082 52.322 40.3703 52.4634 40.2984 52.5881C40.2264 52.7128 40.1228 52.8164 39.9981 52.8883L35.3171 55.5908C35.1924 55.6628 35.051 55.7007 34.907 55.7007C34.763 55.7007 34.6215 55.6628 34.4968 55.5908C34.3721 55.5188 34.2686 55.4153 34.1966 55.2906C34.1246 55.1659 34.0867 55.0244 34.0867 54.8804V49.4754C34.0866 49.3314 34.1245 49.1899 34.1965 49.0652C34.2685 48.9405 34.3721 48.8369 34.4968 48.7649C34.6215 48.6929 34.763 48.655 34.907 48.655C35.051 48.655 35.1925 48.693 35.3171 48.765L39.9981 51.4676C40.1228 51.5396 40.2263 51.6431 40.2983 51.7678C40.3703 51.8925 40.4082 52.034 40.4082 52.178ZM37.9473 52.178L35.7273 50.8963V53.4596L37.9473 52.178ZM53.5916 9.62819C53.7354 9.62821 53.8766 9.59025 54.0011 9.51814L57.1692 7.68909C57.2633 7.63562 57.3458 7.56408 57.4121 7.47858C57.4784 7.39307 57.5271 7.29531 57.5554 7.19091C57.5838 7.08651 57.5912 6.97753 57.5772 6.87025C57.5633 6.76297 57.5283 6.6595 57.4742 6.56581C57.4201 6.47213 57.348 6.39006 57.2621 6.32435C57.1761 6.25863 57.078 6.21057 56.9734 6.18292C56.8689 6.15527 56.7598 6.14857 56.6526 6.16323C56.5455 6.17789 56.4422 6.2136 56.3489 6.26831L53.1807 8.09737C53.0243 8.18767 52.902 8.3271 52.8328 8.49403C52.7637 8.66095 52.7516 8.84602 52.7985 9.02051C52.8453 9.19501 52.9484 9.34916 53.0918 9.45904C53.2353 9.56892 53.4109 9.62839 53.5916 9.62819ZM48.311 5.92718C48.4043 5.98112 48.5073 6.01614 48.6141 6.03024C48.7209 6.04434 48.8295 6.03725 48.9335 6.00936C49.0376 5.98148 49.1352 5.93335 49.2206 5.86773C49.3061 5.80211 49.3778 5.72029 49.4316 5.62694L51.3611 2.28499C51.4158 2.19166 51.4515 2.08843 51.4661 1.98125C51.4808 1.87406 51.4741 1.76504 51.4464 1.66045C51.4188 1.55586 51.3707 1.45777 51.305 1.37183C51.2393 1.2859 51.1572 1.21381 51.0635 1.15972C50.9699 1.10562 50.8664 1.0706 50.7591 1.05665C50.6518 1.04271 50.5429 1.05012 50.4385 1.07847C50.334 1.10681 50.2363 1.15553 50.1508 1.22181C50.0653 1.28809 49.9937 1.37063 49.9403 1.46468L48.0108 4.80663C47.902 4.99504 47.8725 5.21894 47.9288 5.42908C47.9851 5.63922 48.1226 5.81839 48.311 5.92718ZM53.4457 14.8206C53.4457 15.0381 53.5321 15.2468 53.686 15.4006C53.8398 15.5545 54.0485 15.6409 54.266 15.6409H58.125C58.3426 15.6409 58.5512 15.5545 58.705 15.4006C58.8589 15.2468 58.9453 15.0381 58.9453 14.8206C58.9453 14.603 58.8589 14.3944 58.705 14.2405C58.5512 14.0867 58.3426 14.0003 58.125 14.0003H54.266C54.0485 14.0003 53.8398 14.0867 53.686 14.2405C53.5321 14.3944 53.4457 14.603 53.4457 14.8206ZM18.692 23.8232C19.1282 22.1951 20.1673 20.8373 21.618 19.9998L25.9088 17.5226C26.002 17.4687 26.105 17.4337 26.2118 17.4196C26.3186 17.4055 26.4272 17.4126 26.5312 17.4405C26.6133 17.4627 26.6915 17.4975 26.7629 17.5437C31.1725 14.2435 34.6494 10.423 36.6413 6.68351L36.5658 6.55284C35.6363 4.94292 36.1898 2.8769 37.7998 1.94726C39.4099 1.01784 41.4758 1.57144 42.4054 3.18124L45.7527 8.97897C47.5307 8.05917 49.743 8.69396 50.7541 10.4455C51.7652 12.1969 51.2088 14.4299 49.5234 15.5101L52.8708 21.3078C53.3197 22.0854 53.4382 22.9936 53.2046 23.8655C52.971 24.7372 52.4142 25.4646 51.6367 25.9135C51.1278 26.2087 50.55 26.3643 49.9617 26.3645C49.6676 26.3645 49.3713 26.3257 49.0792 26.2474C48.2074 26.0139 47.48 25.457 47.0312 24.6796L46.9557 24.5489C42.7586 24.4052 37.7617 25.4858 32.7431 27.6173L38.666 35.5898C39.2571 36.3855 39.1534 37.4842 38.4247 38.1453L37.1217 39.3278C36.9244 39.5065 36.6919 39.6421 36.4392 39.726C36.1865 39.8099 35.9191 39.8402 35.6541 39.815C35.3927 39.7897 35.1395 39.7102 34.9106 39.5816C34.6817 39.4529 34.4821 39.2779 34.3247 39.0677L28.1283 30.7762L27.9121 30.901C26.9479 31.4577 25.8755 31.7421 24.7867 31.7421C24.2299 31.7416 23.6755 31.6681 23.1379 31.5234C21.5098 31.0873 20.152 30.048 19.3145 28.5974C18.4768 27.1466 18.2558 25.4511 18.692 23.8232ZM37.3489 36.5681L31.5698 28.7891L29.559 29.9501L35.6389 38.0857C35.6592 38.1132 35.6851 38.136 35.7149 38.1526C35.7447 38.1692 35.7777 38.1792 35.8117 38.182C35.8561 38.1862 35.9418 38.183 36.0192 38.1127L37.3221 36.9303C37.4245 36.8374 37.4359 36.6851 37.3489 36.5681ZM46.5752 10.4038L48.7009 14.0855C49.6032 13.46 49.892 12.2334 49.3334 11.2658C48.7747 10.2983 47.568 9.93499 46.5752 10.4038ZM37.9866 5.73253L48.4519 23.8591C48.6817 24.2571 49.0552 24.5425 49.5037 24.6626C49.9522 24.7826 50.4183 24.7225 50.8164 24.4926C51.2143 24.263 51.4997 23.8894 51.6199 23.4409C51.74 22.9924 51.6797 22.5262 51.45 22.1283L40.9846 4.00167C40.6644 3.44702 40.0813 3.13659 39.4827 3.13659C39.1893 3.13659 38.8921 3.21112 38.6202 3.36815C38.2222 3.59784 37.9369 3.97144 37.8168 4.41991C37.6966 4.86839 37.7569 5.33456 37.9866 5.73253ZM27.6626 18.9196L31.8696 26.2065C36.7898 24.0868 41.7255 22.9343 46.0022 22.8974L37.5947 8.33478C35.4245 12.02 31.9584 15.7184 27.6626 18.9196ZM20.7352 27.7769C21.3536 28.8482 22.3576 29.6159 23.5623 29.9386C24.7669 30.2614 26.0203 30.0985 27.0915 29.4801L30.6718 27.4131L26.0186 19.3534L22.4382 21.4205C21.367 22.0389 20.5995 23.0429 20.2766 24.2476C19.9537 25.4523 20.1168 26.7059 20.7352 27.7769ZM5.55504 10.5375C5.55504 7.7901 7.79016 5.55487 10.5376 5.55487C13.2851 5.55487 15.5202 7.78998 15.5202 10.5375C15.5202 13.2848 13.2851 15.52 10.5376 15.52C7.79016 15.52 5.55504 13.2848 5.55504 10.5375ZM7.19566 10.5375C7.19566 12.3803 8.69484 13.8793 10.5376 13.8793C12.3804 13.8793 13.8796 12.3803 13.8796 10.5375C13.8796 8.69467 12.3804 7.1955 10.5376 7.1955C8.69484 7.1955 7.19566 8.69467 7.19566 10.5375ZM1.05469 11.4037V9.6712C1.05469 8.90503 1.67789 8.28183 2.44395 8.28183C3.12246 8.28183 3.39012 7.76315 3.45586 7.60413C3.52172 7.44511 3.69937 6.88905 3.21949 6.40929C3.09005 6.2806 2.98743 6.1275 2.91757 5.95887C2.84771 5.79024 2.81199 5.60943 2.8125 5.4269C2.8125 5.05577 2.95699 4.70679 3.21949 4.4444L4.44445 3.21933C4.98609 2.67757 5.86758 2.67757 6.40934 3.21933C6.88922 3.69921 7.44527 3.52155 7.60418 3.45569C7.7632 3.38983 8.28187 3.12229 8.28187 2.44378C8.28187 1.67761 8.90508 1.0544 9.67113 1.0544H11.4036C12.1697 1.0544 12.7929 1.67761 12.7929 2.44378C12.7929 3.12229 13.3116 3.38983 13.4706 3.45569C13.6295 3.52155 14.1858 3.69897 14.6654 3.21933C15.2072 2.67757 16.0886 2.67757 16.6303 3.21933L17.8554 4.4444C18.1178 4.70679 18.2623 5.05565 18.2623 5.42679C18.2623 5.79792 18.1178 6.1469 17.8553 6.40929C17.3755 6.88905 17.5532 7.44511 17.619 7.60413C17.6849 7.76304 17.9524 8.28183 18.6309 8.28183C19.397 8.28183 20.0202 8.90503 20.0202 9.6712V11.4037C20.0202 12.1698 19.397 12.793 18.6309 12.793C17.9524 12.793 17.6848 13.3117 17.619 13.4707C17.5532 13.6296 17.3755 14.1858 17.8554 14.6655C18.3971 15.2073 18.3971 16.0888 17.8554 16.6304L16.6303 17.8555C16.368 18.1179 16.0191 18.2625 15.6479 18.2625C15.2768 18.2625 14.9278 18.118 14.6654 17.8555C14.1857 17.3759 13.6297 17.5533 13.4706 17.6192C13.3117 17.6851 12.7929 17.9526 12.7929 18.6313C12.7929 19.3973 12.1697 20.0205 11.4036 20.0205H9.67137C8.90531 20.0205 8.28211 19.3973 8.28211 18.6313C8.28211 17.9512 7.76379 17.6837 7.605 17.618C7.44598 17.5521 6.89039 17.3747 6.40957 17.8556C6.1473 18.118 5.79832 18.2626 5.42719 18.2626C5.05605 18.2626 4.70695 18.1181 4.44469 17.8556L3.21973 16.6307C3.09028 16.5019 2.98766 16.3488 2.9178 16.1802C2.84794 16.0115 2.81223 15.8307 2.81273 15.6482C2.81273 15.277 2.95723 14.928 3.21973 14.6657C3.69949 14.1859 3.52184 13.6298 3.45598 13.4709C3.39012 13.3119 3.12258 12.7932 2.44406 12.7932C1.67789 12.793 1.05469 12.1698 1.05469 11.4037ZM2.69531 11.1633C3.71379 11.252 4.5723 11.8785 4.97168 12.8429C5.37117 13.8074 5.20711 14.8575 4.54957 15.6404L5.43469 16.5255C6.2182 15.8673 7.26855 15.7029 8.23266 16.1021C9.19687 16.5015 9.82312 17.3605 9.91172 18.38H11.1633C11.252 17.3616 11.8785 16.503 12.8429 16.1035C13.8073 15.7043 14.8574 15.8681 15.6404 16.5255L16.5255 15.6404C15.868 14.8575 15.7041 13.8074 16.1034 12.8429C16.5029 11.8786 17.3613 11.252 18.3798 11.1633V9.91166C17.3613 9.82296 16.5028 9.19647 16.1034 8.23202C15.7041 7.26757 15.868 6.21757 16.5254 5.43452L15.6403 4.5494C14.8571 5.20683 13.8071 5.37077 12.8428 4.9714C11.8785 4.5719 11.252 3.71351 11.1633 2.69503H9.91172C9.82301 3.71351 9.19652 4.57202 8.23219 4.9714C7.26773 5.37089 6.21762 5.20683 5.43469 4.54929L4.54957 5.4344C5.20699 6.21757 5.37105 7.26756 4.97156 8.23189C4.5723 9.19646 3.71379 9.82296 2.69531 9.91166V11.1633ZM58.8809 32.973C58.5913 35.4021 57.4233 37.7129 56.7527 38.8741C56.0822 40.0353 54.6652 42.2023 52.7064 43.6676C51.4364 44.6176 50.1575 45.0955 48.9184 45.0955C48.0531 45.0955 47.207 44.8625 46.3966 44.3946L46.102 44.2244C45.6166 43.9443 45.2694 43.4911 45.1239 42.9482C44.9784 42.4053 45.0526 41.8392 45.3328 41.3539L46.5107 39.3138C47.0899 38.3103 48.3777 37.9653 49.3812 38.5446L50.0721 38.9435C50.2679 39.0567 50.4997 39.0184 50.649 38.8483C51.2932 38.1138 51.8865 37.2794 52.4126 36.3683C52.9386 35.4572 53.3646 34.526 53.6786 33.601C53.7512 33.3868 53.6685 33.1669 53.4727 33.0538L52.7817 32.655C52.2963 32.3748 51.9491 31.9215 51.8036 31.3787C51.6581 30.8359 51.7323 30.2696 52.0125 29.7844L53.1903 27.7442C53.7695 26.7409 55.0573 26.3959 56.0609 26.975L56.3556 27.1452C58.3266 28.2831 59.1997 30.2982 58.8809 32.973ZM55.5353 28.566L55.2407 28.3958C55.1348 28.3349 55.0091 28.3184 54.8911 28.35C54.7731 28.3816 54.6725 28.4587 54.6112 28.5644L53.4334 30.6046C53.4032 30.6569 53.3836 30.7148 53.3759 30.7747C53.3682 30.8347 53.3724 30.8956 53.3884 30.9539C53.4037 31.0124 53.4305 31.0673 53.4672 31.1154C53.5039 31.1634 53.5498 31.2038 53.6021 31.234L54.2931 31.6328C55.1723 32.1405 55.5586 33.1666 55.2322 34.1282C54.8838 35.1547 54.4132 36.1843 53.8335 37.1885C53.2539 38.1924 52.5974 39.1148 51.8825 39.9301C51.2129 40.6937 50.1313 40.8721 49.2519 40.3644L48.561 39.9656C48.4551 39.9046 48.3294 39.8882 48.2113 39.9198C48.0933 39.9514 47.9927 40.0285 47.9314 40.1342L46.7536 42.1744C46.7234 42.2267 46.7038 42.2846 46.6961 42.3445C46.6884 42.4045 46.6926 42.4654 46.7086 42.5237C46.7239 42.5822 46.7507 42.6371 46.7874 42.6852C46.8241 42.7332 46.87 42.7736 46.9223 42.8038L47.217 42.9739C48.6139 43.7804 50.088 43.5776 51.7236 42.3539C53.5121 41.016 54.8428 38.9011 55.3321 38.0538C55.8212 37.2067 56.9875 34.9966 57.2518 32.7789C57.4936 30.7505 56.9321 29.3725 55.5353 28.566Z" fill="white"/>
</g>
<defs>
<clipPath id="clip0_1013_19083">
<rect width="60" height="60" fill="white"/>
</clipPath>
</defs>
</svg>
