<svg width="60" height="60" viewBox="0 0 60 60" fill="none" xmlns="http://www.w3.org/2000/svg">
<g clip-path="url(#clip0_1013_19068)">
<g clip-path="url(#clip1_1013_19068)">
<g clip-path="url(#clip2_1013_19068)">
<mask id="mask0_1013_19068" style="mask-type:luminance" maskUnits="userSpaceOnUse" x="0" y="0" width="60" height="60">
<path d="M60 0H0V60H60V0Z" fill="white"/>
</mask>
<g mask="url(#mask0_1013_19068)">
<path fill-rule="evenodd" clip-rule="evenodd" d="M39.375 45.8789H20.625V44.1211H39.375V45.8789ZM38.4375 49.3945H21.5625V47.6367H38.4375V49.3945ZM38.2031 52.9102H21.7969V51.1523H38.2031V52.9102ZM25.6055 55.5469V56.7188C25.6055 57.5278 26.2613 58.1836 27.0703 58.1836H32.9297C33.7387 58.1836 34.3945 57.5278 34.3945 56.7188V55.5469H36.1523V56.7188C36.1523 58.4986 34.7095 59.9414 32.9297 59.9414H27.0703C25.2905 59.9414 23.8477 58.4986 23.8477 56.7188V55.5469H25.6055Z" fill="white"/>
<path fill-rule="evenodd" clip-rule="evenodd" d="M14.2269 6.26549C18.3596 2.41532 23.9056 0.0585938 30 0.0585938C36.0944 0.0585938 41.6404 2.41532 45.7731 6.26549L44.5748 7.55163C40.7546 3.99258 35.6324 1.81641 30 1.81641C24.3676 1.81641 19.2454 3.99257 15.4252 7.55163L14.2269 6.26549ZM6.85547 23.2031C6.85547 17.1087 9.21219 11.5627 13.0624 7.43006L14.3485 8.62828C10.7895 12.4485 8.61328 17.5707 8.61328 23.2031C8.61328 26.6843 9.4444 29.9688 10.9183 32.8715L9.35091 33.6673C7.75473 30.5238 6.85547 26.9672 6.85547 23.2031ZM46.9376 7.43006C50.7878 11.5627 53.1445 17.1087 53.1445 23.2031C53.1445 26.9672 52.2453 30.5237 50.6491 33.6673L49.0817 32.8715C50.5556 29.9688 51.3867 26.6843 51.3867 23.2031C51.3867 17.5707 49.2105 12.4485 45.6515 8.62829L46.9376 7.43006ZM17.1565 42.4594C14.1426 40.4454 11.6282 37.7428 9.83805 34.5758L11.3683 33.7108C13.0226 36.6375 15.3471 39.1361 18.1331 40.9978C19.4899 41.9045 20.5864 43.1071 21.3618 44.4876L19.8292 45.3484C19.1868 44.2048 18.2792 43.2096 17.1565 42.4594ZM50.162 34.5758C48.3718 37.7428 45.8574 40.4454 42.8435 42.4594C41.7208 43.2096 40.8132 44.2048 40.1708 45.3484L38.6382 44.4876C39.4136 43.107 40.5101 41.9045 41.8669 40.9978C44.6529 39.1361 46.9774 36.6375 48.6317 33.7108L50.162 34.5758ZM39.9934 45.6813C39.4026 46.8522 39.082 48.1616 39.082 49.5129V51.2744H37.3242V49.5129C37.3242 47.8828 37.711 46.3026 38.4241 44.8894L39.9934 45.6813ZM20.918 49.5129C20.918 48.1616 20.5974 46.8522 20.0066 45.6814L21.5759 44.8895C22.289 46.3026 22.6758 47.8829 22.6758 49.5129V51.2744H20.918V49.5129ZM20.918 53.2031V51.4416H22.6758V53.2031C22.6758 53.5894 22.8241 53.939 23.0685 54.2013L21.7823 55.3995C21.2468 54.8247 20.918 54.0513 20.918 53.2031ZM39.082 51.4416V53.2031C39.082 54.0513 38.7532 54.8247 38.2177 55.3995L36.9315 54.2013C37.1759 53.939 37.3242 53.5894 37.3242 53.2031V51.4416H39.082ZM24.1406 56.4258C23.2924 56.4258 22.5191 56.097 21.9442 55.5614L23.1425 54.2753C23.4048 54.5197 23.7544 54.668 24.1406 54.668H29.7345V56.4258H24.1406ZM38.0558 55.5614C37.4809 56.097 36.7076 56.4258 35.8594 56.4258H30.2655V54.668H35.8594C36.2456 54.668 36.5952 54.5197 36.8575 54.2753L38.0558 55.5614Z" fill="white"/>
<path fill-rule="evenodd" clip-rule="evenodd" d="M53.5462 4.94421L50.135 7.80663L49.0051 6.46008L52.4163 3.59766L53.5462 4.94421ZM7.58367 3.59766L10.9949 6.46008L9.86496 7.80663L6.45375 4.94421L7.58367 3.59766ZM22.2693 10.8771C23.1356 9.12147 24.943 7.91007 27.0395 7.91007C28.1375 7.91007 29.1552 8.24515 30 8.81294C30.8448 8.24506 31.8625 7.91007 32.9605 7.91007C35.057 7.91007 36.8645 9.12144 37.7307 10.8771C39.6952 11.0438 41.2407 12.6877 41.2407 14.6952C41.2407 14.7339 41.24 14.7721 41.2387 14.81C43.3835 15.4921 44.9414 17.4915 44.9414 19.8632C44.9414 21.3972 44.2876 22.7738 43.2492 23.7398C43.8407 24.5022 44.2012 25.4577 44.2012 26.5077C44.2012 27.9782 43.5006 29.2689 42.4307 30.0983C42.6151 30.5856 42.7211 31.1156 42.7211 31.6757C42.7211 33.9288 41.0876 35.7753 38.9536 36.1572C37.9099 37.9715 35.9522 39.1992 33.7007 39.1992C32.3064 39.1992 31.0228 38.7275 30 37.9382C28.9772 38.7275 27.6936 39.1992 26.2993 39.1992C24.0478 39.1992 22.0901 37.9715 21.0464 36.1572C18.9124 35.7753 17.2789 33.9288 17.2789 31.6757C17.2789 31.1156 17.385 30.5855 17.5694 30.0984C16.4995 29.2689 15.7987 27.9782 15.7987 26.5077C15.7987 25.4576 16.1593 24.5023 16.7508 23.7399C15.7125 22.7738 15.0586 21.3972 15.0586 19.8632C15.0586 17.4915 16.6165 15.492 18.7613 14.8099C18.76 14.7721 18.7593 14.7339 18.7593 14.6952C18.7593 12.6877 20.3047 11.0438 22.2693 10.8771ZM30.8789 36.387C31.6351 37.044 32.6205 37.4413 33.7007 37.4413C35.422 37.4413 36.9051 36.4303 37.593 34.9681L37.8133 34.4999L38.3296 34.4653C39.806 34.3665 40.9632 33.156 40.9632 31.6757C40.9632 31.1558 40.8111 30.6674 40.5492 30.2343L40.0612 29.4272L40.9006 28.9973C41.8211 28.5257 42.4434 27.589 42.4434 26.5077C42.4434 25.6315 42.0307 24.8514 41.3789 24.3283L40.4014 23.5439L41.4719 22.8921C42.501 22.2656 43.1836 21.1436 43.1836 19.8632C43.1836 18.0753 41.8538 16.5946 40.1204 16.3521L39.1265 16.2131L39.3954 15.2462C39.4527 15.0403 39.4829 14.8634 39.4829 14.6952C39.4829 13.5547 38.5578 12.6258 37.4102 12.621C37.4066 12.6214 37.4001 12.6222 37.3898 12.6235C37.3822 12.6245 37.3743 12.6256 37.3636 12.627C37.3536 12.6284 37.3408 12.6301 37.3276 12.6318C37.301 12.6353 37.2658 12.6396 37.2262 12.6429L36.5466 12.7002L36.3224 12.056C35.8383 10.6655 34.5167 9.66789 32.9605 9.66789C32.1831 9.66789 31.4658 9.91809 30.8789 10.3427V36.387ZM29.1211 10.3427C28.5342 9.91814 27.8168 9.66789 27.0395 9.66789C25.4834 9.66789 24.1618 10.6654 23.6776 12.0561L23.4534 12.7002L22.7738 12.6429C22.7342 12.6396 22.699 12.6353 22.6724 12.6318C22.6592 12.6301 22.6464 12.6284 22.6364 12.627C22.6257 12.6256 22.6178 12.6245 22.6102 12.6235C22.5999 12.6222 22.5934 12.6214 22.5898 12.621C21.4421 12.6258 20.5171 13.5546 20.5171 14.6952C20.5171 14.8634 20.5473 15.0403 20.6046 15.2462L20.8735 16.2131L19.8795 16.3521C18.1462 16.5945 16.8164 18.0751 16.8164 19.8632C16.8164 21.1436 17.499 22.2656 18.5281 22.8921L19.5985 23.5439L18.6212 24.3283C17.9693 24.8515 17.5566 25.6316 17.5566 26.5077C17.5566 27.589 18.1789 28.5257 19.0994 28.9973L19.9386 29.4272L19.4508 30.2342C19.189 30.6674 19.0368 31.1559 19.0368 31.6757C19.0368 33.156 20.194 34.3665 21.6704 34.4653L22.1867 34.4999L22.407 34.9681C23.0949 36.4303 24.578 37.4413 26.2993 37.4413C27.3795 37.4413 28.3649 37.044 29.1211 36.387V10.3427ZM2.10987 12.4681L6.2944 13.9912L5.69318 15.643L1.50865 14.1199L2.10987 12.4681ZM58.4914 14.1199L54.3068 15.643L53.7056 13.9912L57.8901 12.4681L58.4914 14.1199ZM4.45312 24.4335H0V22.6757H4.45312V24.4335ZM60 24.4335H55.5469V22.6757H60V24.4335ZM6.2944 33.118L2.10987 34.6411L1.50865 32.9893L5.69318 31.4662L6.2944 33.118ZM54.3068 31.4662L58.4914 32.9893L57.8901 34.6411L53.7056 33.118L54.3068 31.4662ZM10.9949 40.6492L7.58367 43.5116L6.45375 42.165L9.86496 39.3026L10.9949 40.6492ZM50.135 39.3026L53.5462 42.165L52.4163 43.5116L49.0051 40.6492L50.135 39.3026Z" fill="white"/>
<path fill-rule="evenodd" clip-rule="evenodd" d="M19.8926 16.3504C19.8931 16.3503 19.8936 16.3503 19.7578 15.4819C19.6221 14.6136 19.6225 14.6135 19.623 14.6134L19.6241 14.6132L19.6263 14.6129L19.6315 14.6121C19.6352 14.6116 19.6395 14.611 19.6444 14.6103C19.6542 14.6089 19.6663 14.6074 19.6807 14.6056C19.7094 14.6022 19.747 14.5983 19.7928 14.5948C19.8841 14.5877 20.0088 14.582 20.1598 14.5846C20.4606 14.59 20.874 14.6289 21.3407 14.7621C22.2929 15.0337 23.4288 15.689 24.2592 17.1422L22.733 18.0143C22.1571 17.0066 21.4239 16.6137 20.8585 16.4524C20.5665 16.3691 20.3089 16.3454 20.1286 16.3422C20.039 16.3406 19.9704 16.3441 19.9288 16.3473C19.908 16.3489 19.8942 16.3505 19.888 16.3512C19.8849 16.3516 19.8838 16.3517 19.8847 16.3516L19.888 16.3512L19.8902 16.3508L19.8926 16.3504ZM40.377 14.6134C40.3775 14.6135 40.3779 14.6136 40.2422 15.4819C40.1064 16.3503 40.1069 16.3503 40.1074 16.3504L40.1098 16.3508L40.1125 16.3512L40.1153 16.3516C40.1162 16.3517 40.1156 16.3516 40.1125 16.3512C40.1063 16.3505 40.092 16.3489 40.0712 16.3473C40.0296 16.3441 39.961 16.3406 39.8714 16.3422C39.6911 16.3454 39.4335 16.3691 39.1415 16.4524C38.5761 16.6137 37.8429 17.0066 37.267 18.0143L35.7408 17.1422C36.5712 15.689 37.7071 15.0337 38.6593 14.7621C39.1261 14.6289 39.5394 14.59 39.8402 14.5846C39.9912 14.582 40.1159 14.5877 40.2072 14.5948C40.253 14.5983 40.2906 14.6022 40.3193 14.6056C40.3337 14.6074 40.3458 14.6089 40.3556 14.6103C40.3605 14.611 40.3648 14.6116 40.3685 14.6121L40.3737 14.6129L40.3759 14.6132L40.377 14.6134ZM49.6289 20.8595V22.6173H47.8711V20.8595H49.6289ZM18.5654 24.3698C18.5658 24.3695 18.5663 24.3692 18.071 23.6431C17.5758 22.917 17.5762 22.9167 17.5767 22.9164L17.5777 22.9157L17.5799 22.9142L17.5852 22.9106C17.5891 22.908 17.5938 22.9049 17.5992 22.9014C17.6101 22.8943 17.6239 22.8854 17.6407 22.875C17.6741 22.8542 17.7193 22.8272 17.7752 22.7961C17.8866 22.7341 18.0429 22.6547 18.2361 22.5762C18.6187 22.4206 19.1697 22.2587 19.8167 22.2586C20.4741 22.2586 21.2141 22.4264 21.9459 22.9091C22.6717 23.388 23.3439 24.1462 23.9238 25.2577L22.3653 26.0708C21.8905 25.1607 21.4011 24.6556 20.9779 24.3764C20.5606 24.1012 20.1641 24.0164 19.8168 24.0164C19.4591 24.0165 19.1372 24.1073 18.8981 24.2045C18.7805 24.2524 18.6887 24.2994 18.6298 24.3321C18.6006 24.3484 18.58 24.3609 18.569 24.3677C18.5635 24.3711 18.5604 24.3731 18.5599 24.3734C18.5601 24.3733 18.5606 24.373 18.5611 24.3726L18.5632 24.3713L18.5654 24.3698ZM42.4233 22.9164C42.4238 22.9167 42.4242 22.917 41.929 23.6431C41.4337 24.3692 41.4342 24.3695 41.4346 24.3698L41.4368 24.3713L41.4389 24.3726C41.4399 24.3734 41.4403 24.3736 41.4401 24.3734C41.4396 24.3731 41.4365 24.3711 41.431 24.3677C41.42 24.3609 41.3994 24.3484 41.3702 24.3321C41.3113 24.2994 41.2195 24.2524 41.1019 24.2045C40.8628 24.1073 40.5409 24.0165 40.1832 24.0164C39.8359 24.0164 39.4394 24.1012 39.0221 24.3764C38.5989 24.6556 38.1095 25.1607 37.6347 26.0708L36.0762 25.2577C36.6561 24.1462 37.3283 23.388 38.0541 22.9091C38.7859 22.4264 39.5259 22.2586 40.1833 22.2586C40.8303 22.2587 41.3813 22.4206 41.7639 22.5762C41.9571 22.6547 42.1134 22.7341 42.2248 22.7961C42.2807 22.8272 42.3259 22.8542 42.3593 22.875C42.3761 22.8854 42.3899 22.8943 42.4008 22.9014C42.4041 22.9036 42.4072 22.9056 42.41 22.9074C42.4117 22.9086 42.4133 22.9096 42.4148 22.9106L42.4201 22.9142L42.4223 22.9157L42.4233 22.9164ZM49.6289 24.4923V26.2502H47.8711V24.4923H49.6289ZM21.5686 36.2203C21.5681 36.2203 21.5676 36.2203 21.6117 35.3425C21.6559 34.4647 21.6554 34.4647 21.6549 34.4647L21.6526 34.4645H21.6505C21.6494 34.4644 21.6491 34.4644 21.6495 34.4644C21.6502 34.4644 21.6538 34.4645 21.66 34.4646C21.6723 34.4648 21.6949 34.4648 21.726 34.4639C21.7887 34.462 21.8838 34.4562 21.9992 34.4402C22.2354 34.4073 22.5265 34.3355 22.7958 34.1903C23.0565 34.0496 23.2936 33.8429 23.4583 33.5228C23.6246 33.1995 23.7514 32.6936 23.6758 31.8999L25.4257 31.7332C25.5259 32.7852 25.3733 33.6429 25.0214 34.3269C24.668 35.0139 24.1484 35.4579 23.6304 35.7373C23.121 36.0121 22.6114 36.1297 22.2415 36.1812C22.0539 36.2073 21.8947 36.2174 21.7788 36.2209C21.7207 36.2227 21.6729 36.2228 21.6372 36.2223C21.6194 36.2221 21.6045 36.2217 21.5928 36.2213C21.587 36.2211 21.5819 36.2209 21.5777 36.2208L21.572 36.2205L21.5696 36.2204L21.5686 36.2203ZM38.3451 34.4647C38.3446 34.4647 38.3441 34.4647 38.3883 35.3425C38.4324 36.2203 38.4319 36.2203 38.4314 36.2203L38.4304 36.2204L38.428 36.2205L38.4223 36.2208C38.4181 36.2209 38.413 36.2211 38.4072 36.2213C38.3955 36.2217 38.3806 36.2221 38.3628 36.2223C38.3271 36.2228 38.2793 36.2227 38.2212 36.2209C38.1053 36.2174 37.9461 36.2073 37.7585 36.1812C37.3886 36.1297 36.879 36.0121 36.3696 35.7373C35.8517 35.4579 35.332 35.0139 34.9786 34.3269C34.6267 33.6429 34.4741 32.7852 34.5743 31.7332L36.3242 31.8999C36.2486 32.6936 36.3754 33.1995 36.5417 33.5228C36.7064 33.8429 36.9435 34.0496 37.2042 34.1903C37.4735 34.3355 37.7646 34.4073 38.0008 34.4402C38.1162 34.4562 38.2113 34.462 38.274 34.4639C38.3051 34.4648 38.3277 34.4648 38.34 34.4646C38.3462 34.4645 38.3498 34.4644 38.3505 34.4644C38.3509 34.4644 38.3506 34.4644 38.3495 34.4645H38.3474L38.3451 34.4647Z" fill="white"/>
</g>
</g>
</g>
</g>
<defs>
<clipPath id="clip0_1013_19068">
<rect width="60" height="60" fill="white"/>
</clipPath>
<clipPath id="clip1_1013_19068">
<rect width="60" height="60" fill="white"/>
</clipPath>
<clipPath id="clip2_1013_19068">
<rect width="60" height="60" fill="white"/>
</clipPath>
</defs>
</svg>
