
<svg width="8" height="10" viewBox="0 0 8 10" fill="none" xmlns="http://www.w3.org/2000/svg">
	<path d="M7.98438 7.36315L7.625 9.18441C7.55208 9.46091 7.39062 9.60517 7.14062 9.61719C5.81771 9.60517 4.61979 9.22649 3.54688 8.48115C2.47396 7.74784 1.61979 6.76207 0.984375 5.52385C0.338542 4.28563 0.0104167 2.90316 0 1.37642C0.0104167 1.0879 0.135417 0.901569 0.375 0.817419L1.95312 0.402676C2.20312 0.354589 2.39062 0.462784 2.51562 0.727258L3.23438 2.67475C3.31771 2.93922 3.27083 3.16162 3.09375 3.34194L2.26562 4.11733C2.52604 4.74245 2.86979 5.30145 3.29688 5.79434C3.72396 6.28722 4.20833 6.68994 4.75 7.0025L5.4375 6.02876C5.59375 5.82439 5.78646 5.77029 6.01562 5.86647L7.70312 6.69595C7.92188 6.85223 8.01562 7.07463 7.98438 7.36315Z" fill="#0E0D21"/>
	</svg>
	