<svg width="60" height="60" viewBox="0 0 60 60" fill="none" xmlns="http://www.w3.org/2000/svg">
	<rect x="6" y="6" width="48" height="48" rx="24" fill="white" />
	<g clip-path="url(#clip0_1013_18914)">
		<path d="M37.9688 34.0938L37.25 37.25C37.1042 37.7292 36.7812 37.9792 36.2812 38C33.6354 37.9792 31.2396 37.3229 29.0938 36.0312C26.9479 34.7604 25.2396 33.0521 23.9688 30.9062C22.6771 28.7604 22.0208 26.3646 22 23.7188C22.0208 23.2188 22.2708 22.8958 22.75 22.75L25.9062 22.0312C26.4062 21.9479 26.7812 22.1354 27.0312 22.5938L28.4688 25.9688C28.6354 26.4271 28.5417 26.8125 28.1875 27.125L26.5312 28.4688C27.0521 29.5521 27.7396 30.5208 28.5938 31.375C29.4479 32.2292 30.4167 32.9271 31.5 33.4688L32.875 31.7812C33.1875 31.4271 33.5729 31.3333 34.0312 31.5L37.4062 32.9375C37.8438 33.2083 38.0312 33.5938 37.9688 34.0938Z" fill="#0A1220" />
	</g>
	<rect x="0.5" y="0.5" width="59" height="59" rx="29.5" stroke="white" />
	<defs>
		<clipPath id="clip0_1013_18914">
			<rect width="16" height="16" fill="white" transform="matrix(1 0 0 -1 22 38)" />
		</clipPath>
	</defs>
</svg>
