<svg width="17" height="17" viewBox="0 0 19 19" fill="none" xmlns="http://www.w3.org/2000/svg">
<path d="M18.8763 0.136724C18.7599 0.020324 18.6047 0.000923943 18.4495 0.0591242L0.232801 7.48935C0.0970004 7.56695 0 7.70276 0 7.87736C0 8.05196 0.1164 8.18776 0.271601 8.22656L6.34383 10.186L1.74601 14.7838C1.51321 15.0166 1.39681 15.3076 1.39681 15.618C1.39681 15.9284 1.51321 16.2194 1.74601 16.4522L2.56081 17.267C2.79361 17.4998 3.08461 17.6162 3.39501 17.6162C3.70541 17.6162 3.99642 17.4998 4.22922 17.267L8.80764 12.6886L10.7476 18.7026C10.8058 18.8578 10.9416 18.9742 11.0968 18.9742H11.1162C11.2714 18.9742 11.4072 18.8772 11.4654 18.7414L18.9733 0.582926C19.0315 0.408326 18.9927 0.253125 18.8763 0.136724ZM11.1356 17.4416L9.33144 11.835C9.29264 11.6992 9.17624 11.6022 9.05984 11.5828C9.02104 11.5828 9.00164 11.5634 8.96284 11.5634C8.86584 11.5634 8.76883 11.6022 8.69123 11.6798L3.66661 16.7044C3.51141 16.8596 3.25921 16.8596 3.10401 16.7044L2.28921 15.8896C2.21161 15.812 2.17281 15.715 2.17281 15.618C2.17281 15.521 2.21161 15.424 2.28921 15.3464L7.33323 10.3024C7.43023 10.2054 7.46903 10.0696 7.43023 9.93376C7.39143 9.79796 7.29443 9.70096 7.17803 9.66216L1.51321 7.83856L17.8869 1.14553L11.1356 17.4416Z" fill="black"/>
</svg>
