<svg width="35" height="49" viewBox="0 0 35 49" fill="none" xmlns="http://www.w3.org/2000/svg">
<path d="M11.8012 19.9416C11.3671 18.9409 11.1725 17.7737 11.5041 16.7134C11.8357 15.6294 12.5784 14.7598 13.3211 13.9497C15.3889 11.7934 17.9371 10.2091 19.9595 8.01743C21.0792 6.81416 22.0046 5.37277 22.3244 3.71682C22.5873 2.50187 22.4617 1.25113 22.2219 0.0478516C23.2959 1.32252 23.6501 3.14509 23.3415 4.78908C23.0103 6.63538 22.0273 8.26731 20.8734 9.67291C19.948 10.8048 18.8852 11.8054 17.7771 12.7347C16.4859 13.8188 15.2178 14.9861 14.4066 16.5109C13.7207 17.7496 13.5607 19.2744 14.0294 20.6206C14.795 22.9314 16.5773 24.6469 17.5487 26.8267C16.4744 25.8379 15.4234 24.8135 14.4404 23.7297C13.4125 22.586 12.4411 21.3712 11.8012 19.9416ZM17.6284 18.1308C17.4343 20.0249 18.3824 21.8117 19.5138 23.2175C20.0621 23.8487 20.5306 24.6231 20.5533 25.5047C20.5763 26.6836 19.9368 27.7799 19.1135 28.5539C19.308 28.5303 19.4451 28.3515 19.6051 28.2563C20.8391 27.4343 22.0272 26.3979 22.6327 24.9806C23.0327 24.0156 22.9414 22.8719 22.4159 21.9783C21.7987 20.9301 20.9876 20.0009 20.5078 18.8574C20.2446 18.2142 20.1533 17.4638 20.3705 16.7848C20.6564 15.8677 21.2732 15.1171 21.9246 14.4619C23.7183 12.6872 25.8892 11.424 27.9689 10.0424C25.3408 10.8285 22.7472 11.9126 20.5306 13.6163C19.1251 14.7122 17.8228 16.2368 17.6284 18.1308ZM30.1173 27.089C31.3628 27.1605 32.585 28.1134 32.8137 29.4238C33.0309 30.5555 32.5055 31.6751 31.8311 32.5327C30.7226 33.9145 29.2257 34.9034 27.7179 35.7492C27.569 35.8441 27.4434 35.9633 27.3292 36.0945C29.3174 35.5703 31.3052 34.7844 32.9166 33.4382C33.8074 32.6639 34.5959 31.6391 34.7675 30.4122C34.9275 29.3521 34.5049 28.2562 33.7506 27.5534C32.8363 26.6835 31.5456 26.3621 30.3341 26.529C29.6371 26.6242 28.8717 26.7791 28.3919 27.3866C28.9634 27.2678 29.5228 27.0293 30.1173 27.089ZM5.31131 30.4955C6.80788 30.9125 8.35052 31.0317 9.8816 31.139C11.2527 31.2342 12.624 31.2583 14.0067 31.2462C17.5714 31.187 21.1591 30.9365 24.6554 30.1266C24.9866 30.0433 25.3524 29.9837 25.6498 29.7693C26.2325 29.376 26.8719 29.0662 27.5006 28.7565C24.6554 29.233 21.7989 29.6384 18.9196 29.8288C16.006 30.0194 13.0693 30.1385 10.1445 29.9361C9.31044 29.8529 8.45333 29.8049 7.67646 29.4712C7.49341 29.3879 7.24198 29.2215 7.33332 28.971C7.50489 28.6493 7.84766 28.4946 8.14471 28.3278C9.40178 27.7084 10.7728 27.3631 12.1097 26.958C9.81285 26.9221 7.52756 27.5295 5.4256 28.4707C4.95697 28.7091 4.43144 28.8996 4.05452 29.3047C3.90563 29.4711 3.90563 29.7575 4.07719 29.9001C4.42006 30.2218 4.87684 30.3647 5.31131 30.4955ZM23.8216 33.7717C21.8219 34.141 19.8106 34.4868 17.7882 34.5937C15.5715 34.7486 13.3549 34.6174 11.1613 34.3792C10.7386 34.3196 10.3157 34.2483 9.93879 34.0459C9.74455 33.9267 9.5504 33.7362 9.56187 33.4857C9.58455 33.0927 9.90428 32.8189 10.133 32.5328C9.42482 32.795 8.71624 33.0687 8.12213 33.5576C7.87042 33.7601 7.61927 34.0815 7.68766 34.4389C7.79093 34.8558 8.17932 35.1059 8.52209 35.2964C9.36736 35.7493 10.3158 35.9515 11.2416 36.1303C13.5834 36.5237 15.9716 36.5356 18.3253 36.3684C20.8167 36.166 23.2959 35.7374 25.7067 34.9986C25.0212 34.6773 24.3698 34.3076 23.8216 33.7717ZM11.2642 37.8937C10.6243 38.0842 9.97294 38.3107 9.44749 38.751C9.18422 38.9654 8.97887 39.3351 9.10473 39.6805C9.26473 40.1211 9.66469 40.3837 10.0413 40.6093C11.0243 41.1696 12.1325 41.4313 13.2179 41.6341C15.6748 42.0388 18.1997 41.9794 20.645 41.5269C22.0959 41.2409 23.5471 40.8359 24.8953 40.2048C24.0155 39.8235 23.1587 39.3945 22.3361 38.8943C20.9079 39.1564 19.4679 39.4305 18.0054 39.5258C16.0747 39.6806 14.1206 39.5138 12.1896 39.2637C11.7324 39.1565 11.1613 39.1089 10.8527 38.6918C10.6931 38.346 11.0585 38.0959 11.2642 37.8937ZM26.8951 45.553C28.4945 45.208 30.1058 44.8142 31.5682 44.0403C32.025 43.7659 32.585 43.4681 32.7339 42.8966C32.8137 42.3487 32.2653 42.0627 31.8768 41.8362C32.1166 42.1227 32.2766 42.5394 32.0365 42.8727C31.6365 43.4329 30.9514 43.647 30.3456 43.8615C28.4491 44.4214 26.4835 44.6478 24.5298 44.8742C19.3538 45.3625 14.1434 45.4818 8.96767 45.0291C7.23088 44.8383 5.45947 44.6358 3.80281 43.9927C3.54027 43.8735 3.14032 43.7542 3.14032 43.3848C3.24285 43.0638 3.54027 42.8846 3.80281 42.7297C4.99112 42.0986 6.31658 41.7529 7.64194 41.6696C7.25382 41.4312 6.79668 41.4076 6.35109 41.4195C5.24256 41.4552 4.15715 41.7529 3.10617 42.1227C2.20344 42.4676 1.27794 42.8491 0.557885 43.5401C0.272305 43.8019 0.00976574 44.3021 0.306453 44.6598C0.763602 45.1721 1.47218 45.3029 2.10016 45.4577C5.61947 46.0893 9.18422 46.4462 12.7496 46.5774C17.48 46.7207 22.2445 46.5062 26.8951 45.553ZM31.5797 46.1965C29.4315 46.9112 27.2036 47.3041 24.9867 47.6259C21.1591 48.1261 17.297 48.281 13.4463 48.1621C11.1042 48.0669 8.76196 47.9001 6.45363 47.4947C6.99064 47.876 7.65351 47.9949 8.27066 48.1738C10.8646 48.7457 13.5265 48.8529 16.1661 48.9362C20.039 49.0078 23.9126 48.8529 27.729 48.2215C29.5346 47.8884 31.3512 47.4831 32.9734 46.6015C33.8193 46.1369 34.6764 45.4219 34.8243 44.3858C33.9676 45.3385 32.7339 45.7795 31.5797 46.1965Z" fill="white"/>
</svg>
