<svg width="44" height="21" viewBox="0 0 44 21" fill="none" xmlns="http://www.w3.org/2000/svg">
<path d="M11.4477 4.50481H4.00957L0.793945 20.7873H4.61332L5.4177 16.5667H9.03645C12.4527 16.7673 16.2739 13.9529 16.2739 9.12855C16.2739 6.31418 14.6652 4.70543 11.4496 4.50481H11.4477ZM8.63332 13.5517H6.2202L7.22519 7.52168H9.83895C11.2452 7.52168 12.2521 8.12543 12.2521 9.33105C12.0514 12.7492 10.4427 13.3511 8.63332 13.5517ZM24.9158 4.50481H21.2971L22.1014 0.28418H18.2821L15.0664 16.5667H18.8858L20.6952 7.52168H23.7102C25.1183 7.52168 25.1183 8.12543 24.9158 9.13043L23.5096 16.5686H27.5296L28.9358 8.32606C29.3371 6.31606 28.1314 4.70543 24.9158 4.50481ZM38.3839 4.50481H30.9458L27.7302 20.7873H31.5496L32.3539 16.5667H35.9727C39.3908 16.7673 43.2102 13.9529 43.2102 9.12855C43.2102 6.31418 41.5996 4.70543 38.3839 4.50481ZM35.5696 13.5517H33.1564L34.1614 7.52168H36.7752C38.1833 7.52168 39.1883 8.12543 39.1883 9.33105C38.9877 12.7492 37.3789 13.3511 35.5696 13.5517Z" fill="white"/>
</svg>
