<svg width="34" height="31" viewBox="0 0 34 31" fill="none" xmlns="http://www.w3.org/2000/svg">
<path fill-rule="evenodd" clip-rule="evenodd" d="M20.9474 0.650391C35.8921 10.5908 31.059 21.5517 31.059 21.5517C31.059 21.5517 35.309 26.2455 33.5903 30.3504C33.5903 30.3504 31.8376 27.4758 28.8983 27.4758C26.0644 27.4758 24.4001 30.3504 18.6983 30.3504C6.00269 30.3504 0 19.9759 0 19.9759C11.4376 27.336 19.2474 22.1238 19.2474 22.1238C14.0947 19.1976 3.13308 5.204 3.13308 5.204C12.6786 13.1527 16.8045 15.249 16.8045 15.249C14.3429 13.2573 7.43579 3.525 7.43579 3.525C12.9608 8.99817 23.9394 16.634 23.9394 16.634C27.0572 8.18316 20.9474 0.650391 20.9474 0.650391Z" fill="white"/>
</svg>
