<svg width="36" height="35" viewBox="0 0 36 35" fill="none" xmlns="http://www.w3.org/2000/svg">
<g clip-path="url(#clip0_1104_12646)">
<path fill-rule="evenodd" clip-rule="evenodd" d="M22.9392 32.3015C22.0716 32.3015 21.3696 31.6156 21.3696 30.7677C21.3696 29.9198 22.0716 29.2356 22.9392 29.2356C23.8068 29.2356 24.5088 29.9198 24.5088 30.7677C24.5088 31.6156 23.8068 32.3015 22.9392 32.3015ZM18.1296 35C27.27 35 26.6994 31.1266 26.6994 31.1266L26.6886 27.1139H17.9676V25.9091H30.1518C30.1518 25.9091 36 26.5582 36 17.5461C36 8.53403 30.897 8.85168 30.897 8.85168H27.8496V13.0353C27.8496 13.0353 28.0134 18.0221 22.8276 18.0221H14.1768C14.1768 18.0221 9.31679 17.9471 9.31679 22.6141V30.3293C9.31679 30.3293 8.57878 35 18.1296 35ZM13.0626 2.69849C13.9302 2.69849 14.6304 3.38439 14.6304 4.2323C14.6304 5.08021 13.9302 5.7644 13.0626 5.7644C12.195 5.7644 11.493 5.08021 11.493 4.2323C11.493 3.38439 12.195 2.69849 13.0626 2.69849ZM17.8704 0C8.73182 0 9.3024 3.87341 9.3024 3.87341L9.31322 7.88611H18.0342V9.09094H5.84819C5.84819 9.09094 0 8.44176 0 17.4539C0 26.466 5.1048 26.1483 5.1048 26.1483H8.15043V21.9647C8.15043 21.9647 7.9866 16.9779 13.1742 16.9779H21.8232C21.8232 16.9779 26.6832 17.0529 26.6832 12.3859V4.67065C26.6832 4.67065 27.4212 0 17.8704 0Z" fill="white"/>
</g>
<defs>
<clipPath id="clip0_1104_12646">
<rect width="36" height="35" fill="white"/>
</clipPath>
</defs>
</svg>
