<svg width="41" height="34" viewBox="0 0 41 34" fill="none" xmlns="http://www.w3.org/2000/svg">
<path d="M20.5 13.6922C21.1919 13.6923 21.8683 13.8833 22.444 14.2414C23.0198 14.5995 23.4692 15.1085 23.7356 15.7044C24.0021 16.3004 24.0736 16.9566 23.9414 17.5904C23.8091 18.2242 23.4789 18.8074 22.9922 19.2664C22.5056 19.7254 21.8844 20.0398 21.2067 20.17C20.5291 20.3002 19.8253 20.2404 19.184 19.9981C18.5427 19.7557 17.9925 19.3417 17.6028 18.8082C17.2131 18.2747 17.0012 17.6454 16.9937 16.9997C16.9913 16.5677 17.08 16.1394 17.2549 15.7394C17.4298 15.3393 17.6873 14.9753 18.0129 14.6682C18.3385 14.3611 18.7257 14.1168 19.1525 13.9494C19.5792 13.7819 20.0371 13.6945 20.5 13.6922ZM11.8187 30.9997C13 31.6647 15.5687 30.6497 18.5687 28.0247C17.5661 26.9613 16.6211 25.8515 15.7375 24.6997C14.2252 24.5416 12.723 24.308 11.2375 23.9997C10.2812 27.7447 10.6375 30.3172 11.8187 30.9997ZM13.15 20.9547L12.6062 20.0622C12.3943 20.5538 12.2127 21.0563 12.0625 21.5672C12.5687 21.6722 13.1312 21.7597 13.7125 21.8472L13.15 20.9547ZM25.4125 19.6247L26.9312 16.9997L25.4125 14.3747C24.85 13.4472 24.25 12.6247 23.7062 11.8022C22.6937 11.7497 21.625 11.7497 20.5 11.7497C19.375 11.7497 18.3062 11.7497 17.2937 11.7497C16.75 12.5722 16.15 13.3947 15.5875 14.3222L14.0687 16.9997L15.5875 19.6247C16.15 20.5522 16.75 21.3747 17.2937 22.1972C18.3062 22.1972 19.375 22.1972 20.5 22.1972C21.625 22.1972 22.6937 22.1972 23.7062 22.1972C24.25 21.3747 24.85 20.5522 25.4125 19.6247ZM20.5 7.86473C20.1437 8.24973 19.7687 8.65223 19.3937 9.12473H21.6062C21.2312 8.65223 20.8562 8.24973 20.5 7.86473ZM20.5 26.1347C20.8562 25.7497 21.2312 25.3472 21.6062 24.8747H19.3937C19.7687 25.3472 20.1437 25.7497 20.5 26.1347ZM29.1625 2.99973C28 2.33473 25.4125 3.34973 22.4312 5.97473C23.4339 7.03821 24.3789 8.14793 25.2625 9.29973C26.7735 9.43469 28.2756 9.64499 29.7625 9.92973C30.7187 6.18473 30.3625 3.61223 29.1625 2.92973M27.85 12.9747L28.3937 13.8672C28.6057 13.3757 28.7873 12.8732 28.9375 12.3622C28.4312 12.2572 27.8687 12.1697 27.2875 12.0822L27.85 12.9747ZM30.5688 0.724729C33.325 2.19473 33.625 6.06223 32.4437 10.5772C37.2062 11.8897 40.6375 14.0772 40.6375 17.0172C40.6375 19.9572 37.2062 22.1447 32.4437 23.4572C33.6062 27.9722 33.3063 31.8397 30.5688 33.3097C27.8313 34.7797 24.1 33.0997 20.5 29.8972C16.9 33.0997 13.1687 34.7797 10.4125 33.3097C7.65625 31.8397 7.375 28.0597 8.5375 23.4572C3.775 22.1447 0.34375 19.9572 0.34375 17.0172C0.34375 14.0772 3.775 11.8722 8.5375 10.5597C7.375 6.04473 7.675 2.17723 10.4125 0.707229C13.15 -0.76277 16.9 0.917229 20.5 4.11973C24.1 0.917229 27.8313 -0.76277 30.5688 0.707229M30.025 16.9997C30.6762 18.288 31.252 19.6083 31.75 20.9547C35.6875 19.8522 37.9 18.2772 37.9 16.9997C37.9 15.7222 35.6312 14.1472 31.75 13.0447C31.252 14.3912 30.6762 15.7115 30.025 16.9997ZM10.975 16.9997C10.3238 15.7115 9.74796 14.3912 9.25 13.0447C5.3125 14.1472 3.1 15.7222 3.1 16.9997C3.1 18.2772 5.36875 19.8522 9.25 20.9547C9.74796 19.6083 10.3238 18.288 10.975 16.9997ZM27.85 20.9547L27.2875 21.8472C27.8687 21.8472 28.4312 21.6722 28.9375 21.5672C28.7873 21.0563 28.6057 20.5538 28.3937 20.0622L27.85 20.9547ZM22.375 28.0247C25.3562 30.6497 28 31.6647 29.1062 30.9997C30.2125 30.3347 30.6625 27.8147 29.7062 23.9997C28.2194 24.2845 26.7172 24.4948 25.2062 24.6297C24.3247 25.8054 23.3797 26.9385 22.375 28.0247ZM13.15 13.0447L13.7125 12.1522C13.1312 12.1522 12.5687 12.3272 12.0625 12.4322C12.2127 12.9432 12.3943 13.4457 12.6062 13.9372L13.15 13.0447ZM18.625 5.97473C15.5875 3.34973 13 2.33473 11.8187 2.99973C10.6375 3.66473 10.2812 6.18473 11.2375 9.99973C12.7244 9.71499 14.2265 9.50469 15.7375 9.36973C16.6373 8.19284 17.6011 7.05969 18.625 5.97473Z" fill="white"/>
</svg>
