<svg width="22" height="21" viewBox="0 0 22 21" fill="none" xmlns="http://www.w3.org/2000/svg">
<path d="M14.6312 6.51249C14.5383 6.41876 14.4277 6.34437 14.3058 6.2936C14.1839 6.24283 14.0532 6.21669 13.9212 6.21669C13.7892 6.21669 13.6585 6.24283 13.5366 6.2936C13.4148 6.34437 13.3042 6.41876 13.2112 6.51249L10.9212 8.81249L8.63122 6.51249C8.44292 6.32419 8.18752 6.2184 7.92122 6.2184C7.65492 6.2184 7.39953 6.32419 7.21122 6.51249C7.02292 6.7008 6.91713 6.95619 6.91713 7.22249C6.91713 7.48879 7.02292 7.74419 7.21122 7.93249L9.51122 10.2225L7.21122 12.5125C7.11749 12.6055 7.0431 12.7161 6.99233 12.8379C6.94156 12.9598 6.91542 13.0905 6.91542 13.2225C6.91542 13.3545 6.94156 13.4852 6.99233 13.6071C7.0431 13.7289 7.11749 13.8395 7.21122 13.9325C7.30418 14.0262 7.41479 14.1006 7.53664 14.1514C7.6585 14.2022 7.78921 14.2283 7.92122 14.2283C8.05323 14.2283 8.18394 14.2022 8.3058 14.1514C8.42766 14.1006 8.53826 14.0262 8.63122 13.9325L10.9212 11.6325L13.2112 13.9325C13.3042 14.0262 13.4148 14.1006 13.5366 14.1514C13.6585 14.2022 13.7892 14.2283 13.9212 14.2283C14.0532 14.2283 14.1839 14.2022 14.3058 14.1514C14.4277 14.1006 14.5383 14.0262 14.6312 13.9325C14.7249 13.8395 14.7993 13.7289 14.8501 13.6071C14.9009 13.4852 14.927 13.3545 14.927 13.2225C14.927 13.0905 14.9009 12.9598 14.8501 12.8379C14.7993 12.7161 14.7249 12.6055 14.6312 12.5125L12.3312 10.2225L14.6312 7.93249C14.7249 7.83953 14.7993 7.72893 14.8501 7.60707C14.9009 7.48521 14.927 7.3545 14.927 7.22249C14.927 7.09048 14.9009 6.95977 14.8501 6.83791C14.7993 6.71606 14.7249 6.60545 14.6312 6.51249ZM17.9912 3.15249C17.0688 2.19739 15.9653 1.43557 14.7453 0.911478C13.5252 0.387388 12.213 0.111525 10.8852 0.0999869C9.55744 0.0884488 8.24064 0.341466 7.01168 0.844275C5.78272 1.34708 4.6662 2.08961 3.72727 3.02854C2.78835 3.96747 2.04581 5.08399 1.54301 6.31295C1.0402 7.54191 0.787179 8.85871 0.798717 10.1865C0.810256 11.5143 1.08612 12.8265 1.61021 14.0465C2.1343 15.2666 2.89612 16.37 3.85122 17.2925C4.77369 18.2476 5.87714 19.0094 7.09718 19.5335C8.31722 20.0576 9.62942 20.3335 10.9572 20.345C12.285 20.3565 13.6018 20.1035 14.8308 19.6007C16.0597 19.0979 17.1762 18.3554 18.1152 17.4164C19.0541 16.4775 19.7966 15.361 20.2994 14.132C20.8022 12.9031 21.0553 11.5863 21.0437 10.2585C21.0322 8.93069 20.7563 7.61849 20.2322 6.39845C19.7081 5.17841 18.9463 4.07496 17.9912 3.15249ZM16.5812 15.8825C15.2733 17.1919 13.5518 18.0073 11.71 18.1898C9.86827 18.3723 8.02023 17.9105 6.48074 16.8833C4.94126 15.856 3.80558 14.3267 3.26719 12.556C2.72881 10.7853 2.82103 8.88263 3.52814 7.17228C4.23524 5.46192 5.5135 4.04964 7.14511 3.17605C8.77673 2.30247 10.6608 2.02162 12.4762 2.38136C14.2917 2.74111 15.9263 3.71918 17.1015 5.14895C18.2767 6.57872 18.9198 8.37173 18.9212 10.2225C18.9248 11.2738 18.7198 12.3153 18.3182 13.2869C17.9165 14.2584 17.3261 15.1406 16.5812 15.8825Z" fill="#A9ADB3"/>
</svg>
