<svg width="28" height="28" viewBox="0 0 28 28" fill="none" xmlns="http://www.w3.org/2000/svg">
	<ellipse cx="13.927" cy="14.0965" rx="13.927" ry="13.1443" fill="#E5E7EB" />
	<path d="M14.2444 8.17139C17.8863 8.17139 20.8386 10.9577 20.8386 14.395C20.8386 17.8323 17.8863 20.6187 14.2444 20.6187C13.079 20.6204 11.9342 20.3294 10.9275 19.7754L7.65279 20.6187L8.54433 17.5268C7.95685 16.5763 7.64821 15.4954 7.65016 14.395C7.65016 10.9577 10.6024 8.17139 14.2444 8.17139ZM11.9971 11.4699L11.8652 11.4749C11.7798 11.4798 11.6963 11.501 11.6199 11.5371C11.5483 11.5754 11.483 11.6232 11.426 11.679C11.3469 11.7494 11.302 11.8103 11.2539 11.8695C11.01 12.1688 10.8787 12.5362 10.8807 12.9138C10.882 13.2188 10.9664 13.5156 11.0983 13.7932C11.368 14.3546 11.8118 14.9489 12.3973 15.4997C12.5384 15.6323 12.6769 15.7655 12.8259 15.8893C13.5535 16.4939 14.4206 16.9299 15.3581 17.1627L15.7327 17.2168C15.8547 17.2231 15.9767 17.2143 16.0993 17.2087C16.2914 17.1994 16.4789 17.1503 16.6486 17.065C16.735 17.023 16.8192 16.9773 16.9012 16.928C16.9012 16.928 16.9295 16.9106 16.9836 16.872C17.0726 16.8098 17.1274 16.7656 17.2012 16.6928C17.2559 16.6393 17.3034 16.5764 17.3397 16.5048C17.3911 16.4034 17.4426 16.2098 17.4637 16.0486C17.4795 15.9254 17.4749 15.8582 17.4729 15.8165C17.4702 15.7499 17.4116 15.6808 17.3476 15.6516L16.9638 15.4891C16.9638 15.4891 16.3901 15.2533 16.0393 15.1027C16.0026 15.0875 15.9633 15.0789 15.9232 15.0771C15.8781 15.0728 15.8325 15.0776 15.7896 15.0912C15.7466 15.1048 15.7072 15.127 15.674 15.1562C15.6707 15.1549 15.6265 15.1904 15.1497 15.7356C15.1224 15.7703 15.0847 15.7965 15.0415 15.8109C14.9983 15.8253 14.9515 15.8273 14.9071 15.8165C14.8641 15.8056 14.822 15.7919 14.7811 15.7754C14.6994 15.7431 14.671 15.7306 14.615 15.7082C14.2365 15.5523 13.8861 15.3417 13.5764 15.084C13.4933 15.0155 13.4161 14.9408 13.337 14.8686C13.0776 14.6342 12.8515 14.3689 12.6644 14.0795L12.6255 14.0204C12.5975 13.9806 12.5749 13.9378 12.5582 13.8928C12.5332 13.8013 12.5984 13.7279 12.5984 13.7279C12.5984 13.7279 12.7587 13.5623 12.8332 13.4727C12.9057 13.3856 12.9671 13.3009 13.0066 13.2405C13.0844 13.1223 13.1088 13.0009 13.068 12.907C12.8833 12.4813 12.6921 12.0574 12.4956 11.6367C12.4567 11.5533 12.3413 11.4936 12.2364 11.4817C12.2008 11.478 12.1652 11.4743 12.1296 11.4718C12.041 11.4676 11.9523 11.4685 11.8639 11.4743L11.9971 11.4699Z" fill="#2B282F" />
</svg>
