<svg width="16" height="12" viewBox="0 0 16 12" fill="none" xmlns="http://www.w3.org/2000/svg">
    <path d="M5.11663 11.2963C3.31688 11.2963 1.64075 10.8339 0.229492 10.0384C1.06415 10.1273 1.91062 10.0709 2.72039 9.87258C3.53016 9.67426 4.28733 9.33786 4.94852 8.88265C4.28303 8.87197 3.63807 8.67894 3.10412 8.33066C2.57017 7.98238 2.17404 7.49632 1.97132 6.9407C2.16626 6.97413 2.36616 6.99146 2.57029 6.99146C2.8613 6.99146 3.14383 6.95679 3.41295 6.89489C2.69152 6.76684 2.04276 6.4242 1.57653 5.925C1.11031 5.42579 0.855264 4.80071 0.854599 4.1556V4.11908C1.2966 4.33489 1.79121 4.45462 2.29694 4.46822C1.85994 4.21305 1.50176 3.8671 1.25429 3.4612C1.00683 3.0553 0.877769 2.60205 0.878615 2.14184C0.878615 1.63174 1.03754 1.15013 1.31089 0.73784C2.11137 1.60102 3.11009 2.30697 4.24216 2.80983C5.37423 3.31269 6.61434 3.60121 7.88193 3.65665C7.72311 3.0576 7.79406 2.42937 8.0838 1.86923C8.37354 1.3091 8.8659 0.848298 9.48465 0.558191C10.1034 0.268084 10.814 0.16485 11.5065 0.264473C12.1989 0.364096 12.8346 0.66102 13.3151 1.10927C14.0287 0.98547 14.7132 0.756475 15.3394 0.43203C15.1012 1.07893 14.6036 1.62829 13.9388 1.97841C14.5705 1.91231 15.1876 1.76418 15.7696 1.53889C15.3404 2.09925 14.802 2.58897 14.1789 2.9856C14.1846 3.10508 14.1888 3.22579 14.1888 3.34651C14.1881 7.03727 10.9806 11.2969 5.11663 11.2963Z" fill="#fff" />
</svg>
