<svg width="20" height="12" viewBox="0 0 12 10" fill="none" xmlns="http://www.w3.org/2000/svg">
	<path fill-rule="evenodd" clip-rule="evenodd" d="M6.02663 0.916992C6.35804 0.91757 9.6937 0.929134 10.5576 1.1604C11.0599 1.29371 11.4548 1.68784 11.5896 2.1921C11.8236 3.06568 11.833 4.84735 11.8334 4.98848V5.00634C11.833 5.1479 11.8236 6.93491 11.5896 7.80849C11.4548 8.31275 11.0599 8.70688 10.5576 8.84019C9.66642 9.07876 6.1449 9.08353 6.00439 9.08363H5.99574C5.85521 9.08353 2.33312 9.07876 1.44132 8.84019C0.939649 8.70688 0.544149 8.31275 0.409982 7.80849C0.176462 6.93491 0.167122 5.1479 0.166748 5.00634V4.98848C0.167122 4.84735 0.176462 3.06568 0.409982 2.1921C0.544149 1.68784 0.939649 1.29371 1.44132 1.1604C2.30582 0.929134 5.64204 0.91757 5.9735 0.916992H6.02663ZM4.80657 3.27596V6.72463L7.85623 4.9974L4.80657 3.27596Z" fill="#0E0D21" />
</svg>
